<svg xmlns="http://www.w3.org/2000/svg" width="581.122" height="488.327" viewBox="0 0 581.122 488.327">
  <g id="Layer_x0020_1" transform="translate(0.01 0)">
    <circle id="Ellipse_79" data-name="Ellipse 79" cx="99.665" cy="99.665" r="99.665" transform="translate(1.29 250.491)" fill="none" stroke="#e6e6e6" stroke-width="2.6" stroke-dasharray="12.999 7.8"/>
    <circle id="Ellipse_80" data-name="Ellipse 80" cx="175.748" cy="175.748" r="175.748" transform="translate(228.316 1.3)" fill="none" stroke="#e6e6e6" stroke-width="2.6" stroke-dasharray="12.999 7.8"/>
    <g id="_2121871582672" transform="translate(123.687 71.06)">
      <path id="Path_5228" data-name="Path 5228" d="M413.3,480.127V151.692L324.472,62.86H109.3V480.127l25.327-23.854,25.338,23.843,25.327-23.843,25.338,23.854,25.338-23.854L261.3,480.116l25.338-23.843,25.327,23.854L337.3,456.273l25.338,23.843,25.327-23.843Z" transform="translate(-109.3 -62.86)" fill="#f2f2f2" fill-rule="evenodd"/>
      <path id="Path_5229" data-name="Path 5229" d="M299.18,62.86l88.832,88.832H299.18Z" transform="translate(-84.008 -62.86)" fill="#dedede" fill-rule="evenodd"/>
    </g>
    <path id="Path_5230" data-name="Path 5230" d="M159.611,280.231V266.564l31.3-44.773h18.913v43.776h8.125v14.664h-8.125V293.1H192.882V280.231H159.6Zm34.472-39.821-16.635,25.157h16.635Zm32.194,15.548q0-17.032,6.584-26.846t21.248-9.8q14.652,0,21.248,9.8,6.578,9.808,6.584,26.846,0,17.236-6.584,27.038t-21.248,9.8q-14.652,0-21.248-9.8T226.278,255.958Zm39.027,0q0-10.012-2.176-15.4-2.176-5.405-9.009-5.394t-9.009,5.394q-2.176,5.405-2.176,15.4a64.257,64.257,0,0,0,.793,11.139,14.262,14.262,0,0,0,3.218,7.128q2.431,2.72,7.184,2.72t7.185-2.72a14.262,14.262,0,0,0,3.218-7.128,64.254,64.254,0,0,0,.793-11.139Zm25.95,24.262V266.553l31.3-44.773h18.913v43.776h8.125V280.22h-8.125v12.873H324.526V280.22H291.244ZM325.727,240.4l-16.635,25.157h16.635Z" transform="translate(21.087 29.039)" fill="#243060"/>
    <circle id="Ellipse_81" data-name="Ellipse 81" cx="5.757" cy="5.757" r="5.757" transform="translate(384.867 36.724)" fill="none" stroke="#e6e6e6" stroke-width="0.97"/>
    <circle id="Ellipse_82" data-name="Ellipse 82" cx="8.193" cy="8.193" r="8.193" transform="translate(514.449 216.189)" fill="none" stroke="#e6e6e6" stroke-width="0.97"/>
    <circle id="Ellipse_83" data-name="Ellipse 83" cx="8.193" cy="8.193" r="8.193" transform="translate(69.441 170.838)" fill="none" stroke="#e6e6e6" stroke-width="0.97"/>
    <circle id="Ellipse_84" data-name="Ellipse 84" cx="4.091" cy="4.091" r="4.091" transform="translate(78.427 421.446)" fill="none" stroke="#e6e6e6" stroke-width="0.97"/>
    <path id="Path_5231" data-name="Path 5231" d="M33.088,283.23,36.85,287l.215.306L37.3,287l3.728-3.774h2.448l-5.122,5.145,5.145,5.1H41.065L37.3,289.723l-.238-.295-.215.295-3.762,3.751H30.64l5.156-5.1-5.122-5.145Z" transform="translate(3.909 37.553)" fill="#e6e6e6"/>
    <path id="Path_5232" data-name="Path 5232" d="M436.238,68.13,440,71.892l.215.317.227-.317,3.74-3.762h2.448L441.5,73.263l5.156,5.1H444.2l-3.762-3.74-.227-.295-.215.295-3.762,3.74H433.79l5.156-5.1-5.133-5.133Z" transform="translate(57.609 8.902)" fill="#e6e6e6"/>
    <path id="Path_5233" data-name="Path 5233" d="M270.826,39.75l5.836,5.847.329.487.374-.487,5.791-5.847h3.8L279,47.728l7.989,7.91h-3.8l-5.825-5.813-.374-.453-.329.453-5.836,5.813h-3.8l8-7.91-7.955-7.978Z" transform="translate(35.397 5.122)" fill="#e6e6e6"/>
  </g>
</svg>
