<svg xmlns="http://www.w3.org/2000/svg" width="24.644" height="18.495" viewBox="0 0 24.644 18.495">
  <g id="Layer_x0020_1" transform="translate(0 0)">
    <path id="Path_6471" data-name="Path 6471" d="M12.329,6.215l4.6,4.573-3.044.012v4.621H10.8V10.8H7.768Zm12.334,5.817v.741A6.157,6.157,0,0,1,18.935,18.5H5.025a5.149,5.149,0,0,1-2.763-.991A6.353,6.353,0,0,1,1.01,16.259a5.171,5.171,0,0,1-.991-3.533A5.384,5.384,0,0,1,3.87,7.96a5.206,5.206,0,0,1,.385-2.31A5.583,5.583,0,0,1,6.8,2.9a5.312,5.312,0,0,1,3.713-.426A6.115,6.115,0,0,1,18.133.628,6.111,6.111,0,0,1,20.989,3.5a5.7,5.7,0,0,1,.594,2.968c0,.267-.048.285-.048.529a6.1,6.1,0,0,1,2.786,3.279,4.854,4.854,0,0,1,.343,1.756Z" transform="translate(-0.019 -0.006)" fill="#fff" fill-rule="evenodd"/>
  </g>
</svg>
