<svg id="Group_6229" data-name="Group 6229" xmlns="http://www.w3.org/2000/svg" xmlns:xlink="http://www.w3.org/1999/xlink" width="1000" height="509.544" viewBox="0 0 1000 509.544">
  <defs>
    <clipPath id="clip-path">
      <rect id="Rectangle_3055" data-name="Rectangle 3055" width="1510" height="509.544" fill="none"/>
    </clipPath>
    <clipPath id="clip-path-2">
      <rect id="Rectangle_3028" data-name="Rectangle 3028" width="4.139" height="4.14" fill="none"/>
    </clipPath>
    <clipPath id="clip-path-3">
      <rect id="Rectangle_3029" data-name="Rectangle 3029" width="4.138" height="4.14" fill="none"/>
    </clipPath>
    <clipPath id="clip-path-6">
      <rect id="Rectangle_3032" data-name="Rectangle 3032" width="4.139" height="4.138" fill="none"/>
    </clipPath>
    <clipPath id="clip-path-10">
      <rect id="Rectangle_3037" data-name="Rectangle 3037" width="26.779" height="11.339" fill="none"/>
    </clipPath>
    <clipPath id="clip-path-11">
      <rect id="Rectangle_3038" data-name="Rectangle 3038" width="11.876" height="12.945" fill="none"/>
    </clipPath>
    <clipPath id="clip-path-12">
      <rect id="Rectangle_3039" data-name="Rectangle 3039" width="12.254" height="12.549" fill="none"/>
    </clipPath>
    <clipPath id="clip-path-13">
      <rect id="Rectangle_3040" data-name="Rectangle 3040" width="13.273" height="18.945" fill="none"/>
    </clipPath>
    <clipPath id="clip-path-14">
      <rect id="Rectangle_3041" data-name="Rectangle 3041" width="15.536" height="17.653" fill="none"/>
    </clipPath>
    <clipPath id="clip-path-15">
      <rect id="Rectangle_3042" data-name="Rectangle 3042" width="17.994" height="14.56" fill="none"/>
    </clipPath>
    <clipPath id="clip-path-16">
      <rect id="Rectangle_3043" data-name="Rectangle 3043" width="27.341" height="20.017" fill="none"/>
    </clipPath>
    <clipPath id="clip-path-17">
      <rect id="Rectangle_3044" data-name="Rectangle 3044" width="75.232" height="109.861" fill="none"/>
    </clipPath>
    <clipPath id="clip-path-18">
      <rect id="Rectangle_3045" data-name="Rectangle 3045" width="106.212" height="136.957" fill="none"/>
    </clipPath>
    <clipPath id="clip-path-19">
      <rect id="Rectangle_3046" data-name="Rectangle 3046" width="109.974" height="66.236" fill="none"/>
    </clipPath>
    <clipPath id="clip-path-20">
      <rect id="Rectangle_3047" data-name="Rectangle 3047" width="147.992" height="86.886" fill="none"/>
    </clipPath>
    <clipPath id="clip-path-21">
      <rect id="Rectangle_3048" data-name="Rectangle 3048" width="91.961" height="122.707" fill="none"/>
    </clipPath>
    <clipPath id="clip-path-22">
      <rect id="Rectangle_3049" data-name="Rectangle 3049" width="128.936" height="152.532" fill="none"/>
    </clipPath>
    <clipPath id="clip-path-23">
      <rect id="Rectangle_3050" data-name="Rectangle 3050" width="56.578" height="11.764" fill="none"/>
    </clipPath>
    <clipPath id="clip-path-24">
      <rect id="Rectangle_3051" data-name="Rectangle 3051" width="55.707" height="64.89" fill="none"/>
    </clipPath>
    <clipPath id="clip-path-25">
      <rect id="Rectangle_3052" data-name="Rectangle 3052" width="119.945" height="238.715" fill="none"/>
    </clipPath>
    <clipPath id="clip-path-26">
      <rect id="Rectangle_3053" data-name="Rectangle 3053" width="10.338" height="23.333" fill="none"/>
    </clipPath>
    <clipPath id="clip-path-27">
      <rect id="Rectangle_3054" data-name="Rectangle 3054" width="4.205" height="2.899" fill="none"/>
    </clipPath>
  </defs>
  <g id="Group_6228" data-name="Group 6228" clip-path="url(#clip-path)">
    <path id="Path_6136" data-name="Path 6136" d="M749.425,39.855V507.969H737.386V39.831c0-14.249-9.993-25.862-22.314-25.862H66.913c-12.3,0-22.314,11.614-22.314,25.862V507.969H32.562V39.855C32.562,18.246,47.4.635,65.9.023,66.232,0,66.585,0,66.913,0H715.072c18.976,0,34.353,17.846,34.353,39.854" transform="translate(33.389 0.001)" fill="#395b64"/>
    <path id="Path_6137" data-name="Path 6137" d="M731.292,32.76V502.473H38.505V32.76C38.505,18.512,48.523,6.9,60.819,6.9H708.978c12.321,0,22.314,11.616,22.314,25.864" transform="translate(39.483 7.071)" fill="#f6f6f6"/>
    <path id="Path_6138" data-name="Path 6138" d="M381.917,221.083H338.059a5.16,5.16,0,1,0,0,10.319h43.858a5.16,5.16,0,0,0,0-10.319" transform="translate(341.356 226.7)" fill="#fff"/>
    <path id="Path_6139" data-name="Path 6139" d="M296.683,231.4h63.495a5.16,5.16,0,0,0,0-10.319H296.683a5.16,5.16,0,1,0,0,10.319" transform="translate(298.929 226.7)" fill="#fff"/>
    <path id="Path_6140" data-name="Path 6140" d="M310.035,216.966H410.651a5.16,5.16,0,0,0,0-10.319H310.035a5.16,5.16,0,0,0,0,10.319" transform="translate(312.622 211.897)" fill="#fff"/>
    <path id="Path_6141" data-name="Path 6141" d="M256.963,216.966H345.25a5.16,5.16,0,1,0,0-10.319H256.963a5.16,5.16,0,1,0,0,10.319" transform="translate(258.2 211.897)" fill="#fff"/>
    <path id="Path_6142" data-name="Path 6142" d="M310.509,221.083H266.651a5.16,5.16,0,1,0,0,10.319h43.858a5.16,5.16,0,0,0,0-10.319" transform="translate(268.134 226.7)" fill="#fff"/>
    <path id="Path_6143" data-name="Path 6143" d="M381.917,180.648H338.059a5.16,5.16,0,1,0,0,10.319h43.858a5.16,5.16,0,0,0,0-10.319" transform="translate(341.356 185.238)" fill="#fff"/>
    <path id="Path_6144" data-name="Path 6144" d="M296.683,190.967h63.495a5.16,5.16,0,0,0,0-10.319H296.683a5.16,5.16,0,1,0,0,10.319" transform="translate(298.929 185.238)" fill="#fff"/>
    <path id="Path_6145" data-name="Path 6145" d="M310.035,176.531H410.651a5.16,5.16,0,0,0,0-10.319H310.035a5.16,5.16,0,0,0,0,10.319" transform="translate(312.622 170.435)" fill="#fff"/>
    <path id="Path_6146" data-name="Path 6146" d="M256.963,176.531H345.25a5.16,5.16,0,1,0,0-10.319H256.963a5.16,5.16,0,1,0,0,10.319" transform="translate(258.2 170.435)" fill="#fff"/>
    <path id="Path_6147" data-name="Path 6147" d="M310.509,180.648H266.651a5.16,5.16,0,1,0,0,10.319h43.858a5.16,5.16,0,0,0,0-10.319" transform="translate(268.134 185.238)" fill="#fff"/>
    <rect id="Rectangle_3027" data-name="Rectangle 3027" width="163.655" height="59.207" transform="translate(559.306 250.857)" fill="#fff"/>
    <path id="Path_6148" data-name="Path 6148" d="M578.511,22.219H72.181c-8.954,0-16.213,8.229-16.213,18.381s7.259,18.383,16.213,18.383h506.33c8.954,0,16.213-8.231,16.213-18.383s-7.259-18.381-16.213-18.381" transform="translate(57.39 22.784)" fill="#e3e0e1"/>
    <path id="Path_6149" data-name="Path 6149" d="M338.888,28.809a5.033,5.033,0,1,0,5.033,5.033,5.033,5.033,0,0,0-5.033-5.033" transform="translate(342.337 29.541)" fill="#e3e0e1"/>
    <path id="Path_6150" data-name="Path 6150" d="M348.957,28.809a5.033,5.033,0,1,0,5.033,5.033,5.033,5.033,0,0,0-5.033-5.033" transform="translate(352.662 29.541)" fill="#e3e0e1"/>
    <path id="Path_6151" data-name="Path 6151" d="M359.025,28.809a5.033,5.033,0,1,0,5.033,5.033,5.034,5.034,0,0,0-5.033-5.033" transform="translate(362.986 29.541)" fill="#e3e0e1"/>
    <g id="Group_6152" data-name="Group 6152" transform="translate(171.527 161.004)" opacity="0.2" style="mix-blend-mode: multiply;isolation: isolate">
      <g id="Group_6151" data-name="Group 6151">
        <g id="Group_6150" data-name="Group 6150" clip-path="url(#clip-path-2)">
          <path id="Path_6152" data-name="Path 6152" d="M86.758,79.492a2.069,2.069,0,1,1-2.07,2.07,2.069,2.069,0,0,1,2.07-2.07" transform="translate(-84.688 -79.492)" fill="#517077"/>
        </g>
      </g>
    </g>
    <g id="Group_6155" data-name="Group 6155" transform="translate(155.994 161.004)" opacity="0.2" style="mix-blend-mode: multiply;isolation: isolate">
      <g id="Group_6154" data-name="Group 6154">
        <g id="Group_6153" data-name="Group 6153" clip-path="url(#clip-path-3)">
          <path id="Path_6153" data-name="Path 6153" d="M79.088,79.492a2.069,2.069,0,1,1-2.07,2.07,2.07,2.07,0,0,1,2.07-2.07" transform="translate(-77.019 -79.492)" fill="#517077"/>
        </g>
      </g>
    </g>
    <g id="Group_6158" data-name="Group 6158" transform="translate(140.46 161.004)" opacity="0.2" style="mix-blend-mode: multiply;isolation: isolate">
      <g id="Group_6157" data-name="Group 6157">
        <g id="Group_6156" data-name="Group 6156" clip-path="url(#clip-path-3)">
          <path id="Path_6154" data-name="Path 6154" d="M71.418,79.492a2.069,2.069,0,1,1-2.07,2.07,2.07,2.07,0,0,1,2.07-2.07" transform="translate(-69.35 -79.492)" fill="#517077"/>
        </g>
      </g>
    </g>
    <g id="Group_6161" data-name="Group 6161" transform="translate(124.926 161.004)" opacity="0.2" style="mix-blend-mode: multiply;isolation: isolate">
      <g id="Group_6160" data-name="Group 6160">
        <g id="Group_6159" data-name="Group 6159" clip-path="url(#clip-path-3)">
          <path id="Path_6155" data-name="Path 6155" d="M63.749,79.492a2.069,2.069,0,1,1-2.07,2.07,2.07,2.07,0,0,1,2.07-2.07" transform="translate(-61.68 -79.492)" fill="#517077"/>
        </g>
      </g>
    </g>
    <g id="Group_6164" data-name="Group 6164" transform="translate(163.76 149.074)" opacity="0.2" style="mix-blend-mode: multiply;isolation: isolate">
      <g id="Group_6163" data-name="Group 6163">
        <g id="Group_6162" data-name="Group 6162" clip-path="url(#clip-path-6)">
          <path id="Path_6156" data-name="Path 6156" d="M82.923,73.6a2.069,2.069,0,1,1-2.07,2.07,2.07,2.07,0,0,1,2.07-2.07" transform="translate(-80.853 -73.602)" fill="#517077"/>
        </g>
      </g>
    </g>
    <g id="Group_6167" data-name="Group 6167" transform="translate(148.227 149.074)" opacity="0.2" style="mix-blend-mode: multiply;isolation: isolate">
      <g id="Group_6166" data-name="Group 6166">
        <g id="Group_6165" data-name="Group 6165" clip-path="url(#clip-path-6)">
          <path id="Path_6157" data-name="Path 6157" d="M75.253,73.6a2.069,2.069,0,1,1-2.07,2.07,2.07,2.07,0,0,1,2.07-2.07" transform="translate(-73.184 -73.602)" fill="#517077"/>
        </g>
      </g>
    </g>
    <g id="Group_6170" data-name="Group 6170" transform="translate(132.693 149.074)" opacity="0.2" style="mix-blend-mode: multiply;isolation: isolate">
      <g id="Group_6169" data-name="Group 6169">
        <g id="Group_6168" data-name="Group 6168" clip-path="url(#clip-path-6)">
          <path id="Path_6158" data-name="Path 6158" d="M67.584,73.6a2.069,2.069,0,1,1-2.07,2.07,2.07,2.07,0,0,1,2.07-2.07" transform="translate(-65.514 -73.602)" fill="#517077"/>
        </g>
      </g>
    </g>
    <g id="Group_6173" data-name="Group 6173" transform="translate(117.159 149.074)" opacity="0.2" style="mix-blend-mode: multiply;isolation: isolate">
      <g id="Group_6172" data-name="Group 6172">
        <g id="Group_6171" data-name="Group 6171" clip-path="url(#clip-path-6)">
          <path id="Path_6159" data-name="Path 6159" d="M59.914,73.6a2.069,2.069,0,1,1-2.07,2.07,2.07,2.07,0,0,1,2.07-2.07" transform="translate(-57.845 -73.602)" fill="#517077"/>
        </g>
      </g>
    </g>
    <path id="Path_6160" data-name="Path 6160" d="M624.084,51.492h-432.1a14.852,14.852,0,0,0-14.852,14.852v88.875a14.852,14.852,0,0,0,14.852,14.852h432.1a14.852,14.852,0,0,0,14.852-14.852V66.344a14.852,14.852,0,0,0-14.852-14.852" transform="translate(181.627 52.8)" fill="#037ae0"/>
    <path id="Path_6161" data-name="Path 6161" d="M222.764,72.714c7.618,0,13.364,4.288,15.188,11.219h-8.576a7.053,7.053,0,0,0-6.7-4.1c-4.79,0-8.073,3.557-8.073,9.214s3.283,9.214,8.073,9.214a7.055,7.055,0,0,0,6.7-4.106h8.576c-1.825,6.933-7.571,11.174-15.188,11.174-9.44,0-16.1-6.7-16.1-16.282s6.662-16.329,16.1-16.329" transform="translate(211.913 74.561)" fill="#fff"/>
    <path id="Path_6162" data-name="Path 6162" d="M240.287,105.462A16.4,16.4,0,1,1,256.66,89.044a16.109,16.109,0,0,1-16.373,16.418m0-7.115c5.108,0,8.438-3.694,8.438-9.3,0-5.7-3.33-9.3-8.438-9.3-5.2,0-8.484,3.6-8.484,9.3,0,5.608,3.285,9.3,8.484,9.3" transform="translate(229.507 74.515)" fill="#fff"/>
    <path id="Path_6163" data-name="Path 6163" d="M242.172,72.894h9.214L260.37,95.06l8.894-22.166h9.169v32.018h-7.8v-19.2l-7.16,19.2h-6.295l-7.206-19.247v19.247h-7.8Z" transform="translate(248.325 74.746)" fill="#fff"/>
    <rect id="Rectangle_3036" data-name="Rectangle 3036" width="7.8" height="32.018" transform="translate(532.364 147.64)" fill="#fff"/>
    <path id="Path_6164" data-name="Path 6164" d="M298.129,72.894v32.018h-7.8l-13.046-19.75v19.75h-7.8V72.894h7.8l13.046,19.841V72.894Z" transform="translate(276.332 74.746)" fill="#fff"/>
    <path id="Path_6165" data-name="Path 6165" d="M316.962,83.2h-8.62c-1.185-2.143-3.376-3.283-6.3-3.283-5.017,0-8.347,3.557-8.347,9.12,0,5.93,3.376,9.4,8.987,9.4a7.671,7.671,0,0,0,7.753-5.657h-9.9V87.036h16.967v7.251a15.678,15.678,0,0,1-15.415,11.038c-9.578,0-16.329-6.706-16.329-16.284s6.7-16.327,16.282-16.327c7.664,0,13.228,3.923,14.915,10.49" transform="translate(293.026 74.561)" fill="#fff"/>
    <path id="Path_6166" data-name="Path 6166" d="M320.4,105.462c-6.886,0-12.27-3.421-12.5-9.9h8.3a3.673,3.673,0,0,0,3.968,3.65c2.283,0,3.741-1.14,3.741-3.012,0-5.928-16.009-2.736-15.918-14.093,0-6.066,4.97-9.44,11.676-9.44,6.978,0,11.677,3.465,12,9.578h-8.438a3.466,3.466,0,0,0-3.694-3.33c-1.872-.047-3.285.911-3.285,2.919,0,5.564,15.827,3.056,15.827,13.775,0,5.382-4.2,9.852-11.676,9.852" transform="translate(315.723 74.515)" fill="#fff"/>
    <path id="Path_6167" data-name="Path 6167" d="M338.012,105.462a16.4,16.4,0,1,1,16.376-16.418,16.109,16.109,0,0,1-16.376,16.418m0-7.115c5.108,0,8.438-3.694,8.438-9.3,0-5.7-3.33-9.3-8.438-9.3-5.2,0-8.484,3.6-8.484,9.3,0,5.608,3.285,9.3,8.484,9.3" transform="translate(329.715 74.515)" fill="#fff"/>
    <path id="Path_6168" data-name="Path 6168" d="M355.71,105.462a16.4,16.4,0,1,1,16.375-16.418,16.109,16.109,0,0,1-16.375,16.418m0-7.115c5.108,0,8.438-3.694,8.438-9.3,0-5.7-3.33-9.3-8.438-9.3-5.2,0-8.484,3.6-8.484,9.3,0,5.608,3.285,9.3,8.484,9.3" transform="translate(347.862 74.515)" fill="#fff"/>
    <path id="Path_6169" data-name="Path 6169" d="M386.239,72.894v32.018h-7.8L365.4,85.162v19.75h-7.8V72.894h7.8l13.046,19.841V72.894Z" transform="translate(366.681 74.746)" fill="#fff"/>
    <path id="Path_6170" data-name="Path 6170" d="M148.236,226.564c-1.2-1.021-2.985-1.051-4.6-1.029q-17.585.289-35.171.569c-2.179.034-4.721-.1-5.938-1.811a5.392,5.392,0,0,1-.575-3.881c.6-4.533,2.512-8.861,2.951-13.412s-1.092-9.779-5.4-11.778c-3.992-1.855-8.827-.284-12.653,1.91S79.457,202.178,75.1,203.1c-1.93.411-4.255.282-5.452-1.207a5.816,5.816,0,0,1-.96-3.192c-.648-7.008-.689-14.145-2.7-20.912-1.043-3.518-2.763-7.073-5.934-9.12s-8.1-1.989-10.423.944C46.864,173.107,47.577,179.9,43,180.3c-3.484.3-5.074-3.842-6.479-6.88-3.7-8-14.129-12.525-22.958-9.955S-1.314,175.356.245,183.984a6.067,6.067,0,0,0,2.131,4.031c1.416,1.007,3.344.97,5.114.865,3.21-.188,6.491-.472,9.6.312s6.054,2.9,6.73,5.89c1.191,5.258-4.7,9.363-9.835,11.672s-11.257,5.683-11.02,11.069c.2,4.527,5.149,7.589,9.854,8.308s9.572-.1,14.269.648c4.148.662,8.663,3.514,8.272,7.5-.395,4.027-5.282,6.018-9.422,6.963s-9.06,2.3-10.285,6.175c-.841,2.667.5,5.454,1.809,7.934,4.713,8.924,10.708,18.83,21.005,20.862,3.358.666,7.4.642,9.382,3.3a7.434,7.434,0,0,1,1.173,4.563c-.026,4.379-1.5,8.634-2.013,12.989s.178,9.238,3.6,12.144c3.771,3.2,9.53,2.965,14.48,1.9,7.931-1.711,15.476-5.072,23.551-5.961,6.674-.737,14.18.772,18.695,5.173a3.366,3.366,0,0,0,1.624,1.981l-.506-.743c.209.259.415.518.606.8a6.4,6.4,0,0,0,6.842-.668c2.722-2.39,3.2-6.244,3.455-9.75q.741-10.156.98-20.335c.069-3.119.15-6.392,1.772-9.108a18.4,18.4,0,0,1,4.823-4.818c6.576-5.072,13.532-9.933,18.439-16.5s7.458-15.361,4.14-22.723a5.184,5.184,0,0,0-1.274-1.888" transform="translate(0 166.873)" fill="#dbc6ce"/>
    <path id="Path_6171" data-name="Path 6171" d="M95.133,216.863c-1.314,10.388-4.081,19.17-7.026,29.206-1.073,3.567-2.744,6.153-4.679,10.257a209.651,209.651,0,0,0-21.773-31.864c1.063-2.629,2.064-5.87,2.815-8.474A149.237,149.237,0,0,0,69.5,192.434l-.089-.008c-1.021,8.067-3.737,14.733-6.024,22.525-.816,2.718-1.961,5.317-3,7.96q-1.452-1.774-2.925-3.53-9.284-10.816-19.4-20.87c.15-1.539.468-3.273.472-4.778a79.6,79.6,0,0,0-1.086-12.643l-.047.008c.64,4.178.233,7.9.2,12.122-.022,1.5-.231,2.983-.373,4.476q-9.433-9.312-19.549-17.89l-.132.158a349.311,349.311,0,0,1,32.927,32.872c-1.361.229-2.714.494-4.089.6-4.211.306-7.9.952-12.11.585l-.006.047a79.921,79.921,0,0,0,12.687.265,41.185,41.185,0,0,0,4.235-.691q2.771,3.175,5.473,6.4,2.236,2.719,4.423,5.491a.483.483,0,0,0,.091.124l0-.006q3.71,4.709,7.219,9.572a83.031,83.031,0,0,1-9.943,2.232c-6.939,1.179-18.545,1.5-28.145.666l-.012.107c9.6.98,16.967,1.756,28.921.606,3.322-.32,7.111-1.163,10.52-1.734a167.036,167.036,0,0,1,17.068,29.814l1.4,3.19c.478,1.057.772,2.185,1.169,3.275l2.228,6.585c1.211,4.509,2.5,8.995,3.593,13.532,2.066,7.907,3.909,15.875,5.588,23.876a1,1,0,0,0,1.177.776l.043-.008a1.012,1.012,0,0,0,.808-1.2c-1.691-8.027-3.546-16.023-5.629-23.961-1.165-4.539-2.518-9.029-3.8-13.536l-2.362-6.674c-.417-1.1-.735-2.244-1.235-3.31l-1.466-3.212c-1.1-2.473-2.281-4.9-3.518-7.3,1.4-3.611,3.384-7.593,4.434-11.229a197.382,197.382,0,0,0,6-30.851Z" transform="translate(18 184.374)" fill="#f6f6f6"/>
    <g id="Group_6176" data-name="Group 6176" transform="translate(4.598 333.934)" opacity="0.1">
      <g id="Group_6175" data-name="Group 6175">
        <g id="Group_6174" data-name="Group 6174" clip-path="url(#clip-path-10)">
          <path id="Path_6172" data-name="Path 6172" d="M2.958,174.174s9.26-16.787,26.091-5.258c0,0-12.479-4.521-21.008,3.233s-5.084,2.025-5.084,2.025" transform="translate(-2.27 -164.873)" fill="#fff"/>
        </g>
      </g>
    </g>
    <g id="Group_6179" data-name="Group 6179" transform="translate(50.919 338.012)" opacity="0.1">
      <g id="Group_6178" data-name="Group 6178">
        <g id="Group_6177" data-name="Group 6177" clip-path="url(#clip-path-11)">
          <path id="Path_6173" data-name="Path 6173" d="M25.14,172.164s10.755-3.721,11.875,7.666c0,0-4.195-23.017-11.875-7.666" transform="translate(-25.141 -166.886)" fill="#fff"/>
        </g>
      </g>
    </g>
    <g id="Group_6182" data-name="Group 6182" transform="translate(5.974 378.929)" opacity="0.1">
      <g id="Group_6181" data-name="Group 6181">
        <g id="Group_6180" data-name="Group 6180" clip-path="url(#clip-path-12)">
          <path id="Path_6174" data-name="Path 6174" d="M8.7,187.088S3.975,197.442,15.2,199.637c0,0-22.516-6.36-6.506-12.549" transform="translate(-2.949 -187.087)" fill="#fff"/>
        </g>
      </g>
    </g>
    <g id="Group_6185" data-name="Group 6185" transform="translate(86.891 365.511)" opacity="0.1">
      <g id="Group_6184" data-name="Group 6184">
        <g id="Group_6183" data-name="Group 6183" clip-path="url(#clip-path-13)">
          <path id="Path_6175" data-name="Path 6175" d="M42.9,183.525s9.06-6.218,12.134-.934-1.045,16.817-1.045,16.817,1.821-10.887-2.445-13.358-5.226,5.041-8.644-2.526" transform="translate(-42.901 -180.463)" fill="#fff"/>
        </g>
      </g>
    </g>
    <g id="Group_6188" data-name="Group 6188" transform="translate(17.77 409.556)" opacity="0.1">
      <g id="Group_6187" data-name="Group 6187">
        <g id="Group_6186" data-name="Group 6186" clip-path="url(#clip-path-14)">
          <path id="Path_6176" data-name="Path 6176" d="M16.335,202.209s-9.977,4.6-7.01,9.949,14.986,7.7,14.986,7.7-10.285-4-10.226-8.932,7-1.914,2.25-8.721" transform="translate(-8.774 -202.21)" fill="#fff"/>
        </g>
      </g>
    </g>
    <g id="Group_6191" data-name="Group 6191" transform="translate(50.519 460.798)" opacity="0.1">
      <g id="Group_6190" data-name="Group 6190">
        <g id="Group_6189" data-name="Group 6189" clip-path="url(#clip-path-15)">
          <path id="Path_6177" data-name="Path 6177" d="M29.871,227.509s-8.053,7.478-3.571,11.634,16.637,2.667,16.637,2.667-11.02-.612-12.495-5.313,6.062-4-.571-8.989" transform="translate(-24.942 -227.508)" fill="#fff"/>
        </g>
      </g>
    </g>
    <g id="Group_6194" data-name="Group 6194" transform="translate(119.071 395.379)" opacity="0.1">
      <g id="Group_6193" data-name="Group 6193">
        <g id="Group_6192" data-name="Group 6192" clip-path="url(#clip-path-16)">
          <path id="Path_6178" data-name="Path 6178" d="M58.789,197.135c-.051-.954,23.061-1.926,23.061-1.926s10.684,7.308-1.707,20.017c0,0,5.685-11.516-.146-16.025,0,0-20.489,11.417-21.208-2.066" transform="translate(-58.789 -195.21)" fill="#fff"/>
        </g>
      </g>
    </g>
    <path id="Path_6179" data-name="Path 6179" d="M360.6,160.105s-17.947,36.5-18.533,55.585c-.589,19.047-11.142,33.527-11.142,33.527l-17.969,2.475,10.812,14.022c-20.712,30.316-59.826,31.532-69.378,31.333-1.4-.02-2.155-.063-2.155-.063-27.138-36.271,15.8-76.733,44.075-104.742,28.242-27.969,64.29-32.137,64.29-32.137" transform="translate(249.784 164.173)" fill="#dbc6ce"/>
    <g id="Group_6197" data-name="Group 6197" transform="translate(503.899 351.329)" opacity="0.2">
      <g id="Group_6196" data-name="Group 6196">
        <g id="Group_6195" data-name="Group 6195" clip-path="url(#clip-path-17)">
          <path id="Path_6180" data-name="Path 6180" d="M324.021,173.461l-21.757,40.524-8-1.58-1.88,8.606s-36.712,38.112-43.591,62.31l9.066-20.505,17.7-29.98,16.157-22.109s21.483-26.9,32.307-37.265" transform="translate(-248.789 -173.461)" fill="#594a42"/>
        </g>
      </g>
    </g>
    <g id="Group_6200" data-name="Group 6200" transform="translate(504.173 324.278)" opacity="0.1">
      <g id="Group_6199" data-name="Group 6199">
        <g id="Group_6198" data-name="Group 6198" clip-path="url(#clip-path-18)">
          <path id="Path_6181" data-name="Path 6181" d="M355.135,160.105S337.188,196.6,336.6,215.69c-.589,19.047-11.142,33.527-11.142,33.527l-17.969,2.475L318.3,265.714c-20.712,30.316-59.826,31.532-69.378,31.333.918-.652,1.56-1.051,1.56-1.051,53.173-18.056,52.15-34.2,52.15-34.2l-8.351-20.357,16.523-4.638s9.3-17,11.087-32.5c1.79-15.466,33.241-44.188,33.241-44.188" transform="translate(-248.923 -160.105)" fill="#fff"/>
        </g>
      </g>
    </g>
    <path id="Path_6182" data-name="Path 6182" d="M329.033,173.413a428.967,428.967,0,0,0-44.2,52.195c-13.129,18.64-25.091,38.4-32.625,60.132l-1.446,4.055c-.5,1.347-.764,2.767-1.156,4.148l-2.175,8.349c-1.086,5.608-2.264,11.2-3.208,16.833-.146.845-.269,1.693-.407,2.538h2.536c.12-.7.219-1.414.34-2.117.859-5.627,1.955-11.209,2.957-16.809l2.023-8.229c.369-1.363.608-2.765,1.08-4.1l1.373-4.016c7.19-21.532,18.865-41.343,31.74-60.057a428.811,428.811,0,0,1,43.348-52.742Z" transform="translate(250.007 177.819)" fill="#f6f6f6"/>
    <path id="Path_6183" data-name="Path 6183" d="M194.916,270.469c8.031-10.536,17-22.042,29.881-27.343,14.636-6.024,30.124-3.927,45.42-4.239,17.046-.346,32.694-6.459,43.887-19.333,10.548-12.13,24.479-42.556,24.007-41.333-5.084,13.212-10.279,26.758-19.008,38.309-9.282,12.284-21.629,20.406-37.134,23.26-16.122,2.969-32.5-1.011-48.579,2.641-16.61,3.771-27.325,16.74-36.958,29.374-.806,1.059-2.311-.294-1.515-1.337" transform="translate(199.637 182.714)" fill="#dbc6ce"/>
    <path id="Path_6184" data-name="Path 6184" d="M239.619,200.285a11.1,11.1,0,0,0-1.181.553c-2.836,1.442-9.817,6.042-8.272,15.43.13.636.275,1.331.462,2.044l.223.735.061-.018c2.809,11.121,12.531,11.4,15.685,11.215l.992-.111-.1-1.381a2.476,2.476,0,0,0-.075-.46c-.883-7.214-5.679-9.574-9.91-10.18a20.458,20.458,0,0,0-4.039-.182,20.637,20.637,0,0,0,2.864-1.772c3.7-2.7,7.279-7.516,3.666-15.055a4.778,4.778,0,0,0-.377-.816" transform="translate(235.788 205.374)" fill="#e3e0e1"/>
    <path id="Path_6185" data-name="Path 6185" d="M241.859,216.544l.118-.024c-6.095-11.992,5.136-18.97,5.136-18.97,7.682,9.088.958,15.926-2.667,18.664,4.64-.3,13.937.563,14.308,12.193,0,0-13.854,2.362-16.894-11.863" transform="translate(246.266 202.569)" fill="#e3e0e1"/>
    <path id="Path_6186" data-name="Path 6186" d="M249.914,192.016l-.4.893c-1.167,2.7-3.788,11.174,4.995,17.234.363.243.755.476,1.157.739a4.042,4.042,0,0,0,.308.484l.01.028c4.9,7.757,12.256,7.441,16.136,6.581.751-.164,1.339-.344,1.809-.486.492-.182.776-.3.776-.3a3.631,3.631,0,0,0-.2-.549c-3.251-9.511-11.024-9.2-15.7-8-.539.132-1.009.275-1.448.409a20.574,20.574,0,0,0,.863-2.542l-.01-.03c1.15-4.235,1.084-10.253-6.57-13.765Z" transform="translate(254.528 196.895)" fill="#e3e0e1"/>
    <path id="Path_6187" data-name="Path 6187" d="M259.367,183.922l-.583.723c-1.286,1.677-4.128,6.269-2.479,11.674a14.136,14.136,0,0,0,3.411,5.61.122.122,0,0,0,.057.079,1.508,1.508,0,0,0,.237.249c.18.17.3.356.518.547.237.249.5.49.731.709,8.608,7.911,18.006,1.128,18.006,1.128-.065-.107-.122-.186-.176-.265a11.317,11.317,0,0,0-.974-1.406c-4.766-6.256-10.9-4.9-14.721-3.095a7.073,7.073,0,0,0-.786.369,13.13,13.13,0,0,0,2.5-7.7c-.12-2.5-1.274-5.136-4.33-7.577l-.01-.028Z" transform="translate(262.303 188.595)" fill="#e3e0e1"/>
    <path id="Path_6188" data-name="Path 6188" d="M258.264,175.548l-.144.687a.453.453,0,0,0-.006.194c-.482,2.844-.964,11.695,9.991,14.972.067.012.105.032.172.045.2.227.427.448.616.646,7.2,7.184,15.085,3.658,17.659,2.2.543-.326.859-.551.859-.551-.186-.3-.373-.593-.589-.881-5.594-8.347-13.473-5.112-17.005-3.008a12.769,12.769,0,0,0-1.157.737c.042-.174.087-.346.142-.587a.09.09,0,0,1,.012-.069c.713-3.557,1.306-12.152-8.8-14.115-.105-.032-.241-.055-.348-.087Z" transform="translate(264.469 180.008)" fill="#e3e0e1"/>
    <path id="Path_6189" data-name="Path 6189" d="M267.388,189.23c-9.947-9.418-1.14-18.873-1.14-18.873,12.254,8.11,1.14,18.873,1.14,18.873" transform="translate(269.324 174.685)" fill="#e3e0e1"/>
    <path id="Path_6190" data-name="Path 6190" d="M268.995,183.847a20.72,20.72,0,0,1,6.2,2c.543-.326.859-.551.859-.551-.186-.3-.373-.591-.589-.879l-6.163-.628Z" transform="translate(275.829 188.456)" fill="#f6f6f6"/>
    <path id="Path_6191" data-name="Path 6191" d="M236.157,200.285a11.1,11.1,0,0,0-1.181.553,21.907,21.907,0,0,1-1.653,6.38l.2-.188,3.01-5.928a4.781,4.781,0,0,0-.377-.816" transform="translate(239.251 205.374)" fill="#f6f6f6"/>
    <path id="Path_6192" data-name="Path 6192" d="M235.566,212.207a19.9,19.9,0,0,1,5.274,5.8l.984-.105-.14-1.8-5.821-3.8Z" transform="translate(241.551 217.599)" fill="#f6f6f6"/>
    <path id="Path_6193" data-name="Path 6193" d="M243.179,205.921a19.609,19.609,0,0,0,.038-7.8l.8-.571,1.108,1.438-1.786,6.672Z" transform="translate(249.358 202.569)" fill="#f6f6f6"/>
    <path id="Path_6194" data-name="Path 6194" d="M246.252,209.975a19.913,19.913,0,0,1,5.274,5.795l.984-.1-.14-1.8-5.821-3.8Z" transform="translate(252.509 215.31)" fill="#f6f6f6"/>
    <path id="Path_6195" data-name="Path 6195" d="M252.883,199.559a19.487,19.487,0,0,0-4.031-6.666l.413-.871,1.722.695,1.906,6.54Z" transform="translate(255.175 196.901)" fill="#f6f6f6"/>
    <path id="Path_6196" data-name="Path 6196" d="M258.651,203.369a22.189,22.189,0,0,1,4.581,2.489c.49-.18.776-.3.776-.3a3.767,3.767,0,0,0-.2-.549l-4.9-1.653Z" transform="translate(265.223 208.524)" fill="#f6f6f6"/>
    <path id="Path_6197" data-name="Path 6197" d="M259.324,191.562a18.013,18.013,0,0,0-2.042-6.933l.575-.7,1.381,1,.164,6.36Z" transform="translate(263.819 188.599)" fill="#f6f6f6"/>
    <path id="Path_6198" data-name="Path 6198" d="M264.411,193.151a20.961,20.961,0,0,1,5.851,1.815,11.108,11.108,0,0,0-.974-1.406l-4.6-.46Z" transform="translate(271.129 198.006)" fill="#f6f6f6"/>
    <path id="Path_6199" data-name="Path 6199" d="M263.191,181.555A18.548,18.548,0,0,0,258,176.411l.176-.869,1.73.261,3.224,5.479Z" transform="translate(264.557 180.002)" fill="#f6f6f6"/>
    <path id="Path_6200" data-name="Path 6200" d="M266.185,177.994a18,18,0,0,0-2.042-6.933l.575-.7,1.381,1,.164,6.362Z" transform="translate(270.854 174.686)" fill="#f6f6f6"/>
    <path id="Path_6201" data-name="Path 6201" d="M191.47,277.812c5.9-12.653,12.547-26.513,24.625-34.865,13.714-9.491,30.134-10.812,45.813-14.569,17.473-4.184,32.212-14,40.846-29.763,8.134-14.86,15.642-49.319,15.432-47.949-2.266,14.743-4.571,29.859-10.963,43.712-6.8,14.735-17.69,25.868-33.01,32.291-15.934,6.678-33.695,6.261-49.428,13.631-16.254,7.616-24.374,23.375-31.455,38.55-.591,1.27-2.445.215-1.859-1.037" transform="translate(196.219 154.452)" fill="#dbc6ce"/>
    <path id="Path_6202" data-name="Path 6202" d="M230.939,180.294a12.074,12.074,0,0,0-1.092.834c-2.6,2.123-8.75,8.426-5.051,17.747.275.624.583,1.306.936,2l.395.707.057-.032c5.392,10.822,15.464,8.928,18.668,8.023l1-.336-.413-1.4a2.54,2.54,0,0,0-.18-.456c-2.528-7.229-8-8.582-12.491-8.254a21.557,21.557,0,0,0-4.2.719,21.974,21.974,0,0,0,2.552-2.469c3.206-3.615,5.8-9.376.391-16.325a5.035,5.035,0,0,0-.571-.755" transform="translate(229.325 184.875)" fill="#e3e0e1"/>
    <path id="Path_6203" data-name="Path 6203" d="M237.035,196.221l.115-.051c-8.971-10.98,1.027-20.685,1.027-20.685,9.951,7.63,4.565,16.181,1.446,19.815,4.711-1.349,14.476-2.55,17.471,9.341,0,0-13.734,5.546-20.06-8.42" transform="translate(239.344 179.944)" fill="#e3e0e1"/>
    <path id="Path_6204" data-name="Path 6204" d="M240.411,168.559l-.213,1.011c-.6,3.042-1.391,12.357,9.013,16.622.427.168.885.32,1.357.5a3.866,3.866,0,0,0,.425.429l.016.028c6.789,6.884,14.291,4.91,18.093,3.152.737-.34,1.3-.656,1.754-.909.464-.3.731-.484.731-.484a4.245,4.245,0,0,0-.328-.521c-5.485-9.062-13.418-6.994-17.963-4.707-.525.255-.976.51-1.4.747a21.229,21.229,0,0,0,.316-2.813l-.014-.028c.231-4.62-1.189-10.8-9.86-12.7Z" transform="translate(245.986 172.842)" fill="#e3e0e1"/>
    <path id="Path_6205" data-name="Path 6205" d="M248.062,158.314l-.437.875c-.948,2.017-2.842,7.383.069,12.578a14.887,14.887,0,0,0,4.772,5.009.12.12,0,0,0,.077.069,1.482,1.482,0,0,0,.3.2c.225.134.391.3.66.448.3.2.626.391.909.565,10.641,6.212,18.8-2.882,18.8-2.882-.091-.1-.168-.166-.243-.235a12.045,12.045,0,0,0-1.319-1.229c-6.311-5.371-12.327-2.595-15.853.122a7.547,7.547,0,0,0-.727.557,13.837,13.837,0,0,0,.849-8.49c-.685-2.548-2.467-5-6.163-6.828l-.014-.028Z" transform="translate(252.392 162.336)" fill="#e3e0e1"/>
    <path id="Path_6206" data-name="Path 6206" d="M245.747,149.64l.006.739a.455.455,0,0,0,.038.2c.142,3.038,1.634,12.258,13.649,13.173.073,0,.115.008.188.006.255.19.539.365.78.529,9.025,5.778,16.353.377,18.674-1.7.486-.458.762-.762.762-.762-.257-.263-.517-.527-.8-.774-7.636-7.338-15.02-2.236-18.186.723a13.512,13.512,0,0,0-1.025,1.021c.006-.19.012-.379.014-.64a.1.1,0,0,1,0-.071c-.063-3.824-1.383-12.807-12.227-12.557-.117-.01-.261,0-.379-.012Z" transform="translate(251.991 153.311)" fill="#e3e0e1"/>
    <path id="Path_6207" data-name="Path 6207" d="M257.506,161.982c-12.357-7.464-5.414-19.175-5.414-19.175,14.439,5.6,5.414,19.175,5.414,19.175" transform="translate(256.504 146.435)" fill="#e3e0e1"/>
    <path id="Path_6208" data-name="Path 6208" d="M258.835,156.077a21.8,21.8,0,0,1,6.83.664c.486-.458.762-.76.762-.76-.259-.263-.519-.527-.806-.774l-6.487.739Z" transform="translate(265.411 159.151)" fill="#f6f6f6"/>
    <path id="Path_6209" data-name="Path 6209" d="M227.933,180.294a12.07,12.07,0,0,0-1.092.834,23.163,23.163,0,0,1-.267,6.941l.162-.239,1.768-6.781a5.038,5.038,0,0,0-.571-.755" transform="translate(232.331 184.875)" fill="#f6f6f6"/>
    <path id="Path_6210" data-name="Path 6210" d="M230.792,192.379a20.968,20.968,0,0,1,6.732,4.784l.99-.33-.549-1.823-6.848-2.609Z" transform="translate(236.656 197.267)" fill="#f6f6f6"/>
    <path id="Path_6211" data-name="Path 6211" d="M237.134,184.294a20.662,20.662,0,0,0-1.714-8.039l.7-.77,1.464,1.231-.34,7.271Z" transform="translate(241.402 179.944)" fill="#f6f6f6"/>
    <path id="Path_6212" data-name="Path 6212" d="M241.294,187.681a20.963,20.963,0,0,1,6.73,4.782l.992-.328-.549-1.825L241.62,187.7Z" transform="translate(247.425 192.45)" fill="#f6f6f6"/>
    <path id="Path_6213" data-name="Path 6213" d="M245.682,175.513a20.5,20.5,0,0,0-5.647-5.957l.229-.99,1.93.328,3.429,6.305Z" transform="translate(246.134 172.849)" fill="#f6f6f6"/>
    <path id="Path_6214" data-name="Path 6214" d="M252.575,178.124a23.376,23.376,0,0,1,5.276,1.535c.464-.3.731-.484.731-.484a3.9,3.9,0,0,0-.33-.52l-5.42-.6Z" transform="translate(258.992 182.577)" fill="#f6f6f6"/>
    <path id="Path_6215" data-name="Path 6215" d="M250.537,165.851a18.952,18.952,0,0,0-3.66-6.68l.435-.853,1.647.723,1.6,6.512Z" transform="translate(253.15 162.342)" fill="#f6f6f6"/>
    <path id="Path_6216" data-name="Path 6216" d="M256.206,166.593a22.187,22.187,0,0,1,6.433.553,11.83,11.83,0,0,0-1.319-1.227l-4.845.561Z" transform="translate(262.716 170.135)" fill="#f6f6f6"/>
    <path id="Path_6217" data-name="Path 6217" d="M252.259,154.694a19.529,19.529,0,0,0-6.5-4.132l-.012-.934,1.839-.117,4.551,4.916Z" transform="translate(251.991 153.31)" fill="#f6f6f6"/>
    <path id="Path_6218" data-name="Path 6218" d="M254.553,150.339a18.953,18.953,0,0,0-3.66-6.68l.433-.853,1.649.723,1.6,6.512Z" transform="translate(257.268 146.435)" fill="#f6f6f6"/>
    <path id="Path_6219" data-name="Path 6219" d="M415.338,209s-30.357,24.829-38.511,41.332c-8.144,16.471-23.2,24.947-23.2,24.947l-16.752-5.025,3.867,16.629c-30.3,18.3-65.1,3.7-73.4-.3-1.217-.577-1.865-.918-1.865-.918-9.28-42.679,44.581-60.977,80.6-74.223C382.051,198.223,415.338,209,415.338,209" transform="translate(271.143 210.066)" fill="#e3e0e1"/>
    <g id="Group_6203" data-name="Group 6203" transform="translate(538.262 430.282)" opacity="0.2">
      <g id="Group_6202" data-name="Group 6202">
        <g id="Group_6201" data-name="Group 6201" clip-path="url(#clip-path-19)">
          <path id="Path_6220" data-name="Path 6220" d="M375.73,212.442l-35.309,26.833-6.388-4.592-5.1,6.8s-47.459,18.727-63.183,37.2l16.163-14.356,27.529-19.209,23.025-12.922s29.613-14.99,43.259-19.75" transform="translate(-265.756 -212.443)" fill="#594a42"/>
        </g>
      </g>
    </g>
    <g id="Group_6206" data-name="Group 6206" transform="translate(538.489 419.069)" opacity="0.1">
      <g id="Group_6205" data-name="Group 6205">
        <g id="Group_6204" data-name="Group 6204" clip-path="url(#clip-path-20)">
          <path id="Path_6221" data-name="Path 6221" d="M413.858,206.906s-30.357,24.829-38.511,41.332c-8.144,16.471-23.2,24.947-23.2,24.947L335.4,268.16l3.866,16.629c-30.3,18.3-65.1,3.7-73.4-.3,1.065-.2,1.788-.3,1.788-.3,53.87,5.454,59.438-9.116,59.438-9.116l.826-21.2,16.349,2.548s14.962-11.188,22.739-24.072c7.763-12.849,46.85-25.447,46.85-25.447" transform="translate(-265.866 -206.906)" fill="#fff"/>
        </g>
      </g>
    </g>
    <path id="Path_6222" data-name="Path 6222" d="M379,212.382a413.827,413.827,0,0,0-59.671,28.082c-18.976,11.091-37.383,23.634-52.693,39.68l-2.892,2.975a18.288,18.288,0,0,0-1.225,1.4h2.669c.02-.02.034-.044.055-.063l2.813-2.975c14.929-16.007,33.1-28.708,51.889-39.965a413.415,413.415,0,0,1,59.138-28.9Z" transform="translate(269.192 217.778)" fill="#f6f6f6"/>
    <path id="Path_6223" data-name="Path 6223" d="M13.563,103.053S36.007,144.167,37.619,166.1c1.614,21.887,14.467,38.027,14.467,38.027l20.8,1.965L61.134,222.755c25.32,33.863,70.385,33.338,81.367,32.641,1.6-.091,2.473-.178,2.473-.178,29.443-43.066-21.947-87.51-55.859-118.349-33.869-30.792-75.552-33.816-75.552-33.816" transform="translate(13.908 105.671)" fill="#e3e0e1"/>
    <g id="Group_6209" data-name="Group 6209" transform="translate(64.759 238.314)" opacity="0.2">
      <g id="Group_6208" data-name="Group 6208">
        <g id="Group_6207" data-name="Group 6207" clip-path="url(#clip-path-21)">
          <path id="Path_6224" data-name="Path 6224" d="M31.973,117.662,59,163.219l9.133-2.212,2.584,9.809s44.115,42.047,53.22,69.55L112.5,217.219,90.655,183.6,70.976,158.952s-26.039-29.893-39-41.29" transform="translate(-31.974 -117.662)" fill="#594a42"/>
        </g>
      </g>
    </g>
    <g id="Group_6212" data-name="Group 6212" transform="translate(27.47 208.724)" opacity="0.1">
      <g id="Group_6211" data-name="Group 6211">
        <g id="Group_6210" data-name="Group 6210" clip-path="url(#clip-path-22)">
          <path id="Path_6225" data-name="Path 6225" d="M13.563,103.053S36.007,144.167,37.619,166.1c1.614,21.887,14.467,38.027,14.467,38.027l20.8,1.965L61.134,222.755c25.32,33.863,70.385,33.338,81.367,32.641-1.09-.7-1.847-1.132-1.847-1.132C78.583,236.1,78.967,217.474,78.967,217.474l8.608-23.835-19.239-4.525s-11.535-19.1-14.354-36.852c-2.821-17.708-40.419-49.209-40.419-49.209" transform="translate(-13.562 -103.053)" fill="#fff"/>
        </g>
      </g>
    </g>
    <path id="Path_6226" data-name="Path 6226" d="M32.121,117.6a494.4,494.4,0,0,1,53.424,57.882c16.021,20.8,30.758,42.951,40.494,67.584l1.865,4.594c.638,1.525,1.013,3.148,1.533,4.717l2.913,9.5c1.525,6.4,3.156,12.774,4.519,19.211,1.163,5.357,2.218,10.739,3.249,16.122q-1.346.608-2.716,1.169c-1.059-5.576-2.151-11.142-3.352-16.687-1.266-6.431-2.8-12.8-4.229-19.193l-2.732-9.37c-.49-1.551-.834-3.149-1.444-4.662l-1.776-4.557c-9.333-24.42-23.74-46.639-39.475-67.539a493.729,493.729,0,0,0-52.466-58.552Z" transform="translate(32.738 120.592)" fill="#f6f6f6"/>
    <path id="Path_6227" data-name="Path 6227" d="M253.232,158.515c-4.5,8.588-11.535,11.047-17.913,9.748-6.368-1.635-13.937-5.517-17.625-10.625-3.814-4.6,2.862-15.255,18.119-18.054,15.547-2.382,22.316,10.471,17.418,18.931" transform="translate(222.147 142.833)" fill="#e3e0e1"/>
    <path id="Path_6228" data-name="Path 6228" d="M3.831,154.242c1.7,9.546,7.658,14.014,14.129,14.7,6.564.365,14.954-1.049,20.013-4.8,5.025-3.233,1.88-15.409-11.82-22.685-14.1-6.967-24.435,3.239-22.322,12.784" transform="translate(3.647 142.695)" fill="#f6f6f6"/>
    <path id="Path_6229" data-name="Path 6229" d="M296.341,201.105c1.181,6.635,5.323,9.74,9.821,10.218,4.561.255,10.39-.729,13.907-3.338,3.492-2.246,1.306-10.708-8.215-15.766-9.8-4.841-16.981,2.252-15.513,8.885" transform="translate(303.674 195.466)" fill="#dbc6ce"/>
    <path id="Path_6230" data-name="Path 6230" d="M162.471,298.541S185.8,96.229,183.956,95.119c-3.139-1.89-2.834.573-10.3-10.437-5.161-7.616-11.865-7.265-11.253-10.417,1.2-6.206,14.81,2.121,14.81,2.121s-6.35-11.02-1.424-13.277c2.657-1.215,4.752,3.538,4.752,3.538s-.178-5.355,2.509-5.681c3.96-.482,5.3,4.263,5.3,4.263a3.464,3.464,0,0,1,3.893-2.313c3.393.585,3.439,4.4,3.439,4.4s.719-2.206,2.364-2.455,4.737.235,5.159,9.187c.344,7.289,30.679,209.729,21.413,224.682-8.185,13.21-62.156-.194-62.156-.194" transform="translate(166.494 62.48)" fill="#ff9c92"/>
    <path id="Path_6231" data-name="Path 6231" d="M168.2,70.664a3.758,3.758,0,0,1-.359,1.039.307.307,0,1,1-.549-.273,1.885,1.885,0,0,0,.117-1.922c-.79-1.2-3.638-1.323-4.669-1.266a.307.307,0,0,1-.034-.614c.166-.008,4.073-.194,5.215,1.543a2,2,0,0,1,.277,1.493" transform="translate(166.545 69.336)" fill="#ef8984"/>
    <path id="Path_6232" data-name="Path 6232" d="M180.731,76.094a7.493,7.493,0,0,1-.836,2.295.307.307,0,1,1-.539-.294,4.973,4.973,0,0,0,.474-4.571c-1.357-2.937-6.066-3.968-6.113-3.978a.283.283,0,0,1-.237-.365.31.31,0,0,1,.365-.237c.2.045,5.055,1.1,6.542,4.322a4.7,4.7,0,0,1,.344,2.827" transform="translate(177.873 70.689)" fill="#ef8984"/>
    <path id="Path_6233" data-name="Path 6233" d="M186.693,76.152a.281.281,0,0,1-.02.067,3.062,3.062,0,0,1-1.908,1.835c-1.859.6-4.219-.508-5.07-.964a3.568,3.568,0,0,1-1.829,1.977,5.13,5.13,0,0,1-3.688-.075.306.306,0,1,1,.237-.565,4.6,4.6,0,0,0,3.2.079,3.112,3.112,0,0,0,1.624-1.959.312.312,0,0,1,.186-.188.3.3,0,0,1,.263.026c.028.018,2.89,1.73,4.883,1.084a2.442,2.442,0,0,0,1.531-1.489.307.307,0,0,1,.585.172" transform="translate(178.411 77.718)" fill="#ef8984"/>
    <path id="Path_6234" data-name="Path 6234" d="M178.934,74.971a.327.327,0,0,1-.051.124.308.308,0,0,1-.427.077c-.024-.016-2.4-1.718-.849-5.027a.307.307,0,1,1,.555.261c-1.325,2.819.565,4.2.646,4.261a.308.308,0,0,1,.126.3" transform="translate(181.581 71.746)" fill="#ef8984"/>
    <path id="Path_6235" data-name="Path 6235" d="M188.477,69.822l-.282-.043-5.369-.81-.282-.043-5.651-.851-1.748,11.583,5.934.9.581-3.864,5.369.81-.265,1.758,5.932.9,1.43-9.479Z" transform="translate(179.596 69.806)" fill="#ffbf9f"/>
    <path id="Path_6236" data-name="Path 6236" d="M215.066,75.763a3.144,3.144,0,0,1-3.577,2.639l-54.307-8.189a10.7,10.7,0,0,0,.7-2.524c.053-.342.087-.681.107-1.015a10.4,10.4,0,0,0-.2-2.728l54.635,8.239a3.144,3.144,0,0,1,2.639,3.577" transform="translate(161.176 65.572)" fill="#ffbf9f"/>
    <g id="Group_6215" data-name="Group 6215" transform="translate(318.358 132.247)" opacity="0.25">
      <g id="Group_6214" data-name="Group 6214">
        <g id="Group_6213" data-name="Group 6213" clip-path="url(#clip-path-23)">
          <path id="Path_6237" data-name="Path 6237" d="M213.76,76.49a3.133,3.133,0,0,1-2.27.533l-54.307-8.191a10.649,10.649,0,0,0,.7-2.524c.053-.34.087-.681.107-1.015l53.1,8.008a3.141,3.141,0,0,1,2.671,3.188" transform="translate(-157.182 -65.294)" fill="#ef8984"/>
        </g>
      </g>
    </g>
    <path id="Path_6238" data-name="Path 6238" d="M171.476,70.509c-.354-6.224-4.012-11.324-9.157-12.1-6.137-.926-12.067,4.648-13.244,12.45s2.846,14.879,8.983,15.8c5.446.822,10.731-3.476,12.671-9.906a18.018,18.018,0,0,0,.573-2.544,17.78,17.78,0,0,0,.174-3.7M158.944,80.782c-3.429-.516-5.659-4.636-4.972-9.183s4.031-7.826,7.46-7.31c2.443.369,4.278,2.566,4.881,5.442a10.567,10.567,0,0,1,.091,3.741,10.745,10.745,0,0,1-.7,2.524c-1.31,3.172-4.008,5.2-6.761,4.786" transform="translate(152.652 59.79)" fill="#ffbf9f"/>
    <path id="Path_6239" data-name="Path 6239" d="M168.712,64.876s.427,7.784,2,8.466a3.092,3.092,0,0,0,4.041-1.7s1.069,3.255,3.192,2.929,3.308-3.915,3.308-3.915S182.4,74.169,185.6,73.3s3.2-3.192,3.2-3.192,1.272,3.073,3.785,3.016,3.123-4.806,3.123-4.806-.385-3.3-1.371-3.808-4.016,2.1-6.913,1.246-6.015-1.88-8.521-1.859-5.469,2.341-6.982,1.59-2.175-2.722-3.216-.614" transform="translate(172.999 65.523)" fill="#ff9c92"/>
    <path id="Path_6240" data-name="Path 6240" d="M174.585,71.17A3.936,3.936,0,0,1,173.9,72.9c-2.046,2.7-4.2,1.146-4.223,1.13a.306.306,0,0,1,.365-.492c.069.049,1.7,1.2,3.37-1.009,1.762-2.331-.492-8.588-.516-8.651a.308.308,0,0,1,.184-.393.3.3,0,0,1,.393.182c.081.221,1.63,4.523,1.116,7.5" transform="translate(173.856 65.081)" fill="#ef8984"/>
    <path id="Path_6241" data-name="Path 6241" d="M183.354,68.734a11.462,11.462,0,0,1-.658,2.333,4.486,4.486,0,0,1-5.053,2.489,3.406,3.406,0,0,1-2.89-3.538.307.307,0,0,1,.614.012,2.79,2.79,0,0,0,2.4,2.925,3.863,3.863,0,0,0,4.363-2.119,11.866,11.866,0,0,0,.569-6.522.307.307,0,0,1,.6-.146,12.169,12.169,0,0,1,.063,4.565" transform="translate(179.192 65.559)" fill="#ef8984"/>
    <path id="Path_6242" data-name="Path 6242" d="M178.616,70.455a20.861,20.861,0,0,1-.632,2.676c-.711,2.242-2.41,2.959-3.779,2.676a3.329,3.329,0,0,1-2.487-3.777.3.3,0,0,1,.336-.273.307.307,0,0,1,.273.336,2.692,2.692,0,0,0,2,3.113c1.019.213,2.433-.253,3.068-2.258a35.082,35.082,0,0,0,1.092-9.726.31.31,0,0,1,.3-.318.306.306,0,0,1,.316.3,40.007,40.007,0,0,1-.488,7.257" transform="translate(176.056 64.5)" fill="#ef8984"/>
    <path id="Path_6243" data-name="Path 6243" d="M185.769,69.538l0,.01c-.547,3.147-2.538,4.039-4.075,3.846a3.582,3.582,0,0,1-3.056-3.966.307.307,0,0,1,.612.047,2.977,2.977,0,0,0,2.522,3.31c1.268.16,2.921-.622,3.395-3.344v-.006a13.089,13.089,0,0,0-.585-5.183.307.307,0,0,1,.583-.192,13.485,13.485,0,0,1,.608,5.479" transform="translate(183.161 65.471)" fill="#ef8984"/>
    <path id="Path_6244" data-name="Path 6244" d="M173.406,65.8a.307.307,0,0,1-.2.237c-3.077,1.108-1.665,5.284-1.6,5.461a.307.307,0,0,1-.579.2c-.6-1.7-.946-5.189,1.973-6.24a.3.3,0,0,1,.393.184.3.3,0,0,1,.014.156" transform="translate(174.954 67.103)" fill="#ef8984"/>
    <path id="Path_6245" data-name="Path 6245" d="M177.364,66.08a.308.308,0,0,1-.3.255,3.374,3.374,0,0,0-2.805,1.221c-1.276,1.728-.446,4.737-.435,4.766a.306.306,0,0,1-.589.168c-.041-.136-.924-3.326.531-5.3a3.947,3.947,0,0,1,3.287-1.472.306.306,0,0,1,.312.3.279.279,0,0,1,0,.059" transform="translate(177.33 67.391)" fill="#ef8984"/>
    <path id="Path_6246" data-name="Path 6246" d="M181.695,65.951h0a.309.309,0,0,1-.354.251,3.19,3.19,0,0,0-2.746.616c-1.693,1.45-1.659,4.719-1.657,4.752a.307.307,0,0,1-.614.012c0-.146-.043-3.589,1.869-5.23a3.78,3.78,0,0,1,3.251-.756.307.307,0,0,1,.251.354" transform="translate(180.803 67.181)" fill="#ef8984"/>
    <path id="Path_6247" data-name="Path 6247" d="M184.841,65.906l0,.014a.308.308,0,0,1-.367.233,2.722,2.722,0,0,0-2.3.425c-1.724,1.3-1.963,4.622-1.965,4.654a.308.308,0,0,1-.614-.041c.01-.15.259-3.636,2.21-5.1a3.3,3.3,0,0,1,2.805-.537.305.305,0,0,1,.237.352" transform="translate(184.152 67.117)" fill="#ef8984"/>
    <path id="Path_6248" data-name="Path 6248" d="M168.147,132s32.348,51.468,27.128,91.188-54.167-76.423-54.167-76.423Z" transform="translate(144.693 135.358)" fill="#ff9c92"/>
    <path id="Path_6249" data-name="Path 6249" d="M129.73,93.957s47.04,38.928,63.507,94.69l-31.752,17.635S126.246,126.534,129.73,93.957" transform="translate(132.777 96.344)" fill="#e36247"/>
    <g id="Group_6218" data-name="Group 6218" transform="translate(270.309 237.736)" opacity="0.25" style="mix-blend-mode: multiply;isolation: isolate">
      <g id="Group_6217" data-name="Group 6217">
        <g id="Group_6216" data-name="Group 6216" clip-path="url(#clip-path-24)">
          <path id="Path_6250" data-name="Path 6250" d="M133.459,117.377c9.479,32.111,23.952,64.888,23.952,64.888l31.754-17.635c-.184-.622-.391-1.229-.583-1.847-18.648-14.8-36.739-30.284-55.123-45.406" transform="translate(-133.459 -117.377)" fill="#1b2e36"/>
        </g>
      </g>
    </g>
    <path id="Path_6251" data-name="Path 6251" d="M287.3,405.237C264.725,289.3,257.17,84.745,175.372,87.906,92.693,91.1,28.994,339.494,61.625,405.237Z" transform="translate(54.259 90.103)" fill="#e36247"/>
    <g id="Group_6221" data-name="Group 6221" transform="translate(107.182 256.625)" opacity="0.25" style="mix-blend-mode: multiply;isolation: isolate">
      <g id="Group_6220" data-name="Group 6220">
        <g id="Group_6219" data-name="Group 6219" clip-path="url(#clip-path-25)">
          <path id="Path_6252" data-name="Path 6252" d="M92.03,365.418c-3.935-11.972-5.57-24.71-.1-36.1,6.923-14.4,23.414-20.268,37.778-24.264,14.233-3.958,30.276-6,43.153-13.744-3.64-4.9-10.277-7.2-15.756-9.244a98.883,98.883,0,0,1-18.909-9.039A116.733,116.733,0,0,1,120.45,259.3c-4.964-4.7-9.943-10.232-12.26-16.787-5.183-14.648,4.45-28.493,9.566-41.642,4.806-12.353,6.013-26.494,6.125-39.643.1-11.462-.847-23.754-5.256-34.529A87.892,87.892,0,0,1,108.4,143.72c-8.669,11.387-19.175,20.906-30.043,30.057-24.53,73.073-33.78,157.3-16.716,191.64Z" transform="translate(-52.919 -126.703)" fill="#1b2e36"/>
        </g>
      </g>
    </g>
    <path id="Path_6253" data-name="Path 6253" d="M111.225,44.46s-10.666,8.258-9.416,26.885-1.08,49.827,24.439,40.616,6.718-63.509-15.022-67.5" transform="translate(104.291 45.59)" fill="#1b2e36"/>
    <path id="Path_6254" data-name="Path 6254" d="M111.942,71.806,106,111.395s5.61,35.133,29.7,26.748c11.4-3.966,2.655-49.116,2.655-49.116Z" transform="translate(108.697 73.63)" fill="#ff9c92"/>
    <path id="Path_6255" data-name="Path 6255" d="M118.933,106.918c5.7-1.357,11.579-.932,17.121-3.21a22,22,0,0,0,4.213-2.337c-.889-7.085-1.906-12.345-1.906-12.345l-26.419-17.22L106,111.395a51.268,51.268,0,0,0,1.229,5.276c2.331-4.673,6.1-8.42,11.7-9.752" transform="translate(108.696 73.63)" fill="#ef8984"/>
    <path id="Path_6256" data-name="Path 6256" d="M101.554,94.136c.77-8.491,11.521-5.207,11.521-5.207s-10.907-8.813-4.8-27.371,57.062-28.536,66.458-3.771c4.3,11.336,10.988,52.282-10.34,66.176s-25.421,5.791-37.045-1.367c-10-6.159-10.852-13.586-10.852-13.586s-16.27-.162-14.937-14.873" transform="translate(104.055 44.122)" fill="#ff9c92"/>
    <path id="Path_6257" data-name="Path 6257" d="M189.007,66.724C185.015,50.753,174.6,47.561,174.6,47.561s.134-5.795-9.846-11.9c-12.13-7.419-21.688-1.732-26.533,2.619,1.849-4.64,2.726-8.96.069-9.8-6.161-1.948-7.654,11.95-7.654,11.95s-.907-9.465-7.82-10.287-.367,10.893-.367,10.893-9.323-9.908-11.871-2.544c-1.365,3.941.772,8.215,5.187,10.836-27.853,13.187-16.947,44.721.128,54.706,4.511,2.637-.342,7.352,4.98,6.9s13.726-18.37,9.53-35.473c20.92,11.508,50.226,9.906,50.226,9.906S193,82.692,189.007,66.724" transform="translate(101.24 29.015)" fill="#1b2e36"/>
    <path id="Path_6258" data-name="Path 6258" d="M104.314,74.241a.539.539,0,0,1-.5-.344c-1.851-4.729,2.884-7.528,2.931-7.557a.543.543,0,0,1,.545.94c-.164.1-3.976,2.368-2.467,6.222a.543.543,0,0,1-.306.7.581.581,0,0,1-.2.036" transform="translate(106.007 67.951)" fill="#1b2e36"/>
    <path id="Path_6259" data-name="Path 6259" d="M113.666,72.5c-.338,2.009,1.851,4.055,4.891,4.565s5.778-.7,6.117-2.71-1.851-4.053-4.891-4.565-5.776.7-6.117,2.71" transform="translate(116.519 71.439)" fill="#ef8984"/>
    <path id="Path_6260" data-name="Path 6260" d="M122,81.739c-.338,2.009,1.851,4.055,4.891,4.565s5.778-.7,6.117-2.71-1.851-4.053-4.891-4.565-5.776.7-6.117,2.71" transform="translate(125.061 80.917)" fill="#ef8984"/>
    <path id="Path_6261" data-name="Path 6261" d="M130.753,73.38c-.338,2.009,1.851,4.055,4.891,4.567s5.778-.7,6.117-2.712-1.851-4.053-4.891-4.565-5.776.7-6.117,2.71" transform="translate(134.04 72.346)" fill="#ef8984"/>
    <path id="Path_6262" data-name="Path 6262" d="M128.117,80.278a3.146,3.146,0,0,0,.867-.124,4.533,4.533,0,0,0,2.595-2.639.846.846,0,0,0-.085-.755c-3.048-4.681-2.24-11-2.23-11.063a.851.851,0,0,0-.729-.956.842.842,0,0,0-.956.729c-.039.277-.855,6.674,2.238,11.814a2.491,2.491,0,0,1-1.314,1.24,2.453,2.453,0,0,1-2.076-.676.849.849,0,0,0-1.031,1.349,4.545,4.545,0,0,0,2.722,1.082" transform="translate(128.237 66.377)" fill="#1b2e36"/>
    <path id="Path_6263" data-name="Path 6263" d="M141.887,78.205a26.353,26.353,0,0,1-20.55-.658c-2.463,4.511,10.4,16.256,20.55.658" transform="translate(124.106 79.517)" fill="#eaefee"/>
    <path id="Path_6264" data-name="Path 6264" d="M124.281,66.326c0,2.655-1.46,4.8-3.271,4.8s-3.271-2.141-3.271-4.8c0-2.631,1.46-4.792,3.271-4.792a2.728,2.728,0,0,1,2.119,1.13,1.431,1.431,0,0,0,.35,2.821,1.228,1.228,0,0,0,.719-.207,5.741,5.741,0,0,1,.083,1.047" transform="translate(120.73 63.097)" fill="#1b2e36"/>
    <path id="Path_6265" data-name="Path 6265" d="M131.918,62.7s-14.467-.727-15.924-2.153,3.073-4.43,9.451-2.815,8.128,4.92,6.473,4.968" transform="translate(118.661 58.724)" fill="#1b2e36"/>
    <path id="Path_6266" data-name="Path 6266" d="M137.87,66.326c0,2.655-1.46,4.8-3.271,4.8s-3.271-2.141-3.271-4.8c0-2.631,1.46-4.792,3.271-4.792a2.728,2.728,0,0,1,2.119,1.13,1.431,1.431,0,0,0,.35,2.821,1.228,1.228,0,0,0,.719-.207,5.739,5.739,0,0,1,.083,1.047" transform="translate(134.665 63.097)" fill="#1b2e36"/>
    <path id="Path_6267" data-name="Path 6267" d="M145.507,62.7s-14.467-.727-15.924-2.153,3.073-4.43,9.451-2.815,8.128,4.92,6.473,4.968" transform="translate(132.595 58.724)" fill="#1b2e36"/>
    <path id="Path_6268" data-name="Path 6268" d="M26.547,228.721l461.675-10.658,124.392,65.178H89.827Z" transform="translate(27.221 223.604)" fill="#ffbf9f"/>
    <path id="Path_6269" data-name="Path 6269" d="M207.127,273.777,92.8,244.455s15.316-36.634,31.291-67.825c-3.929-1.43-54.321-24.234-63.345-25.551C29.515,200.759,10.721,250.657,32,277.769c22.741,28.977,144.276,26.2,173.417,12.391,17.473-6.337,1.711-16.384,1.711-16.384" transform="translate(23.502 154.919)" fill="#ff9c92"/>
    <path id="Path_6270" data-name="Path 6270" d="M110.214,242.943c33.235-65.206,77.419-159.671,47.168-146.453-38.217,16.7-87.585,66.257-121.237,118.357,0,14.518,60.807,34.481,74.069,28.1" transform="translate(37.063 97.659)" fill="#e36247"/>
    <path id="Path_6271" data-name="Path 6271" d="M163.208,254.016l-88.68-27.471,188.92-1.391Z" transform="translate(76.421 230.874)" fill="#1b2e36"/>
    <path id="Path_6272" data-name="Path 6272" d="M163.719,251.654,74.127,228.667l189.831-5.876Z" transform="translate(76.011 228.452)" fill="#395b64"/>
    <path id="Path_6273" data-name="Path 6273" d="M137.626,181.275l-20.5,130.618c-.926,5.9,2.467,10.253,7.778,9.989l213.7-10.6c5.311-.263,10.743-5.059,12.454-10.994l26.82-126.373c1.256-4.282.632-8.166-1.73-10.862a8.791,8.791,0,0,0-7.241-2.655L152.9,166.554a14.83,14.83,0,0,0-8.6,3.441,18.428,18.428,0,0,0-6.666,11.279" transform="translate(119.943 164.456)" fill="#e3e0e1"/>
    <path id="Path_6274" data-name="Path 6274" d="M309.9,163.05a8.8,8.8,0,0,0-7.241-2.653l-35.435,1.009a75.122,75.122,0,0,1,7.7,3.577c7.948,4.3,15.438,10.885,17.084,20.193,1.509,8.531-1.952,16.5-8.166,22.255-6.331,5.87-14.338,9.639-21.684,14.034-7.117,4.257-14.642,9.446-17.7,17.522-3.589,9.483.5,20.167,2.906,29.437,2.295,8.839,4.349,19.31-2.418,26.774-4.158,4.583-10.188,6.89-16.064,8.337-7.136,1.754-14.5,2.131-21.769,3.052-7.162.907-14.241,2.406-20.554,6.044-1.7.982-3.358,2.048-4.989,3.154l90.783-4.5c5.309-.263,10.741-5.057,12.452-10.992l26.82-126.373c1.256-4.284.634-8.168-1.73-10.864" transform="translate(186.188 164.456)" fill="#dbc6ce"/>
    <path id="Path_6275" data-name="Path 6275" d="M211.3,194.558a14.881,14.881,0,1,1-14.881-14.881A14.881,14.881,0,0,1,211.3,194.558" transform="translate(186.149 184.242)" fill="#dbc6ce"/>
    <path id="Path_6276" data-name="Path 6276" d="M141.581,243.008V243a34.5,34.5,0,0,1-6.824-1.679.423.423,0,0,1,.067,0,42.767,42.767,0,0,1-4.743-1.705,52.552,52.552,0,0,1-5.961-2.9l-.016-.008a13.419,13.419,0,0,1-2.586-1.8s-11.652,2.2-15.1.691c-5.286-6.562,3.6-19.294,3.6-19.294,2.868-2.064,9.457,2.441,14.67.148,6.082-2.674,15.31-15.089,17.39-10.481s-6.678,10.666-6.678,10.666.134-.014.379-.022a37.168,37.168,0,0,1,12.112,1.406h.006a16.726,16.726,0,0,1,3.879,1.807c.2.136.409.273.608.415a9.9,9.9,0,0,1,1,.841c.051.045.105.1.156.15.154.152.3.308.446.468l.018.02,0,.012a3.7,3.7,0,0,1,.241,2.185c-.472,3.056-2.925,3.071-2.925,3.071a3.317,3.317,0,0,1,1.26,3.729c-.8,2.56-2.69,1.873-2.69,1.873s1.63,2.031.926,4.022a2.187,2.187,0,0,1-2.921,1.27,3.5,3.5,0,0,1,.516,3.743c-.762,2.22-6.82,1.377-6.82,1.377" transform="translate(107.4 210.167)" fill="#ff9c92"/>
    <g id="Group_6224" data-name="Group 6224" transform="translate(251.355 430.001)" opacity="0.2">
      <g id="Group_6223" data-name="Group 6223">
        <g id="Group_6222" data-name="Group 6222" clip-path="url(#clip-path-26)">
          <path id="Path_6277" data-name="Path 6277" d="M126.739,224.966a.228.228,0,0,1,.03.263,6.1,6.1,0,0,0-.853,3.739,1.84,1.84,0,0,1-.122,1.373,2.5,2.5,0,0,1-.488.448,1.728,1.728,0,0,0-.472.689,9.144,9.144,0,0,0-.687,2.817,12.24,12.24,0,0,0-.045,1.341c1.788.01,4-.249,4.442-1.533a3.509,3.509,0,0,0-.516-3.745,2.183,2.183,0,0,0,2.919-1.266c.707-1.993-.924-4.024-.924-4.024s1.888.685,2.688-1.874a3.307,3.307,0,0,0-1.258-3.727s2.453-.018,2.925-3.073a3.72,3.72,0,0,0-.239-2.185l0-.012-.018-.02q-.213-.24-.444-.468c-.053-.053-.107-.105-.158-.15a11.011,11.011,0,0,0-.994-.841c-.2-.142-.405-.28-.61-.415a7.009,7.009,0,0,1-.091,2.246,3.888,3.888,0,0,1-1.013,2.226c-.644.6-1.551.764-2.244,1.29a2.62,2.62,0,0,0-.81,2.449c.12.751.521,1.387.328,2.169a6.759,6.759,0,0,1-1.331,2.262l-.018.02" transform="translate(-124.101 -212.304)" fill="#f2faff"/>
        </g>
      </g>
    </g>
    <g id="Group_6227" data-name="Group 6227" transform="translate(243.94 415.794)" opacity="0.2">
      <g id="Group_6226" data-name="Group 6226">
        <g id="Group_6225" data-name="Group 6225" clip-path="url(#clip-path-27)">
          <path id="Path_6278" data-name="Path 6278" d="M124.645,205.351s-2.708,2.917-3.421,2.836-.784-.948-.784-.948,3.01-2.358,4.2-1.888" transform="translate(-120.44 -205.289)" fill="#f2faff"/>
        </g>
      </g>
    </g>
    </g>
</svg>
