<svg xmlns="http://www.w3.org/2000/svg" width="43.009" height="56.415" viewBox="0 0 43.009 56.415">
  <g id="_2047724626368" transform="translate(0 0)">
    <path id="Path_6409" data-name="Path 6409" d="M7.473,41.615c-.406-2.6,3.236-1.98,5.231-1.978,1.965,0,5.681-.68,5.959,1.346.36,2.637-3.119,1.953-5.3,1.953-1.912,0-5.586.627-5.889-1.319Zm0-8.785c-.424-2.711,3.631-1.978,5.67-1.978H28.518c2.019,0,6.016-.7,6.328,1.372.4,2.65-3.665,1.927-5.67,1.927H13.8c-1.963,0-6.016.68-6.328-1.319ZM9.63,25.364c-2.98,0-2.985-3.3,0-3.3H32.691c2.983,0,2.978,3.3-.111,3.3ZM25.772.215C24.4-.085,7.082-.069,5.274.174A6.062,6.062,0,0,0,.136,5.37C-.133,7.6.077,40.423.077,46.448c0,4.02-.446,5.832,1.966,8.245,2.151,2.151,5.237,1.638,8.683,1.638H31.371c2.941,0,6.873.507,8.993-1.113,2.538-1.94,2.538-4.01,2.536-7.892,0-9.791.256-21.356-.018-30.746-2.812,0-5.623,0-8.435,0-2.4,0-5.8.51-7.365-.984-1.831-1.752-1.311-4.172-1.311-7.144V.217Z" transform="translate(0.001 0.009)" fill="#0089ff" fill-rule="evenodd"/>
    <path id="Path_6412" data-name="Path 6412" d="M176.3,17.734c1.235.348,10.829.2,12.763.086-.578-1.2-4.866-5.136-6.271-6.383-1.78-1.578-5.277-5.369-6.754-5.967Z" transform="translate(-146.975 -4.565)" fill="#0089ff" fill-rule="evenodd"/>
  </g>
</svg>
