<svg xmlns="http://www.w3.org/2000/svg" xmlns:xlink="http://www.w3.org/1999/xlink" width="333.989" height="250" viewBox="0 0 333.989 250">
  <defs>
    <clipPath id="clip-path">
      <rect id="Rectangle_394" data-name="Rectangle 394" width="333.989" height="250" transform="translate(0 0)" fill="none"/>
    </clipPath>
  </defs>
  <g id="Group_720" data-name="Group 720" transform="translate(0 -0.003)">
    <g id="Group_719" data-name="Group 719" transform="translate(0 0.003)" clip-path="url(#clip-path)">
      <path id="Path_811" data-name="Path 811" d="M293.168,249.514c-3,.468-32.059.552-70.165.452h-.108c-10.681-.029-22.072-.071-33.8-.124q-1.659-.007-3.327-.016c-.229,0-.457,0-.686,0-9.464-.044-19.115-.1-28.761-.15q-5-.027-9.979-.057c-10.51-.063-20.934-.129-31.021-.2l-.968,0-2.86-.019c-11.872-.079-23.22-.161-33.623-.239-.082,0-.165,0-.247,0-33.228-.245-56.753-.447-56.753-.447-24.684-15.172-25.929-60.59-11.8-81.524,27.01-40.012-9.235-68.506,5.753-97.574,20.048-38.881,48.653,1.572,93.2-38.8,37.155-33.67,67.16-36.61,84.414-23.762q.76.566,1.513,1.151c10.439,8.108,20.111,18.925,32.721,26.069q.76.428,1.533.842c8.558,4.55,18.481,5.774,30.873,6.545,93.469,5.813,33.762,86.094,52.734,119.177,20.965,36.555,8.386,84.465-18.647,88.678" transform="translate(0 -0.003)" fill="#dae6ff"/>
      <path id="Path_812" data-name="Path 812" d="M1042.572,817a.462.462,0,0,1-.339-.629c25.44-61.525,47.288-104.571,61.52-121.21.316-.37.544-.636.635-.774a.461.461,0,1,1,.77.508,10.97,10.97,0,0,1-.7.866c-14.17,16.566-35.965,59.525-61.369,120.962a.462.462,0,0,1-.514.277" transform="translate(-877.927 -584.761)" fill="#b8d0fc"/>
      <path id="Path_813" data-name="Path 813" d="M1435.994,644.8c-1.675,1.86-9.459,4.8-9.99,4.322s1.581-8.527,3.256-10.387a4.531,4.531,0,0,1,6.734,6.064" transform="translate(-1201.167 -536.795)" fill="#b8d0fc"/>
      <path id="Path_814" data-name="Path 814" d="M1346.013,694.769c.488,2.513-1.9,10.684-2.621,10.823s-5.993-6.543-6.48-9.056a4.636,4.636,0,0,1,9.1-1.767" transform="translate(-1126.116 -582.099)" fill="#b8d0fc"/>
      <path id="Path_815" data-name="Path 815" d="M1388.725,763.315c-2.558-.09-9.981-4.26-9.955-4.991s7.724-4.365,10.283-4.275a4.636,4.636,0,1,1-.328,9.265" transform="translate(-1161.448 -635.196)" fill="#b8d0fc"/>
      <path id="Path_816" data-name="Path 816" d="M1148.813,938.4c1.269,4.106-1.244,18.173-2.415,18.535s-11.184-9.834-12.453-13.94a7.781,7.781,0,1,1,14.868-4.6" transform="translate(-954.919 -785.871)" fill="#b8d0fc"/>
      <path id="Path_817" data-name="Path 817" d="M1232.385,1039.751c-4.286.312-17.426-5.3-17.515-6.527s12.1-8.682,16.386-8.994a7.781,7.781,0,1,1,1.129,15.521" transform="translate(-1023.382 -862.775)" fill="#b8d0fc"/>
      <path id="Path_818" data-name="Path 818" d="M1054.5,1035.751c2.621,4.559,3.41,22.029,2.109,22.776s-16-8.727-18.62-13.286a9.522,9.522,0,0,1,16.511-9.49" transform="translate(-873.313 -868.472)" fill="#b8d0fc"/>
      <path id="Path_819" data-name="Path 819" d="M1178.8,1163.879c-5.256-.16-20.544-8.65-20.5-10.15s15.822-9.045,21.078-8.885a9.522,9.522,0,0,1-.58,19.035" transform="translate(-975.727 -964.392)" fill="#b8d0fc"/>
      <path id="Path_820" data-name="Path 820" d="M997.68,1162.617c2.621,4.559,3.411,22.028,2.109,22.776s-16-8.727-18.62-13.286a9.522,9.522,0,0,1,16.511-9.49" transform="translate(-825.45 -975.341)" fill="#b8d0fc"/>
      <path id="Path_821" data-name="Path 821" d="M1121.977,1290.745c-5.256-.16-20.544-8.65-20.5-10.15s15.822-9.045,21.078-8.884a9.522,9.522,0,1,1-.579,19.035" transform="translate(-927.864 -1071.262)" fill="#b8d0fc"/>
      <path id="Path_822" data-name="Path 822" d="M898.427,1332.836c4.16,3.218,11.544,19.069,10.626,20.256s-18.117-1.975-22.277-5.192a9.522,9.522,0,0,1,11.651-15.064" transform="translate(-743.888 -1121.079)" fill="#b8d0fc"/>
      <path id="Path_823" data-name="Path 823" d="M1064.414,1416.877c-5.235.5-21.465-6.014-21.607-7.508s14.567-10.952,19.8-11.45a9.522,9.522,0,0,1,1.8,18.958" transform="translate(-878.44 -1177.544)" fill="#b8d0fc"/>
      <path id="Path_824" data-name="Path 824" d="M1294.267,773.229c.5,2.554-1.934,10.855-2.663,11s-6.089-6.648-6.584-9.2a4.71,4.71,0,1,1,9.247-1.8" transform="translate(-1082.402 -648.141)" fill="#b8d0fc"/>
      <path id="Path_825" data-name="Path 825" d="M1335.436,843.66c-2.6-.092-10.141-4.329-10.115-5.071s7.848-4.435,10.448-4.343a4.71,4.71,0,0,1-.333,9.414" transform="translate(-1116.425 -702.751)" fill="#b8d0fc"/>
      <path id="Path_826" data-name="Path 826" d="M1217.558,839.762c1,3.558-1.473,15.6-2.489,15.88s-9.4-8.7-10.4-12.261a6.691,6.691,0,1,1,12.884-3.62" transform="translate(-1014.583 -703.286)" fill="#b8d0fc"/>
      <path id="Path_827" data-name="Path 827" d="M1285.92,938.124c-3.693-.131-14.407-6.15-14.37-7.2s11.15-6.3,14.843-6.17a6.691,6.691,0,1,1-.473,13.374" transform="translate(-1071.129 -778.99)" fill="#b8d0fc"/>
      <path id="Path_828" data-name="Path 828" d="M275.811,803.719a.486.486,0,0,0,.091-.027.471.471,0,0,0,.255-.616c-25.991-62.859-48.313-106.838-62.854-123.838-.323-.378-.556-.65-.649-.79a.471.471,0,1,0-.787.519,11.168,11.168,0,0,0,.72.884c14.478,16.926,36.745,60.816,62.7,123.585a.472.472,0,0,0,.525.283" transform="translate(-178.407 -571.334)" fill="#b8d0fc"/>
      <path id="Path_829" data-name="Path 829" d="M156.7,627.788c1.711,1.9,9.664,4.9,10.207,4.416s-1.616-8.712-3.327-10.612a4.629,4.629,0,0,0-6.88,6.2" transform="translate(-130.995 -522.327)" fill="#b8d0fc"/>
      <path id="Path_830" data-name="Path 830" d="M259.469,678.842c-.5,2.568,1.945,10.915,2.677,11.058s6.122-6.685,6.621-9.252a4.736,4.736,0,1,0-9.3-1.805" transform="translate(-218.516 -568.614)" fill="#b8d0fc"/>
      <path id="Path_831" data-name="Path 831" d="M185.786,748.875c2.614-.092,10.2-4.353,10.171-5.1s-7.892-4.46-10.506-4.367a4.736,4.736,0,1,0,.335,9.466" transform="translate(-152.372 -622.863)" fill="#b8d0fc"/>
      <path id="Path_832" data-name="Path 832" d="M426.468,927.757c-1.3,4.195,1.271,18.567,2.468,18.937s11.426-10.048,12.723-14.242a7.95,7.95,0,1,0-15.19-4.7" transform="translate(-358.948 -776.804)" fill="#b8d0fc"/>
      <path id="Path_833" data-name="Path 833" d="M291.033,1031.3c4.379.318,17.8-5.419,17.9-6.669s-12.362-8.87-16.741-9.189a7.95,7.95,0,1,0-1.154,15.858" transform="translate(-238.949 -855.375)" fill="#b8d0fc"/>
      <path id="Path_834" data-name="Path 834" d="M495.869,1027.217c-2.677,4.658-3.484,22.506-2.155,23.27s16.346-8.916,19.023-13.574a9.728,9.728,0,1,0-16.868-9.7" transform="translate(-415.365 -861.196)" fill="#b8d0fc"/>
      <path id="Path_835" data-name="Path 835" d="M315.327,1158.123c5.37-.163,20.99-8.838,20.943-10.37s-16.165-9.24-21.535-9.077a9.728,9.728,0,1,0,.592,19.448" transform="translate(-257.181 -959.196)" fill="#b8d0fc"/>
      <path id="Path_836" data-name="Path 836" d="M553.92,1156.833c-2.677,4.658-3.484,22.506-2.155,23.27s16.346-8.916,19.024-13.574a9.728,9.728,0,0,0-16.869-9.7" transform="translate(-464.266 -970.382)" fill="#b8d0fc"/>
      <path id="Path_837" data-name="Path 837" d="M373.379,1287.74c5.37-.163,20.99-8.838,20.943-10.371s-16.165-9.24-21.535-9.077a9.728,9.728,0,1,0,.592,19.447" transform="translate(-306.083 -1068.383)" fill="#b8d0fc"/>
      <path id="Path_838" data-name="Path 838" d="M625.028,1330.744c-4.25,3.287-11.794,19.482-10.856,20.7s18.51-2.018,22.76-5.3a9.728,9.728,0,0,0-11.9-15.391" transform="translate(-517.299 -1119.28)" fill="#b8d0fc"/>
      <path id="Path_839" data-name="Path 839" d="M432.64,1416.606c5.349.509,21.93-6.144,22.075-7.671s-14.883-11.189-20.231-11.7a9.728,9.728,0,0,0-1.844,19.369" transform="translate(-357.029 -1176.968)" fill="#b8d0fc"/>
      <path id="Path_840" data-name="Path 840" d="M311.528,759c-.507,2.609,1.976,11.09,2.72,11.235s6.221-6.792,6.727-9.4A4.812,4.812,0,0,0,311.528,759" transform="translate(-262.368 -636.089)" fill="#b8d0fc"/>
      <path id="Path_841" data-name="Path 841" d="M238.94,830.961c2.656-.094,10.361-4.422,10.334-5.181s-8.018-4.531-10.674-4.437a4.812,4.812,0,0,0,.34,9.618" transform="translate(-197.081 -691.882)" fill="#b8d0fc"/>
      <path id="Path_842" data-name="Path 842" d="M368.233,826.978c-1.021,3.635,1.505,15.933,2.543,16.225s9.6-8.891,10.62-12.526a6.836,6.836,0,1,0-13.163-3.7" transform="translate(-309.992 -692.428)" fill="#b8d0fc"/>
      <path id="Path_843" data-name="Path 843" d="M255.092,927.474c3.773-.133,14.719-6.283,14.681-7.36s-11.391-6.438-15.165-6.3a6.836,6.836,0,1,0,.483,13.664" transform="translate(-208.922 -769.774)" fill="#b8d0fc"/>
      <path id="Path_844" data-name="Path 844" d="M1102.944,1014.036s-31.456-49.923,62.418-89.154c0,0,1.541,104.78-62.418,89.154" transform="translate(-924.832 -779.103)" fill="#7798f8"/>
      <path id="Path_845" data-name="Path 845" d="M1166.1,923.812l-65.353,82.438c-4.855-14.919-7.688-51.914,65.353-82.438" transform="translate(-925.45 -778.202)" fill="#89b4fd"/>
      <path id="Path_846" data-name="Path 846" d="M1128.741,1002.04a.165.165,0,0,1-.1-.036.167.167,0,0,1-.027-.235l62.593-78.957a.168.168,0,0,1,.263.208l-62.593,78.957a.167.167,0,0,1-.131.064" transform="translate(-950.688 -777.305)" fill="#080435"/>
      <path id="Path_847" data-name="Path 847" d="M1318.543,1159.943a.168.168,0,0,1-.027-.333l27.606-4.612a.168.168,0,1,1,.055.331l-27.606,4.612-.028,0" transform="translate(-1110.574 -972.946)" fill="#080435"/>
      <path id="Path_848" data-name="Path 848" d="M1205.127,1388.154l0,0c-.281.292-12.213,12.689-27.275,21.142l-.008,0c-1.395.783-2.818,1.532-4.26,2.234-10.681-.029-22.073-.071-33.8-.124q-1.659-.007-3.327-.016a34.823,34.823,0,0,1-7.884-9.12,0,0,0,0,1,0,0s9.018-41.233,76.557-14.122" transform="translate(-950.685 -1161.578)" fill="#89b4fd"/>
      <path id="Path_849" data-name="Path 849" d="M1128.57,1451.613a.005.005,0,0,0,0,0s0,0,0,.01a26.792,26.792,0,0,0,7.193,9.107c.229,0,.457,0,.686,0q1.668.01,3.327.016c11.725.053,23.117.1,33.8.124h.108q2.019-1.012,4.152-2.234l.008,0c7.913-4.547,16.962-11.344,27.275-21.143l0,0Z" transform="translate(-950.685 -1210.915)" fill="#7798f8"/>
      <path id="Path_850" data-name="Path 850" d="M618.125,1137.252s23.623-37.492-46.875-66.954c0,0-1.157,78.689,46.875,66.954" transform="translate(-481.208 -901.599)" fill="#7798f8"/>
      <path id="Path_851" data-name="Path 851" d="M570.713,1069.494l49.079,61.91c3.646-11.2,5.773-38.987-49.079-61.91" transform="translate(-480.757 -900.921)" fill="#89b4fd"/>
      <path id="Path_852" data-name="Path 852" d="M617.046,1128.242a.124.124,0,0,0,.078-.027.126.126,0,0,0,.02-.177l-47.007-59.3a.126.126,0,0,0-.2.156l47.007,59.3a.125.125,0,0,0,.1.048" transform="translate(-480.084 -900.247)" fill="#080435"/>
      <path id="Path_853" data-name="Path 853" d="M614.928,1246.825a.126.126,0,0,0,.02-.25l-20.732-3.464a.126.126,0,0,0-.041.249l20.732,3.464.021,0" transform="translate(-500.433 -1047.172)" fill="#080435"/>
      <path id="Path_854" data-name="Path 854" d="M310.84,1334.673a.005.005,0,0,1,0,0c-4.413,8.854-10.079,14.489-16.45,17.733l-2.86-.019c-11.872-.079-23.22-.161-33.624-.239-2.571-.9-5.112-1.922-7.6-3.03-19.809-8.821-36.179-22.981-36.577-23.327,0,0,0,0-.008-.006,81.164-41.528,97.119,8.885,97.119,8.885" transform="translate(-180.034 -1103)" fill="#89b4fd"/>
      <path id="Path_855" data-name="Path 855" d="M213.721,1413.465l.008.006.013.011.018.015c14.034,11.08,26.133,18.536,36.547,23.3q3.823,1.748,7.351,3.028c.082,0,.165,0,.247,0,10.4.078,21.751.16,33.623.239l2.86.019.968,0a33.7,33.7,0,0,0,15.478-17.73.025.025,0,0,0,0-.008,0,0,0,0,0,0,0Z" transform="translate(-180.034 -1190.676)" fill="#7798f8"/>
      <path id="Path_856" data-name="Path 856" d="M948.992,540.939s35.374,23.946,59.046,20.436c14.774-2.191.649-64.7.649-64.7l-10.279.152s2.128,44.136-1.423,43.49c-2.235-.406-29.539-17.132-29.539-17.132Z" transform="translate(-799.412 -418.391)" fill="#f18b7b"/>
      <path id="Path_857" data-name="Path 857" d="M544.234,230.837a23.005,23.005,0,0,0-1.848,1.759c-4.786,5.094-4.478,13.953-11.116,17.39-4.749,2.459-10.444.392-15.778,0a18.48,18.48,0,0,0-11.338,2.573,12.441,12.441,0,0,0-5.858,9.75c-.115,3.871,1.9,7.505,2.223,11.364a13.359,13.359,0,0,1-3.212,9.794c-2.483,2.841-6.04,4.478-8.974,6.851s-5.371,6.168-4.229,9.764c1.224,3.855,5.915,5.624,7.582,9.309,1.792,3.964-.473,8.447-2.11,12.478s-2.2,9.6,1.518,11.863a9.122,9.122,0,0,0,5.628.834,6.99,6.99,0,0,1,3.761.271,5.4,5.4,0,0,1,1.715,1.516c2.9,3.56,4.787,8.469,9.11,10.009,2.233.8,4.69.489,7.037.157,4.907-.7,10.069-1.579,13.876-4.751,6.606-5.5,6.859-15.829,12.58-22.247,4.557-5.113,11.78-6.857,18.6-7.523s39.309,4.361,36.485-17.1c-.759-5.772-8.232-10.125-9.4-15.828-.946-4.62.794-9.094.86-13.694.065-4.508-2.023-8.937-3.807-13-3.608-8.221-9.446-20.265-17.553-24.8-8.038-4.5-18.9-2.577-25.749,3.259" transform="translate(-407.558 -189.615)" fill="#ff6760"/>
      <path id="Path_858" data-name="Path 858" d="M777.585,1221.331c-10.741-.048-21.761-.107-32.774-.169-.04-2.928-.391-26.176-1.571-26.471s-7.548,23.217-8.408,26.415c-11.847-.071-23.583-.145-34.85-.221-.919-5.206-6.889-44.275,15.934-67.613l22.915,1.417,22.992-1.417s9.775,11.842,14.185,25.7c4.236,13.309,1.779,40.246,1.577,42.359" transform="translate(-588.488 -971.493)" fill="#170b77"/>
      <path id="Path_859" data-name="Path 859" d="M853.935,1104.206v6.142s-11.654,11.339-45.908,0l-.079-6.142,30.08-1.89Z" transform="translate(-680.6 -928.57)" fill="#080435"/>
      <path id="Path_860" data-name="Path 860" d="M783.654,638.35s11.536,2.6,17.7,6.851c4.407,3.042,13.99,10.143,13.99,10.143l-10.421,16.5a13.815,13.815,0,0,1-7.736,15.547L795.3,712.431s-19.528,11.339-45.987,0c0,0-3.1-12.245-6.611-26.93-2.828-11.844-6.9-25.155-2.252-35.835,6.005-13.808,26.493-12.39,26.493-12.39Z" transform="translate(-621.963 -536.794)" fill="#2f61c7"/>
      <path id="Path_861" data-name="Path 861" d="M1091.832,412.9s1.64-2.441,2.917-1.435c3.254,2.565-.308,5.918-2.494,6.631Z" transform="translate(-919.738 -346.408)" fill="#ed806e"/>
      <path id="Path_862" data-name="Path 862" d="M862,232.042a19.987,19.987,0,0,0-17.1,27.975c2.711,6.978,4.953,12.6,7.76,16.7a19.891,19.891,0,0,1,3.382,14.168l-.752,5.032c11.592,5.89,16.711,1.074,16.711,1.074l.082-12.594c12.588-1.418,11.063-24.642,11.108-31.5l-.02,0c.011-.257.023-.514.025-.774A19.991,19.991,0,0,0,862,232.042" transform="translate(-710.312 -195.439)" fill="#ffa089"/>
      <path id="Path_863" data-name="Path 863" d="M841.815,246.224c-3.541,4.131-7.305,8.18-9.961,12.913-.294.519-2.376,4.435-1.785,4.891-3.227-2.486-5.28-6.177-7.006-9.867-2.991-6.4-2.057-14.048,1.69-19.925,3.7-5.81,9.878-8.8,16.653-9.308,7.266-.544,15.174,1.945,19.574,8.035,4.13,5.716,4.273,12.912,4.706,19.663-.487-7.578-10.635-13.295-16.721-16.009.177.079-4.583,6.515-4.836,6.83-.751.936-1.528,1.859-2.316,2.778" transform="translate(-691.836 -189.414)" fill="#ff6760"/>
      <path id="Path_864" data-name="Path 864" d="M851.19,434.717a2.969,2.969,0,0,0-1.547-1.42c-1.377-.566-3.806-1.189-5.491.473-2.471,2.439,2.425,8.979,7.328,5.777,0,0,1.4-1.386-.29-4.83" transform="translate(-710.539 -364.496)" fill="#ffa089"/>
      <path id="Path_865" data-name="Path 865" d="M1052.236,412.651a1.744,1.744,0,1,0-1.915,1.556,1.744,1.744,0,0,0,1.915-1.556" transform="translate(-883.452 -345.989)" fill="#080435"/>
      <path id="Path_866" data-name="Path 866" d="M947.693,423.687a1.744,1.744,0,1,0-1.915,1.556,1.745,1.745,0,0,0,1.915-1.556" transform="translate(-795.387 -355.285)" fill="#080435"/>
      <path id="Path_867" data-name="Path 867" d="M1040.7,379a.725.725,0,0,1,.2-1.35,8.616,8.616,0,0,1,5.712,1.107.725.725,0,0,1-.741,1.247,7.221,7.221,0,0,0-4.682-.932.723.723,0,0,1-.488-.072" transform="translate(-876.346 -318.036)" fill="#100259"/>
      <path id="Path_868" data-name="Path 868" d="M1006.967,426.06a3.106,3.106,0,0,0,2.829-2.738.612.612,0,0,0-.134-.432,9.024,9.024,0,0,1-1.621-5.6.611.611,0,0,0-1.218-.09,10.253,10.253,0,0,0,1.717,6.241c-.124.481-.626,1.555-2.585,1.445a.611.611,0,0,0-.069,1.22,5.447,5.447,0,0,0,1.082-.041" transform="translate(-846.852 -350.962)" fill="#ed806e"/>
      <path id="Path_869" data-name="Path 869" d="M995.967,497.787s-2.4-1.359-3.275-1.07a2.6,2.6,0,0,0-1.315,1.389,2.016,2.016,0,0,0-1.668-1.011c-1.084.037-4.6,2.253-4.6,2.253s3.63,4.447,6.881,3.69c3.311-.771,3.977-5.251,3.977-5.251" transform="translate(-829.836 -418.392)" fill="#ff6760"/>
      <path id="Path_870" data-name="Path 870" d="M985.108,505.28a103.508,103.508,0,0,0,10.859-1.561s-1.8,3.467-4.341,3.606-6.518-2.045-6.518-2.045" transform="translate(-829.836 -424.323)" fill="#fff"/>
      <path id="Path_871" data-name="Path 871" d="M1129.873,799.351a.328.328,0,0,1-.325-.289,18.8,18.8,0,0,0-5.346-10.283.328.328,0,1,1,.45-.478,19.1,19.1,0,0,1,5.548,10.682.327.327,0,0,1-.286.365.258.258,0,0,1-.04,0" transform="translate(-946.918 -663.975)" fill="#100259"/>
      <path id="Path_872" data-name="Path 872" d="M966.266,1139.622a5.778,5.778,0,1,1,5.778-5.778,5.785,5.785,0,0,1-5.778,5.778m0-8.931a3.153,3.153,0,1,0,3.154,3.154,3.157,3.157,0,0,0-3.154-3.154" transform="translate(-809.096 -950.261)" fill="#b8d0fc"/>
      <path id="Path_873" data-name="Path 873" d="M1321.922,347.725l-16.8,2.462v18.04l16.8,2.049Z" transform="translate(-1099.411 -292.917)" fill="#100259"/>
      <path id="Path_874" data-name="Path 874" d="M1277.625,372.072c0,5.018-3.384,9.087-7.558,9.087s-7.558-4.068-7.558-9.087,3.384-9.087,7.558-9.087,7.558,4.068,7.558,9.087" transform="translate(-1063.513 -305.772)" fill="#100259"/>
      <path id="Path_875" data-name="Path 875" d="M1349.733,339.936l-15.408,2.73v20l15.408,2.272Z" transform="translate(-1124.009 -286.356)" fill="#6888d6"/>
      <path id="Path_876" data-name="Path 876" d="M1309.1,366.934c0,5.565-3.1,10.076-6.933,10.076s-6.933-4.511-6.933-10.076,3.1-10.076,6.933-10.076,6.933,4.511,6.933,10.076" transform="translate(-1091.081 -300.611)" fill="#6888d6"/>
      <path id="Path_877" data-name="Path 877" d="M1486.722,284.7l-26.138,4.632v33.933l26.138,3.854Z" transform="translate(-1230.368 -239.827)" fill="#2f61c7"/>
      <path id="Path_878" data-name="Path 878" d="M1417.8,330.5c0,9.44-5.265,17.092-11.76,17.092s-11.76-7.653-11.76-17.092,5.265-17.092,11.76-17.092,11.76,7.652,11.76,17.092" transform="translate(-1174.512 -264.007)" fill="#2f61c7"/>
      <path id="Path_879" data-name="Path 879" d="M1682.968,229.149l-36.233,6.42v47.039l36.233,5.343Z" transform="translate(-1387.177 -193.031)" fill="#7798f8"/>
      <path id="Path_880" data-name="Path 880" d="M1587.423,292.633c0,13.086-7.3,23.694-16.3,23.694s-16.3-10.608-16.3-23.694,7.3-23.694,16.3-23.694,16.3,10.608,16.3,23.694" transform="translate(-1309.749 -226.549)" fill="#7798f8"/>
      <path id="Path_881" data-name="Path 881" d="M1812.151,248.065c0,17.556-10.078,31.787-22.511,31.787s-22.511-14.232-22.511-31.787,10.079-31.787,22.511-31.787,22.511,14.231,22.511,31.787" transform="translate(-1488.595 -182.189)" fill="#2f61c7"/>
      <path id="Path_882" data-name="Path 882" d="M1912.375,216.278l-10.735,0-1.2,63.571h11.93Z" transform="translate(-1600.897 -182.189)" fill="#2f61c7"/>
      <path id="Path_883" data-name="Path 883" d="M1878.337,248.065c0,17.556-10.079,31.787-22.511,31.787s-22.511-14.232-22.511-31.787,10.079-31.787,22.511-31.787,22.511,14.231,22.511,31.787" transform="translate(-1544.349 -182.189)" fill="#100259"/>
      <path id="Path_884" data-name="Path 884" d="M1902.308,281.972a34.611,34.611,0,0,1-3.086,14.624h0c-3.074,6.542-8.155,10.818-13.9,10.818-9.385,0-16.994-11.391-16.994-25.443,0-10.428,4.19-19.391,10.189-23.32,0,0,0,0,0,0a12.332,12.332,0,0,1,6.8-2.121c9.385,0,16.992,11.391,16.992,25.443" transform="translate(-1573.837 -216.095)" fill="#6a9be2"/>
      <path id="Path_885" data-name="Path 885" d="M1940.264,281.972a34.611,34.611,0,0,1-3.086,14.624h0a12.336,12.336,0,0,1-6.8,2.121c-9.385,0-16.993-11.391-16.993-25.443a34.608,34.608,0,0,1,3.087-14.623s0,0,0,0a12.332,12.332,0,0,1,6.8-2.121c9.385,0,16.992,11.391,16.992,25.443" transform="translate(-1611.794 -216.095)" fill="#89b4fd"/>
      <path id="Path_886" data-name="Path 886" d="M1983.037,296.62a1.344,1.344,0,0,1-1.32-1.594,38.35,38.35,0,0,0-1.416-12.89,24,24,0,0,0-4.033-8.346,13.569,13.569,0,0,0-7.621-4.972,1.343,1.343,0,1,1,.622-2.612c6.512,1.55,11.22,6.8,13.614,15.194,1.779,6.233,1.773,12.547,1.471,14.13a1.343,1.343,0,0,1-1.317,1.091" transform="translate(-1657.48 -224.215)" fill="#fff"/>
      <path id="Path_887" data-name="Path 887" d="M987.28,347.725l-16.8,2.462v18.04l16.8,2.049Z" transform="translate(-817.515 -292.917)" fill="#100259"/>
      <path id="Path_888" data-name="Path 888" d="M942.983,372.072c0,5.018-3.384,9.087-7.558,9.087s-7.558-4.068-7.558-9.087,3.384-9.087,7.558-9.087,7.558,4.068,7.558,9.087" transform="translate(-781.617 -305.772)" fill="#100259"/>
      <path id="Path_889" data-name="Path 889" d="M1015.092,339.936l-15.408,2.73v20l15.408,2.272Z" transform="translate(-842.113 -286.356)" fill="#6888d6"/>
      <path id="Path_890" data-name="Path 890" d="M974.46,366.934c0,5.565-3.1,10.076-6.933,10.076s-6.933-4.511-6.933-10.076,3.1-10.076,6.933-10.076,6.933,4.511,6.933,10.076" transform="translate(-809.186 -300.611)" fill="#6888d6"/>
      <path id="Path_891" data-name="Path 891" d="M1152.08,284.7l-26.138,4.632v33.933l26.138,3.854Z" transform="translate(-948.472 -239.827)" fill="#2f61c7"/>
      <path id="Path_892" data-name="Path 892" d="M1083.156,330.5c0,9.44-5.265,17.092-11.76,17.092s-11.76-7.653-11.76-17.092S1064.9,313.4,1071.4,313.4s11.76,7.652,11.76,17.092" transform="translate(-892.617 -264.007)" fill="#2f61c7"/>
      <path id="Path_893" data-name="Path 893" d="M1348.325,229.149l-36.232,6.42v47.039l36.232,5.343Z" transform="translate(-1105.281 -193.031)" fill="#7798f8"/>
      <path id="Path_894" data-name="Path 894" d="M1252.782,292.633c0,13.086-7.3,23.694-16.3,23.694s-16.3-10.608-16.3-23.694,7.3-23.694,16.3-23.694,16.3,10.608,16.3,23.694" transform="translate(-1027.854 -226.549)" fill="#7798f8"/>
      <path id="Path_895" data-name="Path 895" d="M1477.509,248.065c0,17.556-10.078,31.787-22.511,31.787s-22.511-14.232-22.511-31.787,10.079-31.787,22.511-31.787,22.511,14.231,22.511,31.787" transform="translate(-1206.699 -182.189)" fill="#2f61c7"/>
      <path id="Path_896" data-name="Path 896" d="M1577.733,216.278l-11.3.023-.633,63.551h11.93Z" transform="translate(-1319.002 -182.189)" fill="#2f61c7"/>
      <path id="Path_897" data-name="Path 897" d="M1543.7,248.065c0,17.556-10.078,31.787-22.511,31.787s-22.511-14.232-22.511-31.787,10.079-31.787,22.511-31.787,22.511,14.231,22.511,31.787" transform="translate(-1262.453 -182.189)" fill="#100259"/>
      <path id="Path_898" data-name="Path 898" d="M1567.666,281.974a34.607,34.607,0,0,1-3.086,14.624h0c-3.073,6.542-8.155,10.818-13.9,10.818-9.385,0-16.994-11.391-16.994-25.443,0-10.428,4.19-19.391,10.189-23.32,0,0,0,0,0,0a12.333,12.333,0,0,1,6.8-2.121c9.385,0,16.993,11.391,16.993,25.443" transform="translate(-1291.941 -216.097)" fill="#6a9be2"/>
      <path id="Path_899" data-name="Path 899" d="M1605.623,281.974a34.607,34.607,0,0,1-3.086,14.624h0a12.337,12.337,0,0,1-6.8,2.121c-9.385,0-16.993-11.391-16.993-25.443a34.606,34.606,0,0,1,3.086-14.623s0,0,0,0a12.333,12.333,0,0,1,6.8-2.121c9.385,0,16.993,11.391,16.993,25.443" transform="translate(-1329.899 -216.097)" fill="#89b4fd"/>
      <path id="Path_900" data-name="Path 900" d="M1648.4,296.621a1.344,1.344,0,0,1-1.32-1.594,38.352,38.352,0,0,0-1.416-12.89,24.006,24.006,0,0,0-4.033-8.346,13.57,13.57,0,0,0-7.621-4.972,1.343,1.343,0,1,1,.622-2.612c6.512,1.55,11.22,6.8,13.614,15.194,1.779,6.233,1.774,12.547,1.471,14.13a1.343,1.343,0,0,1-1.317,1.091" transform="translate(-1375.584 -224.216)" fill="#fff"/>
      <path id="Path_901" data-name="Path 901" d="M1117.635,391.774s5.926-11.56,5.733-14.285-1.84-10.658-1.8-11.976,1.793-8.045,1.353-9.257-4.059,6.7-4.059,6.7,2.139-7.185.977-7.941-4.124,6.749-4.124,6.749,2.4-7.212,1.167-7.548-3.66,6.639-3.66,6.639,1.785-5.627.8-5.873-5.391,8.608-4.239,12.358c2.723,8.86.989,19.6.989,19.6Z" transform="translate(-934.7 -298.375)" fill="#ffa089"/>
      <path id="Path_902" data-name="Path 902" d="M766.009,576.509s30.525,26.4,54.278,23.484c16-1.961,12.428-69.708,12.428-69.708l-10.969,1.151s-6.567,46.862-11.2,46.862c-2.272,0-28.055-19.6-28.055-19.6Z" transform="translate(-645.271 -446.702)" fill="#ffa089"/>
      <path id="Path_903" data-name="Path 903" d="M775.424,686.405l13.821,11.931-20.662,25.181-13.5-13.707,3.874-11.784Z" transform="translate(-636.069 -578.215)" fill="#2f61c7"/>
      <path id="Path_904" data-name="Path 904" d="M806.025,734.547l-9.019-5.571.17-.275,8.779,5.423,17.643-21.5-10.819-10.109.221-.236,11.04,10.316Z" transform="translate(-671.382 -591.585)" fill="#080435"/>
    </g>
  </g>
</svg>
