<svg xmlns="http://www.w3.org/2000/svg" width="40" height="40" viewBox="0 0 40 40">
  <path id="Icon_metro-linkedin" data-name="Icon metro-linkedin" d="M35.852,1.928H9.289A6.739,6.739,0,0,0,2.571,8.647V35.209a6.739,6.739,0,0,0,6.719,6.719H35.852a6.739,6.739,0,0,0,6.719-6.719V8.647a6.739,6.739,0,0,0-6.719-6.719Zm-18.281,32.5h-5v-17.5h5Zm-2.5-20a2.5,2.5,0,1,1,2.5-2.5A2.5,2.5,0,0,1,15.071,14.428Zm20,20h-5v-10a2.5,2.5,0,1,0-5,0v10h-5v-17.5h5v3.1c1.031-1.417,2.608-3.1,4.375-3.1,3.107,0,5.625,2.8,5.625,6.25v11.25Z" transform="translate(-2.571 -1.928)" fill="#fff"/>
</svg>
