<svg xmlns="http://www.w3.org/2000/svg" width="40" height="33.194" viewBox="0 0 40 33.194">
  <path id="Icon_zocial-reddit" data-name="Icon zocial-reddit" d="M-3.444,16.5A4.547,4.547,0,0,1-1.8,12.979a5.465,5.465,0,0,1,3.734-1.461,5.249,5.249,0,0,1,3.485,1.195h.166a20.967,20.967,0,0,1,11.12-2.722l.166-.133L19.195,1l8.033,1.195c0,.022.022.033.065.033.022,0,.022-.011,0-.033a2.59,2.59,0,0,0,.382-.515,2.935,2.935,0,0,1,.481-.614A3.835,3.835,0,0,1,30.879,0a3.786,3.786,0,0,1,2.74,1.079A3.609,3.609,0,0,1,34.73,3.784a3.887,3.887,0,0,1-1.111,2.788,3.643,3.643,0,0,1-2.74,1.162,3.437,3.437,0,0,1-2.887-1.278,5.048,5.048,0,0,1-1-3.2q-.067.033-3.235-.432t-3.635-.564h-.1a15.7,15.7,0,0,0-.548,1.776Q19,5.743,18.482,7.651T17.9,9.759v.1l.166.133a18.664,18.664,0,0,1,4.9.68,14.509,14.509,0,0,1,4.332,1.909l.1.066a.1.1,0,0,1,.065-.033.1.1,0,0,0,.065-.033q.829-.6,1.179-.83a3.965,3.965,0,0,1,.978-.432,4.739,4.739,0,0,1,1.428-.2A5.444,5.444,0,0,1,36.556,16.6a4.966,4.966,0,0,1-.881,2.855,5.833,5.833,0,0,1-2.307,1.992q0,6.473-8.63,10.058-1.361.6-1.859.762a21.562,21.562,0,0,1-3.021.631,21.768,21.768,0,0,1-3.087.3A25.335,25.335,0,0,1,9.1,32.032q-.067-.065-2.39-1.261A18.082,18.082,0,0,1,1.652,26.92,7.548,7.548,0,0,1-.257,21.742H-.423a5.982,5.982,0,0,1-1.958-1.661l-.3-.4a5.834,5.834,0,0,1-.631-1.511A8.246,8.246,0,0,1-3.444,16.5Zm1.129.4A4.623,4.623,0,0,0-.423,20.614,7.418,7.418,0,0,1,1.17,16.763,17.194,17.194,0,0,1,4.523,13.41,4.634,4.634,0,0,0,1.8,12.547,3.812,3.812,0,0,0-1.07,13.892,4.316,4.316,0,0,0-2.315,16.9Zm3.387,4.846A6.467,6.467,0,0,0,2.1,25.194,10.041,10.041,0,0,0,4.74,28.031a18.313,18.313,0,0,0,3.4,1.975,16.384,16.384,0,0,0,3.485,1.129,26.364,26.364,0,0,0,4.846.465,22.7,22.7,0,0,0,7.734-1.311,14.923,14.923,0,0,0,6.141-4.067h-.1a10.376,10.376,0,0,0,1.426-2.273,6.116,6.116,0,0,0,.432-2.407,7.078,7.078,0,0,0-.88-3.418,9.176,9.176,0,0,0-2.307-2.788,17.938,17.938,0,0,0-3.054-2.008,15.4,15.4,0,0,0-3.318-1.278,22.907,22.907,0,0,0-6.008-.763,22.185,22.185,0,0,0-5.029.6,22.733,22.733,0,0,0-4.979,1.792,10.578,10.578,0,0,0-3.934,3.3A7.917,7.917,0,0,0,1.072,21.742Zm6.174-2.423A2.567,2.567,0,0,1,9.968,16.6a2.963,2.963,0,0,1,2.058.747,2.529,2.529,0,0,1,.83,1.975,2.62,2.62,0,0,1-.846,1.992,2.868,2.868,0,0,1-2.041.8,2.591,2.591,0,0,1-1.958-.8A2.762,2.762,0,0,1,7.246,19.319Zm1.195,5.444H9.9a5.287,5.287,0,0,0,2.639,2.274,9.27,9.27,0,0,0,3.7.78,8.771,8.771,0,0,0,3.651-.78,6.779,6.779,0,0,0,2.788-2.274h1.361a6.076,6.076,0,0,1-3.088,3.186,10.3,10.3,0,0,1-9.41-.016A6,6,0,0,1,8.441,24.763Zm11.152-5.444a2.628,2.628,0,0,1,.762-1.992,2.815,2.815,0,0,1,2.027-.73A2.72,2.72,0,0,1,25.1,19.319a2.736,2.736,0,0,1-.8,1.958,2.57,2.57,0,0,1-1.924.831,2.672,2.672,0,0,1-2.789-2.789ZM28.059,3.784a2.716,2.716,0,0,0,.83,1.992,2.714,2.714,0,0,0,1.992.83,2.574,2.574,0,0,0,1.959-.813A2.824,2.824,0,0,0,33.6,3.784a2.62,2.62,0,0,0-.8-1.925,2.621,2.621,0,0,0-1.924-.8,2.762,2.762,0,0,0-1.975.813A2.565,2.565,0,0,0,28.059,3.784Zm.465,9.328a11.69,11.69,0,0,1,3.152,3.07,11.9,11.9,0,0,1,1.86,3.967,4,4,0,0,0,1.958-3.187,4.978,4.978,0,0,0-1.178-3.319,3.831,3.831,0,0,0-3.072-1.394A4.624,4.624,0,0,0,28.523,13.112Z" transform="translate(3.444)" fill="#fff"/>
</svg>
