<svg xmlns="http://www.w3.org/2000/svg" width="12.15" height="13.885" viewBox="0 0 12.15 13.885">
  <path id="Icon_metro-attachment" data-name="Icon metro-attachment" d="M12.129,6.363l-.881-.88-4.4,4.4a1.868,1.868,0,0,0,2.642,2.642l5.285-5.284a3.114,3.114,0,0,0-4.4-4.4L4.819,8.389,4.807,8.4a4.343,4.343,0,0,0,6.142,6.141l.011-.012h0l3.788-3.787-.881-.88L10.08,13.649l-.011.011a3.1,3.1,0,0,1-4.381-4.38L5.7,9.27h0l5.55-5.548a1.868,1.868,0,0,1,2.643,2.642L8.606,11.647a.623.623,0,0,1-.881-.88l4.4-4.4Z" transform="translate(-3.535 -1.928)" fill="#8d99ae"/>
</svg>
