<svg xmlns="http://www.w3.org/2000/svg" width="45" height="45" viewBox="0 0 45 45">
  <g id="Icon_feather-instagram" data-name="Icon feather-instagram" transform="translate(-0.5 -0.5)">
    <path id="Path_5228" data-name="Path 5228" d="M13,3H33A10,10,0,0,1,43,13V33A10,10,0,0,1,33,43H13A10,10,0,0,1,3,33V13A10,10,0,0,1,13,3Z" fill="none" stroke="#fff" stroke-linecap="round" stroke-linejoin="round" stroke-width="5"/>
    <path id="Path_5229" data-name="Path 5229" d="M24,17.055A6,6,0,1,1,18.945,12,6,6,0,0,1,24,17.055Z" transform="translate(5.036 4.964)" fill="none" stroke="#fff" stroke-linecap="round" stroke-linejoin="round" stroke-width="5"/>
    <path id="Path_5230" data-name="Path 5230" d="M26.25,9.75h0" transform="translate(7.75 2.25)" fill="none" stroke="#fff" stroke-linecap="round" stroke-linejoin="round" stroke-width="5"/>
  </g>
</svg>
