<svg xmlns="http://www.w3.org/2000/svg" width="40" height="32.507" viewBox="0 0 40 32.507">
  <path id="Icon_metro-twitter" data-name="Icon metro-twitter" d="M42.571,8.665a16.408,16.408,0,0,1-4.713,1.292,8.231,8.231,0,0,0,3.608-4.54,16.429,16.429,0,0,1-5.211,1.991A8.214,8.214,0,0,0,22.27,14.894,23.3,23.3,0,0,1,5.355,6.319,8.215,8.215,0,0,0,7.9,17.276a8.173,8.173,0,0,1-3.717-1.026c0,.034,0,.069,0,.1A8.212,8.212,0,0,0,10.76,24.4a8.22,8.22,0,0,1-3.706.141,8.215,8.215,0,0,0,7.666,5.7A16.465,16.465,0,0,1,4.528,33.752a16.645,16.645,0,0,1-1.958-.115,23.227,23.227,0,0,0,12.58,3.687c15.095,0,23.349-12.5,23.349-23.349q0-.534-.024-1.062a16.671,16.671,0,0,0,4.1-4.248Z" transform="translate(-2.571 -4.817)" fill="#fff"/>
</svg>
