<svg xmlns="http://www.w3.org/2000/svg" width="35" height="24.5" viewBox="0 0 35 24.5">
  <path id="Icon_awesome-cloud-download-alt" data-name="Icon awesome-cloud-download-alt" d="M29.4,12.892A5.256,5.256,0,0,0,24.5,5.75a5.223,5.223,0,0,0-2.915.886A8.751,8.751,0,0,0,5.25,11c0,.148.005.3.011.443A7.877,7.877,0,0,0,7.875,26.75H28a7,7,0,0,0,1.4-13.858Zm-7.268,4.851-5.764,5.764a.878.878,0,0,1-1.236,0L9.368,17.743a.875.875,0,0,1,.618-1.493h3.577V10.125a.878.878,0,0,1,.875-.875h2.625a.878.878,0,0,1,.875.875V16.25h3.577a.875.875,0,0,1,.618,1.493Z" transform="translate(0 -2.25)" fill="#037ae0"/>
</svg>
