<svg xmlns="http://www.w3.org/2000/svg" width="811.029" height="137.912" viewBox="0 0 811.029 137.912">
  <g id="Layer_x0020_1" transform="translate(-52.601 0.02)">
    <rect id="Rectangle_2581" data-name="Rectangle 2581" width="12.142" height="122.819" transform="translate(52.601 15.074)" fill="#0d1d29"/>
    <path id="Path_5234" data-name="Path 5234" d="M1680.875,56.75H1617.46V162.069h63.416a19.934,19.934,0,0,0,19.9-19.852V76.6A19.934,19.934,0,0,0,1680.875,56.75Z" transform="translate(-1552.718 -32.929)" fill="#305a7a" fill-rule="evenodd"/>
    <path id="Path_5235" data-name="Path 5235" d="M1526.12,122.45h24.287a14.189,14.189,0,0,1,14.167,14.132v21.872a14.189,14.189,0,0,1-14.167,14.132H1526.12Z" transform="translate(-1378.062 -71.037)" fill="#0a2b44" fill-rule="evenodd"/>
    <path id="Path_5238" data-name="Path 5238" d="M1618.535,138.473c35.524,0,64.325-36.251,64.325-80.973,0-.386,0-.773,0-1.159a19.94,19.94,0,0,1,17.9,19.751v24.875c-4.513,28.352-20.789,51.353-42.146,60.6h-41.17v-23.1q.55.013,1.1.013Z" transform="translate(-1552.689 -32.691)" fill="#0a2b44" fill-rule="evenodd"/>
    <path id="Path_5239" data-name="Path 5239" d="M1617.46,223.2c21.357-9.243,37.633-32.245,42.146-60.6v40.745a19.934,19.934,0,0,1-19.9,19.852Z" transform="translate(-1511.548 -94.325)" fill="#0d1d29" fill-rule="evenodd"/>
    <rect id="Rectangle_2582" data-name="Rectangle 2582" width="5.502" height="105.319" transform="translate(64.742 23.821)" fill="#0a2b44"/>
    <path id="Path_5240" data-name="Path 5240" d="M1526.11,181.327c20.633-2.562,36.555-19.058,36.555-39.027,0-1.256-.063-2.5-.185-3.729a14,14,0,0,1,2.088,7.358V167.8a14.189,14.189,0,0,1-14.167,14.132h-24.287v-.609Z" transform="translate(-1378.052 -80.387)" fill="#0d1d29" fill-rule="evenodd"/>
    <path id="Path_5241" data-name="Path 5241" d="M669.422,15.8H172.889a10.941,10.941,0,0,0-10.954,10.927v39.59a18.238,18.238,0,0,1-18.116,18.071H-.02V68.577H135.247a10.938,10.938,0,0,0,10.841-10.814V18.2A18.242,18.242,0,0,1,164.351-.02H669.43V15.8Z" transform="translate(194.199)" fill="#0d1d29" fill-rule="evenodd"/>
    <rect id="Rectangle_2585" data-name="Rectangle 2585" width="116.71" height="15.816" transform="translate(186.517 68.573)" fill="#0d1d29"/>
    <path id="Path_5242" data-name="Path 5242" d="M1317.091,195.15H1185.12v2.444h143.561Z" transform="translate(-998.607 -113.205)" fill="#474d67" fill-rule="evenodd"/>
  </g>
</svg>
