<svg xmlns="http://www.w3.org/2000/svg" viewBox="0 0 107.65 116.99"><defs><style>.cls-1{fill:#dbdbdb;}.cls-2{fill:#fff;}.cls-3{fill:#6d6d6d;}.cls-4{fill:#969696;}.cls-5{fill:#aaa;}.cls-6{fill:#a8a8a8;}</style></defs><g id="Layer_2" data-name="Layer 2"><g id="OBJECTS"><path class="cls-1" d="M107.65,63.17a53.43,53.43,0,0,1-3.71,19.64h0a51.81,51.81,0,0,1-4.49,8.89.11.11,0,0,1,0,.08,53.39,53.39,0,0,1-11.09,12.69h0a53,53,0,0,1-6.11,4.42c-.17.13-.35.23-.52.34l-.37.21-.37.21q-2.15,1.26-4.41,2.31c-.59.28-1.19.55-1.79.8a52.4,52.4,0,0,1-5.56,2,1.14,1.14,0,0,1-.22.07l-1.39.38h0c-.5.13-1,.26-1.51.38h0a51.79,51.79,0,0,1-5.34,1c-.23,0-.48.07-.71.09-1.05.12-2.13.21-3.2.27s-1.95.08-2.93.08-2,0-2.94-.08-2-.13-3-.26c-.12,0-.24,0-.36,0a51.59,51.59,0,0,1-5.47-.93c-.14,0-.28-.06-.41-.09l-1.18-.29h0c-.48-.12-1-.25-1.42-.39-1-.28-2-.61-3-1a51.24,51.24,0,0,1-5.7-2.41c-.1,0-.19-.09-.29-.13l-.16-.08-.2-.1-.19-.1-.39-.2a53.5,53.5,0,0,1-9.69-6.44s0,0,0,0c-1.36-1.14-2.65-2.32-3.9-3.59a53.11,53.11,0,0,1-7.23-9.12h0a.09.09,0,0,1,0-.06,52.58,52.58,0,0,1-4.5-8.89A53.86,53.86,0,0,1,18.88,22.25q1.26-1.08,2.58-2.07l.15-.11c.57-.44,1.16-.85,1.75-1.27h0A53.49,53.49,0,0,1,37,12c.38-.13.77-.25,1.18-.36A53.26,53.26,0,0,1,53.83,9.34a53.84,53.84,0,0,1,17.31,2.85c.9.3,1.78.63,2.65,1,1.38.55,2.72,1.16,4,1.82.65.32,1.29.66,1.91,1s1.29.72,1.92,1.1a53.93,53.93,0,0,1,26,46.07Z"/><path class="cls-2" d="M31.26,51.52s-2.59-10.16-8.38-6.06S24.48,59.53,30.06,59,31.26,51.52,31.26,51.52Z"/><path d="M27.08,58.17l.48,0a6.92,6.92,0,0,1-1.21-.62l0,.49a6.71,6.71,0,0,0,.8.41c0-.07,0-.13,0-.17A.42.42,0,0,1,27.08,58.17Zm4.58-6.82c0-.1-.08-.29-.17-.55a15.94,15.94,0,0,0-1.79-3.91c-.11-.18-.22-.35-.34-.52a5.28,5.28,0,0,0-.36-.44,5.31,5.31,0,0,0-2.19-1.64l-.12,0a4.4,4.4,0,0,0-4.05.86c-2.23,1.59-2.87,4.19-1.75,7.17a12.66,12.66,0,0,0,4,5.29,8.73,8.73,0,0,0,1.35.89,6.31,6.31,0,0,0,.95.45,6,6,0,0,0,1.33.38,1.61,1.61,0,0,0,.43.07,2.69,2.69,0,0,0,.4,0h.2l.53,0A3.36,3.36,0,0,0,33,57.67C34.1,55.43,32,51.86,31.66,51.35ZM30,58.52a3.86,3.86,0,0,1-.68,0h-.15l-.29,0-.44-.08a6.09,6.09,0,0,1-.89-.28h0a6.92,6.92,0,0,1-1.21-.62,8.29,8.29,0,0,1-1.25-.91A11.62,11.62,0,0,1,21.7,52c-.57-1.51-1.15-4.31,1.43-6.15a4.23,4.23,0,0,1,2.4-.89,2.59,2.59,0,0,1,1,.18l.06,0a5.12,5.12,0,0,1,2.22,2c.12.16.23.34.35.52h0l.35.62a17.55,17.55,0,0,1,1.11,2.6c.16.48.24.79.24.8l0,.12c.64,1,2.13,3.94,1.34,5.55A2.49,2.49,0,0,1,30,58.52Zm-2.94-.35.48,0a6.92,6.92,0,0,1-1.21-.62l0,.49a6.71,6.71,0,0,0,.8.41c0-.07,0-.13,0-.17A.42.42,0,0,1,27.08,58.17Z"/><path class="cls-3" d="M30.26,52.5s-2.79-7-5.18-3.52c-1.66,2.44,3.79,8,5,6.45A2.46,2.46,0,0,0,30.26,52.5Z"/><path class="cls-3" d="M25.48,54.84s-6.19,26.78,1.79,28S29.07,58,29.07,58l-2,.2s4.79,22.67,1,22.67-3.19-11.73-2.19-19S26.27,53.87,25.48,54.84Z"/><path class="cls-2" d="M82,51.52s2.6-10.16,8.38-6.06S88.82,59.53,83.24,59,82,51.52,82,51.52Z"/><path d="M90.67,45.11a4.38,4.38,0,0,0-4.18-.82,6.64,6.64,0,0,0-3.1,2.91l-.34.6-.34.69a17.15,17.15,0,0,0-1.07,2.86,12.91,12.91,0,0,0-1.52,3.59s0,0,0,0a4.33,4.33,0,0,0,.16,2.72,3.1,3.1,0,0,0,2.47,1.64l.44.07h0l.41,0h.32a6.19,6.19,0,0,0,2.15-.48,7.26,7.26,0,0,0,.94-.44,9.78,9.78,0,0,0,1.37-.9s0,0,0,0a12.56,12.56,0,0,0,4-5.26C93.53,49.3,92.9,46.7,90.67,45.11ZM88.21,56.6a8.91,8.91,0,0,1-1.26.91,4.55,4.55,0,0,1-.68.37h0l-.51.24h0a6.07,6.07,0,0,1-1.62.39,3,3,0,0,1-.42,0l-.41,0h0a3,3,0,0,1-.43-.07,2.29,2.29,0,0,1-1.8-1.15,3,3,0,0,1-.19-1.51h0a10.7,10.7,0,0,1,1.54-4l.06-.12s.16-.58.45-1.38c.1-.27.22-.57.34-.88l.35-.74c.72-1.46,1.77-3,3.19-3.53a2.49,2.49,0,0,1,1-.18,4.26,4.26,0,0,1,2.41.89c2.58,1.84,2,4.64,1.44,6.15A11.74,11.74,0,0,1,88.21,56.6Zm-2,1.81A7.57,7.57,0,0,0,87,58a.76.76,0,0,0,0-.15c0-.12,0-.23,0-.34a4.55,4.55,0,0,1-.68.37h0l-.51.24.48,0a.42.42,0,0,1,0,.07S86.2,58.34,86.18,58.41Z"/><path class="cls-3" d="M83,52.5s2.79-7,5.18-3.52c1.66,2.44-3.78,8-5,6.45A2.46,2.46,0,0,1,83,52.5Z"/><path class="cls-3" d="M87.83,54.84S94,81.62,86,82.79,84.24,58,84.24,58l2,.2s-4.79,22.67-1,22.67,3.19-11.73,2.2-19S87,53.87,87.83,54.84Z"/><ellipse class="cls-2" cx="56.09" cy="54.06" rx="27.42" ry="34.6"/><path d="M29.44,59.39a3.41,3.41,0,0,1-.06-.43c0-.14,0-.29,0-.43h-.15c0,.12.07.28.1.44s.06.27.09.43.09.44.15.68A5.52,5.52,0,0,1,29.44,59.39Zm-.18-9.07a1,1,0,0,1-.16-.12l0,0a1.56,1.56,0,0,0,.13.19A.41.41,0,0,0,29.26,50.32Zm54.55.56c0-.76-.12-1.51-.21-2.25,0-.26-.07-.48-.11-.73h0c0-.23-.06-.46-.1-.69C80.86,31.16,69.58,19,56.09,19,43,19,31.92,30.52,29,45.93c0,.2-.08.37-.1.56s-.07.4-.1.59c-.12.75-.22,1.49-.29,2.26h0a1.09,1.09,0,0,0,0,.26,43.66,43.66,0,0,0-.23,4.46c0,.4,0,.79,0,1.18,0,.94.07,1.87.17,2.79a2.4,2.4,0,0,0,0,.37,3.12,3.12,0,0,0,.05.44c0,.15,0,.29,0,.44a41.66,41.66,0,0,0,2.45,10h0c3.28,8.5,9.2,15.08,16.41,18.06a.11.11,0,0,0,.06,0h0a21.35,21.35,0,0,0,2.92,1,22.36,22.36,0,0,0,5.69.73h.1a23,23,0,0,0,8-1.5C74.27,83.73,82,72.8,83.61,59.4c0-.14,0-.28,0-.42s0-.3,0-.44c0-.3.07-.62.09-.92.06-.65.09-1.28.11-1.93s0-1.08,0-1.62C83.94,53,83.9,51.93,83.81,50.88Zm-1,7.57c0,.15,0,.29,0,.44s0,.28-.06.42c-1.6,13.2-9.2,23.94-19.17,27.58a22.5,22.5,0,0,1-3,.87,21.29,21.29,0,0,1-4.38.47h-.1a22,22,0,0,1-5.69-.76c-.64-.18-1.27-.38-1.89-.61C39.82,83.64,32.93,75,30.28,64.05l0,0c-.29-1.25-.54-2.56-.72-3.88,0,0,0-.06,0-.08a5.52,5.52,0,0,1-.09-.68,3.41,3.41,0,0,1-.06-.43c0-.14,0-.29,0-.43-.1-1-.17-1.9-.21-2.88,0-.52,0-1,0-1.58,0-1.22.06-2.43.15-3.63h0a.41.41,0,0,0,0-.11c.06-.71.14-1.4.24-2.09,0-.24.06-.45.1-.68v0c0-.21.06-.43.1-.64,2.61-15.42,13.45-27,26.39-27,13.39,0,24.51,12.39,26.62,28.59,0,.27.07.54.1.82s.08.63.1.94C83,51,83,51.74,83,52.5c0,.51,0,1,0,1.57,0,.36,0,.72,0,1.08,0,.73,0,1.44-.1,2.16h0C82.93,57.7,82.9,58.07,82.85,58.45ZM29.1,50.2h0l0,0a1.56,1.56,0,0,0,.13.19.41.41,0,0,0,0-.11A1,1,0,0,1,29.1,50.2Zm.34,9.19a3.41,3.41,0,0,1-.06-.43c0-.14,0-.29,0-.43h-.15c0,.12.07.28.1.44s.06.27.09.43.09.44.15.68A5.52,5.52,0,0,1,29.44,59.39Z"/><path d="M26.47,44.48s1,8,6,6.06,7.17-14.85,7.77-15.44,1.2,3.72,7,1.57,9.38-8,10-7.82,1,7.62,6.19,8.79,11.36-.39,11.56.39,1.6,18.57,9.57,19.75,11-7,9.58-11.93-6.19-8.6-5.79-9.57S99.66,24.55,92.08,15s-18.74-.78-20.14-1.17S70.34.9,63,.7s-9.38,8.41-10.57,7S46.81.51,41.63,2.85s-2.39,10.56-4,9.77S27.27-5.94,16.9,2.07s2.39,21.5,5.19,23.06-2.8,7.24,1.79,12.71S26.47,44.48,26.47,44.48Z"/><path d="M47.21,46.73c0,2.32-.8,4.2-1.79,4.2s-1.8-1.88-1.8-4.2.81-4.2,1.8-4.2S47.21,44.41,47.21,46.73Z"/><path d="M65,46.73c0,2.32-.8,4.2-1.79,4.2s-1.8-1.88-1.8-4.2.8-4.2,1.8-4.2S65,44.41,65,46.73Z"/><path d="M55,50.35s2,12.12-.4,12.31-4.78-.58-5.38,1.37,6.38,3.52,6.58,2.54-5.19-1.56-4-2.15,4.59.59,5.58-2.15S56.19,43.51,55,50.35Z"/><path class="cls-4" d="M64.16,71v3.17a5.57,5.57,0,0,1-.34,1.91,6,6,0,0,1-5.66,4H53.61a6,6,0,0,1-4.47-2,5.76,5.76,0,0,1-1.53-3.9V71a.75.75,0,0,1,.76-.74H63.42A.74.74,0,0,1,64.16,71Z"/><path class="cls-5" d="M63.82,76.1a6,6,0,0,1-5.66,4H53.61a6,6,0,0,1-4.47-2,9.23,9.23,0,0,1,8-5.06A8.88,8.88,0,0,1,63.82,76.1Z"/><path class="cls-6" d="M75.13,55.14a4.09,4.09,0,1,1-4.09-4A4,4,0,0,1,75.13,55.14Z"/><path class="cls-6" d="M44,55.14a4.09,4.09,0,1,1-4.09-4A4,4,0,0,1,44,55.14Z"/><rect class="cls-4" x="47.41" y="86.86" width="16.75" height="11.57" rx="0.8"/><path class="cls-3" d="M50.4,98.43V86.86h-3V98.43S50.4,98.37,50.4,98.43Z"/><rect class="cls-3" x="56.19" y="86.86" width="4.38" height="11.57"/><path class="cls-4" d="M82.18,108.91c-.17.13-.35.23-.52.34l-.37.21-.37.21q-2.15,1.26-4.41,2.31c-.59.28-1.19.55-1.79.8a52.4,52.4,0,0,1-5.56,2,1.14,1.14,0,0,1-.22.07l-1.39.38h0c-.5.13-1,.26-1.51.38h0a51.79,51.79,0,0,1-5.34,1l-4.38-.12-8.41.22c-.12,0-.24,0-.36,0a51.59,51.59,0,0,1-5.47-.93c-.14,0-.28-.06-.41-.09l-1.18-.29h0c-.48-.12-1-.25-1.42-.39-1-.28-2-.61-3-1a51.24,51.24,0,0,1-5.7-2.41c-.1,0-.19-.09-.29-.13l-.16-.08-.2-.1A19.56,19.56,0,0,1,45.49,96.4a9.25,9.25,0,0,1,1.23-.17H65.86l.47,0A19.59,19.59,0,0,1,82.18,108.91Z"/></g></g></svg>