<svg xmlns="http://www.w3.org/2000/svg" viewBox="0 0 107.65 109.4"><defs><style>.cls-1{fill:#dbdbdb;}.cls-2{fill:#fff;}.cls-3{fill:#6d6d6d;}.cls-4{fill:#969696;}.cls-5{fill:#545454;}.cls-6{fill:#1e1e1e;}.cls-7{fill:#cecece;}</style></defs><g id="Layer_2" data-name="Layer 2"><g id="OBJECTS"><path class="cls-1" d="M107.65,55.58a53.79,53.79,0,0,1-50.89,53.74c-1,.05-1.95.08-2.93.08s-2,0-2.94-.08A53.82,53.82,0,0,1,23.36,11.21h0a53.82,53.82,0,0,1,84.28,44.38Z"/><path class="cls-2" d="M76.8,42.06s4.7-5.31,8.11-5.17,4.94,4,4.8,5.77-1.17,7.88-4.52,10.21-5.69,3.31-7.51,2.61S75.91,42.2,76.8,42.06Z"/><path d="M88.29,38a4.71,4.71,0,0,0-3.84-1.52,9,9,0,0,0-4.94,2.45q-.51.44-.93.87h0l-.53.55c-.2.21-.38.41-.52.58a8.42,8.42,0,0,0-.67.83l-.08.11V55.58l.1,0,.2.06.34.09.11,0,.42.09a8,8,0,0,0,1.38.12c3.25,0,6.33-2,8.51-5.75C90.11,46.36,91.05,40.76,88.29,38ZM87.11,49.82c-2.3,3.9-5.62,5.8-9,5.22l-.48-.1V42.17c.09-.13.25-.33.49-.61l.42-.48.09-.1c.22-.22.45-.47.71-.72h0c1.34-1.31,3.24-2.79,5.19-2.93a3.89,3.89,0,0,1,3.17,1.27C89.82,40.71,89.56,45.65,87.11,49.82Z"/><path class="cls-3" d="M77.56,45.76s5.59-8,7.83-3.73S82.59,54,76.81,51Z"/><path class="cls-2" d="M27.31,42.8s-3.08-4.7-6.06-5.4-4.75-.75-6.62,3.49,3.78,16.92,13,14.5Z"/><path d="M27.28,41.78c0-.05-.27-.35-.64-.8a.77.77,0,0,1-.12-.13L26,40.27l-.52-.54a14.24,14.24,0,0,0-2.78-2.19,6.92,6.92,0,0,0-3-1A4.71,4.71,0,0,0,15.83,38c-2.76,2.75-1.82,8.35.45,12.23C18.48,54,21.55,56,24.81,56a7.73,7.73,0,0,0,1.26-.1l.25,0,.29-.07.44-.11.11,0,.2-.05V41.89ZM17,49.82c-2.45-4.17-2.71-9.11-.59-11.22a3.94,3.94,0,0,1,3.19-1.27,6.67,6.67,0,0,1,3.17,1.27,15.16,15.16,0,0,1,2.63,2.27c.2.21.38.41.53.59h0c.08.09.15.18.23.26a3.72,3.72,0,0,0,.29.37l.05.07V54.94h-.06l-.2,0-.34,0C22.56,55.59,19.28,53.68,17,49.82Z"/><path class="cls-3" d="M26.56,45.76S21,37.74,18.73,42,21.53,54,27.31,51Z"/><polygon class="cls-2" points="44.08 93.13 44.36 84.19 59.93 83.86 60.16 95.79 52.29 100 44.08 93.13"/><path d="M59.87,83.37c-16.06.18-16.06.22-16.06.78V95l.47.52h0l6.27,6.91,1,1.09L53,105.09l.65-.91.89-1.24h0l4.81-6.72.78-1.1.14-.2V83.36Zm-.42,11.27L57.7,97.1,54,102.25l-.93,1.29-.15.22-.85-.94-1-1.11-4.93-5.43,0,0-1.47-1.63V84.52c1.66-.12,9.38-.24,14.8-.31Z"/><path class="cls-4" d="M74.72,105.19a53.75,53.75,0,0,1-18,4.13H50.89A53.47,53.47,0,0,1,30,103.84a52.11,52.11,0,0,1,5.23-6.79,12.72,12.72,0,0,1,1-1,5.71,5.71,0,0,1,1.11-.76,11.25,11.25,0,0,1,2.1-.9l.49-.14c.63-.19,1.29-.35,2-.49H42a.41.41,0,0,1,.21,0,.47.47,0,0,1,.21.11,2.72,2.72,0,0,1,.42.37l.14.14a3.49,3.49,0,0,0,.32.35c0,.06.1.11.15.17a1.83,1.83,0,0,0,.57.44l.11,0,.13,0h.09a1.76,1.76,0,0,1,.93.27,1.52,1.52,0,0,1,.3.17,2.29,2.29,0,0,1,.31.2,1.53,1.53,0,0,1,.21.14l0,0c.35.24.72.54,1.09.85.15.11.28.23.43.33.39.34.77.67,1.13,1l.4.33a2.31,2.31,0,0,0,.19.14l.35.27a1.53,1.53,0,0,0,.31.19.87.87,0,0,0,.46.18l1.08-.1h0l.53,0,.4,0,1.13-.1h0l1.59-.13h.16a.83.83,0,0,0,.15,0,3.8,3.8,0,0,0,1.94-1.87s0,0,0,0c.21-.35.42-.72.61-1.09.09-.18.18-.35.28-.52a10.79,10.79,0,0,1,1-1.71.07.07,0,0,0,0,0l.14-.11a1.2,1.2,0,0,1,.17-.11l.13,0,.11,0,.06,0,.18,0c1.3.41,2.59.69,3.75,1l1,.27c.16.06.32.1.48.15a7.5,7.5,0,0,1,1,.39l.44.24a2.73,2.73,0,0,1,.55.39,12.2,12.2,0,0,1,1.23,1.18A58.73,58.73,0,0,1,74.72,105.19Z"/><path class="cls-5" d="M68.8,97.27l-11.3,11.3-5.22-6s-4.84,5.59-5.4,6-8.09-7.75-11.64-11.52a11.23,11.23,0,0,1,1-1,12.5,12.5,0,0,1,5.65-2.28c.83-.17,1.6,1.78,2.45,1.66,1.45-.16,5.24,4.07,6.15,4.06l4.76-.41c2.23,0,3.63-5.88,4.77-5.5,3,1,6,1.18,7.53,2.47A16.69,16.69,0,0,1,68.8,97.27Z"/><path class="cls-3" d="M44.08,92.27,37.6,93.93a.74.74,0,0,0-.39,1.2l9.26,11.05a.75.75,0,0,0,1.17,0L52.41,100a.75.75,0,0,0-.1-1l-7.56-6.55A.74.74,0,0,0,44.08,92.27Z"/><path class="cls-3" d="M60.62,92.27l6.48,1.66a.74.74,0,0,1,.39,1.2l-9.26,11.05a.75.75,0,0,1-1.17,0L52.29,100a.74.74,0,0,1,.1-1l7.55-6.55A.76.76,0,0,1,60.62,92.27Z"/><ellipse class="cls-2" cx="52.01" cy="47.25" rx="26.19" ry="34.86"/><path d="M77.6,43.26c0,.19,0,.4,0,.6v-.6ZM26.18,41.73c-.09.12-.17.25-.24.36-.05,1-.07,1.95-.08,2.73.22.29.4.52.52.69,0-1.17,0-2.31.09-3.41,0-.14,0-.29,0-.44s0-.29,0-.43a2.63,2.63,0,0,0-.16.26Zm52.54,2.54c0-.55,0-1.08,0-1.62h0c0-.56,0-1.12-.07-1.66,0-.23,0-.47,0-.7h0c0-.09,0-.17,0-.26v-.19a83.78,83.78,0,0,0-.9-8.84h0c-1-6.34-2.78-10.89-5.36-13.9-.25-.29-.5-.57-.77-.83s-.48-.46-.72-.67C66.37,11.75,60.36,11.78,54,11.83H51.56c-7.1,0-13.74,0-18.54,4.45l-.06,0a14.56,14.56,0,0,0-1.88,2.15c-3.21,4.37-5,11.28-5.61,21.25l0,.67c0,.16,0,.31,0,.47,0,.64-.06,1.29-.08,2l0,1.34c0,1,0,2,0,3.09a41.54,41.54,0,0,0,.22,4.35c.1,1.17.24,2.32.44,3.45,0,.2.07.4.12.61a2.08,2.08,0,0,0,0,.23c.12.64.26,1.25.4,1.88v0C29.86,72.17,40,82.67,52,82.67c11.63,0,21.55-9.89,25.22-23.64h0c.28-1,.51-2.08.71-3.15,0-.1,0-.19.06-.29s.07-.36.09-.54c.2-1.13.36-2.29.46-3.47.13-1.42.2-2.86.2-4.32C78.75,46.23,78.74,45.23,78.72,44.27ZM52,81.55c-12,0-22.06-11-24.85-25.92l0-.13c-.24-1.37-.45-2.76-.56-4.19,0-.15,0-.3,0-.44-.1-1.19-.15-2.41-.15-3.62,0-.6,0-1.17,0-1.74,0-1.17,0-2.31.09-3.41,0-.14,0-.29,0-.44s0-.29,0-.43h0c0-.13,0-.25,0-.37a67.47,67.47,0,0,1,1.53-12.27h0c1-4.36,2.46-7.69,4.43-10.08a8.29,8.29,0,0,1,1-1.07l.27-.27c4.4-4.12,10.41-4.21,17.38-4.21H54c6.19,0,11.58-.06,15.67,3.15a8.55,8.55,0,0,1,1.08.94,1.19,1.19,0,0,1,.19.2c3,3.06,4.88,8.14,5.88,15.6.33,2.45.55,5.14.69,8.12,0,.11,0,.23,0,.35,0,.63,0,1.29.07,2,0,.19,0,.4,0,.6,0,.59,0,1.19,0,1.81s0,1,0,1.58,0,1.17,0,1.75c0,.77-.08,1.52-.15,2.27-.1,1.13-.23,2.22-.42,3.3h0c-.05.35-.1.7-.17,1C74.07,70.5,64,81.55,52,81.55ZM26.34,41.49l-.16.24a3.72,3.72,0,0,0,.29.37c0-.14,0-.29,0-.44s0-.29,0-.43A2.63,2.63,0,0,0,26.34,41.49ZM77.6,43.26c0,.19,0,.4,0,.6v-.6Z"/><path d="M25.82,47.25s.18-19.2,1.86-19.2,3,33.36,4.1,33.92,39.15,1.49,39.33-.56,5.22-32.62,7.09-30.57S76,77.16,74.28,80.61c-3.17,6.53-33.74,13.8-44.36-.37C27.77,77.37,25.82,51,25.82,47.25Z"/><path class="cls-3" d="M62.91,68.87a9.8,9.8,0,0,1-2.47,6.52c-.14.16-.28.32-.43.47a9.87,9.87,0,0,1-16.85-7A1.85,1.85,0,0,1,45,67h16A1.86,1.86,0,0,1,62.91,68.87Z"/><path class="cls-4" d="M60.44,75.39c-.14.16-.28.32-.43.47a9.87,9.87,0,0,1-14.53-.63c.9-2.8,3.89-4.86,7.46-4.86S59.62,72.5,60.44,75.39Z"/><path class="cls-6" d="M22.83,14.81s-1.67,29.08,1.68,28.52S35.7,17.61,32.9,16.21,23.39,12.58,22.83,14.81Z"/><path class="cls-6" d="M79.49,14.81s1.67,29.08-1.68,28.52S66.63,17.61,69.42,16.21,78.93,12.58,79.49,14.81Z"/><path d="M28.15,18.45s53.12.84,52.28-4.2S72,9.78,72,9.78s8.67-1.12,7.55-7.27S26.75,2.79,24.51,8.1,21.16,18.45,28.15,18.45Z"/><path d="M49.68,34.2S53.59,53,50.79,53.77s-6.33,1.68-4.47,4.29,7.27.56,6.71-.19-5.59.19-4.85-1.3,5.22-.75,5.22-3.92S51.54,28.42,49.68,34.2Z"/><path d="M42,37.55c0,2.78-1,5-2.14,5s-2.14-2.26-2.14-5,1-5,2.14-5S42,34.78,42,37.55Z"/><path d="M63.66,37.55c0,2.78-1,5-2.15,5s-2.14-2.26-2.14-5,1-5,2.14-5S63.66,34.78,63.66,37.55Z"/><path d="M40.66,21.83s2,4.71,1.32,5.82-9.45,2.14-10.35-.14S31.31,23.57,40.66,21.83Z"/><path d="M59.8,22.67S57.09,27,57.62,28.22s9,3.54,10.26,1.42S68.78,25.79,59.8,22.67Z"/><path class="cls-7" d="M70.3,46.41a3.71,3.71,0,1,1-3.71-3.71A3.71,3.71,0,0,1,70.3,46.41Z"/><path class="cls-7" d="M39.54,46.41a3.71,3.71,0,1,1-3.7-3.71A3.7,3.7,0,0,1,39.54,46.41Z"/></g></g></svg>