<svg xmlns="http://www.w3.org/2000/svg" viewBox="0 0 107.65 119.02"><defs><style>.cls-1{fill:#dbdbdb;}.cls-2{fill:#fff;}.cls-3{fill:#6d6d6d;}.cls-4{fill:#a8a8a8;}</style></defs><g id="Layer_2" data-name="Layer 2"><g id="OBJECTS"><path class="cls-1" d="M107.65,65.2a53.85,53.85,0,0,1-26,46.08l-.37.21-.37.22a55.22,55.22,0,0,1-6.2,3.11,52.4,52.4,0,0,1-5.56,2l-.22.06c-.46.14-.92.26-1.39.38h0c-.5.14-1,.26-1.51.38h0a52.32,52.32,0,0,1-9.25,1.31c-1,.06-1.95.08-2.93.08s-2,0-2.94-.08a52.56,52.56,0,0,1-8.84-1.22,2.71,2.71,0,0,1-.41-.09l-1.18-.29h0c-.48-.12-1-.24-1.42-.39-1-.28-2-.6-3-1a53.8,53.8,0,0,1-6-2.54,1.19,1.19,0,0,1-.16-.08l-.39-.2a3.55,3.55,0,0,1-.39-.2A53.79,53.79,0,0,1,21.61,22.1c.57-.44,1.16-.85,1.75-1.26v0A53.81,53.81,0,0,1,77.83,17c.65.33,1.29.66,1.91,1A53.8,53.8,0,0,1,107.65,65.2Z"/><path d="M47.43,103.14s0,0,0,0c-.13.65-.29,1.29-.47,1.92-.08.27-.15.54-.23.81s-.16.47-.25.7a5,5,0,0,1-.18.5c-.13.35-.28.71-.45,1.06a9.3,9.3,0,0,1-.43.9,13.52,13.52,0,0,1-3.68,4.55A12.19,12.19,0,0,1,36,116a53.8,53.8,0,0,1-6-2.54,1.19,1.19,0,0,1-.16-.08l-.39-.2a3.55,3.55,0,0,1-.39-.2,54,54,0,0,1-13.61-10,4.57,4.57,0,0,1,.24-.65c2.32-5.51,6.38-17.11,1.15-25.52s-2.75-23.5-2.75-23.5h.2l11.26.81.41,0,.41,0,2.07.15s.11,1,.36,2.67h0c.19,1.4.47,3.27.83,5.38h0c.17,1,.34,2,.55,3a86.74,86.74,0,0,0,3.92,14.85A17.72,17.72,0,0,0,45.49,90.54c.66.21,1.21.34,1.62.43s.78.15.78.15l0,.3c0,.24.07.64.1,1.14,0,.12,0,.27,0,.41s0,.26,0,.41A41.06,41.06,0,0,1,47.43,103.14Z"/><rect class="cls-2" x="45.86" y="90.98" width="17.84" height="20.16"/><path d="M49.56,110.69a5.11,5.11,0,0,0,.59.45H51a5,5,0,0,0,1,.43H57.5a6.65,6.65,0,0,0,.89-.43h.8c.18-.13.34-.26.51-.4l.07,0Zm0,0a5.11,5.11,0,0,0,.59.45H51a5,5,0,0,0,1,.43H57.5a6.65,6.65,0,0,0,.89-.43h.8c.18-.13.34-.26.51-.4l.07,0Zm0,0a5.11,5.11,0,0,0,.59.45H51a5,5,0,0,0,1,.43H57.5a6.65,6.65,0,0,0,.89-.43h.8c.18-.13.34-.26.51-.4l.07,0ZM45.42,90.54v21H64.14v-21Zm17.84,20.15h-17V91.42h17Zm-13.7,0a5.11,5.11,0,0,0,.59.45H51a5,5,0,0,0,1,.43H57.5a6.65,6.65,0,0,0,.89-.43h.8c.18-.13.34-.26.51-.4l.07,0Zm0,0a5.11,5.11,0,0,0,.59.45H51a5,5,0,0,0,1,.43H57.5a6.65,6.65,0,0,0,.89-.43h.8c.18-.13.34-.26.51-.4l.07,0Zm0,0a5.11,5.11,0,0,0,.59.45H51a5,5,0,0,0,1,.43H57.5a6.65,6.65,0,0,0,.89-.43h.8c.18-.13.34-.26.51-.4l.07,0Z"/><path class="cls-2" d="M67.55,117.25h0l-12-.32-13.93.38-1.18,0h0c-.48-.12-1-.24-1.42-.39-1-.28-2-.6-3-1a53.8,53.8,0,0,1-6-2.54,1.19,1.19,0,0,1-.16-.08l-.39-.2c2-9.68,8.43-13.45,12.75-14.92.35-.12.68-.22,1-.31a2.25,2.25,0,0,1,2.2.57,2.22,2.22,0,0,1,.43.62,2.28,2.28,0,0,1,.24,1,22.19,22.19,0,0,0,.21,3.6,15.51,15.51,0,0,0,.43,2.09,9.29,9.29,0,0,0,2.83,4.81,5.11,5.11,0,0,0,.59.45,4.93,4.93,0,0,0,.74.43,8.79,8.79,0,0,0,4.39.86,6.88,6.88,0,0,0,3.19-.86,5.27,5.27,0,0,0,.72-.43l.51-.39s0,0,.07-.06a13.1,13.1,0,0,0,3.49-5.48,13.35,13.35,0,0,0,.43-1.31c.18-.58.33-1.16.45-1.71a30.2,30.2,0,0,0,.72-4.83,15.88,15.88,0,0,1,3.23.65,18.73,18.73,0,0,1,13.2,13.48l-.37.22a55.22,55.22,0,0,1-6.2,3.11,52.4,52.4,0,0,1-5.56,2v.06Z"/><path d="M59.77,110.69l-.07,0c-.17.14-.33.27-.51.4h-.8a6.65,6.65,0,0,1-.89.43,6.8,6.8,0,0,1-2.23.45,9.1,9.1,0,0,1-3.3-.45,5,5,0,0,1-1-.43h-.84a5.11,5.11,0,0,1-.59-.45h-.63a5.35,5.35,0,0,0,.5.45,6.67,6.67,0,0,0,.61.43,8.82,8.82,0,0,0,5.25,1.29,7.69,7.69,0,0,0,4.05-1.29c.2-.13.39-.28.58-.43s.35-.29.52-.45Zm8.14-13.15a17.39,17.39,0,0,0-3-.61l-.43,0,0,.43a24.68,24.68,0,0,1-.29,2.58c-.11.68-.26,1.45-.45,2.28-.12.53-.27,1.07-.43,1.62-.77,2.59-2.07,5.3-4.19,6.87a5.34,5.34,0,0,1-.68.45,6.65,6.65,0,0,1-.89.43,6.8,6.8,0,0,1-2.23.45,9.1,9.1,0,0,1-3.3-.45,5,5,0,0,1-1-.43,4.72,4.72,0,0,1-.74-.45,6.49,6.49,0,0,1-.82-.67,9.82,9.82,0,0,1-2.47-5,21,21,0,0,1-.46-4.87,2.67,2.67,0,0,0-.2-1.06,2.5,2.5,0,0,0-.45-.75,2.11,2.11,0,0,0-.4-.39l0,0a2.63,2.63,0,0,0-2.32-.42l-.43.13h0c-4.56,1.39-11.48,5.16-13.59,15.3a3.55,3.55,0,0,0,.39.2l.39.2c1.87-9.35,7.94-13.13,12.3-14.66l1.19-.37a1.81,1.81,0,0,1,1.6.32,1.66,1.66,0,0,1,.48.54,1.74,1.74,0,0,1,.24,1,23.94,23.94,0,0,0,.19,3.5A18.22,18.22,0,0,0,46.3,106c.06.21.11.41.18.62a9.9,9.9,0,0,0,2.37,4l.08.07a5.35,5.35,0,0,0,.5.45,6.67,6.67,0,0,0,.61.43,8.82,8.82,0,0,0,5.25,1.29,7.69,7.69,0,0,0,4.05-1.29c.2-.13.39-.28.58-.43s.35-.29.52-.45a13.08,13.08,0,0,0,2.82-4.27c.15-.37.3-.73.43-1.1s.32-.93.45-1.39a31.39,31.39,0,0,0,1.11-6.11,16.89,16.89,0,0,1,2.88.6,18.22,18.22,0,0,1,12.79,13.29l.37-.22.37-.21A19.35,19.35,0,0,0,67.91,97.54Zm-8.14,13.15-.07,0c-.17.14-.33.27-.51.4h-.8a6.65,6.65,0,0,1-.89.43,6.8,6.8,0,0,1-2.23.45,9.1,9.1,0,0,1-3.3-.45,5,5,0,0,1-1-.43h-.84a5.11,5.11,0,0,1-.59-.45h-.63a5.35,5.35,0,0,0,.5.45,6.67,6.67,0,0,0,.61.43,8.82,8.82,0,0,0,5.25,1.29,7.69,7.69,0,0,0,4.05-1.29c.2-.13.39-.28.58-.43s.35-.29.52-.45Zm7.78,6.56h0c-.5.14-1,.26-1.51.38h0l-10.45-.28-13.51.37-.41,0v-.11l-1.18-.29h0c-.48-.12-1-.24-1.42-.39l2.62-.06,13.91-.39,13.38.37h.23Z"/><path class="cls-3" d="M69.17,116.87v-.06l-1-18.39,0-.3a.36.36,0,0,0,0-.11,1,1,0,0,0-.18-.47A1.19,1.19,0,0,0,67,97l-2.76-.16h-.09a1.16,1.16,0,0,0-.88.43A1.16,1.16,0,0,0,63,98c-.13,2.72-1.21,9.14-8.61,9.6-4.69.29-6.32-2-6.94-4.45h0c-.64-2.47-.23-5.11-.89-5.4a1.17,1.17,0,0,0-.24-.09,2,2,0,0,0-.45-.12,2.45,2.45,0,0,0-.43-.11,4.33,4.33,0,0,0-2.75.26h0a1,1,0,0,0-.45.58.11.11,0,0,0,0,.06,2.68,2.68,0,0,0,0,.4c-.1,1.85-.29,9.46-.41,14.87,0,1.25-.07,2.38-.09,3.3,0,.14,0,.29,0,.42v.43l.41,0a52.56,52.56,0,0,0,8.84,1.22c1,.06,2,.08,2.94.08s2,0,2.93-.08A52.32,52.32,0,0,0,66,117.63h0c.52-.12,1-.24,1.51-.38h0Z"/><path class="cls-2" d="M82.93,58.59s2-7.8,8-2,2.41,17.72-8.62,13.76Z"/><path d="M91.27,56.3a7.28,7.28,0,0,0-3.72-2.21,3.47,3.47,0,0,0-1.54,0,3.39,3.39,0,0,0-1.42.8,1.88,1.88,0,0,0-.36.33,3.49,3.49,0,0,0-.36.42,8.48,8.48,0,0,0-1.36,2.78L82.12,66v0l-.24,4.69.31.11,1,.33.4.1a1.82,1.82,0,0,0,.36.08,10.94,10.94,0,0,0,2.48.29A7.34,7.34,0,0,0,93,68.16,9.73,9.73,0,0,0,91.27,56.3ZM82.9,68.17h0l.47-9.5A8.49,8.49,0,0,1,84.08,57a5.13,5.13,0,0,1,.34-.52s0,0,0,0a4.7,4.7,0,0,1,.34-.44,3.29,3.29,0,0,1,1.49-1,2.46,2.46,0,0,1,1.21,0,6.79,6.79,0,0,1,3.2,2,8.84,8.84,0,0,1,1.59,10.75c-1.61,2.59-4.49,3.56-8,2.77a2.2,2.2,0,0,1-.37-.07l-.39-.11a5.53,5.53,0,0,1-.66-.2Z"/><path class="cls-3" d="M83.74,60.51s1.56-4.62,5.52-1.33,1.25,10.34-6.18,8.26Z"/><path class="cls-2" d="M84.84,62.11c0,18.67-14.23,31.47-30.72,31.47s-29-12.8-29-31.47S38.49,28.31,55,28.31,84.84,43.44,84.84,62.11Z"/><path d="M85.09,58.56c-.08-.87-.18-1.72-.33-2.57a5.25,5.25,0,0,0-.09-.55c0-.17,0-.34-.08-.5-2.93-15.43-15.1-27-29.61-27-14.25,0-26.23,11.17-29.42,26.17-.21.91-.37,1.85-.51,2.8-.05.43-.1.85-.14,1.29h0c-.05.46-.09.92-.1,1.39-.08.84-.1,1.69-.1,2.54A38,38,0,0,0,25.15,68c.15,1,.33,1.94.56,2.87,2.55,10.8,9.83,18.84,19.71,21.81a2.3,2.3,0,0,0,.43.12,3.81,3.81,0,0,0,.45.13c.58.16,1.18.3,1.78.42a30.55,30.55,0,0,0,6,.59,31.18,31.18,0,0,0,9.14-1.35,3.59,3.59,0,0,0,.43-.14l.45-.14A31,31,0,0,0,84,71.31a2.75,2.75,0,0,0,.11-.41c0-.15.09-.29.13-.44.18-.67.32-1.36.44-2v0a4.38,4.38,0,0,0,.12-.61,33,33,0,0,0,.48-5.66C85.26,60.92,85.2,59.73,85.09,58.56Zm-1.41,10.7c-.07.35-.15.69-.22,1,0,.15-.07.29-.12.43a2,2,0,0,1-.12.42A29.42,29.42,0,0,1,64.14,91.55a3.39,3.39,0,0,1-.45.15l-.43.14a31.08,31.08,0,0,1-9.14,1.33,30.34,30.34,0,0,1-6.1-.61c-.58-.12-1.15-.27-1.72-.43a2.81,2.81,0,0,1-.45-.13l-.43-.12c-9.49-3-16.48-10.78-18.92-21.25A26.67,26.67,0,0,1,26,67.91a36.32,36.32,0,0,1-.45-5.79c0-.89,0-1.77.1-2.64,0-.33.05-.65.08-1a1.24,1.24,0,0,1,0-.33,32.87,32.87,0,0,1,.63-4C29.54,39.55,41.16,28.7,55,28.7c14.31,0,26.25,11.62,28.89,27,0,.2.08.4.1.6s.08.46.11.68c.11.81.19,1.61.25,2.43s.1,1.8.1,2.72A33.38,33.38,0,0,1,84,67.65C83.9,68.2,83.8,68.74,83.68,69.26Z"/><path class="cls-2" d="M27.57,70.18c-10.62,5-15.3-6.53-9.87-12.89s8.18,1.19,8.18,1.19v.11l1.3,9Z"/><path class="cls-3" d="M27.19,67.59c-7,2.35-11.12-4.36-7.56-7.92a5,5,0,0,1,6.26-1.08Z"/><path d="M25.51,59.56s9.76-6.14,16.29-20.64,4.2-8.12,9.28.43S63.26,45.88,72,45.73,82,78.83,85.25,66.61c3.68-13.92,4.35-32-2.12-43.79C74.57,7.3,53.69,6.29,53.69,5S56.88.63,55.57.05s-3.91,3.77-3.91,3.77S50.21-.67,48.76.2s1.88,4.35.72,4.78S28.6,7.59,20.34,24.42C6.8,52,15.36,60.14,25.51,59.56Z"/><path d="M41.56,54.92c0,2.29-.74,4.15-1.65,4.15s-1.64-1.86-1.64-4.15.74-4.16,1.64-4.16S41.56,52.62,41.56,54.92Z"/><path d="M40.2,51.82A15.76,15.76,0,0,1,36.34,49c-1-1.26-1.74,2.71,3.57,3.77Z"/><path d="M39.56,53.22a16.08,16.08,0,0,1-4.71-.81c-1.42-.7-.36,3.2,4.88,1.81Z"/><path d="M66.69,54.92c0,2.29-.73,4.15-1.64,4.15s-1.64-1.86-1.64-4.15.73-4.16,1.64-4.16S66.69,52.62,66.69,54.92Z"/><path d="M65.11,51.82A16,16,0,0,0,69,49c1-1.26,1.74,2.71-3.58,3.77Z"/><path d="M65.76,53.22a16.13,16.13,0,0,0,4.71-.81c1.42-.7.36,3.2-4.88,1.81Z"/><path d="M53.74,53.18c-.48,3.27,1.74,13.82-.1,13.24s-4.93-.68-4.83,2.13,5.41,2.51,5.7,1.83-4.25.29-4.25-1.74c0-1.37,3.86.68,4.83-1.06S54.46,48.16,53.74,53.18Z"/><path d="M48.3,77.63A7.05,7.05,0,0,0,54.92,82c5.18.14,4.89-4.9,5.76-4.9s-.29,6.48-5.62,6.48C48.3,83.53,47.15,76.91,48.3,77.63Z"/><path class="cls-4" d="M75.59,63.13A4.55,4.55,0,1,1,71,58.59,4.55,4.55,0,0,1,75.59,63.13Z"/><path class="cls-4" d="M38.66,63.13a4.55,4.55,0,1,1-4.55-4.54A4.55,4.55,0,0,1,38.66,63.13Z"/></g></g></svg>