<svg xmlns="http://www.w3.org/2000/svg" viewBox="0 0 107.65 115.33"><defs><style>.cls-1{fill:#dbdbdb;}.cls-2{fill:#fff;}.cls-3{fill:#969696;}.cls-4{fill:#6d6d6d;}.cls-5{fill:#1e1e1e;}.cls-6{fill:#a8a8a8;}</style></defs><g id="Layer_2" data-name="Layer 2"><g id="OBJECTS"><path class="cls-1" d="M107.65,61.51A53.8,53.8,0,0,1,80.88,108c-.79.46-1.6.9-2.41,1.33l-.39.2-.33.16c-1,.5-2,1-3,1.39a51.68,51.68,0,0,1-7.17,2.43l-.89.24A53,53,0,0,1,59.59,115c-.94.1-1.88.18-2.83.23s-1.95.08-2.93.08-2,0-2.94-.08-2.18-.14-3.26-.28a52.14,52.14,0,0,1-10.41-2.26l-.42-.14h0A54.72,54.72,0,0,1,30,109.77c-.8-.39-1.59-.8-2.35-1.23l-.34-.19c-.12-.07-.24-.13-.36-.21a53.8,53.8,0,0,1-7.11-88.36c1.13-.92,2.31-1.81,3.51-2.64h0l1.13-.75a53.8,53.8,0,0,1,51.79-3.79c.51.24,1,.48,1.54.74a52.46,52.46,0,0,1,7,4.19A53.74,53.74,0,0,1,107.65,61.51Z"/><polygon class="cls-2" points="63.15 95.76 57.14 100.82 50.34 95.76 50.34 85 63.15 85 63.15 95.76"/><path d="M49.76,84.43V96.05l7.4,5.51L63.73,96V84.43ZM62.58,95.49l-5.46,4.6-6.21-4.62V85.58H62.58Z"/><path class="cls-3" d="M80.88,108c-.79.46-1.6.9-2.41,1.33l-.39.2-.33.16c-1,.5-2,1-3,1.39a51.68,51.68,0,0,1-7.17,2.43l-.89.24A53,53,0,0,1,59.59,115c-.94.1-1.88.18-2.83.23s-1.95.08-2.93.08-2,0-2.94-.08-2.18-.14-3.26-.28a52.14,52.14,0,0,1-10.41-2.26l-.42-.14h0l-.32-.18a.91.91,0,0,1-.48-1,18.52,18.52,0,0,1,2.4-6.38,21.78,21.78,0,0,1,2-2.84,27.6,27.6,0,0,1,3.74-3.75c.74-.62,1.46-1.18,2.13-1.66a31.89,31.89,0,0,1,3.46-2.15l.08,0a.89.89,0,0,1,.58,0,.84.84,0,0,1,.36.19l.21.18c1.7,1.35,6.49,4.33,11.67-.14l.49-.44a.1.1,0,0,1,.08,0,4.33,4.33,0,0,1,.58.08A29,29,0,0,1,70.42,97a29.35,29.35,0,0,1,3.41,2.14,25.8,25.8,0,0,1,2.89,2.48,18.37,18.37,0,0,1,2.39,3C80.61,106.91,80.76,107.36,80.88,108Z"/><path class="cls-4" d="M70.41,97c-13.13,9.62-21.18,3.2-24.18-.26-.68.48-1.41,1-2.15,1.66,10.66,14,25,4.52,29.74.74Z"/><path class="cls-4" d="M76.72,101.66c-13,12.13-28.23,8.77-34.06,2.8-.7-.72-1.49-1.5-2.31-2.27a22.78,22.78,0,0,0-2,2.84l.83,1c16.45,15,33.72,3.73,39.92-1.41Z"/><path class="cls-2" d="M29.18,47.76s-3.55-5.22-6.71-3.82-3.92,6.53-3.55,8.2,2,8,12.87,6.53Z"/><path class="cls-2" d="M81.74,59l.56-12.87S86.59,41.89,89,44.5s3.54,6.9,1.77,9.69S87,59,81.74,59Z"/><path d="M30.87,58.78,29.92,51l0-.33-.4-3.25-.05-.16a12.2,12.2,0,0,0-.91-1.22l-.09-.1-.12-.14a4.64,4.64,0,0,0-.38-.39,5.56,5.56,0,0,0-.5-.47,7.21,7.21,0,0,0-1.73-1.14,4.65,4.65,0,0,0-4.15,0c-2.5,1.22-3.79,6.07-2.59,9.79.57,1.79,2.49,5.51,8.49,5.51h.76l.48,0a17.93,17.93,0,0,0,1.79-.23l.4-.06Zm-2.67-.49h-.47c-5.44.12-7.31-2.91-7.95-4.91-1.16-3.59.22-7.8,2.15-8.73a4,4,0,0,1,1.76-.43,4.26,4.26,0,0,1,2.09.59,7.11,7.11,0,0,1,1.7,1.36c.19.2.36.39.5.57s.3.38.41.54h0a1.13,1.13,0,0,1,.1.13l.14.22.71,5.78.28,2.25.3,2.43c-.43.07-.84.11-1.24.15Z"/><path class="cls-4" d="M28.78,51s-2.84-5.41-5.68-2.71.94,8.93,6.76,7.31Z"/><path d="M88.68,43.87a4.63,4.63,0,0,0-3-.41,6,6,0,0,0-2.42,1.14,5.46,5.46,0,0,0-.45.36,5.11,5.11,0,0,0-.48.45,10.44,10.44,0,0,0-1.15,1.33,5.13,5.13,0,0,0-.37.55L80.22,52l-.6,4.79-.27,2.09.41.06a16.88,16.88,0,0,0,2.68.27h.94c5.54-.23,7.36-3.77,7.9-5.5C92.48,49.94,91.2,45.09,88.68,43.87ZM80.61,55.68l.28-2.25.72-5.78c0-.06.11-.17.21-.32s.27-.37.45-.59l.09-.1c.15-.17.3-.35.48-.53a6.2,6.2,0,0,1,.46-.42,5.68,5.68,0,0,1,2.26-1.31,3.78,3.78,0,0,1,2.74.28c1.93.94,3.31,5.14,2.16,8.73-.61,1.88-2.32,4.7-7.07,4.9l-.47,0h-.48l-.66,0c-.46,0-1-.09-1.47-.17Z"/><path class="cls-4" d="M81.46,51s2.84-5.41,5.68-2.71-1,8.93-6.76,7.31Z"/><path class="cls-2" d="M82.93,57.79c0,21.06-10.66,31.64-26.35,31.64S28.19,79,28.19,58c0-40.82-8.39-36.23,28.16-38.76C81.58,17.44,82.93,20,82.93,57.79Z"/><path d="M28.49,47.43c0-.2,0-.39,0-.59a1.34,1.34,0,0,0-.11-.14c0,.21,0,.4,0,.59h0c.11,1.39.21,2.45-.11,2.93h0c.13.17.22.31.3.43C28.55,49.56,28.52,48.47,28.49,47.43Zm54.9,8.36c0-2.59,0-5,0-7.23,0-.48,0-1,0-1.42s0-1,0-1.45c0-.15,0-.29,0-.43s0-.45,0-.66c-.34-12.75-1.5-19.45-5.25-23S68,17.9,56.31,18.72c-3.33.22-6.29.4-8.92.55-8.26.48-13.29.8-16.3,2.15a6.63,6.63,0,0,0-1.58.95c-3,2.4-2.82,7.09-2.34,16.87.09,1.76.18,3.65.26,5.73,0,.26,0,.53,0,.79s0,.27,0,.42c0,1,.08,2,.1,3.11,0,.4,0,.8,0,1.23.05,1.69.08,3.46.09,5.37,0,.67,0,1.35,0,2a2.06,2.06,0,0,0,0,.36,2.18,2.18,0,0,0,0,.57,1.4,1.4,0,0,0,0,.29c.39,16.11,8.75,27.26,22,30.05l.58.13.57.09a32.44,32.44,0,0,0,5.67.48,31.26,31.26,0,0,0,6-.56l.57-.12c.19,0,.39-.08.58-.14C75.84,86.17,83,75.46,83.38,59.16a1.22,1.22,0,0,0,0-.27c0-.2,0-.4,0-.6s0-.34,0-.5C83.4,57.1,83.4,56.45,83.39,55.79Zm-.94,2c0,.18,0,.34,0,.51s0,.43,0,.64v.22c-.37,15.94-7,26.14-18.71,29l-.58.13-.57.12a32.1,32.1,0,0,1-11.67,0,5.67,5.67,0,0,1-.57-.1,3.75,3.75,0,0,1-.58-.13c-10.9-2.37-20.68-10.89-21.07-29.1a.89.89,0,0,1,0-.23,2.66,2.66,0,0,1,0-.63,1.62,1.62,0,0,1,0-.32c0-.71,0-1.41,0-2.09,0-1.82,0-3.54-.07-5.18,0-1.11-.06-2.2-.09-3.24,0-.2,0-.39,0-.59l0-.87c0-.81-.07-1.58-.1-2.33-.07-1.58-.15-3-.21-4.44-.52-10.3-.73-14.64,3.09-16.7l.13-.07c2.8-1.44,7.7-1.72,16.1-2.21,2.64-.16,5.61-.32,8.94-.56s6.42-.39,9-.39c5.88,0,9.57.79,12,3.07,3.59,3.36,4.68,10.09,5,23.07,0,.21,0,.42,0,.65s0,.38,0,.58,0,.48,0,.73c0,.72,0,1.46,0,2.22q0,3,0,6.3Z"/><path class="cls-5" d="M26.13,21.25S23.92,51.3,27.87,50.51c1.76-.35-1.07-6,1.74-12C32.93,31.37,30.88,20,30.88,20Z"/><path d="M77.23,25.68s-18.51,1.42-24.52.47c-4.1-.65-1.28-2.84.93-4.17a.44.44,0,0,0-.27-.81c-6.68.7-26.52,2.54-29.93-.08-4.11-3.17,3-4.43,3-4.43S14.74,15.87,16,8,80.87,5.43,80.87,5.43s1.42-6,3.48-5.38-1.9,6.64-.79,6.48S88.3,3.21,89.1,5,84,8.27,84,8.91s4,36.54.48,37.81-3.64,1.58-4.43-7S78,25.68,77.23,25.68Z"/><path d="M53.18,32.64s4.27,25,1.74,25.47-7-1.9-6.64,3.32,8.07,2.21,7.12,1.42-5.54,1.27-5.22-1.9,5.26-.27,6.48-1.74C58.25,57.32,55.71,27.1,53.18,32.64Z"/><path class="cls-4" d="M66.47,68.94v2.38A10.37,10.37,0,0,1,56.11,81.68h-.63A10.37,10.37,0,0,1,45.11,71.32V68.94a1.19,1.19,0,0,1,1.19-1.18h19A1.18,1.18,0,0,1,66.47,68.94Z"/><path class="cls-3" d="M64.56,77.31a10.33,10.33,0,0,1-8.45,4.37h-.63a10.37,10.37,0,0,1-7.75-3.48,9.78,9.78,0,0,1,8.7-4.75A10,10,0,0,1,64.56,77.31Z"/><path d="M46.55,29.79a1.77,1.77,0,0,1,1.28,1.5c.12,1,.19,2.14-.18,2.14-.64,0-7.6-1.74-13.93,1.26C27.55,37.63,31.92,25.94,46.55,29.79Z"/><path d="M62.31,29.91a1.08,1.08,0,0,0-.76.88c-.15,1-.34,2.64.11,2.64.63,0,7.59-1.74,13.92,1.26S77.3,25.71,62.31,29.91Z"/><path class="cls-6" d="M40.17,53.91A4.21,4.21,0,1,1,36,49.71,4.21,4.21,0,0,1,40.17,53.91Z"/><path class="cls-6" d="M80.71,53.91a4.21,4.21,0,1,1-4.21-4.2A4.2,4.2,0,0,1,80.71,53.91Z"/><path class="cls-2" d="M31.61,36.59H48.18a1.68,1.68,0,0,1,1.68,1.68V45.7a9.41,9.41,0,0,1-9.41,9.41H39.33a9.41,9.41,0,0,1-9.41-9.41V38.28a1.68,1.68,0,0,1,1.68-1.68Z"/><path d="M51,36.92a3.13,3.13,0,0,0-2.8-1.75H31.61a2.93,2.93,0,0,0-.9.14,3.09,3.09,0,0,0-2.2,3V45.7c0,.12,0,.24,0,.37a6.84,6.84,0,0,0,.07.91A10.41,10.41,0,0,0,29.92,51l.06.11a10.38,10.38,0,0,0,1.81,2.3,10.68,10.68,0,0,0,7.47,3.08h1.19A10.84,10.84,0,0,0,51.29,45.7V38.27A3.08,3.08,0,0,0,51,36.92ZM40.45,53.68H39.33a8,8,0,0,1-6.16-2.92,7.89,7.89,0,0,1-1.82-5.06V38.27a.27.27,0,0,1,.26-.26H48.18a.27.27,0,0,1,.26.26V45.7A8,8,0,0,1,40.45,53.68Z"/><path class="cls-2" d="M61,36.59H77.6a1.68,1.68,0,0,1,1.68,1.68V45.7a9.41,9.41,0,0,1-9.41,9.41H68.76a9.41,9.41,0,0,1-9.41-9.41V38.28A1.68,1.68,0,0,1,61,36.59Z"/><path d="M79.68,36h0a3.05,3.05,0,0,0-2.07-.8H61a3.1,3.1,0,0,0-3.11,3.1V45.7A10.84,10.84,0,0,0,68.76,56.52h1.12A10.85,10.85,0,0,0,80.72,45.7V38.27A3.05,3.05,0,0,0,79.68,36ZM77.86,45.7a7.8,7.8,0,0,1-1.09,4,8,8,0,0,1-4.42,3.58,7.74,7.74,0,0,1-2.47.39H68.76a8,8,0,0,1-8-8V38.27A.28.28,0,0,1,61,38H77.61a.26.26,0,0,1,.25.26Z"/><ellipse cx="41.79" cy="43.87" rx="1.42" ry="3.8"/><ellipse cx="70.27" cy="44.5" rx="1.42" ry="3.8"/><path d="M60.44,37.38l-.56,2.69c-3.43-1.35-8.12-.39-10.4.23l-.29-2.78A15.9,15.9,0,0,1,60.44,37.38Z"/></g></g></svg>