<svg xmlns="http://www.w3.org/2000/svg" viewBox="0 0 109.96 114.64"><defs><style>.cls-1{fill:#dbdbdb;}.cls-2{fill:#fff;}.cls-3{fill:#969696;}.cls-4{fill:#6d6d6d;}.cls-5{fill:#a8a8a8;}</style></defs><g id="Layer_2" data-name="Layer 2"><g id="OBJECTS"><path class="cls-1" d="M108.81,60.82a53.63,53.63,0,0,1-3.7,19.64h0a52.59,52.59,0,0,1-4.5,8.89.14.14,0,0,1,0,.08,53.39,53.39,0,0,1-11.09,12.69h0a54.5,54.5,0,0,1-6.63,4.76c-.13.06-.25.14-.37.21l-.37.21q-2.14,1.26-4.41,2.31c-.59.28-1.19.54-1.79.8a52.4,52.4,0,0,1-5.56,2l-.22.07-1.39.38h0c-.5.13-1,.26-1.51.38h0a52.33,52.33,0,0,1-6.05,1c-1,.12-2.13.21-3.2.27s-2,.08-2.93.08-2,0-2.94-.08c-1.13-.07-2.26-.16-3.37-.29a51.59,51.59,0,0,1-5.47-.93c-.14,0-.28-.06-.41-.09L41.62,113h0c-.48-.12-1-.25-1.42-.39-1-.28-2-.61-3-.95a51.24,51.24,0,0,1-5.7-2.41c-.1,0-.19-.09-.29-.13s-.1-.06-.16-.08l-.39-.2-.39-.2a53.5,53.5,0,0,1-9.69-6.44s0,0,0,0c-1.36-1.14-2.65-2.32-3.9-3.59a53.11,53.11,0,0,1-7.23-9.12h0s0,0,0-.06a53,53,0,0,1-4.5-8.89A53.86,53.86,0,0,1,22.62,17.83l.15-.11c.57-.44,1.16-.85,1.75-1.27h0A53.81,53.81,0,0,1,79,12.64c.65.32,1.29.66,1.91,1s1.29.73,1.92,1.11A53.8,53.8,0,0,1,108.81,60.82Z"/><path d="M17.15,57.18S11.68,71.64,5,80.24-.83,90.4,2.5,92.55s3.32,2,6.05-2.15S6.4,95.68,7.19,95.87s12.89,9.18,27,7.82,14.46-21.5,14.46-21.5-12.7-1-15.44-10S23.79,56.79,17.15,57.18Z"/><path d="M92.81,57.18s5.47,14.46,12.11,23.06,5.86,10.16,2.54,12.31-3.32,2-6-2.15,2.14,5.28,1.36,5.47-12.89,9.18-27,7.82-14.46-21.5-14.46-21.5,12.7-1,15.44-10S86.17,56.79,92.81,57.18Z"/><polygon class="cls-2" points="63.65 100.56 54.08 108.57 44.9 100.56 44.9 84.15 63.65 84.15 63.65 100.56"/><path d="M54.07,109.19l-9.65-8.41V83.68h19.7v17.1Zm-8.7-8.84,8.72,7.6,9.09-7.61V84.62H45.37Z"/><path class="cls-3" d="M77.67,109.63c-.59.28-1.19.54-1.79.8a52.4,52.4,0,0,1-5.56,2l-.22.07-1.39.38h0c-.5.13-1,.26-1.51.38h0a52.33,52.33,0,0,1-6.05,1l-6.6-.2-5.84.18a51.59,51.59,0,0,1-5.47-.93c-.14,0-.28-.06-.41-.09L41.62,113h0c-.48-.12-1-.25-1.42-.39-1-.28-2-.61-3-.95a51.24,51.24,0,0,1-5.7-2.41,23.34,23.34,0,0,1,1.9-5.47,17,17,0,0,1,11.53-9.21l.29-.06c.06.28.12.58.21.9.79,2.9,3,6.75,9.21,6.75,6.63,0,8.26-4.64,8.61-7.77l.45.08a4.39,4.39,0,0,1,.5.1,17.06,17.06,0,0,1,11.49,9.14A23,23,0,0,1,77.67,109.63Z"/><path class="cls-2" d="M24.77,50s-5.28-9.19-11.33-4.5S12.27,64.61,25,60.12Z"/><path d="M25.35,49.79l-.07-.12a16.25,16.25,0,0,0-1.47-2.09,15.77,15.77,0,0,0-2.43-2.39l-.57-.39c-.18-.12-.37-.23-.56-.34a7.27,7.27,0,0,0-2.12-.81,6,6,0,0,0-1.74-.08A6.74,6.74,0,0,0,13.08,45c-3.1,2.4-3.73,7.3-1.5,11.4a9.82,9.82,0,0,0,8.79,5.17A13.29,13.29,0,0,0,22,61.45l.57-.09c.19,0,.39-.07.58-.12a15.3,15.3,0,0,0,2-.58l.4-.13v-.28Zm-9.1,9.66a8.58,8.58,0,0,1-3.64-3.62c-1.93-3.54-1.41-7.89,1.19-9.91a5.31,5.31,0,0,1,2.74-1.17,3.57,3.57,0,0,1,.47,0,5.37,5.37,0,0,1,.89.09,6.32,6.32,0,0,1,2.26,1c.19.13.38.26.56.4s.4.31.58.48.63.58.9.87a18.51,18.51,0,0,1,2,2.6l.17,9.24h0v.32a13,13,0,0,1-1.54.4l-.58.13c-.19,0-.38.05-.57.06A9.28,9.28,0,0,1,16.25,59.45Z"/><path class="cls-4" d="M23.4,51.32s-6-5.66-8-1.76,1,9.38,8.6,8.8Z"/><path class="cls-2" d="M82,50s5.28-9.19,11.34-4.5,1.17,19.15-11.53,14.66Z"/><path d="M93.66,45a7.37,7.37,0,0,0-2.08-1.14h0a5.58,5.58,0,0,0-2.95-.2,8.14,8.14,0,0,0-3.21,1.52c-.19.15-.38.29-.56.45l-.56.5a19.73,19.73,0,0,0-1.36,1.47,18.38,18.38,0,0,0-1.47,2.08l-.07.12-.21,10.74.4.13c.33.11.64.23,1,.32s.38.11.57.14l.23.07.33.07a12.47,12.47,0,0,0,2.7.3,9.79,9.79,0,0,0,7-2.84,10.11,10.11,0,0,0,1.74-2.33C97.4,52.29,96.75,47.39,93.66,45ZM84.45,60.22,84,60.13,83.43,60c-.19,0-.38-.1-.57-.15l-.49-.15.19-9.57a15.2,15.2,0,0,1,1.7-2.28l.09-.09a8.09,8.09,0,0,1,.57-.61c.18-.18.37-.36.57-.53a7.5,7.5,0,0,1,3.35-1.82,4.58,4.58,0,0,1,2.84.35,6.34,6.34,0,0,1,1.27.77c2.59,2,3.11,6.37,1.18,9.91A9.31,9.31,0,0,1,93,57.53,8.85,8.85,0,0,1,84.45,60.22Z"/><path class="cls-4" d="M83.34,51.32s6.06-5.66,8-1.76-1,9.38-8.6,8.8Z"/><ellipse class="cls-2" cx="52.81" cy="48.39" rx="32.14" ry="38.11"/><path d="M85.51,47.35c0-.24,0-.49,0-.73a5.85,5.85,0,0,0,0-.73c0-.24,0-.48,0-.72C84,25.34,69.93,9.71,52.81,9.71,35.89,9.71,21.93,25,20.25,44.46c0,.22,0,.43,0,.66s0,.43-.05.66c0,.47-.05.95-.05,1.43s0,.79,0,1.18c0,.19,0,.38,0,.57a44.75,44.75,0,0,0,1,8.75,5.78,5.78,0,0,0,.12.57c.16.68.31,1.35.51,2,.05.2.09.39.16.59a4.11,4.11,0,0,0,.17.57c3.65,12,12.24,21.35,22.88,24.48a28.06,28.06,0,0,0,7.92,1.15,28,28,0,0,0,8.87-1.44c.67-.23,1.33-.47,2-.75C73,81,80.38,72.27,83.67,61.26c0-.16.1-.33.14-.5h0a.08.08,0,0,0,0-.07,4.42,4.42,0,0,0,.17-.55c.16-.57.3-1.16.44-1.75a44.46,44.46,0,0,0,1.07-8.73q0-.63,0-1.26C85.53,48.05,85.53,47.7,85.51,47.35Zm-1.15,1c0,.72,0,1.42-.06,2.12a42.89,42.89,0,0,1-1.08,7.87c-.11.49-.23,1-.36,1.47-.06.19-.1.38-.17.56s-.1.38-.15.57c-.16.53-.34,1.07-.53,1.6h0a38.44,38.44,0,0,1-5.59,10.67h0a34.14,34.14,0,0,1-5.85,6.14,29.64,29.64,0,0,1-8.16,4.74l-.88.32A26.56,26.56,0,0,1,48.3,85.54a24.52,24.52,0,0,1-3.41-.81c-10.07-3.11-18.2-12-21.73-23.49-.06-.19-.11-.38-.17-.57s-.11-.38-.16-.57c-.16-.57-.31-1.14-.43-1.72a.35.35,0,0,1,0-.14,42,42,0,0,1-1.08-8.56q0-.65,0-1.29c0-.32,0-.65,0-1a6.49,6.49,0,0,1,0-.77,5.85,5.85,0,0,1,0-.73c0-.24,0-.49,0-.74C22.75,26,36.31,10.85,52.81,10.85c16.76,0,30.5,15.62,31.48,35.27,0,.26,0,.53,0,.8a7.86,7.86,0,0,1,0,.84.06.06,0,0,1,0,.06C84.36,48,84.36,48.2,84.36,48.39Z"/><path d="M17.15,46.05s9.18,6.25,23.64-6.45S56.62,22.41,57,24.75s-8.79,10.16-3.13,10S68,16.15,68.93,17.91s9.77,33,16,29.7,9,8.79,4.69-16.22c-2.4-13.94-10.55-20.51-9.77-20.9,1.95-1,5.67-1,5.67-2.93s-7.62,2.34-7.62,1,4.68-6,2.93-7.42S77.52,7.17,76.55,7,68.93-4.56,42.36,2.09,14.81,45.66,17.15,46.05Z"/><path d="M39.23,44.48c0,2.38-.88,4.3-2,4.3s-2-1.92-2-4.3.88-4.29,2-4.29S39.23,42.11,39.23,44.48Z"/><path d="M65.61,44.48c0,2.38-.88,4.3-2,4.3s-1.95-1.92-1.95-4.3.87-4.29,1.95-4.29S65.61,42.11,65.61,44.48Z"/><path d="M50.17,44.09s1.17,11.53.2,11.73-3.72-1.18-4.5,1.76,3.32,3.71,6.06,2.73-5.67.2-4.3-2.73c.88-1.89,4.89,1.75,5.08-1S51.34,38,50.17,44.09Z"/><path d="M43.14,64.41a9.56,9.56,0,0,0,9,5.87c7,.19,6.65-6.65,7.82-6.65s-.39,8.79-7.62,8.79C43.14,72.42,41.57,63.44,43.14,64.41Z"/><path class="cls-5" d="M35.91,54.21A4.25,4.25,0,1,1,31.66,50,4.25,4.25,0,0,1,35.91,54.21Z"/><path class="cls-5" d="M74,54.21A4.25,4.25,0,1,1,69.76,50,4.25,4.25,0,0,1,74,54.21Z"/></g></g></svg>