<svg id="Group_5384" data-name="Group 5384" xmlns="http://www.w3.org/2000/svg" xmlns:xlink="http://www.w3.org/1999/xlink" width="266.96" height="270.863" viewBox="0 0 266.96 270.863">
  <defs>
    <clipPath id="clip-path">
      <rect id="Rectangle_2041" data-name="Rectangle 2041" width="266.96" height="270.863" fill="none"/>
    </clipPath>
  </defs>
  <g id="Group_5383" data-name="Group 5383" clip-path="url(#clip-path)">
    <path id="Path_3434" data-name="Path 3434" d="M29.2,269.366c-.079,0-.159,0-.24-.012l-2.925-.306a2.312,2.312,0,0,1-2.054-2.543L24.2,264.4a20.9,20.9,0,0,1-3.259-1.153l-1.383,1.919a2.249,2.249,0,0,1-3.153.506l-2.464-1.8a2.272,2.272,0,0,1-.5-3.154l1.286-1.786a18.976,18.976,0,0,1-2.289-2.656l-2.2,1.033a2.163,2.163,0,0,1-2.869-1.1l-1.311-2.963a2.183,2.183,0,0,1,1.094-2.867l2.048-.922a21.262,21.262,0,0,1-.641-3.439l-2.385-.249a2.211,2.211,0,0,1-1.963-2.43l.329-3.151a2.2,2.2,0,0,1,.8-1.489,2.162,2.162,0,0,1,1.62-.483l2.18.228a21.454,21.454,0,0,1,1.155-3.3l-1.929-1.41a2.246,2.246,0,0,1-.493-3.122l1.817-2.523a2.226,2.226,0,0,1,3.12-.5l1.757,1.283A21.325,21.325,0,0,1,17.2,226.6l-1.028-2.326a2.11,2.11,0,0,1,1.057-2.771l3.074-1.384a2.092,2.092,0,0,1,2.77,1.064l.939,2.122a20.952,20.952,0,0,1,3.447-.651l.222-2.6a2.015,2.015,0,0,1,2.205-1.8l3.519.368a2.013,2.013,0,0,1,1.788,2.212l-.253,2.434a18.346,18.346,0,0,1,3.294,1.141l1.5-2.146a1.988,1.988,0,0,1,2.787-.45l2.891,2.112a2.007,2.007,0,0,1,.441,2.786l-1.426,1.98a21.443,21.443,0,0,1,2.253,2.645l2.263-1.018A2.125,2.125,0,0,1,51.76,231.4l1.34,3.031a2.144,2.144,0,0,1-1.076,2.818l-2.095.943a19.792,19.792,0,0,1,.656,3.447l2.533.25a2.059,2.059,0,0,1,1.829,2.262l-.359,3.456a2.047,2.047,0,0,1-.748,1.385,2.017,2.017,0,0,1-1.508.451L50,249.2a21.315,21.315,0,0,1-1.155,3.3l1.826,1.335a2.376,2.376,0,0,1,.523,3.3l-1.67,2.318a2.35,2.35,0,0,1-3.3.528l-1.654-1.209a21.305,21.305,0,0,1-2.63,2.272l1.017,2.3a2.138,2.138,0,0,1-1.073,2.809l-3.021,1.36a2.117,2.117,0,0,1-2.808-1.079l-.927-2.095a20.934,20.934,0,0,1-3.4.646l-.24,2.311a2.3,2.3,0,0,1-2.294,2.076m-8.435-6.793.2.093a20.31,20.31,0,0,0,3.591,1.27l.226.057-.267,2.569a1.776,1.776,0,0,0,1.575,1.953l2.926.306a1.767,1.767,0,0,0,1.944-1.586l.253-2.426a.4.4,0,0,1,.356-.352,20.288,20.288,0,0,0,3.535-.673.388.388,0,0,1,.465.214l.98,2.214a1.581,1.581,0,0,0,2.1.808l3.021-1.36a1.6,1.6,0,0,0,.8-2.1l-1.065-2.41a.391.391,0,0,1,.129-.473,20.663,20.663,0,0,0,2.748-2.375.375.375,0,0,1,.493-.048l1.769,1.293a1.815,1.815,0,0,0,2.545-.409l1.669-2.318a1.839,1.839,0,0,0-.4-2.553l-2.179-1.591.091-.2a20.782,20.782,0,0,0,1.27-3.632l.057-.226,2.8.292a1.488,1.488,0,0,0,1.112-.332,1.516,1.516,0,0,0,.553-1.025l.36-3.456a1.522,1.522,0,0,0-1.35-1.673l-2.972-.293-.02-.221a19.259,19.259,0,0,0-.723-3.788l-.068-.226,2.523-1.135a1.607,1.607,0,0,0,.806-2.112l-1.341-3.031a1.588,1.588,0,0,0-2.1-.81L46.5,232l-.128-.181a20.8,20.8,0,0,0-2.481-2.912l-.165-.162,1.7-2.353a1.469,1.469,0,0,0-.323-2.039l-2.89-2.112a1.452,1.452,0,0,0-2.035.327l-1.758,2.51-.2-.095a17.732,17.732,0,0,0-3.623-1.252l-.233-.052.3-2.908a1.476,1.476,0,0,0-1.31-1.622l-3.519-.368a1.453,1.453,0,0,0-1.076.323,1.473,1.473,0,0,0-.54.994l-.26,3.042-.224.021a20.387,20.387,0,0,0-3.8.717l-.225.065L22.581,221.4a1.554,1.554,0,0,0-2.06-.792l-3.074,1.383a1.572,1.572,0,0,0-.787,2.066l1.076,2.433a.394.394,0,0,1-.132.477,20.827,20.827,0,0,0-2.741,2.372.379.379,0,0,1-.5.048L12.5,228.019a1.688,1.688,0,0,0-2.368.379l-1.818,2.523a1.709,1.709,0,0,0,.374,2.376l2.281,1.667-.091.2a20.964,20.964,0,0,0-1.27,3.632l-.056.226L6.9,238.746a1.633,1.633,0,0,0-1.224.366,1.667,1.667,0,0,0-.609,1.128l-.329,3.152a1.671,1.671,0,0,0,.364,1.229,1.649,1.649,0,0,0,1.122.611l2.823.295.021.22a20.7,20.7,0,0,0,.706,3.784l.063.223-2.47,1.111a1.645,1.645,0,0,0-.824,2.161l1.311,2.963a1.626,1.626,0,0,0,2.154.829l2.607-1.221.129.185a18.37,18.37,0,0,0,2.517,2.917l.173.161-1.561,2.168a1.734,1.734,0,0,0,.381,2.408l2.464,1.8a1.712,1.712,0,0,0,2.4-.385Zm8.812-9.83a9.089,9.089,0,0,1-.927-.049,8.878,8.878,0,0,1-1.709-.352,8.943,8.943,0,0,1-2.922-15.471,8.807,8.807,0,0,1,8.184-1.577,8.943,8.943,0,0,1,2.92,15.471,8.727,8.727,0,0,1-5.546,1.978m0-17.313a8.293,8.293,0,0,0-5.224,1.857A8.407,8.407,0,0,0,27.1,251.83a8.29,8.29,0,0,0,1.6.33,8.414,8.414,0,0,0,.871.046,8.192,8.192,0,0,0,5.208-1.859,8.407,8.407,0,0,0-2.742-14.542,8.28,8.28,0,0,0-2.463-.376" transform="translate(-1.229 -63.89)" fill="#6d72a0"/>
    <path id="Path_3435" data-name="Path 3435" d="M50.341,91.4l.634.086c-2.658,19.693-5.671,42.013,2.146,61.929,5.429,13.83,15.663,25.166,25.561,36.129,4.064,4.5,8.266,9.156,12.088,13.927a119.1,119.1,0,0,1,21.389,40.121A89.675,89.675,0,0,1,115.8,264.26H115.1c-1.079-20.118-9.678-41.478-24.827-60.393-3.809-4.756-8.005-9.4-12.063-13.9C68.271,178.964,58,167.583,52.525,153.645c-7.878-20.07-4.853-42.478-2.185-62.248" transform="translate(-13.897 -26.757)" fill="#90a6d3"/>
    <path id="Path_3436" data-name="Path 3436" d="M54.818,129.373c2.735-1.99,5.717-4.183,6.555-7.46.577-2.255.033-4.737.909-6.893.955-2.351,3.363-3.764,4.783-5.867,1.869-2.768,1.853-6.447,3.533-9.335,1.431-2.46,4.089-4.393,4.313-7.229a2.058,2.058,0,0,0-.352-1.481c-.769-.932-2.279-.4-3.275.283a19.774,19.774,0,0,0-7.674,10.569c-.693,2.337-1,4.912-2.565,6.783a25.624,25.624,0,0,1-2.871,2.525,11.912,11.912,0,0,0-3.649,6.077c-.46,1.912-.459,3.982-1.415,5.7-1.666,3-5.653,4.7-5.248,8.837.586,5.985,5.3-1.3,6.955-2.511" transform="translate(-14.004 -26.525)" fill="#90a6d3"/>
    <path id="Path_3437" data-name="Path 3437" d="M55.842,165.837a17.79,17.79,0,0,1-.943-2.811c1.084-2.246,3.517-3.746,4.73-5.925.956-1.719.955-3.789,1.415-5.7a11.917,11.917,0,0,1,3.649-6.077,25.694,25.694,0,0,0,2.871-2.525c1.564-1.871,1.872-4.446,2.565-6.784A19.777,19.777,0,0,1,77.8,125.444c1-.685,2.506-1.214,3.275-.282a2.056,2.056,0,0,1,.352,1.48c-.223,2.837-2.882,4.77-4.313,7.23-1.68,2.888-1.663,6.566-3.533,9.335-1.42,2.1-3.828,3.516-4.783,5.866-.876,2.156-.332,4.638-.909,6.893-.838,3.277-3.821,5.471-6.555,7.461-.943.686-2.874,3.34-4.473,4.4-.345-.661-.7-1.313-1.021-1.988" transform="translate(-16.072 -36.494)" fill="#90a6d3"/>
    <path id="Path_3438" data-name="Path 3438" d="M72.166,184.01c2.735-1.99,5.717-4.183,6.555-7.46.577-2.255.033-4.737.909-6.893.955-2.351,3.363-3.764,4.783-5.867,1.869-2.768,1.853-6.447,3.533-9.335,1.431-2.459,4.089-4.393,4.313-7.229a2.058,2.058,0,0,0-.352-1.481c-.769-.931-2.279-.4-3.275.283A19.774,19.774,0,0,0,80.959,156.6c-.693,2.337-1,4.912-2.565,6.783a25.7,25.7,0,0,1-2.871,2.526,11.912,11.912,0,0,0-3.649,6.077c-.46,1.912-.459,3.982-1.415,5.7-1.666,3-5.653,4.7-5.248,8.837.586,5.985,5.3-1.3,6.955-2.511" transform="translate(-19.082 -42.52)" fill="#90a6d3"/>
    <path id="Path_3439" data-name="Path 3439" d="M88.731,198.081c2.468-2.312,5.157-4.856,5.585-8.211.294-2.309-.552-4.705.052-6.952.658-2.451,2.874-4.15,4.024-6.412,1.514-2.978,1.044-6.626,2.355-9.7,1.116-2.617,3.516-4.864,3.388-7.706a2.057,2.057,0,0,0-.532-1.427c-.878-.83-2.312-.118-3.214.684a19.775,19.775,0,0,0-6.311,11.435c-.4,2.405-.388,5-1.709,7.048a25.863,25.863,0,0,1-2.538,2.861,11.907,11.907,0,0,0-2.871,6.48c-.221,1.956.035,4.009-.7,5.833-1.284,3.178-5.03,5.36-4.118,9.416,1.319,5.868,5.1-1.946,6.592-3.349" transform="translate(-24.005 -46.051)" fill="#90a6d3"/>
    <path id="Path_3440" data-name="Path 3440" d="M106.572,220.211c2.185-2.581,4.562-5.42,4.6-8.8.026-2.327-1.091-4.609-.751-6.912.371-2.509,2.376-4.453,3.257-6.832,1.16-3.133.272-6.7,1.22-9.907.807-2.729,2.932-5.237,2.476-8.046a2.059,2.059,0,0,0-.692-1.355c-.968-.724-2.311.149-3.115,1.051a19.775,19.775,0,0,0-4.95,12.086c-.119,2.436.191,5.009-.884,7.2a25.742,25.742,0,0,1-2.191,3.134,11.914,11.914,0,0,0-2.1,6.769c.006,1.967.5,3.977-.023,5.874-.91,3.306-4.379,5.9-3,9.829,1.988,5.676,4.838-2.523,6.162-4.088" transform="translate(-29.302 -52.136)" fill="#90a6d3"/>
    <path id="Path_3441" data-name="Path 3441" d="M124.445,201.544c-1.948,2.765-4.065,5.8-3.8,9.174.18,2.32,1.5,4.495,1.36,6.818-.147,2.533-1.971,4.647-2.638,7.094-.878,3.224.323,6.7-.337,9.976-.562,2.789-2.456,5.477-1.754,8.234a2.061,2.061,0,0,0,.811,1.289c1.028.634,2.288-.354,3.009-1.323a19.776,19.776,0,0,0,3.859-12.478c-.1-2.436-.634-4.973.243-7.248a25.667,25.667,0,0,1,1.9-3.316,11.92,11.92,0,0,0,1.5-6.929c-.18-1.959-.849-3.917-.5-5.853.612-3.374,3.838-6.269,2.121-10.056-2.482-5.477-4.6,2.941-5.775,4.618" transform="translate(-34.287 -57.116)" fill="#90a6d3"/>
    <path id="Path_3442" data-name="Path 3442" d="M135.308,224.176c-1.948,2.766-4.065,5.8-3.8,9.174.18,2.321,1.5,4.5,1.36,6.818-.147,2.533-1.971,4.647-2.638,7.1-.878,3.224.323,6.7-.337,9.975-.562,2.789-2.456,5.478-1.754,8.234a2.058,2.058,0,0,0,.811,1.289c1.028.634,2.288-.354,3.009-1.323a19.779,19.779,0,0,0,3.859-12.478c-.1-2.436-.634-4.973.243-7.248a25.758,25.758,0,0,1,1.9-3.316,11.912,11.912,0,0,0,1.5-6.928c-.18-1.959-.849-3.918-.5-5.853.612-3.374,3.838-6.269,2.121-10.056-2.482-5.477-4.594,2.941-5.775,4.617" transform="translate(-37.467 -63.741)" fill="#90a6d3"/>
    <path id="Path_3443" data-name="Path 3443" d="M58.236,250.631c3.26-.9,6.833-1.869,9.919-.484,2.124.953,3.726,2.924,5.959,3.581,2.434.716,5.039-.288,7.569-.09,3.33.261,6.2,2.564,9.5,3.048,2.815.412,5.984-.464,8.343,1.127a2.061,2.061,0,0,1,.939,1.2c.25,1.182-1.1,2.035-2.26,2.386a19.779,19.779,0,0,1-13.048-.576c-2.261-.914-4.468-2.275-6.906-2.217a25.733,25.733,0,0,0-3.764.674,11.915,11.915,0,0,1-7.027-.929c-1.783-.831-3.4-2.12-5.342-2.443-3.382-.562-7.2,1.5-10.182-1.4-4.318-4.185,4.319-3.333,6.3-3.879" transform="translate(-14.856 -73.028)" fill="#90a6d3"/>
    <path id="Path_3444" data-name="Path 3444" d="M71.055,271.666c3.26-.9,6.833-1.869,9.919-.484,2.124.953,3.726,2.924,5.959,3.581,2.434.716,5.039-.288,7.569-.09,3.33.261,6.2,2.564,9.5,3.048,2.815.412,5.984-.464,8.343,1.127a2.061,2.061,0,0,1,.939,1.2c.25,1.182-1.1,2.035-2.26,2.386a19.779,19.779,0,0,1-13.048-.576c-2.261-.914-4.468-2.275-6.906-2.217a25.81,25.81,0,0,0-3.764.674,11.912,11.912,0,0,1-7.027-.929c-1.784-.831-3.4-2.12-5.343-2.443-3.382-.562-7.2,1.5-10.182-1.4-4.318-4.185,4.319-3.333,6.3-3.879" transform="translate(-18.609 -79.186)" fill="#90a6d3"/>
    <path id="Path_3445" data-name="Path 3445" d="M149.8,249.246c-2.289,2.491-4.779,5.229-4.954,8.607-.121,2.324.9,4.65.47,6.937-.473,2.492-2.555,4.353-3.532,6.694-1.286,3.084-.545,6.687-1.622,9.849-.917,2.694-3.142,5.114-2.8,7.939a2.06,2.06,0,0,0,.637,1.382c.938.762,2.315-.055,3.155-.923a19.774,19.774,0,0,0,5.437-11.875c.219-2.429.013-5.014,1.176-7.157a25.648,25.648,0,0,1,2.317-3.042,11.917,11.917,0,0,0,2.378-6.678c.074-1.966-.336-3.994.262-5.868,1.042-3.267,4.614-5.722,3.4-9.7-1.755-5.751-4.936,2.324-6.323,3.834" transform="translate(-40.201 -71.247)" fill="#90a6d3"/>
    <path id="Path_3446" data-name="Path 3446" d="M82.284,288.142c3.349-.472,7.017-.971,9.9.8,1.983,1.219,3.318,3.381,5.448,4.32,2.321,1.025,5.034.365,7.517.888,3.269.689,5.816,3.343,9.032,4.249,2.739.772,5.995.311,8.128,2.194a2.059,2.059,0,0,1,.777,1.308c.1,1.205-1.358,1.876-2.55,2.075a19.774,19.774,0,0,1-12.864-2.255c-2.125-1.2-4.137-2.833-6.562-3.089a25.716,25.716,0,0,0-3.819.183,11.915,11.915,0,0,1-6.849-1.828c-1.661-1.054-3.1-2.541-4.982-3.111-3.282-.994-7.33.556-9.917-2.7-3.743-4.707,4.713-2.748,6.743-3.034" transform="translate(-21.838 -84.224)" fill="#90a6d3"/>
    <path id="Path_3447" data-name="Path 3447" d="M154.483,300.635c-1.608,1.833-1.979,4.4-2.729,6.72a19.769,19.769,0,0,1-7.927,10.38,5.342,5.342,0,0,1-.756.41h-2.319a1.35,1.35,0,0,1-.205-.207,2.053,2.053,0,0,1-.316-1.489c.291-2.83,3-4.7,4.486-7.123,1.75-2.846,1.822-6.524,3.758-9.247,1.47-2.068,3.912-3.422,4.924-5.749.928-2.134.443-4.629,1.075-6.87.917-3.255,3.951-5.376,6.734-7.3,1.687-1.166,6.573-8.338,7.014-2.341.3,4.147-3.721,5.752-5.46,8.707-1,1.7-1.046,3.765-1.552,5.665a11.914,11.914,0,0,1-3.8,5.988,25.624,25.624,0,0,0-2.932,2.455" transform="translate(-41.047 -80.641)" fill="#90a6d3"/>
    <path id="Path_3448" data-name="Path 3448" d="M88.26,310.018c3.373-.253,7.065-.512,9.826,1.443,1.9,1.345,3.091,3.589,5.154,4.666,2.249,1.173,5,.692,7.443,1.375,3.217.9,5.586,3.715,8.736,4.829,2.683.948,5.961.7,7.967,2.719a2.06,2.06,0,0,1,.69,1.356c.012.888-.791,1.432-1.7,1.708h-6.275a19.726,19.726,0,0,1-7.4-2.893c-2.041-1.333-3.943-3.1-6.346-3.51a25.714,25.714,0,0,0-3.823-.066,11.911,11.911,0,0,1-6.715-2.27c-1.589-1.16-2.927-2.738-4.769-3.429-3.21-1.205-7.35.077-9.72-3.339-3.427-4.942,4.882-2.435,6.927-2.589" transform="translate(-23.571 -90.612)" fill="#90a6d3"/>
    <path id="Path_3449" data-name="Path 3449" d="M36.042,147.164c-2.431-2.352-5.079-4.939-5.452-8.3-.257-2.313.628-4.695.061-6.952-.619-2.461-2.806-4.2-3.92-6.475-1.465-3-.937-6.643-2.2-9.737-1.074-2.634-3.438-4.92-3.263-7.761a2.055,2.055,0,0,1,.554-1.417c.891-.815,2.313-.081,3.2.736a19.779,19.779,0,0,1,6.126,11.535c.36,2.412.307,5,1.595,7.075a25.581,25.581,0,0,0,2.492,2.9,11.914,11.914,0,0,1,2.766,6.526c.19,1.958-.1,4.007.608,5.843,1.233,3.2,4.943,5.44,3.966,9.481-1.414,5.845-5.065-2.029-6.538-3.455" transform="translate(-6.224 -31.08)" fill="#90a6d3"/>
    <path id="Path_3450" data-name="Path 3450" d="M40.662,182.5c-3.3-.732-6.912-1.552-8.989-4.221-1.429-1.837-1.922-4.33-3.586-5.956-1.815-1.773-4.587-2.107-6.728-3.468-2.82-1.792-4.274-5.171-6.967-7.147-2.294-1.684-5.5-2.395-6.842-4.906a2.06,2.06,0,0,1-.268-1.5c.332-1.161,1.929-1.279,3.115-1.048a19.769,19.769,0,0,1,11.255,6.625c1.569,1.866,2.881,4.1,5.061,5.195a25.6,25.6,0,0,0,3.641,1.168,11.908,11.908,0,0,1,5.772,4.115c1.186,1.569,2.011,3.467,3.574,4.661,2.724,2.081,7.059,2.05,8.34,6.006,1.854,5.72-5.377.92-7.379.475" transform="translate(-2.116 -45.131)" fill="#90a6d3"/>
    <path id="Path_3451" data-name="Path 3451" d="M62.961,218.45c-3.375-.22-7.068-.479-9.528-2.8-1.693-1.6-2.56-3.985-4.454-5.339-2.064-1.476-4.854-1.383-7.178-2.4-3.06-1.34-5.014-4.458-7.977-6-2.524-1.313-5.805-1.526-7.51-3.8a2.059,2.059,0,0,1-.494-1.439c.151-1.2,1.711-1.559,2.919-1.512a19.777,19.777,0,0,1,12.135,4.83c1.835,1.6,3.473,3.615,5.794,4.361a25.676,25.676,0,0,0,3.777.6,11.914,11.914,0,0,1,6.332,3.185c1.412,1.37,2.517,3.119,4.244,4.061,3.01,1.642,7.289.948,9.159,4.662,2.705,5.372-5.174,1.73-7.22,1.6" transform="translate(-7.556 -57.131)" fill="#90a6d3"/>
    <path id="Path_3452" data-name="Path 3452" d="M76.621,241.743c-3.3.726-6.923,1.5-9.931-.046-2.069-1.064-3.565-3.119-5.76-3.894-2.392-.845-5.047.019-7.563-.314-3.312-.438-6.053-2.891-9.328-3.55-2.789-.562-6,.144-8.271-1.571a2.059,2.059,0,0,1-.874-1.246c-.187-1.194,1.212-1.973,2.385-2.263a19.775,19.775,0,0,1,13,1.272c2.209,1.033,4.34,2.51,6.777,2.582a25.717,25.717,0,0,0,3.8-.472,11.908,11.908,0,0,1,6.967,1.3c1.737.924,3.284,2.3,5.2,2.724,3.347.742,7.266-1.111,10.093,1.938,4.089,4.41-4.491,3.1-6.493,3.538" transform="translate(-10.21 -66.834)" fill="#90a6d3"/>
    <path id="Path_3453" data-name="Path 3453" d="M51.6,97.443c1.883-2.81,3.929-5.895,3.589-9.26-.233-2.316-1.6-4.459-1.518-6.785.088-2.535,1.864-4.691,2.473-7.154.8-3.243-.477-6.691.106-9.981.5-2.8,2.329-5.532,1.563-8.273a2.058,2.058,0,0,0-.84-1.269c-1.042-.61-2.279.406-2.978,1.392a19.774,19.774,0,0,0-3.569,12.564c.153,2.434.75,4.957-.075,7.252a25.685,25.685,0,0,1-1.828,3.359,11.915,11.915,0,0,0-1.335,6.961c.226,1.954.939,3.9.632,5.84-.534,3.387-3.691,6.357-1.888,10.1,2.609,5.418,4.526-3.047,5.667-4.75" transform="translate(-13.287 -15.966)" fill="#90a6d3"/>
    <path id="Path_3454" data-name="Path 3454" d="M111.456,240.884,96.9,300.583H57.852L72.6,245.035a5.584,5.584,0,0,1,5.4-4.151Z" transform="translate(-16.936 -70.519)" fill="#fbe9dc"/>
    <path id="Path_3455" data-name="Path 3455" d="M17.413,330.709h1.4l-8.4,29.7a.674.674,0,0,1-.648.49.656.656,0,0,1-.183-.026.674.674,0,0,1-.465-.831Z" transform="translate(-2.661 -96.816)" fill="#91b4de"/>
    <path id="Path_3456" data-name="Path 3456" d="M57.441,330.709h1.388l-7.493,30.035a.675.675,0,0,1-.653.51.685.685,0,0,1-.164-.02.673.673,0,0,1-.49-.816Z" transform="translate(-14.64 -96.816)" fill="#91b4de"/>
    <path id="Path_3457" data-name="Path 3457" d="M7.229,306.32l43.3.323-6.4,20.637L18.58,330.2c-4.2.479-8.052-2.081-8.6-5.72Z" transform="translate(-2.116 -89.676)" fill="#f9cdaf"/>
    <path id="Path_3458" data-name="Path 3458" d="M116.488,329.146v30.4a.673.673,0,1,1-1.347,0v-30.4Z" transform="translate(-33.708 -96.358)" fill="#91b4de"/>
    <path id="Path_3459" data-name="Path 3459" d="M61.66,322.835c-.709,2.706-1.4,5.148-2,7.179-1.1,3.739,3.268,6.175-.787,6.175-11.561,0-20.428.023-27.268.039V322.835Z" transform="translate(-9.252 -94.511)" fill="#fbe9dc"/>
    <path id="Path_3460" data-name="Path 3460" d="M13.833,322.835H26.569v13.4c-5.95.011-2.806.006-5.582-.045Z" transform="translate(-4.05 -94.511)" fill="#fbe9dc"/>
    <path id="Path_3461" data-name="Path 3461" d="M64.822,299c2.615.3,8.34.555,12.051.8,1.169,0,2.313.275,3.392.253,5.6-.115,12.768,2.213,14.554-4.012,1.846-6.432,8.408-45.2,10.184-51.486.615-2.175,1.583-3.669,3.842-3.669H110.3a2.548,2.548,0,0,1,2.5,2.922c-.7,7.5-7.18,53.93-9.174,62.216-.9,3.739-3.625,6.175-6.926,6.175H64.1c-1.424,0-7.945.318-9.243-.617-3.712-2.675,3.223-5.715,4.385-8.921,1.17-3.229,2.25-4.04,5.581-3.661" transform="translate(-15.742 -70.519)" fill="#f9cdaf"/>
    <path id="Path_3462" data-name="Path 3462" d="M85.07,315.014c-.1.042-.22.078-.329.114l.329-.114" transform="translate(-24.808 -92.221)" fill="#ffb288"/>
    <path id="Path_3463" data-name="Path 3463" d="M69.7,323.553a.39.39,0,0,0,.38-.308l2.063-9.649a7.5,7.5,0,0,1,7.14-6.241h23.56a.389.389,0,0,0,0-.779H79.288a8.272,8.272,0,0,0-7.9,6.857l-2.063,9.649a.39.39,0,0,0,.3.462.4.4,0,0,0,.082.008" transform="translate(-20.292 -89.751)" fill="#282f39"/>
    <path id="Path_3464" data-name="Path 3464" d="M12.212,316.719c1.4,6.778,10.741,14.687,6.4,14.687-12.4,0-16.884-7.787-18.283-14.565s1.9-10.572,6.245-10.572,4.243,3.671,5.642,10.45" transform="translate(0 -89.661)" fill="#fbe9dc"/>
    <path id="Path_3465" data-name="Path 3465" d="M83.823,316.2c-.1.042-.22.078-.329.114l.329-.114" transform="translate(-24.443 -92.569)" fill="#ffb288"/>
    <path id="Path_3466" data-name="Path 3466" d="M92.06,290.93a2.773,2.773,0,0,0,.559-1.149,9.284,9.284,0,0,0,.185-4.447c-2.4-12.23.774-16.589,1.091-22.63.257-4.917-7.834-13.545-12.322-14.233-6.007-.921-12.015-2.005-15.16-.021a14.957,14.957,0,0,0-2.931,1.832c-2.527,2.066-2.85,5.918-.974,9.836,5.991,12.518,3.271,17.31,4.149,25.772a3.9,3.9,0,0,0,3.378,3.674c6.173.554,11.6,3.1,19.893,1.96a3.694,3.694,0,0,0,2.132-.594" transform="translate(-17.948 -72.407)" fill="#895147"/>
    <path id="Path_3467" data-name="Path 3467" d="M59.241,256.222,53.84,276.6c-.636,2.486,2.452,5.778,5.42,5.778h8.419c1.593,0,2.21-1.459,1.277-3.021l-1.2-2.012-3.728-1.157s1.276-14.712-4.785-19.962" transform="translate(-15.737 -75.009)" fill="#895147"/>
    <path id="Path_3468" data-name="Path 3468" d="M68.319,282.825a80.913,80.913,0,0,0,14.349-1.491A2.85,2.85,0,0,0,85,278.454L83.42,267.329a3.064,3.064,0,0,1,.04-.83,1.462,1.462,0,0,1,1.341-1.119l8.524-3.6c.423,0,1.112,3.888,1.144,4.294,1.327,16.705,1.094,18.511-.486,20.362-.125.146-.259.291-.4.444l-.173.187c-2.731,2.955-18.424,1.818-25.677.8a6.474,6.474,0,0,1-.868-.02.745.745,0,0,1-.624-1.019l.772-2.926a1.478,1.478,0,0,1,1.307-1.071" transform="translate(-19.381 -76.635)" fill="#895147"/>
    <path id="Path_3469" data-name="Path 3469" d="M81.984,292.311a116.444,116.444,0,0,1-14.565-.994,6.067,6.067,0,0,1-.861-.02.863.863,0,0,1-.724-1.182l.772-2.926a1.732,1.732,0,0,1,.583-.878,1.553,1.553,0,0,1,.948-.376l.268,0a82.635,82.635,0,0,0,14.054-1.486,2.679,2.679,0,0,0,1.579-.96,2.222,2.222,0,0,0,.547-1.674l-1.329-9.377a.244.244,0,0,1,.153-.232c.1-.04.184,0,.2.081l1.329,9.377a2.636,2.636,0,0,1-.651,1.983,3.177,3.177,0,0,1-1.878,1.143,82.623,82.623,0,0,1-14.109,1.49l-.267,0a1.1,1.1,0,0,0-.672.265,1.221,1.221,0,0,0-.41.621l-.773,2.927a.625.625,0,0,0,.524.856,6.444,6.444,0,0,0,.848.02c5.969.84,20.461,1.911,24.816-.352.093-.049.188-.023.21.059a.237.237,0,0,1-.134.239c-2,1.038-6.054,1.393-10.453,1.393" transform="translate(-19.26 -79.683)" fill="#60322c"/>
    <path id="Path_3470" data-name="Path 3470" d="M89.548,313.6l-1.887,1.278c-3.742-2.318-6.833-2.758-12.479-2.213l-20.531-2.691c-1.379-.82-2.716-1.722-4.027-2.679a6.187,6.187,0,0,1,5.63-5.594c10.168-1.352,20.093-1.668,30.113,1.98a7.9,7.9,0,0,1,4.857,5.364,4.131,4.131,0,0,1-1.676,4.555" transform="translate(-14.82 -88.05)" fill="#331f44"/>
    <path id="Path_3471" data-name="Path 3471" d="M37.641,316.14c-5.687-.555-3.532-3.71-7.288-1.382l-1.732-1.173a4.392,4.392,0,0,1-1.715-5.032,7.837,7.837,0,0,1,4.741-4.992c10.019-3.648,19.944-3.333,30.112-1.98a6.186,6.186,0,0,1,5.63,5.594c-1.358.991,11.305,8.232,9.874,9.075Z" transform="translate(-7.81 -88.013)" fill="#331f44"/>
    <path id="Path_3472" data-name="Path 3472" d="M40.084,307.661c6.877,1.895,6.333,1.66,7.919,2.19l.9-3.845c.068-.288-.487.376-.943.4l-7.024-1.225Z" transform="translate(-11.735 -89.341)" fill="#ff9985"/>
    <path id="Path_3473" data-name="Path 3473" d="M40.634,307.573,36.366,309.6c-1.045.494-1.726.088-1.811-.622l7.606-7.041,1.29,1.927a.856.856,0,0,1-.115,1.093Z" transform="translate(-10.116 -88.391)" fill="#2186c4"/>
    <path id="Path_3474" data-name="Path 3474" d="M42.158,301.724l-.187-.357c-.117-.222-.482-.182-.761.084l-5.84,5.543a2.216,2.216,0,0,0-.818,1.77Z" transform="translate(-10.112 -88.183)" fill="#000543"/>
    <path id="Path_3475" data-name="Path 3475" d="M43.7,303.517l-.925.9a.364.364,0,0,0,.506.522l.925-.9a.364.364,0,0,0-.506-.522" transform="translate(-12.489 -88.825)" fill="#000543"/>
    <path id="Path_3476" data-name="Path 3476" d="M93.48,313.8c-4.544.379-7.051.4-9.962.426l-.4-3.661c-.033-.291.348-.491.794-.416l9.3,1.559c2.444.41,2.579,1.9.271,2.092" transform="translate(-24.331 -90.793)" fill="#ff9985"/>
    <path id="Path_3477" data-name="Path 3477" d="M64.814,309.86c-11.43-1.422-23.652-.533-33-.778-2.892-.076-5.229.871-5.1,3.754.12,2.723,2.394,6.265,5.125,6.163,6.167-.228,31.216-2.894,33.432-2.922,8.378-.109,5.471-5.48-.453-6.217" transform="translate(-7.818 -90.469)" fill="#4f3563"/>
    <path id="Path_3478" data-name="Path 3478" d="M65.839,310.052c-1.221-.265-4.1-2.13-12.147-1.9-2.4.067-5.7.859-8.066.493-.919-.141-1.649.4-2.578.35-1.492-.074-3.089-.253-4.583-.271a20.946,20.946,0,0,1-2.381-.329,8.393,8.393,0,0,0-4.489.672c-.385.174-1.18.455-1.18.981,0,.654.75.6,1.154.848.255.158.4.446.636.629a1.88,1.88,0,0,0,1.144.281c3.351.054,6.65-.741,9.977-1.142a83.576,83.576,0,0,1,9.345-.43c1.409-.011,2.818-.016,4.227-.023Z" transform="translate(-8.904 -90.205)" fill="#4f3563"/>
    <path id="Path_3479" data-name="Path 3479" d="M53.038,304.609c11.517-.037,23.508,2.311,32.854,3.195a4.962,4.962,0,1,1-1.215,9.843c-6.1-.968-29.984-6.354-32.18-6.648-8.3-1.115-5.428-6.37.541-6.389" transform="translate(-13.859 -89.175)" fill="#6e5082"/>
    <path id="Path_3480" data-name="Path 3480" d="M54.674,303.115c.6.026,1.176.233,1.772.3,1.912.219,3.754-.99,5.674-.852,1.661.12,3.132,1.233,4.794,1.333,1.352.082,2.667-.518,4.021-.5,2.144.03,4.05,1.6,6.195,1.587a12.911,12.911,0,0,1,2.82-.112c1.044.231,1.844,1.075,2.844,1.453a11.936,11.936,0,0,0,2.313.418,7.709,7.709,0,0,1,4.813,2.9,5.109,5.109,0,0,1-2.729.152c-2.746-.4-5.42-1.183-8.147-1.695-7.349-1.379-14.911-.74-22.372-1.228-1.146-.075-5.257-.066-5.705-1.439-.43-1.316,2.782-2.36,3.708-2.32" transform="translate(-14.909 -88.573)" fill="#6e5082"/>
    <path id="Path_3481" data-name="Path 3481" d="M68,306.08h35.008l-6.4,21.292-33.159,3.912Z" transform="translate(-18.577 -89.605)" fill="#f9cdaf"/>
    <path id="Path_3482" data-name="Path 3482" d="M58.6,316.54c-1.4,6.785-11.237,14.7-6.892,14.7,12.4,0,17.38-7.795,18.779-14.579s-1.9-10.583-6.245-10.583S60,309.755,58.6,316.54" transform="translate(-14.816 -89.605)" fill="#fbe9dc"/>
    <path id="Path_3483" data-name="Path 3483" d="M58.505,225.993a13.634,13.634,0,0,0,.425,2.529c.079.3.124.527.424.671a.661.661,0,0,0,.347.052,5.406,5.406,0,0,1,.417-2.958,17.913,17.913,0,0,0,8.262,1.579l-.065,1.783c-.066,1.8-.133,2.2-1.707,3.036a19.857,19.857,0,0,1-5.314,1.489l1.006,3.262a2.675,2.675,0,0,0,2.641,1.5c.578-.122,1.6-.3,2.539-.575a4.42,4.42,0,0,0,1.842-.9,12.139,12.139,0,0,0,1.517-2.067,5.168,5.168,0,0,0,.146-3.825l-.724-2.757a1.534,1.534,0,0,1,1.669,1.308,1.787,1.787,0,0,1-.232,1.412l.608,2.178c.189-.2.5-.248.709-.434.525-.469.047-1.393.33-2.042.191-.437.7-.677.85-1.132a1.49,1.49,0,0,0-.494-1.35,7.193,7.193,0,0,1-.51-.6c.087-.975.5-2.079-.031-2.881-.182-.275-.458-.472-.625-.757a5.011,5.011,0,0,1-.294-.761c-.609-1.559-2.224-1.69-3.489-2.242-1.149-.5-1.973-1.709-3.256-1.8a.555.555,0,0,0-.318-.066.7.7,0,0,0-.262.1,2.944,2.944,0,0,0-.926.37,3.429,3.429,0,0,0-.566-.195c-.641-.07-.959.827-1.569,1.033-.412.139-.893-.064-1.288.117a1.343,1.343,0,0,0-.591,1.17,2.285,2.285,0,0,1-.339,1.313,7.341,7.341,0,0,1-.643.525,2.368,2.368,0,0,0-.49,1.915m6.236,8.981a.912.912,0,0,1-1.209-.408l2.03-.68c.041.34-.058.788-.821,1.088" transform="translate(-17.123 -64.301)" fill="#000543"/>
    <path id="Path_3484" data-name="Path 3484" d="M60.182,232a.833.833,0,0,0,.057.226l1.137-.258a.314.314,0,0,1,.14.612l-1.129.257,1.334,3.84c.02.086.047.166.071.25a19.755,19.755,0,0,0,5.3-1.487c1.574-.837,1.642-1.232,1.707-3.036l.065-1.783a17.916,17.916,0,0,1-8.262-1.579A5.4,5.4,0,0,0,60.182,232m5.811-.44-1.136.259a.314.314,0,0,1-.14-.612l1.136-.259a.314.314,0,0,1,.14.612m-.153.394c.192-.044.4.164.473.464s-.032.579-.224.623-.4-.164-.473-.464.032-.579.224-.623m-2.7,2.925.02-.112a.62.62,0,0,0,.545.412l.629.033a.464.464,0,0,0,.454-.3l.026.055a.485.485,0,0,1-.459.692l-.629-.033a.633.633,0,0,1-.586-.745m-1.11-1.574c.069.3-.032.579-.224.622s-.4-.164-.472-.464.032-.579.224-.622.4.163.472.464" transform="translate(-17.603 -67.052)" fill="#ff9985"/>
    <path id="Path_3485" data-name="Path 3485" d="M74.56,239.178a5.168,5.168,0,0,0,.146-3.825l-.724-2.756a1.533,1.533,0,0,1,1.669,1.307,1.784,1.784,0,0,1-.233,1.412l.609,2.178,1.571,5.623a2.615,2.615,0,0,1-1.968,3.26l-.654.141a2.615,2.615,0,0,1-3.069-1.852l-.706-2.523a4.428,4.428,0,0,0,1.842-.9,12.172,12.172,0,0,0,1.517-2.068" transform="translate(-20.844 -68.086)" fill="#ff9985"/>
    <path id="Path_3486" data-name="Path 3486" d="M67.793,232.344l-1.136.259a.314.314,0,0,1-.14-.612l1.136-.259a.314.314,0,0,1,.14.612" transform="translate(-19.403 -67.838)" fill="#000543"/>
    <path id="Path_3487" data-name="Path 3487" d="M61.322,233.172a.314.314,0,0,1,.14.612l-1.128.257a.315.315,0,0,1-.38-.236.311.311,0,0,1,.215-.367c.017-.008,1.153-.266,1.153-.266" transform="translate(-17.549 -68.259)" fill="#000543"/>
    <path id="Path_3488" data-name="Path 3488" d="M62.524,234.873c.069.3-.032.579-.224.622s-.4-.164-.472-.464.032-.579.224-.622.4.163.472.464" transform="translate(-18.094 -68.622)" fill="#000543"/>
    <path id="Path_3489" data-name="Path 3489" d="M68.1,233.155c.192-.044.4.164.472.464s-.032.579-.224.623-.4-.164-.472-.465.032-.579.224-.622" transform="translate(-19.865 -68.255)" fill="#000543"/>
    <path id="Path_3490" data-name="Path 3490" d="M64.95,237.545l.629.033a.464.464,0,0,0,.454-.3l.025.055a.485.485,0,0,1-.459.692l-.629-.032a.634.634,0,0,1-.586-.745l.02-.112a.621.621,0,0,0,.545.412" transform="translate(-18.846 -69.421)" fill="#fa694f"/>
    <path id="Path_3491" data-name="Path 3491" d="M66.828,240.871a.912.912,0,0,1-1.209-.408l2.03-.68c.041.34-.058.788-.821,1.088" transform="translate(-19.21 -70.197)" fill="#fff"/>
    <path id="Path_3492" data-name="Path 3492" d="M54.789,302.715H82.326a.981.981,0,0,0,0-1.962H54.789a.981.981,0,0,0,0,1.962" transform="translate(-15.752 -88.046)" fill="#91b4de"/>
    <path id="Path_3493" data-name="Path 3493" d="M58.561,263.237H55.567a3.573,3.573,0,0,1,3.306,2.441L65.3,289.267a1.875,1.875,0,0,1-1.976,2.441h2.994a1.875,1.875,0,0,0,1.976-2.441l-6.425-23.589a3.573,3.573,0,0,0-3.306-2.441" transform="translate(-16.267 -77.063)" fill="#91b4de"/>
    <path id="Path_3494" data-name="Path 3494" d="M53.483,289.267l-6.424-23.589a3.573,3.573,0,0,0-3.306-2.441H12.246a1.875,1.875,0,0,0-1.976,2.441l6.425,23.589A3.572,3.572,0,0,0,20,291.709H51.507a1.875,1.875,0,0,0,1.976-2.441" transform="translate(-2.982 -77.063)" fill="#d7e1fc"/>
    <path id="Path_3495" data-name="Path 3495" d="M281.986,275.419c3.831.288,6.625.374,9.4-1.16a2.7,2.7,0,0,0,1.789-2.3c.736-3.446-2.69-5.629-5.8-6.058-2.739-.378-5.6.07-8.238-.754-1.157-.361-2.363-1.082-2.192-2.612a3.294,3.294,0,0,1,1.668-2.4l9.729-5.749a7.463,7.463,0,0,0,2.636-2.476c2.973-4.893-3.216-8.826-7.857-7.917-4.578.9-8.25,4.4-12.81,5.524a3.809,3.809,0,0,1-2.871-.337c-2.048-1.233-1.523-3.632-.88-5.553a145.432,145.432,0,0,1,6.571-16.294,13.221,13.221,0,0,0,1.642-5.042c.066-1.78-.835-3.734-2.526-4.284a5.263,5.263,0,0,0-2.909.1c-6.567,1.678-11.817,7.059-14.732,13.092a6.205,6.205,0,0,1-4.248,3.487c-4.6.926-6.316-4.574-5.9-8.652,1.723-16.709,17.487-29.942,15.323-47.4a12.658,12.658,0,0,0-5.524-9.252c-6.729-4.266-14.1.7-18.654,6.258a51.031,51.031,0,0,0-9.805,19.222c-.518,1.963-.961,4.047-2.473,5.477a3.762,3.762,0,0,1-3.085,1.067c-1.66-.248-2.267-1.612-2.782-2.89-1.83-4.536-4.114-9.03-4.727-13.884-.589-4.661-4.64-5.47-7.589-4.3s-6.029,2.074-8.056,7.4c-3.407,8.966-4.651,14.291-5.875,30.551-.2,2.711-4.843,2.854-6.1-.182-3.439-8.312-4.354-16.528-8.478-24.52s-10.085-15.442-18.275-19.131c-1.756-.791-3.771-1.4-5.58-.74-2.542.927-3.627,3.928-3.958,6.618-1.508,12.246,5.834,23.56,10.3,35.058.924,2.38,1.743,4.915,1.4,7.446s-2.184,5.028-4.716,5.314a7.228,7.228,0,0,1-3.884-.9c-5.889-2.854-10.306-8.681-17-9.481a5.925,5.925,0,0,0-3.613.639c-3.005,1.7-2.613,5.08-1.6,7.751,4.193,11.087,16.236,16.852,24.1,25.62a3.938,3.938,0,0,1,.69,4.476c-.774,1.4-2.1,1.409-3.321,1.3-8.738-.76-16.356-6.122-24.782-8.563-1.892-.548-4.163,11.229-1.634,13.3l.175.144a51.55,51.55,0,0,0,31.949,11.345Z" transform="translate(-36.196 -49.117)" fill="#d7e1fc"/>
    <path id="Path_3496" data-name="Path 3496" d="M220.549,277.213a.353.353,0,0,1-.117-.021.346.346,0,0,1-.226-.28c-.376-2.794-2.163-5.532-5.465-8.369-.71-.61-1.458-1.209-2.18-1.789a30.8,30.8,0,0,1-5.586-5.307c-2.753-3.673-3.689-8.279-4.593-12.734-.822-4.045-1.671-8.229-3.884-11.666a33.367,33.367,0,0,0-6.712-6.941c-2.719-2.318-5.531-4.715-7.307-7.885a30.617,30.617,0,0,1-2.759-8.422c-.3-1.332-.6-2.71-.989-4.028a31.656,31.656,0,0,0-4.643-9.568c-.926-1.3-1.971-2.55-2.981-3.762a38.881,38.881,0,0,1-4.72-6.536c-2.424-4.579-2.935-9.991-3.386-14.765a.345.345,0,0,1,.311-.378.339.339,0,0,1,.377.312c.446,4.71.951,10.049,3.31,14.506a38.308,38.308,0,0,0,4.64,6.415c1.018,1.222,2.072,2.485,3.013,3.8a32.356,32.356,0,0,1,4.744,9.777c.39,1.34.7,2.728,1,4.071a30.082,30.082,0,0,0,2.688,8.234c1.715,3.062,4.479,5.418,7.152,7.7a33.905,33.905,0,0,1,6.845,7.093c2.282,3.548,3.144,7.8,3.979,11.9.89,4.379,1.809,8.909,4.469,12.456a30.246,30.246,0,0,0,5.464,5.182c.728.583,1.48,1.187,2.2,1.8,3.158,2.713,4.988,5.365,5.575,8.083,1.342-1.859.476-4.61-.209-6.17-.344-.782-.764-1.559-1.169-2.311a12.182,12.182,0,0,1-1.639-10.414,16.07,16.07,0,0,0,.361-5.183c-.4-2.644-2.055-4.763-3.8-7.007-.747-.96-1.52-1.952-2.178-2.981a19.089,19.089,0,0,1-2.665-13.566.346.346,0,1,1,.68.125,18.391,18.391,0,0,0,2.567,13.068c.64,1,1.4,1.98,2.14,2.927,1.726,2.216,3.51,4.507,3.941,7.329a16.592,16.592,0,0,1-.364,5.409A11.535,11.535,0,0,0,220,267.289c.412.764.839,1.554,1.194,2.362,1.425,3.245,1.282,5.9-.406,7.469a.348.348,0,0,1-.236.093" transform="translate(-48.304 -51.161)" fill="#89e5b9"/>
    <path id="Path_3497" data-name="Path 3497" d="M244.007,281.018l-.036,0a.347.347,0,0,1-.308-.381,26.543,26.543,0,0,1,1.091-4.688c.855-2.876,1.662-5.593.557-8.136-.152-.35-.337-.683-.533-1.036a8.1,8.1,0,0,1-.8-1.767c-.593-2.15.524-4.124,1.605-6.034A17.816,17.816,0,0,0,247,256.065c1.006-2.955.107-5.973-.845-9.17a27.471,27.471,0,0,1-1.331-6.142,25.586,25.586,0,0,1,1.425-8.449c.39-1.358.792-2.762,1.067-4.151a24.894,24.894,0,0,0-.515-11.728,50.226,50.226,0,0,0-2.144-5.633,54.263,54.263,0,0,1-2.057-5.324,27.566,27.566,0,0,1,1.446-19.744.346.346,0,1,1,.624.3,26.856,26.856,0,0,0-1.408,19.241,53.841,53.841,0,0,0,2.031,5.256,50.689,50.689,0,0,1,2.173,5.712A25.573,25.573,0,0,1,248,228.288c-.28,1.418-.687,2.836-1.08,4.208a25.045,25.045,0,0,0-1.4,8.217,26.9,26.9,0,0,0,1.3,5.984c.941,3.16,1.914,6.427.837,9.592a18.3,18.3,0,0,1-1.477,3.026c-1.058,1.869-2.057,3.634-1.54,5.507a7.494,7.494,0,0,0,.74,1.615c.2.352.4.715.562,1.1,1.207,2.775.325,5.741-.528,8.61a25.972,25.972,0,0,0-1.066,4.564.346.346,0,0,1-.344.31" transform="translate(-70.676 -54.313)" fill="#89e5b9"/>
    <path id="Path_3498" data-name="Path 3498" d="M248.045,276.595a.365.365,0,0,1-.078-.008.347.347,0,0,1-.26-.416c.855-3.72,3.109-6.888,5.289-9.952,1.958-2.753,3.985-5.6,4.96-8.817a31.381,31.381,0,0,0,.829-3.924,25.5,25.5,0,0,1,5.357-12.649c.449-.695.9-1.388,1.332-2.086,1.912-3.076,4.056-7.152,3.656-11.4a22.7,22.7,0,0,0-.482-2.7,14.743,14.743,0,0,1-.514-4.3c.186-2.417,1.529-4.834,3.994-7.186.84-.8,1.747-1.551,2.625-2.276a35.707,35.707,0,0,0,3.452-3.118,17.517,17.517,0,0,0,4.114-7.556,35.527,35.527,0,0,0,.808-7.372c.052-1.317.107-2.679.238-4.014a34.331,34.331,0,0,1,7.19-17.757.346.346,0,1,1,.541.432,33.634,33.634,0,0,0-7.042,17.393c-.13,1.314-.184,2.666-.235,3.973a36.135,36.135,0,0,1-.83,7.517,18.217,18.217,0,0,1-4.278,7.855,36.024,36.024,0,0,1-3.519,3.181c-.868.717-1.765,1.459-2.588,2.244-2.337,2.229-3.608,4.5-3.781,6.736a14.04,14.04,0,0,0,.5,4.1,22.989,22.989,0,0,1,.5,2.784c.421,4.456-1.786,8.664-3.757,11.832-.436.7-.888,1.4-1.339,2.1a24.836,24.836,0,0,0-5.255,12.387,31.839,31.839,0,0,1-.849,4.011c-1.009,3.325-3.067,6.219-5.058,9.017-2.141,3.009-4.354,6.12-5.178,9.7a.346.346,0,0,1-.337.269" transform="translate(-72.514 -50.04)" fill="#6d72a0"/>
    <path id="Path_3499" data-name="Path 3499" d="M248.953,287.783a.274.274,0,0,1-.048,0,.346.346,0,0,1-.295-.391,66.519,66.519,0,0,1,2.975-13.948c.264-.716.557-1.434.84-2.127a20.912,20.912,0,0,0,2.026-10.762,31.71,31.71,0,0,1,.27-5.432,32.675,32.675,0,0,1,1.9-6.179c1.137-2.987,2.212-5.807,1.971-8.834a20.871,20.871,0,0,0-1.262-5c-.236-.692-.481-1.407-.691-2.12a25.713,25.713,0,0,1,1.536-18.306.346.346,0,1,1,.622.3,25.013,25.013,0,0,0-1.494,17.806c.206.7.448,1.407.682,2.091a21.422,21.422,0,0,1,1.3,5.175c.252,3.182-.9,6.209-2.015,9.136a32.141,32.141,0,0,0-1.861,6.045,31.245,31.245,0,0,0-.261,5.313,21.564,21.564,0,0,1-2.077,11.03c-.281.688-.571,1.4-.831,2.1a66.074,66.074,0,0,0-2.939,13.8.346.346,0,0,1-.342.3" transform="translate(-72.78 -62.79)" fill="#89e5b9"/>
    <path id="Path_3500" data-name="Path 3500" d="M249.067,303.987a.347.347,0,0,1-.133-.667c1.731-.72,2.706-2.378,3.738-4.135a17.7,17.7,0,0,1,2.062-3.014,16.356,16.356,0,0,1,3.352-2.587,14.261,14.261,0,0,0,3.416-2.706,14.7,14.7,0,0,0,2.4-5.416,11.11,11.11,0,0,1,6.027-8.4c.233-.146.465-.292.7-.441A35.937,35.937,0,0,0,283.479,262a.346.346,0,1,1,.625.3A36.641,36.641,0,0,1,271,277.206c-.232.149-.467.3-.7.444a14.189,14.189,0,0,0-3.238,2.492,14.046,14.046,0,0,0-2.493,5.515,15.216,15.216,0,0,1-2.537,5.665,15.024,15.024,0,0,1-3.574,2.845,15.853,15.853,0,0,0-3.214,2.472,17.1,17.1,0,0,0-1.977,2.9c-1.045,1.777-2.124,3.613-4.068,4.423a.354.354,0,0,1-.133.026" transform="translate(-72.813 -76.642)" fill="#89e5b9"/>
    <path id="Path_3501" data-name="Path 3501" d="M253.817,297.13a.342.342,0,0,1-.185-.054.347.347,0,0,1-.106-.479c1.736-2.733,5.066-5,6.417-5.845.357-.224.692-.43,1.011-.626a18.614,18.614,0,0,0,4.618-3.58,14.159,14.159,0,0,1,5.084-3.074,19.708,19.708,0,0,0,3.742-1.922c2.233-1.594,3.584-3.978,5.015-6.5A23.358,23.358,0,0,1,283.752,269a22.831,22.831,0,0,1,4.937-3.113c.844-.436,1.717-.887,2.536-1.379a22.149,22.149,0,0,0,7.879-8.1,45.137,45.137,0,0,0,2.147-4.6,44.883,44.883,0,0,1,2.217-4.728c1.668-2.94,4.97-6.114,8.584-6.577a.347.347,0,0,1,.088.688c-3.378.433-6.488,3.441-8.071,6.232a44.593,44.593,0,0,0-2.181,4.656,45.511,45.511,0,0,1-2.182,4.666,22.84,22.84,0,0,1-8.126,8.358c-.838.5-1.721.96-2.575,1.4a22.326,22.326,0,0,0-4.791,3.012,22.824,22.824,0,0,0-4.2,5.876c-1.405,2.478-2.859,5.04-5.215,6.723a20.246,20.246,0,0,1-3.873,1.994,13.448,13.448,0,0,0-4.848,2.908,19.37,19.37,0,0,1-4.764,3.7c-.317.2-.651.4-1.006.623-1.311.822-4.541,3.015-6.2,5.629a.347.347,0,0,1-.292.161" transform="translate(-74.204 -70.407)" fill="#6d72a0"/>
    <path id="Path_3502" data-name="Path 3502" d="M260.547,308.5a.333.333,0,0,1-.158-.039.346.346,0,0,1-.149-.467c1-1.937,3.078-2.675,5.091-3.389a16.921,16.921,0,0,0,3.036-1.3,16.565,16.565,0,0,0,3.262-2.882c1.638-1.721,3.333-3.5,5.741-3.7a9.609,9.609,0,0,1,2.069.117c.42.054.854.11,1.275.127A6.947,6.947,0,0,0,286,294.771c.253-.274.494-.58.728-.876a8.081,8.081,0,0,1,1.537-1.617c1.434-1.042,3.219-1.034,4.952-1.03.684,0,1.393,0,2.057-.06a9.247,9.247,0,0,0,6.787-4.2c.272-.434.547-.992.838-1.583.914-1.859,1.952-3.966,3.724-3.975a.347.347,0,0,1,0,.694c-1.344.006-2.281,1.909-3.107,3.588-.3.607-.581,1.18-.873,1.645a9.954,9.954,0,0,1-7.305,4.524c-.7.068-1.426.065-2.127.064-1.7,0-3.293-.011-4.544.9a7.439,7.439,0,0,0-1.4,1.485c-.242.306-.492.623-.764.917a7.6,7.6,0,0,1-5.817,2.414c-.453-.017-.9-.076-1.337-.132a9.048,9.048,0,0,0-1.922-.113c-2.148.182-3.679,1.79-5.3,3.492a17.086,17.086,0,0,1-3.406,3,17.526,17.526,0,0,1-3.161,1.358c-1.973.7-3.836,1.359-4.707,3.052a.346.346,0,0,1-.308.188" transform="translate(-76.174 -82.389)" fill="#89e5b9"/>
    <path id="Path_3503" data-name="Path 3503" d="M260.2,307.31a.347.347,0,0,1-.11-.675,42.708,42.708,0,0,1,11.645-2.19c.644-.028,1.286-.044,1.924-.059,3.284-.079,6.386-.154,9.072-1.958.8-.536,1.588-1.144,2.352-1.732,2.019-1.553,4.107-3.159,6.642-3.7a17.184,17.184,0,0,1,3.014-.287c.623-.022,1.267-.045,1.89-.113,4.707-.514,8.6-3.63,11.036-6.154.265-.274.527-.554.789-.836a15.2,15.2,0,0,1,4.226-3.543,15.466,15.466,0,0,1,5-1.176c2.034-.246,3.956-.479,5.526-1.583a11.829,11.829,0,0,0,1.68-1.54,14.421,14.421,0,0,1,1.528-1.441c1.221-.946,3.142-1.509,4.475-.506a.346.346,0,0,1-.415.554c-1.044-.784-2.617-.291-3.637.5a13.926,13.926,0,0,0-1.452,1.373,12.523,12.523,0,0,1-1.781,1.627c-1.713,1.2-3.811,1.458-5.841,1.7a14.991,14.991,0,0,0-4.78,1.111,14.7,14.7,0,0,0-4.024,3.394c-.265.284-.53.567-.8.844-3.608,3.736-7.57,5.936-11.458,6.361-.647.071-1.3.094-1.94.117a16.62,16.62,0,0,0-2.893.272c-2.383.513-4.408,2.071-6.366,3.577-.772.595-1.572,1.209-2.388,1.758-2.853,1.917-6.053,1.994-9.441,2.076-.633.015-1.27.03-1.91.058a42.043,42.043,0,0,0-11.455,2.154.331.331,0,0,1-.11.018" transform="translate(-76.074 -81.761)" fill="#6d72a0"/>
    <path id="Path_3504" data-name="Path 3504" d="M262.933,314.686a.346.346,0,0,1-.052-.689,78.874,78.874,0,0,1,12.538-.557c6.541.057,13.307.116,19.309-2.519.767-.336,1.546-.726,2.3-1.1,2.485-1.242,5.057-2.528,7.855-2.311a15.3,15.3,0,0,1,2.376.437,11.169,11.169,0,0,0,2.852.435c2.754-.057,5.087-2.122,7.239-4.234a.346.346,0,1,1,.484.5c-2.252,2.209-4.7,4.371-7.709,4.433a12.233,12.233,0,0,1-3.026-.455,14.726,14.726,0,0,0-2.267-.419c-2.615-.2-5.094,1.04-7.495,2.24-.761.38-1.548.774-2.33,1.117-6.137,2.7-12.979,2.637-19.592,2.579a78.354,78.354,0,0,0-12.428.547.332.332,0,0,1-.052,0" transform="translate(-76.873 -89.01)" fill="#6d72a0"/>
    <path id="Path_3505" data-name="Path 3505" d="M222.771,299a.346.346,0,0,1-.327-.235c-.687-2.022-2.423-3.7-5.465-5.28-.5-.258-1-.507-1.511-.756a14.637,14.637,0,0,1-7.643-6.32,12.227,12.227,0,0,0-6.473-5.487A13.5,13.5,0,0,1,193.466,273a31.974,31.974,0,0,0-1.9-3.293c-2.023-2.939-5.03-5.089-7.937-7.167-.677-.483-1.353-.967-2.016-1.458-3.005-2.229-7.116-5.746-8.116-10.541a.346.346,0,1,1,.677-.142c.953,4.564,4.937,7.964,7.85,10.126.661.489,1.333.97,2.006,1.451,2.956,2.113,6.013,4.3,8.105,7.338a32.477,32.477,0,0,1,1.939,3.363,17.111,17.111,0,0,0,3.719,5.354,17.46,17.46,0,0,0,3.853,2.27,12.868,12.868,0,0,1,6.746,5.722,13.993,13.993,0,0,0,7.375,6.087c.512.251,1.023.5,1.526.763,2.02,1.05,4.819,2.779,5.8,5.672a.346.346,0,0,1-.327.458" transform="translate(-50.791 -73.224)" fill="#89e5b9"/>
    <path id="Path_3506" data-name="Path 3506" d="M209.368,295.8a6.74,6.74,0,0,1-3.615-1.618,12.109,12.109,0,0,0-2.127-1.284,10.69,10.69,0,0,0-3.62-.567c-1.757-.075-3.574-.153-4.924-1.359a7.651,7.651,0,0,1-1.151-1.408,10.347,10.347,0,0,0-.716-.955c-1.539-1.745-3.932-2.122-6.466-2.521-2.5-.395-5.088-.8-6.813-2.649A10.96,10.96,0,0,1,177.9,279.6a12.256,12.256,0,0,0-1.572-3.249c-1.549-2.024-4.055-2.72-6.709-3.457-2.336-.649-4.752-1.32-6.519-2.978-1.687-1.584-2.482-3.789-3.25-5.92a18.935,18.935,0,0,0-2.15-4.63c-2.18-3.053-5.763-4.291-9.556-5.6-1.538-.531-3.127-1.08-4.6-1.758a22.92,22.92,0,0,1-11.3-11.59.346.346,0,1,1,.635-.274,22.227,22.227,0,0,0,10.951,11.235c1.437.664,3.011,1.207,4.532,1.733,3.729,1.287,7.585,2.618,9.894,5.852a19.5,19.5,0,0,1,2.238,4.8c.774,2.149,1.505,4.178,3.072,5.649,1.642,1.542,3.975,2.19,6.23,2.816,2.647.735,5.384,1.5,7.073,3.7a12.788,12.788,0,0,1,1.673,3.431,10.3,10.3,0,0,0,1.89,3.612c1.562,1.673,3.92,2.044,6.415,2.437,2.544.4,5.174.815,6.877,2.747a10.876,10.876,0,0,1,.767,1.019,7.009,7.009,0,0,0,1.042,1.285c1.166,1.041,2.782,1.111,4.493,1.186a11.142,11.142,0,0,1,3.857.62,12.532,12.532,0,0,1,2.256,1.355c1.328.927,2.582,1.8,3.934,1.383a.347.347,0,0,1,.206.662,3.086,3.086,0,0,1-.921.141" transform="translate(-38.709 -70.24)" fill="#89e5b9"/>
    <path id="Path_3507" data-name="Path 3507" d="M218.473,311.114a.3.3,0,0,1-.043,0l-17.858-2.243A11.3,11.3,0,0,1,192.8,306a14.018,14.018,0,0,0-1.344-1.024,14.6,14.6,0,0,0-6.013-1.676c-2.473-.327-5.029-.666-6.945-2.326a12.8,12.8,0,0,1-1.741-1.986c-.249-.327-.506-.665-.771-.98a12.526,12.526,0,0,0-9.29-4.406.347.347,0,0,1,0-.694,13.229,13.229,0,0,1,9.814,4.654c.276.328.539.673.792,1.006a12.117,12.117,0,0,0,1.643,1.881c1.759,1.524,4.1,1.835,6.583,2.163a15.1,15.1,0,0,1,6.3,1.779,14.73,14.73,0,0,1,1.412,1.074,10.663,10.663,0,0,0,7.418,2.714l17.857,2.243a.347.347,0,0,1-.042.691" transform="translate(-48.7 -85.75)" fill="#89e5b9"/>
    <path id="Path_3508" data-name="Path 3508" d="M205.15,311.448a.308.308,0,0,1-.057,0,68.728,68.728,0,0,0-11.293-.917c-.759,0-1.521.016-2.285.03-3.527.066-7.175.132-10.564-1.027-.5-.17-.99-.368-1.467-.559a20.2,20.2,0,0,0-2.12-.758,21.977,21.977,0,0,0-6.613-.386c-3.311.135-6.732.274-9.37-1.8a14.03,14.03,0,0,1-1.627-1.591,14.217,14.217,0,0,0-1.458-1.446c-2.35-1.912-5.7-2.036-8.007-1.964-.638.021-1.278.056-1.919.091a23.026,23.026,0,0,1-6.812-.3c-3.265-.808-5.953-2.955-8.552-5.031-.5-.4-1-.8-1.5-1.188-4.072-3.15-2.244-2.612.423-.549.5.39,1.007.792,1.511,1.195,2.541,2.03,5.169,4.129,8.287,4.9a22.459,22.459,0,0,0,6.609.282c.646-.036,1.291-.071,1.934-.091,2.421-.079,5.935.061,8.465,2.118a14.767,14.767,0,0,1,1.532,1.515,13.25,13.25,0,0,0,1.545,1.515c2.436,1.915,5.584,1.786,8.915,1.651a22.488,22.488,0,0,1,6.824.41,20.64,20.64,0,0,1,2.193.784c.469.187.953.381,1.434.546,3.274,1.12,6.86,1.053,10.327.989.767-.014,1.533-.028,2.3-.03a69.977,69.977,0,0,1,11.407.926.347.347,0,0,1-.056.689" transform="translate(-37.8 -85.592)" fill="#89e5b9"/>
    <path id="Path_3509" data-name="Path 3509" d="M343.974,194.751h-.117a.384.384,0,0,1-.383-.383v-2.209a.384.384,0,0,1,.383-.383h.117a.384.384,0,0,1,.383.383v2.209a.384.384,0,0,1-.383.383" transform="translate(-100.552 -56.142)" fill="#91b4de"/>
    <path id="Path_3510" data-name="Path 3510" d="M337.881,195.35a.384.384,0,0,1-.332-.19l-.6-1.047.059-.3.246-.169a.386.386,0,0,1,.521.137l.542.94a.385.385,0,0,1-.139.523l-.1.06a.383.383,0,0,1-.191.051" transform="translate(-98.641 -56.674)" fill="#91b4de"/>
    <path id="Path_3511" data-name="Path 3511" d="M334.452,200.342a.374.374,0,0,1-.192-.053l-1.8-1.039a.387.387,0,0,1-.141-.523l.06-.1a.385.385,0,0,1,.522-.141l1.8,1.042a.387.387,0,0,1,.141.523l-.123.213-.17.069a.392.392,0,0,1-.1.013" transform="translate(-97.273 -58.091)" fill="#91b4de"/>
    <path id="Path_3512" data-name="Path 3512" d="M353.3,199.821a.385.385,0,0,1-.332-.19l-.059-.1a.388.388,0,0,1,.138-.524l1.486-.859a.383.383,0,0,1,.523.141l.121.211-.025.181a.382.382,0,0,1-.179.234l-1.482.857a.392.392,0,0,1-.191.05" transform="translate(-103.3 -57.993)" fill="#91b4de"/>
    <path id="Path_3513" data-name="Path 3513" d="M349.781,195.156a.373.373,0,0,1-.192-.052l-.1-.058a.384.384,0,0,1-.141-.522l.6-1.047.17-.069a.379.379,0,0,1,.291.04l.209.121.069.169a.386.386,0,0,1-.038.292l-.6,1.045-.17.069a.362.362,0,0,1-.1.013" transform="translate(-102.257 -56.617)" fill="#91b4de"/>
    <path id="Path_3514" data-name="Path 3514" d="M354.729,211.622a.379.379,0,0,1-.189-.05l-1.911-1.105-.1-.291.129-.272a.385.385,0,0,1,.522-.141l1.8,1.042a.383.383,0,0,1,.141.522l-.06.1a.383.383,0,0,1-.332.192" transform="translate(-103.203 -61.394)" fill="#91b4de"/>
    <path id="Path_3515" data-name="Path 3515" d="M356.736,205.472h-1.079a.383.383,0,0,1-.383-.383v-.118a.384.384,0,0,1,.383-.383h1.079a.384.384,0,0,1,.383.383v.118a.383.383,0,0,1-.383.383" transform="translate(-104.007 -59.893)" fill="#91b4de"/>
    <path id="Path_3516" data-name="Path 3516" d="M332.066,205.861h-1.079a.384.384,0,0,1-.383-.383v-.118a.383.383,0,0,1,.383-.383h1.079a.383.383,0,0,1,.383.383v.118a.384.384,0,0,1-.383.383" transform="translate(-96.785 -60.007)" fill="#91b4de"/>
    <path id="Path_3517" data-name="Path 3517" d="M332.857,212.034a.383.383,0,0,1-.333-.192l-.058-.1a.385.385,0,0,1,.141-.525l1.483-.857a.383.383,0,0,1,.523.141l.122.211-.025.181a.38.38,0,0,1-.179.234l-1.482.856a.385.385,0,0,1-.191.051" transform="translate(-97.315 -61.568)" fill="#91b4de"/>
    <path id="Path_3518" data-name="Path 3518" d="M344.264,217.807h-.117a.383.383,0,0,1-.383-.383v-2.209a.383.383,0,0,1,.383-.383h.117a.384.384,0,0,1,.383.383v2.209a.384.384,0,0,1-.383.383" transform="translate(-100.638 -62.892)" fill="#91b4de"/>
    <path id="Path_3519" data-name="Path 3519" d="M350.459,216.5a.384.384,0,0,1-.332-.192l-.54-.936a.385.385,0,0,1,.138-.523l.1-.06a.384.384,0,0,1,.523.139l.541.938a.388.388,0,0,1-.141.525l-.1.058a.383.383,0,0,1-.191.051" transform="translate(-102.327 -62.864)" fill="#91b4de"/>
    <path id="Path_3520" data-name="Path 3520" d="M354.689,211.592a.384.384,0,0,1-.19-.05l-1.909-1.105-.07-.167a.388.388,0,0,1,.037-.293l.123-.213.17-.069a.378.378,0,0,1,.292.04l1.8,1.04a.386.386,0,0,1,.141.523l-.06.1a.381.381,0,0,1-.332.192" transform="translate(-103.197 -61.385)" fill="#91b4de"/>
    <path id="Path_3521" data-name="Path 3521" d="M332.8,212a.384.384,0,0,1-.332-.19l-.122-.213.024-.181a.38.38,0,0,1,.18-.233l1.482-.858a.383.383,0,0,1,.523.14l.059.1a.388.388,0,0,1-.138.524l-1.486.859a.381.381,0,0,1-.191.051" transform="translate(-97.296 -61.559)" fill="#91b4de"/>
    <path id="Path_3522" data-name="Path 3522" d="M337.663,216.709l-.27-.129a.385.385,0,0,1-.141-.523l.6-1.047.17-.069a.375.375,0,0,1,.291.039l.21.121.1.294-.073.17-.6,1.045Z" transform="translate(-98.716 -62.921)" fill="#91b4de"/>
    <path id="Path_3523" data-name="Path 3523" d="M334.393,200.312a.377.377,0,0,1-.188-.05l-1.912-1.105-.1-.291.129-.271a.385.385,0,0,1,.522-.142l1.91,1.1.1.291-.129.272a.387.387,0,0,1-.334.192" transform="translate(-97.25 -58.083)" fill="#91b4de"/>
    <path id="Path_3524" data-name="Path 3524" d="M332.066,205.861h-1.079a.384.384,0,0,1-.383-.383v-.118a.383.383,0,0,1,.383-.383h1.079a.383.383,0,0,1,.383.383v.118a.384.384,0,0,1-.383.383" transform="translate(-96.785 -60.007)" fill="#91b4de"/>
    <path id="Path_3525" data-name="Path 3525" d="M356.736,205.472h-1.079a.383.383,0,0,1-.383-.383v-.118a.384.384,0,0,1,.383-.383h1.079a.384.384,0,0,1,.383.383v.118a.383.383,0,0,1-.383.383" transform="translate(-104.007 -59.893)" fill="#91b4de"/>
    <path id="Path_3526" data-name="Path 3526" d="M353.328,199.8l-.181-.025a.376.376,0,0,1-.233-.179l-.122-.211.025-.182a.381.381,0,0,1,.18-.233l1.591-.92.181.025a.382.382,0,0,1,.234.18l.122.211-.026.184a.38.38,0,0,1-.181.232Z" transform="translate(-103.281 -57.979)" fill="#91b4de"/>
    <path id="Path_3527" data-name="Path 3527" d="M285.057,126.139H285a.183.183,0,0,1-.183-.183V124.9a.183.183,0,0,1,.183-.183h.056a.183.183,0,0,1,.183.183v1.055a.183.183,0,0,1-.183.183" transform="translate(-83.381 -36.511)" fill="#91b4de"/>
    <path id="Path_3528" data-name="Path 3528" d="M282.147,126.424a.184.184,0,0,1-.158-.091l-.289-.5.028-.146.117-.081a.184.184,0,0,1,.249.065l.259.449a.184.184,0,0,1-.066.25l-.049.029a.185.185,0,0,1-.091.024" transform="translate(-82.468 -36.765)" fill="#91b4de"/>
    <path id="Path_3529" data-name="Path 3529" d="M280.509,128.808a.179.179,0,0,1-.092-.025l-.859-.5a.185.185,0,0,1-.067-.25l.029-.05a.184.184,0,0,1,.249-.067l.861.5a.185.185,0,0,1,.067.25l-.059.1-.081.033a.182.182,0,0,1-.047.006" transform="translate(-81.814 -37.442)" fill="#91b4de"/>
    <path id="Path_3530" data-name="Path 3530" d="M289.513,128.56a.183.183,0,0,1-.158-.091l-.028-.048a.185.185,0,0,1,.066-.25l.71-.41a.183.183,0,0,1,.25.067l.058.1-.012.086a.181.181,0,0,1-.086.112l-.708.41a.187.187,0,0,1-.091.024" transform="translate(-84.694 -37.395)" fill="#91b4de"/>
    <path id="Path_3531" data-name="Path 3531" d="M287.831,126.332a.179.179,0,0,1-.092-.025l-.048-.028a.184.184,0,0,1-.067-.25l.289-.5.081-.033a.178.178,0,0,1,.139.019l.1.057.033.081a.184.184,0,0,1-.018.139l-.288.5-.081.033a.181.181,0,0,1-.047.006" transform="translate(-84.195 -36.737)" fill="#91b4de"/>
    <path id="Path_3532" data-name="Path 3532" d="M290.2,134.2a.179.179,0,0,1-.09-.023l-.913-.528-.049-.139.062-.13a.184.184,0,0,1,.249-.068l.861.5a.183.183,0,0,1,.067.25l-.028.05a.184.184,0,0,1-.159.091" transform="translate(-84.647 -39.019)" fill="#91b4de"/>
    <path id="Path_3533" data-name="Path 3533" d="M291.154,131.259h-.516a.183.183,0,0,1-.183-.183v-.057a.183.183,0,0,1,.183-.182h.516a.183.183,0,0,1,.182.182v.057a.183.183,0,0,1-.182.183" transform="translate(-85.031 -38.303)" fill="#91b4de"/>
    <path id="Path_3534" data-name="Path 3534" d="M279.37,131.445h-.516a.183.183,0,0,1-.182-.183v-.057a.183.183,0,0,1,.182-.182h.516a.183.183,0,0,1,.183.182v.057a.183.183,0,0,1-.183.183" transform="translate(-81.582 -38.357)" fill="#91b4de"/>
    <path id="Path_3535" data-name="Path 3535" d="M279.747,134.394a.183.183,0,0,1-.159-.092l-.028-.047a.183.183,0,0,1,.067-.251l.709-.409a.183.183,0,0,1,.25.067l.058.1-.012.086a.181.181,0,0,1-.086.112l-.708.41a.187.187,0,0,1-.091.024" transform="translate(-81.835 -39.103)" fill="#91b4de"/>
    <path id="Path_3536" data-name="Path 3536" d="M285.2,137.152h-.056a.183.183,0,0,1-.183-.183v-1.055a.183.183,0,0,1,.183-.183h.056a.183.183,0,0,1,.183.183v1.055a.183.183,0,0,1-.183.183" transform="translate(-83.422 -39.735)" fill="#91b4de"/>
    <path id="Path_3537" data-name="Path 3537" d="M288.156,136.525a.182.182,0,0,1-.158-.092l-.258-.447a.184.184,0,0,1,.066-.25l.049-.028a.183.183,0,0,1,.25.066l.258.448a.184.184,0,0,1-.067.25l-.048.028a.179.179,0,0,1-.091.025" transform="translate(-84.229 -39.722)" fill="#91b4de"/>
    <path id="Path_3538" data-name="Path 3538" d="M290.176,134.182a.183.183,0,0,1-.091-.024l-.912-.528-.033-.08a.183.183,0,0,1,.017-.14l.059-.1.081-.033a.179.179,0,0,1,.139.019l.859.5a.184.184,0,0,1,.068.25l-.029.049a.183.183,0,0,1-.158.091" transform="translate(-84.644 -39.015)" fill="#91b4de"/>
    <path id="Path_3539" data-name="Path 3539" d="M279.721,134.38a.183.183,0,0,1-.158-.091l-.058-.1.011-.086a.18.18,0,0,1,.086-.112l.709-.409a.183.183,0,0,1,.25.066l.028.049a.185.185,0,0,1-.066.25l-.709.41a.179.179,0,0,1-.091.025" transform="translate(-81.826 -39.098)" fill="#91b4de"/>
    <path id="Path_3540" data-name="Path 3540" d="M282.043,136.627l-.129-.062a.184.184,0,0,1-.067-.25l.289-.5.081-.033a.179.179,0,0,1,.139.018l.1.058.048.14-.034.081-.288.5Z" transform="translate(-82.504 -39.749)" fill="#91b4de"/>
    <path id="Path_3541" data-name="Path 3541" d="M280.481,128.794a.18.18,0,0,1-.09-.024l-.913-.528-.048-.139.062-.129a.184.184,0,0,1,.249-.068l.913.528.049.139-.062.13a.184.184,0,0,1-.159.091" transform="translate(-81.804 -37.438)" fill="#91b4de"/>
    <path id="Path_3542" data-name="Path 3542" d="M279.37,131.445h-.516a.183.183,0,0,1-.182-.183v-.057a.183.183,0,0,1,.182-.182h.516a.183.183,0,0,1,.183.182v.057a.183.183,0,0,1-.183.183" transform="translate(-81.582 -38.357)" fill="#91b4de"/>
    <path id="Path_3543" data-name="Path 3543" d="M291.154,131.259h-.516a.183.183,0,0,1-.183-.183v-.057a.183.183,0,0,1,.183-.182h.516a.183.183,0,0,1,.182.182v.057a.183.183,0,0,1-.182.183" transform="translate(-85.031 -38.303)" fill="#91b4de"/>
    <path id="Path_3544" data-name="Path 3544" d="M289.526,128.549l-.086-.011a.184.184,0,0,1-.112-.086l-.058-.1.012-.087a.18.18,0,0,1,.086-.111l.76-.44.086.012a.185.185,0,0,1,.112.086l.059.1-.013.088a.178.178,0,0,1-.086.11Z" transform="translate(-84.684 -37.388)" fill="#91b4de"/>
    <path id="Path_3545" data-name="Path 3545" d="M335.374,137.308h-.087a.286.286,0,0,1-.286-.286v-1.645a.286.286,0,0,1,.286-.286h.087a.286.286,0,0,1,.286.286v1.645a.286.286,0,0,1-.286.286" transform="translate(-98.072 -39.548)" fill="#91b4de"/>
    <path id="Path_3546" data-name="Path 3546" d="M330.836,137.754a.286.286,0,0,1-.247-.141l-.451-.78.044-.227.183-.125a.287.287,0,0,1,.389.1l.4.7a.287.287,0,0,1-.1.389l-.076.045a.289.289,0,0,1-.142.037" transform="translate(-96.649 -39.944)" fill="#91b4de"/>
    <path id="Path_3547" data-name="Path 3547" d="M328.282,141.471a.282.282,0,0,1-.144-.04l-1.34-.774a.289.289,0,0,1-.1-.39l.045-.077a.287.287,0,0,1,.389-.1l1.342.776a.289.289,0,0,1,.1.39l-.092.158-.127.052a.26.26,0,0,1-.074.01" transform="translate(-95.63 -41)" fill="#91b4de"/>
    <path id="Path_3548" data-name="Path 3548" d="M342.321,141.083a.285.285,0,0,1-.248-.142l-.045-.076a.289.289,0,0,1,.1-.39l1.107-.639a.285.285,0,0,1,.39.1l.091.157-.018.135a.288.288,0,0,1-.134.174l-1.1.639a.289.289,0,0,1-.142.037" transform="translate(-100.119 -40.926)" fill="#91b4de"/>
    <path id="Path_3549" data-name="Path 3549" d="M339.7,137.61a.282.282,0,0,1-.144-.04l-.075-.043a.286.286,0,0,1-.1-.388l.451-.78.126-.052a.284.284,0,0,1,.217.03l.156.09.051.126a.286.286,0,0,1-.028.218l-.448.778-.127.052a.268.268,0,0,1-.074.01" transform="translate(-99.342 -39.901)" fill="#91b4de"/>
    <path id="Path_3550" data-name="Path 3550" d="M343.384,149.872a.28.28,0,0,1-.14-.037l-1.424-.823-.076-.216.1-.2a.287.287,0,0,1,.389-.105l1.342.777a.286.286,0,0,1,.1.389l-.045.076a.285.285,0,0,1-.248.143" transform="translate(-100.047 -43.459)" fill="#91b4de"/>
    <path id="Path_3551" data-name="Path 3551" d="M344.879,145.292h-.8a.286.286,0,0,1-.285-.286v-.088a.286.286,0,0,1,.285-.286h.8a.286.286,0,0,1,.285.286v.088a.286.286,0,0,1-.285.286" transform="translate(-100.645 -42.342)" fill="#91b4de"/>
    <path id="Path_3552" data-name="Path 3552" d="M326.506,145.581h-.8a.286.286,0,0,1-.285-.286v-.088a.286.286,0,0,1,.285-.286h.8a.286.286,0,0,1,.285.286v.088a.286.286,0,0,1-.285.286" transform="translate(-95.266 -42.426)" fill="#91b4de"/>
    <path id="Path_3553" data-name="Path 3553" d="M327.095,150.179a.285.285,0,0,1-.248-.143l-.043-.075a.287.287,0,0,1,.1-.391l1.1-.638a.284.284,0,0,1,.39.1l.09.157-.018.135a.285.285,0,0,1-.134.174l-1.1.639a.289.289,0,0,1-.142.037" transform="translate(-95.661 -43.589)" fill="#91b4de"/>
    <path id="Path_3554" data-name="Path 3554" d="M335.591,154.479H335.5a.286.286,0,0,1-.285-.286v-1.645a.286.286,0,0,1,.285-.286h.088a.286.286,0,0,1,.286.286v1.645a.286.286,0,0,1-.286.286" transform="translate(-98.136 -44.575)" fill="#91b4de"/>
    <path id="Path_3555" data-name="Path 3555" d="M340.2,153.5a.286.286,0,0,1-.248-.143l-.4-.7a.287.287,0,0,1,.1-.39l.076-.045a.285.285,0,0,1,.389.1l.4.7a.288.288,0,0,1-.105.391l-.074.043a.293.293,0,0,1-.143.038" transform="translate(-99.394 -44.554)" fill="#91b4de"/>
    <path id="Path_3556" data-name="Path 3556" d="M343.354,149.85a.286.286,0,0,1-.141-.037l-1.422-.823-.052-.124a.289.289,0,0,1,.027-.218l.092-.158.127-.052a.282.282,0,0,1,.217.03l1.339.774a.287.287,0,0,1,.105.389l-.045.077a.285.285,0,0,1-.248.143" transform="translate(-100.042 -43.452)" fill="#91b4de"/>
    <path id="Path_3557" data-name="Path 3557" d="M327.054,150.157a.284.284,0,0,1-.247-.141l-.091-.158.018-.135a.283.283,0,0,1,.134-.174l1.1-.639a.285.285,0,0,1,.39.1l.044.076a.289.289,0,0,1-.1.39l-1.107.639a.287.287,0,0,1-.142.037" transform="translate(-95.647 -43.582)" fill="#91b4de"/>
    <path id="Path_3558" data-name="Path 3558" d="M330.674,153.662l-.2-.1a.287.287,0,0,1-.105-.389l.45-.78.127-.052a.277.277,0,0,1,.216.029l.157.09.076.219-.054.127-.448.778Z" transform="translate(-96.705 -44.596)" fill="#91b4de"/>
    <path id="Path_3559" data-name="Path 3559" d="M328.239,141.449a.277.277,0,0,1-.14-.037l-1.424-.823-.075-.216.1-.2a.287.287,0,0,1,.388-.105l1.423.823.076.216-.1.2a.289.289,0,0,1-.249.143" transform="translate(-95.613 -40.993)" fill="#91b4de"/>
    <path id="Path_3560" data-name="Path 3560" d="M326.506,145.581h-.8a.286.286,0,0,1-.285-.286v-.088a.286.286,0,0,1,.285-.286h.8a.286.286,0,0,1,.285.286v.088a.286.286,0,0,1-.285.286" transform="translate(-95.266 -42.426)" fill="#91b4de"/>
    <path id="Path_3561" data-name="Path 3561" d="M344.879,145.292h-.8a.286.286,0,0,1-.285-.286v-.088a.286.286,0,0,1,.285-.286h.8a.286.286,0,0,1,.285.286v.088a.286.286,0,0,1-.285.286" transform="translate(-100.645 -42.342)" fill="#91b4de"/>
    <path id="Path_3562" data-name="Path 3562" d="M342.341,141.067l-.135-.018a.28.28,0,0,1-.173-.133l-.091-.157.018-.136a.284.284,0,0,1,.134-.173l1.185-.685.135.018a.288.288,0,0,1,.175.134l.091.157-.02.136a.282.282,0,0,1-.134.173Z" transform="translate(-100.104 -40.916)" fill="#91b4de"/>
    <path id="Path_3563" data-name="Path 3563" d="M133.128,298.426h72.453c6.776,0,12.243-6.021,12.211-13.448l-.707-159.958c-.033-7.428-5.553-13.448-12.329-13.448H132.3c-6.777,0-12.243,6.021-12.211,13.448l.707,159.958c.033,7.427,5.553,13.448,12.329,13.448" transform="translate(-35.157 -32.663)" fill="#000543"/>
    <path id="Path_3564" data-name="Path 3564" d="M119.453,153.22c.03,0,.058.007.088.009l.055,12.532c-.03,0-.058.009-.088.009a1.518,1.518,0,0,1-1.513-1.5l-.042-9.541a1.5,1.5,0,0,1,1.5-1.5" transform="translate(-34.531 -44.855)" fill="#000543"/>
    <path id="Path_3565" data-name="Path 3565" d="M119.173,172.423a1.477,1.477,0,0,1,.347.045l.055,12.461a1.47,1.47,0,0,1-.346.045,1.518,1.518,0,0,1-1.512-1.5l-.042-9.541a1.5,1.5,0,0,1,1.5-1.5" transform="translate(-34.449 -50.477)" fill="#000543"/>
    <path id="Path_3566" data-name="Path 3566" d="M216.19,208.265l-.016-3.542L216.123,193l-.114-25.754-.112-25.242-.071-16.078c-.025-5.848-4.34-10.589-9.636-10.589H133.812c-5.3,0-9.568,4.741-9.542,10.589l.027,5.975.106,23.973.05,11.32.018,3.985.148,33.417.016,3.542.144,32.613.01,2.214.083,18.816L124.88,264l.082,18.464c0,.343.019.682.05,1.016a11.485,11.485,0,0,0,.421,2.214,9.8,9.8,0,0,0,9.165,7.36h72.378a8.779,8.779,0,0,0,3.729-.832,10.052,10.052,0,0,0,4.87-5.127,11.444,11.444,0,0,0,.943-4.63Z" transform="translate(-36.38 -33.767)" fill="#6d72a0"/>
    <path id="Path_3567" data-name="Path 3567" d="M156.075,138.368a9.283,9.283,0,0,0,2.351,5.724,5.6,5.6,0,0,1,4.965.743l.726.514c0-.01,1.354.926,3.036,2.1.127-.047.22.084.313.218.675.47,1.388.966,2.086,1.463l12.168,8.485.794.554a4.565,4.565,0,0,1,1.3,6.61c-1.614,2.021-3.625,1.856-5.925.232l-5.408-3.408-.307.434,3.418,2.388a3.856,3.856,0,0,1,1.095,5.568c-1.369,1.7-3.2,1.238-5.166-.129l-3.4-2.1-.242.342,1.922,1.342a3.207,3.207,0,0,1,.9,4.644c-1.144,1.425-2.605,1.187-4.236.048,0,0-1.883-1.177-1.885-1.171a2.509,2.509,0,0,0,1.166,2.839l1.955,1.233a10.683,10.683,0,0,0,3.547,1.428c6.439-9.569,14.3-10.162,14.3-10.162l.1-.137c.006-.982.035-2.028.1-3.157l1.344-10.3.423-3.241-1.881-1.44.012-.1-7.689-6.333c-1.155-.472-2.463-1.017-3.78-1.482-.062-.03-.123-.061-.187-.09l-4.552-2a3.976,3.976,0,0,1-.214.438,4.848,4.848,0,0,1-6.336,1.733l-.741-.36-4.456-2.063a3.825,3.825,0,0,1-1.61-1.4m21.94,5.447-.057-.036-.117-.085Z" transform="translate(-45.691 -40.507)" fill="#ef6c5e"/>
    <path id="Path_3568" data-name="Path 3568" d="M184.482,183.614a8.761,8.761,0,0,0,4.6-1.3,2.058,2.058,0,0,1,.115.668c0,1.675-2.045,3.033-4.566,3.033s-4.567-1.358-4.567-3.033a2.064,2.064,0,0,1,.07-.516A8.772,8.772,0,0,0,184.482,183.614Z" transform="translate(-52.714 -53.371)" fill="#687bc1"/>
    <rect id="Rectangle_2035" data-name="Rectangle 2035" width="17.639" height="9.075" transform="translate(122.948 107.022)" fill="#404f9b"/>
    <rect id="Rectangle_2036" data-name="Rectangle 2036" width="17.639" height="2.653" transform="translate(122.948 116.996)" fill="#404f9b"/>
    <path id="Path_3569" data-name="Path 3569" d="M173.84,171.322v-.876h17.639v.876a8.821,8.821,0,0,1-.18,1.778H174.02a8.82,8.82,0,0,1-.18-1.778" transform="translate(-50.892 -49.898)" fill="#404f9b"/>
    <path id="Path_3570" data-name="Path 3570" d="M191.235,175.468a8.822,8.822,0,0,1-16.807,0Z" transform="translate(-51.064 -51.369)" fill="#404f9b"/>
    <path id="Path_3571" data-name="Path 3571" d="M156.535,37.754a36.5,36.5,0,0,1,29.7,0c11.3,5.048,20.09,15.632,20.878,31.75q.034.684.047,1.373c.232,11.961-8.848,22.918-16.034,31.3a39.936,39.936,0,0,0-7.429,13.022q-.295.857-.662,1.671c-1.911,4.247-1.433,6.882-6.089,6.882H165.824c-4.657,0-4.178-2.634-6.09-6.882q-.366-.814-.661-1.671a39.938,39.938,0,0,0-7.43-13.022c-7.186-8.383-16.265-19.34-16.033-31.3q.014-.688.047-1.373c.789-16.118,9.58-26.7,20.879-31.75" transform="translate(-39.699 -10.129)" fill="#ffd878"/>
    <path id="Path_3572" data-name="Path 3572" d="M179.286,101.12c.05,0,.1,0,.149,0a3.922,3.922,0,0,0,.8-.05c1.883-.311,3.216-1.871,4.5-3.379,1.183-1.385,2.3-2.694,3.7-2.924a3.862,3.862,0,0,1,2.847.9,16.057,16.057,0,0,1,2.556,2.645.674.674,0,1,0,1.037-.862,17.006,17.006,0,0,0-2.787-2.864,5.185,5.185,0,0,0-3.871-1.146c-1.884.31-3.216,1.87-4.5,3.379-1.183,1.385-2.3,2.692-3.7,2.924a2.7,2.7,0,0,1-.55.033h-.06a2.6,2.6,0,0,1-.551-.033c-1.4-.231-2.514-1.539-3.7-2.924-1.289-1.509-2.621-3.069-4.505-3.379a3.951,3.951,0,0,0-1.281,0c-1.882.31-3.214,1.869-4.5,3.378l-.15.176a.674.674,0,1,0,1.024.876l.151-.176c1.183-1.385,2.3-2.694,3.7-2.924a2.577,2.577,0,0,1,.84,0c1.4.231,2.517,1.539,3.7,2.924,1.288,1.508,2.62,3.067,4.5,3.379a4.008,4.008,0,0,0,.652.053" transform="translate(-48.174 -27.337)" fill="#fcb24f"/>
    <rect id="Rectangle_2037" data-name="Rectangle 2037" width="44.349" height="0.449" transform="translate(135.455 113.571) rotate(-76.291)" fill="#fcb24f"/>
    <rect id="Rectangle_2038" data-name="Rectangle 2038" width="0.449" height="44.349" transform="translate(116.855 70.587) rotate(-13.664)" fill="#fcb24f"/>
    <rect id="Rectangle_2039" data-name="Rectangle 2039" width="0.449" height="40.518" transform="translate(131.036 73.106)" fill="#fcb24f"/>
    <path id="Path_3573" data-name="Path 3573" d="M193.2,137.022l-.145,0,.211-.008a.423.423,0,0,1-.066.006" transform="translate(-56.517 -40.112)" fill="#ffb288"/>
    <path id="Path_3574" data-name="Path 3574" d="M161.113,127.863l5.819,2.782a4.826,4.826,0,0,1,1.281.934c-1.485-3.492.247-7.534,2.283-6.49l9.621,5.066.755.4a5.644,5.644,0,0,1,2.006,1.23,3.025,3.025,0,0,1,.9.687l11.357,8.657a7.874,7.874,0,0,1,2.7,5.05l3.864,17.205c0,.008.33,3.016.33,3.016l-2.192,1.013-8.268,11.8-3.454-2.178c.086-.045.173-.086.257-.133-1.26-1.33-3.051-4.64-3-12.668.006-.983.035-2.028.1-3.157l1.344-10.3.423-3.242-1.881-1.439.012-.1-7.689-6.333-1.827-1.505-.272.016.086-.168-4.608-3.209a7.062,7.062,0,0,1-1.782-1.484,4.04,4.04,0,0,1-.332,3.214,4.847,4.847,0,0,1-6.336,1.733l-.74-.359-4.456-2.063a3.827,3.827,0,0,1-1.61-1.405,4.049,4.049,0,0,1-.313-3.788l.289-.681a3.962,3.962,0,0,1,5.328-2.1" transform="translate(-45.425 -36.571)" fill="#ff9985"/>
    <path id="Path_3575" data-name="Path 3575" d="M161.156,147.089l.726.514c0-.01,1.354.926,3.036,2.1l.313.218c.094.135.189.273.32.231l1.766,1.231a7.9,7.9,0,0,1-.732,3.738l-1.174,1.661a6.909,6.909,0,0,1-3.473,1.823s.877.553,1.29.822c-.631-.386-2.41-1.506-2.41-1.506l3.772,2.636a5.1,5.1,0,0,1-.709,3.335l-.425.6a7.387,7.387,0,0,1-3.035,2.155l-.846-.522.786.55c-.017.007-.03.015-.047.021l.332.178.855.6c.088.693.143,3.344-3.734,4.889l-3.238-2.024-4.555-2.847a3.23,3.23,0,0,1-.9-4.645,3.541,3.541,0,0,1,3.236-1.205,3.85,3.85,0,0,1-1.09-5.582,4.3,4.3,0,0,1,4.55-1.316l-.451-.284a4.458,4.458,0,0,1,.869-8.106,5.6,5.6,0,0,1,4.965.743" transform="translate(-43.457 -42.761)" fill="#ff9985"/>
    <path id="Path_3576" data-name="Path 3576" d="M160.291,174.555l-3.238-2.024a19.945,19.945,0,0,0,9.933,11.45l19.637,11.477,5.5-7.854s-3.281-2.266-3.2-2.313c-1.26-1.33-3.051-4.64-3-12.668l-.1.137s-7.857.592-14.3,10.161a10.69,10.69,0,0,1-3.547-1.427l-1.955-1.233a2.51,2.51,0,0,1-1.165-2.844l1.883,1.177c1.63,1.139,3.091,1.378,4.235-.049a3.205,3.205,0,0,0-.9-4.643l-1.921-1.342.241-.342,3.4,2.1c1.961,1.368,3.8,1.828,5.166.129a3.856,3.856,0,0,0-1.095-5.568l-3.418-2.388.307-.434,5.408,3.408c2.3,1.623,4.311,1.788,5.925-.233a4.564,4.564,0,0,0-1.295-6.609l-.8-.555-12.166-8.485a7.9,7.9,0,0,1-.732,3.739l-1.174,1.66a6.908,6.908,0,0,1-3.473,1.823s.877.553,1.29.823c.129.084.214.141.211.144l-2.621-1.651,3.772,2.637a5.1,5.1,0,0,1-.709,3.335l-.425.6a7.387,7.387,0,0,1-3.035,2.155l-.846-.523.786.55c-.017.006-.03.014-.047.021l.332.178.855.6c.088.693.143,3.344-3.734,4.888Z" transform="translate(-45.978 -44.961)" fill="#f97a69"/>
    <path id="Path_3577" data-name="Path 3577" d="M213.615,212.762,221.181,320.7l-46.192-.039,2.956-105.815a3.4,3.4,0,0,1,2.967-3.611l29.1-1.637a3.423,3.423,0,0,1,3.606,3.16" transform="translate(-51.228 -61.36)" fill="#fff"/>
    <path id="Path_3578" data-name="Path 3578" d="M183.5,196.663c17.731,3.682,26.456-17.36,26.456-17.36l2.349,21.439-28.945,1.628Z" transform="translate(-53.68 -52.491)" fill="#ff9985"/>
    <path id="Path_3579" data-name="Path 3579" d="M195.5,193.156a20.108,20.108,0,0,1-11.994,7.563l-.14,5.707,20.3-1.8Z" transform="translate(-53.68 -56.547)" fill="#ff9985"/>
    <path id="Path_3580" data-name="Path 3580" d="M194.981,193.316s1.119,2.765,6.911,3.163c.68.047.624,1.11-.051,1.2l-18.279,2.456,9.691-8.971Z" transform="translate(-53.738 -55.964)" fill="#f97a69"/>
    <rect id="Rectangle_2040" data-name="Rectangle 2040" width="18.075" height="38.835" transform="translate(129.833 24.206) rotate(-59.474)" fill="#000544"/>
    <path id="Path_3581" data-name="Path 3581" d="M239.407,37.956,176.561.9a.483.483,0,0,1,.491-.832L239.9,37.124a.483.483,0,1,1-.49.832" transform="translate(-51.619 0)" fill="#000544"/>
    <path id="Path_3582" data-name="Path 3582" d="M245.452,68.935l12.494-17.388L248.779,70.9a1.939,1.939,0,0,1-3.5-1.661,2.055,2.055,0,0,1,.178-.3" transform="translate(-71.75 -15.09)" fill="#000544"/>
    <path id="Path_3583" data-name="Path 3583" d="M242.816,207.075a12.2,12.2,0,0,1-2.669,2.215c-.9.41-1.927.414-2.855.75a2.168,2.168,0,0,0-1.609,2.229c.1.472.431.866.53,1.337.28,1.327-1.225,2.189-2.137,3.155a4.367,4.367,0,0,0-.942,4.214c.327,1.04,1.052,2.1.676,3.118-.3.8-1.224,1.3-1.293,2.154-.1,1.257,1.631,1.818,2.076,3a5.28,5.28,0,0,1-.221,2.613,4.423,4.423,0,0,0,1.893,4.274,8.019,8.019,0,0,1,2.168,1.41c.706.887.652,2.279,1.482,3.043,1.726,1.583,3.463-.558,5.5-1.1,2.558-.682,5.751,1.312,7.7-.52.458-.429.808-1.053,1.41-1.2s1.248.257,1.872.173c1.172-.158,1.584-1.8,2.454-2.543a7.571,7.571,0,0,1,.738-.359c6.222-3.248,10.017-9.076,8.866-14.711-.954-4.669-5.078-8.085-10.455-9.378-.022-.062-.023-.117-.046-.179a5.577,5.577,0,0,0-3.084-3.01c-2.52-1.17-4.469.658-6.706-.013-.856-.257-1.377-1.18-2.194-1.547a3.1,3.1,0,0,0-3.155.879" transform="translate(-68.069 -60.314)" fill="#895147"/>
    <path id="Path_3584" data-name="Path 3584" d="M336.5,378.423l-.8-.33c-3.124,1.775-5.142.672-6.211-.4l-.6,2.595c-.055.236.176.455.482.458l6.389.045c1.678.011,2.231-1.752.742-2.367" transform="translate(-96.28 -110.57)" fill="#ff685a"/>
    <path id="Path_3585" data-name="Path 3585" d="M334.894,373.743l-1.955-.808-.436-1.709-1.823-7.118-4.567-1.272,2.7,9.749a4.923,4.923,0,0,1-.135.757c1.069,1.073,3.087,2.176,6.212.4" transform="translate(-95.47 -106.221)" fill="#ff9985"/>
    <path id="Path_3586" data-name="Path 3586" d="M367.287,377.991l-1.1-.344c-4.306,1.865-7.083.714-8.553-.407l-.837,2.717c-.076.248.242.477.663.478l8.8.035c2.312.009,3.077-1.837,1.027-2.479" transform="translate(-104.45 -110.438)" fill="#ff685a"/>
    <path id="Path_3587" data-name="Path 3587" d="M365.285,373.639l-4.08-1.276-.132-.424-2.1-7.118-5.268-1.272,3.064,9.575-.033.108c1.47,1.121,4.247,2.272,8.553.407" transform="translate(-103.547 -106.43)" fill="#ff9985"/>
    <path id="Path_3588" data-name="Path 3588" d="M238.825,368.061a.788.788,0,0,1-.789-.789V332.8a.789.789,0,1,1,1.577,0v34.469a.788.788,0,0,1-.789.789" transform="translate(-69.686 -97.198)" fill="#6d72a0"/>
    <path id="Path_3589" data-name="Path 3589" d="M288.722,324.052c.831,3.17,1.641,6.032,2.344,8.411,1.295,4.38-3.828,7.235.922,7.235,13.546,0,23.935.027,31.95.045V324.052Z" transform="translate(-84.524 -94.867)" fill="#b2c3eb"/>
    <path id="Path_3590" data-name="Path 3590" d="M351.095,356.744a.79.79,0,0,1-.753-.553l-16.614-53.056a7.7,7.7,0,0,0-7.479-5.019H290.877a.789.789,0,0,1,0-1.578h35.372a9.283,9.283,0,0,1,8.986,6.125l16.614,53.056a.79.79,0,0,1-.518.989.778.778,0,0,1-.236.036" transform="translate(-84.924 -86.812)" fill="#6d72a0"/>
    <path id="Path_3591" data-name="Path 3591" d="M282.215,289.308a189.379,189.379,0,0,1-6.74-26.5,80.049,80.049,0,0,0-2-8.625,6.593,6.593,0,0,0-6.143-5.049h-41.05s9.734,34.608,11.157,40.174c1.865,7.292,1.443,15.437,7.292,15.573,1.127.026,10.573-1.117,11.793-1.117,3.874-.287,9.85-.112,12.58-.46,2.552-.325,5.238-.89,6.974.854h1.547l-2.784-11.767h8.8a16.546,16.546,0,0,1-1.419-3.082" transform="translate(-66.243 -72.934)" fill="#b2c3eb"/>
    <path id="Path_3592" data-name="Path 3592" d="M280.922,304.157c-1.948-1.745-4.964-2.183-7.828-1.857-3.065.349-9.771.65-14.12.937-1.368,0-9.408.585-10.672.559-6.565-.136-7.472-2.47-9.566-9.762-1.33-4.636-7.56-32.7-9.6-41.948a3.765,3.765,0,0,0-3.686-2.951,3.425,3.425,0,0,0-3.406,3.834c1.5,12.4,6.232,50.969,7.756,57.3,1.054,4.38,4.415,7.494,8.283,7.494H273.94a8.329,8.329,0,0,0,4.913-1.561c4.35-3.135,5.076-5.858,3.714-9.615a5.921,5.921,0,0,0-1.646-2.432" transform="translate(-64.995 -72.934)" fill="#90a6d3"/>
    <path id="Path_3593" data-name="Path 3593" d="M336.005,324.052v15.7c22.295.04,21.411-.1,24-1.618l.148-.088c6.455-3.949,3.375-14-4.192-14Z" transform="translate(-98.366 -94.867)" fill="#b2c3eb"/>
    <path id="Path_3594" data-name="Path 3594" d="M268.089,313.773c.122.049.258.092.385.134l-.385-.134" transform="translate(-78.484 -91.858)" fill="#ffb288"/>
    <path id="Path_3595" data-name="Path 3595" d="M311.09,265.319l-2.3-1.924-9,13.475a.719.719,0,0,1-1.166.035c-4.008-4.606-13.3-19.106-15.217-22.52l-1.1,12.558a179.487,179.487,0,0,0,14.624,16.3,3.067,3.067,0,0,0,4.915-.656Z" transform="translate(-82.645 -74.472)" fill="#ff9985"/>
    <path id="Path_3596" data-name="Path 3596" d="M267.682,313.738c.12.047.254.089.38.129l-.38-.129" transform="translate(-78.364 -91.847)" fill="#ffb288"/>
    <path id="Path_3597" data-name="Path 3597" d="M261.124,297.971c1.282-1.791,4.095-.936,8.58.6,1.064.366,2.384.807,3.155.97,1.117.238,2.259.467,3.413.7l.149.03c12.727,2.564,27.151,5.468,31.838,20.245,4.471,14.092,6.6,20.93,8.124,26.134a3.183,3.183,0,0,1-.244,2.4c-.814,1.506-2.364,1-7.357,2.366a2.17,2.17,0,0,1-2.913-1.55c-3.17-10.225-8.052-22.47-10-27.26-.83-2.035-2.514-4.285-3.88-4.524l-19.43-2.62c-4.445-1.282-9.976-9.614-11.681-14.564a3.1,3.1,0,0,1,.25-2.932" transform="translate(-76.302 -86.937)" fill="#452a51"/>
    <path id="Path_3598" data-name="Path 3598" d="M276.423,297.084c1.3-1.526,4.422-.721,9.409.722,1.242.359,2.782.79,3.688.951,1.347.24,2.722.473,4.116.709,14.561,2.468,31.064,5.264,36.391,19.386l2.8,7.413c3.683,9.72,5.4,14.28,6.769,18.336a3.019,3.019,0,0,1-2.613,3.98l-6.108.5a2.537,2.537,0,0,1-2.6-1.688,281.623,281.623,0,0,0-11.07-26.552c-1.016-2.1-3.439-4.1-5.28-4.368l-22.553-3.008c-5-1.212-11.241-9.162-13.181-13.89a2.288,2.288,0,0,1,.229-2.494" transform="translate(-80.783 -86.731)" fill="#452a51"/>
    <path id="Path_3599" data-name="Path 3599" d="M247.048,256.087c-2.306-4.744,1.748-9.826,7.024-10.812,6.513-1.217,8.529-1.764,13.436.847,4.526,2.408,7.244,7.418,6.575,10.781-3.34,16.767,7.609,16.848,9.941,25.868.291,1.123.236,1.363-1.109,1.43-7.672.383-11.8,3.657-22.92,2.569a6.82,6.82,0,0,1-2.862-.57,10.09,10.09,0,0,1-2.322-2.785,4.333,4.333,0,0,1-.654-1.856c-1.439-12.649-4.214-19.516-7.109-25.472" transform="translate(-72.13 -71.508)" fill="#ffd878"/>
    <path id="Path_3600" data-name="Path 3600" d="M270.2,282.319l1.1-2.47c-8.758-.459-17.25-1.108-24.66-2.009a1.363,1.363,0,0,1-1.121-1.828c3.13-8.3,8.039-21.889,6.594-24.916-.383-.8-2.233-2.8-4.517-1.877-.175.07-.342.133-.462.17-2.486.771-3.273,5.895-3.848,9.636a29.281,29.281,0,0,1-.747,3.868,63.734,63.734,0,0,0-3.152,18.085c.032.748.554,2.325,1.334,2.347,2.575.4,5.964-.073,10.128-.181,7.37-.192,15.659-.187,19.352-.827" transform="translate(-70.08 -72.89)" fill="#ff9985"/>
    <path id="Path_3601" data-name="Path 3601" d="M321.706,263.75c-.087.048-.2.089-.208.023a2.963,2.963,0,0,1,0-1.209c.059-.257-.207-.448-.4-.247a5.043,5.043,0,0,0-1.028,1.523,18.246,18.246,0,0,1-.879,2.369c-.431.878.607,1.43,1.383,1.459,1.5.056,4.4-1.339,5.077-2.69a3.247,3.247,0,0,0-.127-2.333,1.719,1.719,0,0,0-.984-.921Z" transform="translate(-93.415 -76.62)" fill="#ff9985"/>
    <path id="Path_3602" data-name="Path 3602" d="M281.336,229.251a7.538,7.538,0,0,0,.24-1.445Z" transform="translate(-82.362 -66.691)" fill="#895147"/>
    <path id="Path_3603" data-name="Path 3603" d="M262.213,227.84a1.552,1.552,0,0,1-1-.808,5.863,5.863,0,0,0,1.713-1.223c.876-.91,1.443-2.082,2.3-3.013a8.956,8.956,0,0,1,7.425-2.6c.372.035.93.11,1.116-.31a1.064,1.064,0,0,0,.008-.552c.093.133.18.271.263.411-.095-.216-.2-.428-.313-.637-.088-.378-.221-.775-.264-.994a.606.606,0,0,0-.112-.289.581.581,0,0,0-.24-.141l-.441-.173a9.7,9.7,0,0,0-6.515-3.564,7.115,7.115,0,0,0-8.08,7.415,9.231,9.231,0,0,0,2.579,5.969c.045.309.087.617.146.946a6.714,6.714,0,0,0,.907,2.477c.026-.023.507-2.913.507-2.913" transform="translate(-75.55 -62.621)" fill="#895147"/>
    <path id="Path_3604" data-name="Path 3604" d="M275.728,225.862a5.715,5.715,0,0,0-.747-3.874c-.083-.14-.17-.278-.264-.411a1.067,1.067,0,0,1-.006.552c-.186.42-.744.346-1.117.31a8.957,8.957,0,0,0-7.424,2.6c-.854.931-1.42,2.1-2.3,3.013a5.862,5.862,0,0,1-1.713,1.222,1.55,1.55,0,0,0,1,.808l-.48,2.89-1.366,8.217a1,1,0,0,0,.658,1.224l3.353.557c.46.076.919-.349,1.018-.945l1.148-6.907a5.817,5.817,0,0,0,7.47-4.622l.51-3.072.24-1.445Zm-1.759,1.642c.058-.357.292-.616.524-.579l.715.115-.4.292a.921.921,0,0,1,0,.306c-.057.357-.292.617-.524.579s-.374-.357-.316-.714m-2.866,2.241.024-.069a.462.462,0,0,0,.493.316l.66-.1a.728.728,0,0,0,.556-.549l.026.132a.794.794,0,0,1-.583.951l-.662.1a.546.546,0,0,1-.513-.783m-1.349-3.227a.945.945,0,0,1,0,.307c-.057.357-.292.616-.524.579s-.373-.357-.315-.714.291-.616.525-.579l.714.115Zm1.461,5.2a.131.131,0,0,1,.076.168l-.05.132a.13.13,0,0,1-.168.076l-1.132-.429a.129.129,0,0,1-.075-.167l.05-.132a.13.13,0,0,1,.168-.076Zm-2.265-7.479,1.407.227a.378.378,0,0,1-.122.747l-1.405-.227a.378.378,0,1,1,.12-.747m6.432,1.8-1.092-.176a.345.345,0,0,1-.231-.42c.033-.206.191-.353.35-.327l1.092.176a.345.345,0,0,1,.231.421c-.033.205-.192.352-.35.327" transform="translate(-76.493 -64.867)" fill="#ff9985"/>
    <path id="Path_3605" data-name="Path 3605" d="M271.819,226.092l1.407.226a.378.378,0,0,0,.121-.747l-1.407-.227a.379.379,0,0,0-.12.748" transform="translate(-79.482 -65.968)" fill="#895147"/>
    <path id="Path_3606" data-name="Path 3606" d="M281.015,227.186a.346.346,0,0,0-.23-.421l-1.092-.176a.391.391,0,0,0-.12.748l1.092.176c.159.025.317-.122.35-.327" transform="translate(-81.777 -66.333)" fill="#895147"/>
    <path id="Path_3607" data-name="Path 3607" d="M275.662,233.742l.661-.1a.8.8,0,0,0,.584-.951l-.026-.132a.729.729,0,0,1-.555.549l-.661.1a.461.461,0,0,1-.492-.316l-.024.069a.546.546,0,0,0,.513.783" transform="translate(-80.538 -68.081)" fill="#fa694f"/>
    <path id="Path_3608" data-name="Path 3608" d="M272.071,228.565c-.057.357.083.677.316.714s.467-.221.524-.579a.906.906,0,0,0-.006-.307l.4-.292-.714-.115c-.233-.037-.467.221-.525.579" transform="translate(-79.645 -66.742)" fill="#000543"/>
    <path id="Path_3609" data-name="Path 3609" d="M279.528,230.431c.232.037.467-.222.524-.579a.925.925,0,0,0,0-.307l.4-.292-.715-.115c-.231-.037-.466.222-.524.579s.084.677.316.714" transform="translate(-81.736 -67.08)" fill="#000543"/>
    <path id="Path_3610" data-name="Path 3610" d="M273.462,235.387l-.05.132a.129.129,0,0,0,.076.167l1.132.429a.13.13,0,0,0,.167-.076l.05-.132a.13.13,0,0,0-.076-.168l-1.132-.429a.131.131,0,0,0-.167.076" transform="translate(-80.039 -68.886)" fill="#fff"/>
    <path id="Path_3611" data-name="Path 3611" d="M270.257,249.048a8.73,8.73,0,0,0-7.053-4.725c-2.637,0-3.754,2.115-2.5,4.725a8.73,8.73,0,0,0,7.053,4.725c2.637,0,3.755-2.115,2.5-4.725" transform="translate(-76.171 -71.526)" fill="#ff9985"/>
    <path id="Path_3612" data-name="Path 3612" d="M322.853,265.667a3.069,3.069,0,0,1,1.545-4.47s1.874-.526,2.268,1.874c0,0-.132,2.908-3.813,2.6" transform="translate(-94.385 -76.452)" fill="#ff9985"/>
    <path id="Path_3613" data-name="Path 3613" d="M287.166,323.974a9.135,9.135,0,0,1,2.026.151c1.185.306,2.112,1.238,3.26,1.662,1.71.632,3.672.06,5.409.614,2.4.764,3.638,3.373,4.369,5.781.929,3.061,1.5,6.264,2.956,9.111a36.5,36.5,0,0,1,2.513,4.822c.627,1.868.59,3.9,1.163,5.786a12.94,12.94,0,0,0,3.291,5.961c-.956-2.117-1.147-4.652-1.657-6.918-.563-2.5-.844-5.067-1.434-7.565a55.253,55.253,0,0,0-2.246-6.909c-1.721-4.526-3.655-9.114-7-12.613a6.38,6.38,0,0,0-1.783-1.407,7.491,7.491,0,0,0-2.215-.553q-8.027-1.149-16.093-1.985c-.272-.028-.742,1.565-.608,1.818.256.48,2.026.871,2.525,1.05a17.928,17.928,0,0,0,5.525,1.2" transform="translate(-81.705 -93.655)" fill="#452a51"/>
    <path id="Path_3614" data-name="Path 3614" d="M281.729,357.279a.788.788,0,0,1-.762-.588L267.175,304.37c-.887-3.367-4.244-5.719-8.164-5.719H233.805a.789.789,0,1,1,0-1.578h25.206c4.636,0,8.62,2.835,9.689,6.895l13.791,52.321a.788.788,0,0,1-.562.964.774.774,0,0,1-.2.026" transform="translate(-68.216 -86.969)" fill="#6d72a0"/>
    <path id="Path_3615" data-name="Path 3615" d="M329.93,327.778l2.239,3.656a29.939,29.939,0,0,1,1.709,3.052c1.475,3.2,1.8,6.864,3.526,9.933.7,1.25,1.616,2.364,2.427,3.546a24.913,24.913,0,0,1,3.339,7.009,97.257,97.257,0,0,0-10.32-28.47c-.7-1.262-1.564-2.622-2.96-2.982-1-.259-2.253,0-2.935-.783a2.422,2.422,0,0,0-.5-.56.878.878,0,0,0-1.125.394c-.871,1.445,1.085,1.384,1.956,2a10.5,10.5,0,0,1,2.644,3.206" transform="translate(-95.177 -94.292)" fill="#452a51"/>
    <path id="Path_3616" data-name="Path 3616" d="M324.482,350.635a.217.217,0,0,1-.19-.32,2.96,2.96,0,0,0,.226-2.235c-1.522-5.19-3.647-12.028-8.122-26.13-4.176-13.166-16.176-16.789-27.095-19.152a.217.217,0,1,1,.091-.424c11.038,2.389,23.17,6.058,27.416,19.446,4.476,14.1,6.6,20.944,8.126,26.138a3.4,3.4,0,0,1-.261,2.564.218.218,0,0,1-.191.113" transform="translate(-84.643 -88.519)" fill="#281930"/>
    <path id="Path_3617" data-name="Path 3617" d="M283.044,296.512H257.671a.9.9,0,1,1,0-1.808h25.373a.9.9,0,1,1,0,1.808" transform="translate(-75.169 -86.275)" fill="#132187"/>
    <path id="Path_3618" data-name="Path 3618" d="M291.564,260.136h2.759a3.293,3.293,0,0,0-3.046,2.25l-5.919,21.735a1.727,1.727,0,0,0,1.82,2.249H284.42a1.728,1.728,0,0,1-1.821-2.249l5.92-21.735a3.292,3.292,0,0,1,3.046-2.25" transform="translate(-82.709 -76.155)" fill="#132187"/>
    <path id="Path_3619" data-name="Path 3619" d="M284.582,284.121l5.92-21.735a3.291,3.291,0,0,1,3.046-2.25h29.031a1.727,1.727,0,0,1,1.82,2.25l-5.919,21.735a3.291,3.291,0,0,1-3.046,2.249H286.4a1.728,1.728,0,0,1-1.821-2.249" transform="translate(-83.29 -76.155)" fill="#000543"/>
    <path id="Path_3620" data-name="Path 3620" d="M152.844,355.43h-15.5a1.74,1.74,0,0,1-1.738-1.738v-8.952A1.74,1.74,0,0,1,137.342,343h15.5a1.74,1.74,0,0,1,1.738,1.738v8.952a1.74,1.74,0,0,1-1.738,1.738m-15.5-11.75a1.062,1.062,0,0,0-1.06,1.06v8.952a1.062,1.062,0,0,0,1.06,1.06h15.5a1.062,1.062,0,0,0,1.06-1.06v-8.952a1.062,1.062,0,0,0-1.06-1.06Z" transform="translate(-39.698 -100.415)" fill="#bbcff2"/>
    <path id="Path_3621" data-name="Path 3621" d="M145.9,348.953l-9.474-4.7.3-.608,9.153,4.545,8.115-4.536.33.591Z" transform="translate(-39.938 -100.602)" fill="#bbcff2"/>
    <path id="Path_3622" data-name="Path 3622" d="M156.736,282.332l-3.47-.9a.639.639,0,0,1-.125-1.192l11.026-5.5a.413.413,0,0,1,.535.156.542.542,0,0,1-.068.685Zm6.28-6.258-9.573,4.777,3.118.739Z" transform="translate(-44.728 -80.419)" fill="#bbcff2"/>
    <path id="Path_3623" data-name="Path 3623" d="M159.411,286.186a.863.863,0,0,1-.113-.008.722.722,0,0,1-.6-.538l-.989-3.73,7.945-6.861a.475.475,0,0,1,.694.64l-6.319,10.15a.721.721,0,0,1-.617.347m-.939-4.04.88,3.321.1.015,5.633-9.046Z" transform="translate(-46.169 -80.487)" fill="#bbcff2"/>
    <path id="Path_3624" data-name="Path 3624" d="M147.826,326.192a.339.339,0,0,1-.16-.638c.269-.144.825-.455,1.526-.919a.339.339,0,0,1,.374.566c-.725.478-1.3.8-1.581.951a.329.329,0,0,1-.16.04m3.025-1.99a.339.339,0,0,1-.209-.606c.477-.371.935-.758,1.361-1.151a.339.339,0,0,1,.459.5c-.44.405-.912.8-1.4,1.187a.339.339,0,0,1-.209.071m2.656-2.453a.339.339,0,0,1-.251-.566,16.581,16.581,0,0,0,1.115-1.376.339.339,0,1,1,.549.4,16.912,16.912,0,0,1-1.161,1.433.336.336,0,0,1-.252.112m2.106-2.931a.331.331,0,0,1-.162-.042.338.338,0,0,1-.135-.46,12.39,12.39,0,0,0,.734-1.6.339.339,0,0,1,.636.238,13.239,13.239,0,0,1-.775,1.685.34.34,0,0,1-.3.176m1.255-3.374a.322.322,0,0,1-.068-.007.338.338,0,0,1-.264-.4,10.825,10.825,0,0,0,.209-1.736.325.325,0,0,1,.352-.325.339.339,0,0,1,.326.352,11.464,11.464,0,0,1-.223,1.844.339.339,0,0,1-.332.272m.142-3.594a.339.339,0,0,1-.337-.3,12.314,12.314,0,0,0-.335-1.725.339.339,0,0,1,.655-.175,12.919,12.919,0,0,1,.352,1.82.339.339,0,0,1-.3.377l-.04,0m-.919-3.484a.34.34,0,0,1-.314-.211,17,17,0,0,0-.755-1.6.339.339,0,0,1,.6-.32,17.851,17.851,0,0,1,.786,1.667.339.339,0,0,1-.186.441.319.319,0,0,1-.129.025m-1.693-3.188a.34.34,0,0,1-.284-.154q-.316-.486-.678-.982c-.12-.163-.236-.327-.35-.489a.339.339,0,1,1,.554-.389q.168.238.344.481.371.509.7,1.01a.339.339,0,0,1-.284.524m-2.034-2.987a.34.34,0,0,1-.288-.161c-.331-.533-.639-1.067-.914-1.586a.339.339,0,1,1,.6-.317c.268.5.568,1.025.891,1.545a.339.339,0,0,1-.288.518M150.68,299a.338.338,0,0,1-.311-.206,17.654,17.654,0,0,1-.637-1.729.339.339,0,0,1,.648-.2,16.875,16.875,0,0,0,.612,1.661.34.34,0,0,1-.312.473m-1.046-3.452a.341.341,0,0,1-.335-.283,11.63,11.63,0,0,1-.165-1.852.339.339,0,1,1,.678,0,10.861,10.861,0,0,0,.156,1.744.34.34,0,0,1-.278.391.387.387,0,0,1-.057,0m0-3.594a.484.484,0,0,1-.062,0,.34.34,0,0,1-.27-.4,9.06,9.06,0,0,1,.532-1.795.343.343,0,0,1,.443-.184.339.339,0,0,1,.184.443,8.375,8.375,0,0,0-.494,1.661.339.339,0,0,1-.333.277M151,288.635a.339.339,0,0,1-.279-.53,10.122,10.122,0,0,1,1.192-1.439.339.339,0,1,1,.48.479,9.48,9.48,0,0,0-1.113,1.342.337.337,0,0,1-.28.148m2.533-2.557a.338.338,0,0,1-.2-.615,9.352,9.352,0,0,1,1.63-.951.339.339,0,0,1,.262.626,8.8,8.8,0,0,0-1.5.876.336.336,0,0,1-.2.063" transform="translate(-43.177 -83.284)" fill="#bbcff2"/>
    <path id="Path_3625" data-name="Path 3625" d="M136.327,218.144l-3.72-.011c-.042,0-.084,0-.127-.006a1.425,1.425,0,0,1-1.3-1.428l.019-3.715a1.434,1.434,0,0,1,1.439-1.425l3.719.011A1.426,1.426,0,0,1,137.784,213l-.019,3.715a1.434,1.434,0,0,1-1.438,1.425m-3.816-.354c.032,0,.064,0,.1,0l3.724.011a1.1,1.1,0,0,0,1.095-1.088l.019-3.715a1.087,1.087,0,0,0-1.086-1.093l-3.723-.011a1.1,1.1,0,0,0-1.1,1.088l-.019,3.714a1.087,1.087,0,0,0,.989,1.089" transform="translate(-38.404 -61.935)" fill="#fff"/>
    <path id="Path_3626" data-name="Path 3626" d="M132.431,233.9a1.2,1.2,0,0,1-1.092-1.2l.02-3.828a1.209,1.209,0,0,1,1.212-1.2l3.833.011a1.2,1.2,0,0,1,1.2,1.207l-.021,3.828a1.207,1.207,0,0,1-1.212,1.2l-3.833-.011a1.068,1.068,0,0,1-.107,0" transform="translate(-38.45 -66.651)" fill="#dcf1ff"/>
    <path id="Path_3627" data-name="Path 3627" d="M136.274,249.883l-3.946-.011c-.038,0-.077,0-.115-.006a1.322,1.322,0,0,1-1.2-1.315l.021-3.941a1.323,1.323,0,0,1,1.325-1.313l3.948.011a1.314,1.314,0,0,1,1.309,1.321l-.021,3.94a1.323,1.323,0,0,1-1.325,1.313m-4.031-.354c.028,0,.057,0,.086,0l3.949.011a.983.983,0,0,0,.982-.975l.021-3.941a.974.974,0,0,0-.973-.98l-3.949-.011a.983.983,0,0,0-.982.975l-.02,3.94a.981.981,0,0,0,.888.977" transform="translate(-38.355 -71.226)" fill="#fff"/>
    <path id="Path_3628" data-name="Path 3628" d="M132.162,265.637a1.089,1.089,0,0,1-.99-1.09l.021-4.053a1.1,1.1,0,0,1,1.1-1.088l4.058.011a1.088,1.088,0,0,1,1.087,1.094l-.021,4.053a1.1,1.1,0,0,1-1.1,1.088l-4.058-.011c-.033,0-.065,0-.1,0" transform="translate(-38.401 -75.942)" fill="#dcf1ff"/>
    <path id="Path_3629" data-name="Path 3629" d="M143.244,215.085a.307.307,0,0,1,.033-.612l13.334.043a.306.306,0,0,1,0,.612l-13.333-.042h-.03" transform="translate(-41.854 -62.787)" fill="#d7e1fc"/>
    <path id="Path_3630" data-name="Path 3630" d="M143.294,217.277a.307.307,0,0,1,.033-.612l19.717.076a.307.307,0,0,1,0,.613l-19.716-.076h-.03" transform="translate(-41.869 -63.429)" fill="#d7e1fc"/>
    <path id="Path_3631" data-name="Path 3631" d="M142.969,231.118a.307.307,0,0,1,.033-.612l19.614.049a.3.3,0,0,1,.3.308.307.307,0,0,1-.308.306L143,231.119h-.03" transform="translate(-41.774 -67.481)" fill="#d7e1fc"/>
    <path id="Path_3632" data-name="Path 3632" d="M150.231,233.357a.307.307,0,0,1,.033-.612l6.515.006a.3.3,0,0,1,.306.307.308.308,0,0,1-.308.306l-6.515-.006h-.03" transform="translate(-43.9 -68.137)" fill="#d7e1fc"/>
    <path id="Path_3633" data-name="Path 3633" d="M143.018,233.31a.307.307,0,0,1,.035-.612l3.892.026a.307.307,0,0,1-.006.613l-3.892-.026h-.029" transform="translate(-41.788 -68.123)" fill="#d7e1fc"/>
    <path id="Path_3634" data-name="Path 3634" d="M143.259,262.993a.307.307,0,0,1,.033-.612l19.614.049a.307.307,0,0,1,0,.613l-19.614-.049h-.03" transform="translate(-41.859 -76.813)" fill="#d7e1fc"/>
    <path id="Path_3635" data-name="Path 3635" d="M143.309,265.185a.307.307,0,0,1,.035-.612l3.892.026a.307.307,0,0,1-.006.613l-3.892-.026h-.029" transform="translate(-41.873 -77.454)" fill="#d7e1fc"/>
    <path id="Path_3636" data-name="Path 3636" d="M143.254,248.368a.307.307,0,0,1,.033-.612l19.614.049a.307.307,0,0,1,0,.613l-19.614-.049h-.03" transform="translate(-41.857 -72.531)" fill="#d7e1fc"/>
    <path id="Path_3637" data-name="Path 3637" d="M150.515,250.608a.307.307,0,0,1,.033-.612l6.515.006a.307.307,0,1,1,0,.613l-6.515-.006h-.03" transform="translate(-43.983 -73.187)" fill="#d7e1fc"/>
    <path id="Path_3638" data-name="Path 3638" d="M143.3,250.56a.307.307,0,0,1,.035-.612l3.892.026a.307.307,0,0,1-.006.613l-3.892-.026H143.3" transform="translate(-41.871 -73.173)" fill="#d7e1fc"/>
    <path id="Path_3639" data-name="Path 3639" d="M143.268,246.057a.307.307,0,0,1,.033-.612l19.614.05a.3.3,0,0,1,.3.307.307.307,0,0,1-.308.306l-19.614-.049h-.03" transform="translate(-41.861 -71.854)" fill="#d7e1fc"/>
    <path id="Path_3640" data-name="Path 3640" d="M135.291,217.26a.451.451,0,0,0,.355-.171l1.555-1.968a.453.453,0,0,0-.711-.562L135.351,216,133.625,213a.453.453,0,0,0-.785.452l2.059,3.585a.453.453,0,0,0,.359.226h.033" transform="translate(-38.871 -62.289)" fill="#ff5a8b"/>
    <path id="Path_3641" data-name="Path 3641" d="M135.291,233.4a.452.452,0,0,0,.355-.172l1.555-1.968a.453.453,0,0,0-.711-.561l-1.139,1.442-1.726-3.005a.453.453,0,1,0-.785.451l2.059,3.585a.453.453,0,0,0,.359.226h.033" transform="translate(-38.871 -67.014)" fill="#ff5a8b"/>
  </g>
</svg>
