<svg id="Group_553" data-name="Group 553" xmlns="http://www.w3.org/2000/svg" xmlns:xlink="http://www.w3.org/1999/xlink" width="280.994" height="250" viewBox="0 0 280.994 250">
  <defs>
    <clipPath id="clip-path">
      <rect id="Rectangle_321" data-name="Rectangle 321" width="280.994" height="250" fill="none"/>
    </clipPath>
    <clipPath id="clip-path-3">
      <rect id="Rectangle_296" data-name="Rectangle 296" width="269.766" height="162.955" fill="none"/>
    </clipPath>
    <clipPath id="clip-path-4">
      <rect id="Rectangle_297" data-name="Rectangle 297" width="93.521" height="54.382" fill="none"/>
    </clipPath>
    <clipPath id="clip-path-5">
      <rect id="Rectangle_299" data-name="Rectangle 299" width="12.429" height="7.892" fill="none"/>
    </clipPath>
    <clipPath id="clip-path-8">
      <rect id="Rectangle_302" data-name="Rectangle 302" width="12.428" height="7.892" fill="none"/>
    </clipPath>
    <clipPath id="clip-path-13">
      <rect id="Rectangle_307" data-name="Rectangle 307" width="13.087" height="6.743" fill="none"/>
    </clipPath>
    <clipPath id="clip-path-14">
      <rect id="Rectangle_308" data-name="Rectangle 308" width="12.84" height="7.205" fill="none"/>
    </clipPath>
    <clipPath id="clip-path-15">
      <rect id="Rectangle_309" data-name="Rectangle 309" width="12.259" height="8.149" fill="none"/>
    </clipPath>
    <clipPath id="clip-path-17">
      <rect id="Rectangle_311" data-name="Rectangle 311" width="12.26" height="8.149" fill="none"/>
    </clipPath>
    <clipPath id="clip-path-18">
      <rect id="Rectangle_312" data-name="Rectangle 312" width="12.259" height="8.15" fill="none"/>
    </clipPath>
    <clipPath id="clip-path-19">
      <rect id="Rectangle_313" data-name="Rectangle 313" width="12.26" height="8.15" fill="none"/>
    </clipPath>
    <clipPath id="clip-path-21">
      <rect id="Rectangle_315" data-name="Rectangle 315" width="69.33" height="40.51" fill="none"/>
    </clipPath>
  </defs>
  <g id="Group_552" data-name="Group 552" clip-path="url(#clip-path)">
    <g id="Group_551" data-name="Group 551">
      <g id="Group_550" data-name="Group 550" clip-path="url(#clip-path)">
        <g id="Group_495" data-name="Group 495" transform="translate(4.045 86.788)" opacity="0.39" style="mix-blend-mode: multiply;isolation: isolate">
          <g id="Group_494" data-name="Group 494">
            <g id="Group_493" data-name="Group 493" clip-path="url(#clip-path-3)">
              <path id="Path_502" data-name="Path 502" d="M274.573,197.261,111.519,103.122,18.041,158.128l-4.479,1.058,54.544,32.283-63.3,37.343L65.3,266.077l67.417-35.73,43.524,25.121Z" transform="translate(-4.807 -103.122)" fill="#d9e3ff"/>
            </g>
          </g>
        </g>
        <path id="Path_503" data-name="Path 503" d="M155.24,221.5l8.173,2.869c6.32.319,9.605-.162,11.23,2.224l.46.676c1.624,2.385.159,4.458-3.256,4.607l-17.777,2.973c-3.415.149-4.785-2.072-5.963-4.873a11.945,11.945,0,0,1,1.214-7.075c1.382-2.683,3.188-1.282,5.92-1.4" transform="translate(-23.441 -35.041)" fill="#191791"/>
        <path id="Path_504" data-name="Path 504" d="M64.685,173.545s23.122,27.692,45.919-.982-57.337-26.952-57.337-26.952Z" transform="translate(-8.437 -23.06)" fill="#4082c7"/>
        <path id="Path_505" data-name="Path 505" d="M76.091,152.786h0c.838,1.8-2.521-6.745-1.19-5.269,2.774,3.073,9.443,13.929,13.385,15.189,4.764,1.522.834-1.707.834-1.707s39.667-23.158,38.833-24.3c-6.528-8.952-12.72-11.752-25.236-6.884-14.249,5.544-30.638,14.351-26.625,22.973" transform="translate(-11.814 -20.186)" fill="#226dbd"/>
        <path id="Path_506" data-name="Path 506" d="M111.837,176.7c7.434-5.361,14.853-10.885,22.77-15.523,1.288-.754,2.592-1.482,3.934-2.136.234-.114.471-.22.7-.335.687-.34.708-.777.017-.025-.522.568-.9.311-.247.123.334-.1.657-.236.991-.338.417-.127.87-.185,1.277-.333,1.309-.477-2.58.167-.991.151,1.682-.015-.707-.105-1.189-.226,1.626.407-1.827-.939-1.028-.476s-2.076-1.809-.917-.632c-.347-.352-1.554-2.236-.768-.826.076.137-.718-2.505-.417-.873.087.465.2.969.327,1.423.389,1.373-.147-2.455-.094-.557.016.556.075,1.113.093,1.67.048,1.5.008,3.007-.063,4.508-.248,5.277-.063,10.571-.031,15.853.054,8.773.132,17.582-.483,26.339-.337,4.8,4.465,9.395,9.184,9.183,5.263-.236,8.822-4.038,9.183-9.183,1.022-14.543.175-29.145.572-43.7.166-6.092-.4-12.883-5.054-17.346A19.888,19.888,0,0,0,128.043,140c-9.531,4.645-20.767,12.925-29.326,19.1-4.017,2.9-2.118,9.737.555,14.308,2.32,3.968,8.52,6.211,12.564,3.295" transform="translate(-15.27 -21.896)" fill="#4082c7"/>
        <path id="Path_507" data-name="Path 507" d="M325.079,200.689l.436-.056a2.384,2.384,0,0,0,2.062-2.67L318.2,125.016a2.386,2.386,0,0,0-2.67-2.062l-.437.056a2.386,2.386,0,0,0-2.062,2.67l9.375,72.946a2.385,2.385,0,0,0,2.67,2.062" transform="translate(-49.579 -19.472)" fill="#191791"/>
        <path id="Path_508" data-name="Path 508" d="M207.767,262.16h0a2.58,2.58,0,0,1-2.349-2.792l10.135-117.682a2.58,2.58,0,1,1,5.141.444L210.559,259.811a2.579,2.579,0,0,1-2.792,2.349" transform="translate(-32.535 -22.068)" fill="#191791"/>
        <path id="Path_509" data-name="Path 509" d="M19.455,154.878l-.714-.061a2.222,2.222,0,0,1-2.023-2.4l7.453-86.532a2.222,2.222,0,0,1,2.4-2.023l.714.061a2.222,2.222,0,0,1,2.022,2.4L21.86,152.855a2.222,2.222,0,0,1-2.4,2.023" transform="translate(-2.647 -10.113)" fill="#191791"/>
        <path id="Path_510" data-name="Path 510" d="M281.059,107.423H269.795L110.287,15.331c-2.649-1.529-7.277-1.337-10.335.428L29.185,56.617H18.614v7.622a2.92,2.92,0,0,0,1.745,3.013l168.983,97.563c2.649,1.529,7.277,1.337,10.336-.428l78.85-45.525c1.729-1,2.585-2.285,2.527-3.491h0Z" transform="translate(-2.942 -2.265)" fill="#96beff"/>
        <path id="Path_511" data-name="Path 511" d="M189.342,155.757,20.358,58.194c-2.649-1.529-2.317-4.2.742-5.967L99.952,6.7c3.058-1.767,7.686-1.958,10.335-.428L279.27,103.837c2.649,1.529,2.317,4.2-.742,5.967l-78.851,45.524c-3.058,1.766-7.686,1.958-10.335.428" transform="translate(-2.941 -0.83)" fill="#e9f5ff"/>
        <path id="Path_512" data-name="Path 512" d="M75.172,280.681h0a1.529,1.529,0,0,1-1.288-1.737l7.73-82.973c.124-.835,5.605-2.279,6.441-2.155s7.989,1.32,7.866,2.155L76.909,279.392a1.529,1.529,0,0,1-1.737,1.289" transform="translate(-11.7 -30.697)" fill="#191791"/>
        <path id="Path_513" data-name="Path 513" d="M6.092,238.182h0A1.53,1.53,0,0,1,4.8,236.445l7.73-82.973c.125-.835,5.605-2.279,6.441-2.155s7.989,1.32,7.866,2.155L7.828,236.893a1.529,1.529,0,0,1-1.736,1.289" transform="translate(-0.758 -23.966)" fill="#191791"/>
        <path id="Path_514" data-name="Path 514" d="M147.129,244.4h0a1.585,1.585,0,0,0,1.336-1.8l-5.12-68.424c-.128-.865-5.354,2.645-6.22,2.773s-7.841,2.96-7.713,3.826l15.917,62.29a1.585,1.585,0,0,0,1.8,1.335" transform="translate(-20.497 -27.566)" fill="#191791"/>
        <path id="Path_515" data-name="Path 515" d="M112.379,67.543l-34.731,3.05,9.46,14.334,26.9-12.922Z" transform="translate(-12.299 -10.698)" fill="#ffc2b0"/>
        <path id="Path_516" data-name="Path 516" d="M130.81,192.117,93.539,214.937c-6.037,3.7-10.7,1.962-10.369-3.855l.321-5.587c.333-5.816,5.545-13.6,11.582-17.294l37.271-22.82c6.036-3.7,10.7-1.961,10.369,3.855l-.321,5.587c-.334,5.816-5.545,13.6-11.582,17.294" transform="translate(-13.171 -25.887)" fill="#173891"/>
        <path id="Path_517" data-name="Path 517" d="M123.27,71.549l-5.291,1.419a3.865,3.865,0,0,1-2-7.466l5.291-1.418a3.864,3.864,0,1,1,2,7.465" transform="translate(-17.916 -10.13)" fill="#ffc2b0"/>
        <path id="Path_518" data-name="Path 518" d="M322.157,183.3l-17.767-9.321-13.706,14.91,18.857-.63Z" transform="translate(-46.042 -27.557)" fill="#1585ea"/>
        <path id="Path_519" data-name="Path 519" d="M253.756,238.453l3.333-29.291c.575-5.049,6.266-11.074,12.712-13.456l.668-.247a16.7,16.7,0,0,1,2.542-.726c-1.98-.926-4.885-.88-8.232.356-6.63,2.451-12.484,8.648-13.075,13.842l-3.588,31.533c-.592,5.194,4.3,7.418,10.935,4.967a21.705,21.705,0,0,0,3.228-1.515c-5.342,1.225-9.032-.982-8.522-5.463" transform="translate(-39.292 -30.743)" fill="#191791"/>
        <path id="Path_520" data-name="Path 520" d="M300.644,231.133l-33.471,19.324c-2.358,1.362-4.287-.1-4.287-3.241V209.39c0-10.155,6.231-22.061,13.848-26.459l14.349-8.285c7.729-4.361,16.747,1.839,13.848,10.468v37.827c0,3.143-1.929,6.83-4.287,8.191" transform="translate(-41.639 -27.435)" fill="#1585ea"/>
        <path id="Path_521" data-name="Path 521" d="M262.886,250.79v7.449c0,2.662,2.278,3.524,5.064,1.916l31.918-18.428c2.785-1.608,5.063-5.1,5.063-7.764l-6.512,12.091Z" transform="translate(-41.639 -37.058)" fill="#cc3a6e"/>
        <path id="Path_522" data-name="Path 522" d="M320.227,242.865l-32.3,18.647c-2.992,1.727-5.892.375-5.892-2.187l.453-43.266c.109-8.048.96-15.208,16.145-23.145l10.885-6.284c8.881-5.127,15.113-1.868,15.282,5.889l.864,42.549c0,2.561-2.447,6.071-5.439,7.8" transform="translate(-44.672 -29.168)" fill="#52a5ff"/>
        <path id="Path_523" data-name="Path 523" d="M319.675,232.925,294.8,247.285c-.417.242-.758-.017-.758-.573a1.822,1.822,0,0,1,.758-1.45L319.675,230.9c.417-.241.758.018.758.574a1.826,1.826,0,0,1-.758,1.45" transform="translate(-46.574 -36.558)" fill="#1585ea"/>
        <path id="Path_524" data-name="Path 524" d="M285.049,216.287c-.6,8.29,5,12.1,11.925,10.653,6.793-1.42,15.2-7.442,20.058-16.189,2.712-4.885,3.92-10.2,3.291-14.141a2.414,2.414,0,0,1,.868-2.1c.587-.515,1.427-.608,1.528.025.65,4.062-.163,9.088-2.509,14.234a41.624,41.624,0,0,1-9.835,13.278c-8.139,7.362-17.9,10.306-23.383,6.54-2.947-2.025-4.8-5.768-4.426-10.868.125-1.728,2.611-3.177,2.484-1.434" transform="translate(-44.748 -30.742)" fill="#1585ea"/>
        <path id="Path_525" data-name="Path 525" d="M288.135,242.484h0c-.55.318-1,.107-1-.469v-9.33a2.124,2.124,0,0,1,1-1.625c.551-.318,1-.107,1,.469v9.33a2.122,2.122,0,0,1-1,1.625" transform="translate(-45.479 -36.574)" fill="#1585ea"/>
        <path id="Path_526" data-name="Path 526" d="M315.748,208.243l-13.389,7.73c-.591.342-1.075-.024-1.075-.813v-4.326a2.586,2.586,0,0,1,1.075-2.054l13.389-7.73c.592-.342,1.075.024,1.075.813v4.326a2.584,2.584,0,0,1-1.075,2.054" transform="translate(-47.721 -31.824)" fill="#fff"/>
        <path id="Path_527" data-name="Path 527" d="M314.974,208.034l-9.895,5.713c-.395.228-.718-.017-.718-.543v-2.486a1.726,1.726,0,0,1,.718-1.372l9.895-5.713c.395-.228.718.016.718.543v2.486a1.727,1.727,0,0,1-.718,1.372" transform="translate(-48.208 -32.24)" fill="#1585ea"/>
        <path id="Path_528" data-name="Path 528" d="M279.5,263.4l-16.613-9.439,1.586,10.037,16.092,9.284,4.732-3.786Z" transform="translate(-41.639 -40.224)" fill="#cc3a6e"/>
        <path id="Path_529" data-name="Path 529" d="M282.564,260.608v7.632c0,2.561,2.447,3.244,5.438,1.517l32.3-18.647c2.992-1.728,5.44-5.236,5.44-7.8l-.141-7.55Z" transform="translate(-44.756 -37.343)" fill="#ef487c"/>
        <path id="Path_530" data-name="Path 530" d="M325.655,237.249l-43.144,24.91v-1.846L325.655,235.4Z" transform="translate(-44.747 -37.286)" fill="#fff"/>
        <path id="Path_531" data-name="Path 531" d="M279.216,263.095l-17.174-9.666v1.91l17.174,9.675Z" transform="translate(-41.505 -40.141)" fill="#fff"/>
        <path id="Path_532" data-name="Path 532" d="M274.893,234.972l.514-24.749a24.724,24.724,0,0,1,3.771-12.862,21.272,21.272,0,0,1,3.212-3.929,66.7,66.7,0,0,1,26.022-14.917" transform="translate(-43.541 -28.275)" fill="none" stroke="#fff" stroke-linecap="round" stroke-linejoin="round" stroke-width="2.117"/>
        <path id="Path_533" data-name="Path 533" d="M264.292,238.681l15.025,9.409-.1,12.724-17.174-9.758V239.928a1.47,1.47,0,0,1,2.25-1.246" transform="translate(-41.505 -37.769)" fill="#0072d9"/>
        <path id="Path_534" data-name="Path 534" d="M278.248,250.221l-15.621-8.642a3.7,3.7,0,0,1-1.8-2.886c0-1.04.808-1.443,1.8-.9l15.621,8.642a3.707,3.707,0,0,1,1.8,2.886c0,1.04-.809,1.443-1.8.9" transform="translate(-41.313 -37.626)" fill="#52a5ff"/>
        <g id="Group_498" data-name="Group 498" transform="translate(92.987 49.414)" opacity="0.4" style="mix-blend-mode: multiply;isolation: isolate">
          <g id="Group_497" data-name="Group 497">
            <g id="Group_496" data-name="Group 496" clip-path="url(#clip-path-4)">
              <path id="Path_535" data-name="Path 535" d="M203.762,89.578,177.033,74.147a.492.492,0,0,0-.2-.06L150.325,58.781a.493.493,0,0,0-.494,0L113.189,79.936a.5.5,0,0,0-.111.087l-2.343,1.352a.494.494,0,0,0,0,.856l26.729,15.432a.479.479,0,0,0,.2.06l26.512,15.307a.493.493,0,0,0,.494,0l39.1-22.6a.494.494,0,0,0,0-.856" transform="translate(-110.487 -58.714)" fill="#a8c4e5"/>
            </g>
          </g>
        </g>
        <path id="Path_536" data-name="Path 536" d="M111.748,83.956h-3.626v-2.7l3.626-.928Z" transform="translate(-17.126 -12.724)" fill="#1f309c"/>
        <path id="Path_537" data-name="Path 537" d="M215.647,95.627h-3.625V92l3.625.748Z" transform="translate(-33.582 -14.572)" fill="#1f309c"/>
        <path id="Path_538" data-name="Path 538" d="M198.944,89.929,172.215,74.5a.492.492,0,0,0-.2-.06L145.506,59.132a.493.493,0,0,0-.494,0L108.37,80.287a.494.494,0,0,0,0,.856L135.1,96.574a.483.483,0,0,0,.2.06l26.512,15.307a.493.493,0,0,0,.494,0l36.643-21.156a.494.494,0,0,0,0-.856" transform="translate(-17.126 -9.355)" fill="#1f309c"/>
        <rect id="Rectangle_298" data-name="Rectangle 298" width="1.059" height="0.706" transform="translate(154.058 62.84)" fill="#dd4078"/>
        <path id="Path_539" data-name="Path 539" d="M135.1,93.218,108.37,77.786a.494.494,0,0,1,0-.856l36.643-21.156a.493.493,0,0,1,.494,0l26.729,15.432a.494.494,0,0,1,0,.856L135.592,93.218a.493.493,0,0,1-.494,0" transform="translate(-17.126 -8.824)" fill="#4432db"/>
        <path id="Path_540" data-name="Path 540" d="M166.833,111.477,140.1,96.045a.494.494,0,0,1,0-.856l36.643-21.156a.493.493,0,0,1,.494,0L203.97,89.465a.494.494,0,0,1,0,.856l-36.643,21.156a.493.493,0,0,1-.494,0" transform="translate(-22.152 -11.716)" fill="#4432db"/>
        <path id="Path_541" data-name="Path 541" d="M118.943,84.411,136.6,95.4l10.476-8.151s-20.627-8.4-28.132-2.839" transform="translate(-18.839 -13.068)" fill="#1f309c"/>
        <path id="Path_542" data-name="Path 542" d="M135.337,91.454c-1.514-5.709-12.051-8.037-24.1-13.915-.386-.222-.337-.615.109-.872L144.025,57.8a1.685,1.685,0,0,1,1.511-.062c14.968,4.432,24.3,9.031,24.1,13.915Z" transform="translate(-17.577 -9.121)" fill="#97b6de"/>
        <path id="Path_543" data-name="Path 543" d="M136.067,90.888c1.1-6.657-9.51-10.054-20.251-16.892a1.186,1.186,0,0,1,.125-1.547L147.59,54.2a1.374,1.374,0,0,1,1.4,0c13.546,5.41,21.88,11.447,21.353,16.686Z" transform="translate(-18.308 -8.555)" fill="#fff"/>
        <g id="Group_501" data-name="Group 501" transform="translate(132.347 47.667)" opacity="0.32">
          <g id="Group_500" data-name="Group 500">
            <g id="Group_499" data-name="Group 499" clip-path="url(#clip-path-5)">
              <path id="Path_544" data-name="Path 544" d="M168.938,64.458l-11.587-7.412c-.147-.094-.121-.246.058-.339a.658.658,0,0,1,.592,0l11.587,7.412c.148.094.122.246-.058.339a.658.658,0,0,1-.592,0" transform="translate(-157.255 -56.638)" fill="#7396ff"/>
            </g>
          </g>
        </g>
        <g id="Group_504" data-name="Group 504" transform="translate(128.546 50.123)" opacity="0.32">
          <g id="Group_503" data-name="Group 503">
            <g id="Group_502" data-name="Group 502" clip-path="url(#clip-path-5)">
              <path id="Path_545" data-name="Path 545" d="M164.421,67.376l-11.587-7.412c-.147-.094-.122-.247.058-.339a.658.658,0,0,1,.592,0l11.587,7.412c.147.094.122.246-.058.339a.658.658,0,0,1-.592,0" transform="translate(-152.738 -59.556)" fill="#7396ff"/>
            </g>
          </g>
        </g>
        <g id="Group_507" data-name="Group 507" transform="translate(124.744 52.58)" opacity="0.32">
          <g id="Group_506" data-name="Group 506">
            <g id="Group_505" data-name="Group 505" clip-path="url(#clip-path-5)">
              <path id="Path_546" data-name="Path 546" d="M159.9,70.3l-11.587-7.412c-.147-.094-.122-.247.058-.339a.656.656,0,0,1,.592,0l11.587,7.412c.147.094.122.246-.058.339a.658.658,0,0,1-.592,0" transform="translate(-148.221 -62.475)" fill="#7396ff"/>
            </g>
          </g>
        </g>
        <g id="Group_510" data-name="Group 510" transform="translate(120.943 55.036)" opacity="0.32">
          <g id="Group_509" data-name="Group 509">
            <g id="Group_508" data-name="Group 508" clip-path="url(#clip-path-8)">
              <path id="Path_547" data-name="Path 547" d="M155.388,73.214,143.8,65.8c-.147-.094-.121-.246.058-.339a.658.658,0,0,1,.592,0l11.587,7.412c.149.094.122.246-.058.339a.656.656,0,0,1-.591,0" transform="translate(-143.705 -65.394)" fill="#7396ff"/>
            </g>
          </g>
        </g>
        <g id="Group_513" data-name="Group 513" transform="translate(117.142 57.492)" opacity="0.32">
          <g id="Group_512" data-name="Group 512">
            <g id="Group_511" data-name="Group 511" clip-path="url(#clip-path-5)">
              <path id="Path_548" data-name="Path 548" d="M150.871,76.132,139.284,68.72c-.147-.094-.122-.246.058-.339a.658.658,0,0,1,.592,0L151.521,75.8c.147.094.122.246-.058.339a.658.658,0,0,1-.592,0" transform="translate(-139.188 -68.312)" fill="#7396ff"/>
            </g>
          </g>
        </g>
        <g id="Group_516" data-name="Group 516" transform="translate(113.251 60.886)" opacity="0.32">
          <g id="Group_515" data-name="Group 515">
            <g id="Group_514" data-name="Group 514" clip-path="url(#clip-path-5)">
              <path id="Path_549" data-name="Path 549" d="M146.248,80.165l-11.587-7.412c-.147-.094-.122-.246.058-.339a.658.658,0,0,1,.592,0L146.9,79.829c.147.094.122.246-.058.339a.658.658,0,0,1-.592,0" transform="translate(-134.565 -72.345)" fill="#7396ff"/>
            </g>
          </g>
        </g>
        <g id="Group_519" data-name="Group 519" transform="translate(109.45 63.343)" opacity="0.32">
          <g id="Group_518" data-name="Group 518">
            <g id="Group_517" data-name="Group 517" clip-path="url(#clip-path-8)">
              <path id="Path_550" data-name="Path 550" d="M141.731,83.084l-11.587-7.412c-.147-.094-.122-.246.058-.339a.658.658,0,0,1,.592,0l11.587,7.412c.147.094.122.246-.058.339a.658.658,0,0,1-.592,0" transform="translate(-130.049 -75.264)" fill="#7396ff"/>
            </g>
          </g>
        </g>
        <g id="Group_522" data-name="Group 522" transform="translate(105.649 65.799)" opacity="0.32">
          <g id="Group_521" data-name="Group 521">
            <g id="Group_520" data-name="Group 520" clip-path="url(#clip-path-5)">
              <path id="Path_551" data-name="Path 551" d="M137.215,86,125.628,78.59c-.147-.094-.121-.246.058-.339a.658.658,0,0,1,.592,0l11.587,7.412c.147.094.122.246-.058.339a.658.658,0,0,1-.592,0" transform="translate(-125.532 -78.182)" fill="#7396ff"/>
            </g>
          </g>
        </g>
        <path id="Path_552" data-name="Path 552" d="M139.922,93.958,166.078,109.5l33.711-18.636a4.18,4.18,0,0,0-1.909-3.961L176.7,73.394,141.219,93.11Z" transform="translate(-22.162 -11.625)" fill="#97b6de"/>
        <path id="Path_553" data-name="Path 553" d="M139.922,93.726s3.963-1.821,6.638.082S165.5,105.066,165.5,105.066l35.466-22.229s-16.144-16.21-26.761-9.113Z" transform="translate(-22.162 -11.393)" fill="#fff"/>
        <g id="Group_525" data-name="Group 525" transform="translate(156.113 62.219)" opacity="0.32">
          <g id="Group_524" data-name="Group 524">
            <g id="Group_523" data-name="Group 523" clip-path="url(#clip-path-13)">
              <path id="Path_554" data-name="Path 554" d="M197.856,80.626,185.6,74.374c-.156-.08-.145-.233.025-.343a.657.657,0,0,1,.589-.056l12.253,6.252c.156.079.145.233-.025.343a.66.66,0,0,1-.589.055" transform="translate(-185.493 -73.929)" fill="#7396ff"/>
            </g>
          </g>
        </g>
        <g id="Group_528" data-name="Group 528" transform="translate(152.38 64.358)" opacity="0.32">
          <g id="Group_527" data-name="Group 527">
            <g id="Group_526" data-name="Group 526" clip-path="url(#clip-path-14)">
              <path id="Path_555" data-name="Path 555" d="M193.165,83.62l-12-6.719c-.152-.085-.135-.238.038-.342a.655.655,0,0,1,.591-.032l12,6.719c.153.086.136.239-.038.343a.658.658,0,0,1-.591.032" transform="translate(-181.058 -76.47)" fill="#7396ff"/>
            </g>
          </g>
        </g>
        <g id="Group_531" data-name="Group 531" transform="translate(148.815 66.256)" opacity="0.32">
          <g id="Group_530" data-name="Group 530">
            <g id="Group_529" data-name="Group 529" clip-path="url(#clip-path-15)">
              <path id="Path_556" data-name="Path 556" d="M188.332,86.8l-11.417-7.671c-.146-.1-.116-.249.066-.338a.659.659,0,0,1,.592.016l11.417,7.671c.146.1.116.249-.066.338a.659.659,0,0,1-.592-.016" transform="translate(-176.822 -78.725)" fill="#7396ff"/>
            </g>
          </g>
        </g>
        <g id="Group_534" data-name="Group 534" transform="translate(144.96 68.626)" opacity="0.32">
          <g id="Group_533" data-name="Group 533">
            <g id="Group_532" data-name="Group 532" clip-path="url(#clip-path-15)">
              <path id="Path_557" data-name="Path 557" d="M183.75,89.613l-11.417-7.671c-.146-.1-.116-.249.066-.338a.659.659,0,0,1,.592.016l11.417,7.671c.146.1.116.249-.066.338a.659.659,0,0,1-.592-.016" transform="translate(-172.241 -81.541)" fill="#7396ff"/>
            </g>
          </g>
        </g>
        <g id="Group_537" data-name="Group 537" transform="translate(141.103 70.996)" opacity="0.32">
          <g id="Group_536" data-name="Group 536">
            <g id="Group_535" data-name="Group 535" clip-path="url(#clip-path-17)">
              <path id="Path_558" data-name="Path 558" d="M179.169,92.429l-11.417-7.671c-.146-.1-.116-.249.066-.338a.659.659,0,0,1,.592.016l11.417,7.671c.146.1.116.249-.066.338a.659.659,0,0,1-.592-.016" transform="translate(-167.659 -84.357)" fill="#7396ff"/>
            </g>
          </g>
        </g>
        <g id="Group_540" data-name="Group 540" transform="translate(137.138 74.301)" opacity="0.32">
          <g id="Group_539" data-name="Group 539">
            <g id="Group_538" data-name="Group 538" clip-path="url(#clip-path-18)">
              <path id="Path_559" data-name="Path 559" d="M174.456,96.356l-11.417-7.671c-.146-.1-.116-.249.066-.338a.659.659,0,0,1,.592.016l11.417,7.671c.146.1.116.249-.066.338a.659.659,0,0,1-.592-.016" transform="translate(-162.947 -88.284)" fill="#7396ff"/>
            </g>
          </g>
        </g>
        <g id="Group_543" data-name="Group 543" transform="translate(133.281 76.671)" opacity="0.32">
          <g id="Group_542" data-name="Group 542">
            <g id="Group_541" data-name="Group 541" clip-path="url(#clip-path-19)">
              <path id="Path_560" data-name="Path 560" d="M169.875,99.172,158.458,91.5c-.146-.1-.116-.249.066-.338a.659.659,0,0,1,.592.016l11.417,7.671c.146.1.116.249-.066.338a.659.659,0,0,1-.592-.016" transform="translate(-158.365 -91.1)" fill="#7396ff"/>
            </g>
          </g>
        </g>
        <g id="Group_546" data-name="Group 546" transform="translate(129.426 79.041)" opacity="0.32">
          <g id="Group_545" data-name="Group 545">
            <g id="Group_544" data-name="Group 544" clip-path="url(#clip-path-18)">
              <path id="Path_561" data-name="Path 561" d="M165.294,101.988l-11.418-7.671c-.146-.1-.116-.249.066-.338a.659.659,0,0,1,.592.016l11.417,7.671c.146.1.116.249-.066.338a.657.657,0,0,1-.591-.016" transform="translate(-153.784 -93.916)" fill="#7396ff"/>
            </g>
          </g>
        </g>
        <path id="Path_562" data-name="Path 562" d="M23.485,146.71c-3.6-1.281,13.474-45.742,17.744-79.865l60.625,28.637c-5.578,29.53-6.142,10.491-3.657,45.689-32.022,47-60.746,33.692-74.712,5.538" transform="translate(-3.641 -10.588)" fill="#ffc248"/>
        <path id="Path_563" data-name="Path 563" d="M47.846,58.523c-3.817,4.127-3.487,6.551-3.951,12.41-.454,5.727.605,10.186,6.007,11.993l53.834,18S118.792,80,101.119,72.4a66.2,66.2,0,0,1-10.656-5.863C72.286,64.4,70.269,53.676,70.269,53.676c-8.569-3.255-15.9-2.209-22.424,4.847" transform="translate(-6.938 -8.222)" fill="#ffc248"/>
        <path id="Path_564" data-name="Path 564" d="M9.1,162.888l-8.86-57.2c-1.581-8.631,4.871-11.5,13.972-6.222l36.4,21.12a39.245,39.245,0,0,1,15.565,17.776l15.363,37.892c4.4,10.863-5.1,21.553-14.3,16.077Z" transform="translate(0 -15.335)" fill="#173891"/>
        <path id="Path_565" data-name="Path 565" d="M76.472,207.429,56.048,144.069c-4.19-10.336-20.485-17.84-30.364-23.572L0,105.592c.04.407.093.826.173,1.262L8.9,163.171a21.454,21.454,0,0,0,1.216,5.157s.44,2.767,7.162,6.35l53.945,32.061c2.073,1.359,4.739,1.13,5.251.691" transform="translate(0 -16.725)" fill="#173891"/>
        <path id="Path_566" data-name="Path 566" d="M93.771,44.814c-3.231,7.9-9.545,9.532-14.1,3.647S74.035,31.4,77.266,23.5s9.545-9.532,14.1-3.647,5.634,17.06,2.4,24.96" transform="translate(-11.943 -2.585)" fill="#ff8066"/>
        <path id="Path_567" data-name="Path 567" d="M103.8,42.922c-3.231,7.9-12.3,9.895-16.853,4.009s-5.634-17.06-2.4-24.96,9.546-9.532,14.1-3.647,8.384,16.7,5.153,24.6" transform="translate(-13.096 -2.343)" fill="#ffc2b0"/>
        <path id="Path_568" data-name="Path 568" d="M82.986,60.865h0c-2.881-.981-6.351-1.162-5.369-4.043l4.233-11.9a5.549,5.549,0,0,1,7.021-3.453l.853.29a5.55,5.55,0,0,1,3.453,7.022l-2.3,13.437c-.981,2.881-5.009-.369-7.89-1.351" transform="translate(-12.267 -6.521)" fill="#ffc2b0"/>
        <path id="Path_569" data-name="Path 569" d="M72.258,40.623s.045,7.78,11.129,7.434C91.338,47.81,90.449,34.82,98.418,34.4c8.765-.464,6.874-9.916,3.927-14.37s-7.585-8.642-14.785-6.363-17.773.942-15.3,26.957" transform="translate(-11.387 -2.063)" fill="#754d56"/>
        <path id="Path_570" data-name="Path 570" d="M101.511,42.707a3.758,3.758,0,1,1-2.055-4.9,3.757,3.757,0,0,1,2.055,4.9" transform="translate(-14.932 -5.944)" fill="#ffc2b0"/>
        <path id="Path_571" data-name="Path 571" d="M97.6,68.208c-14.45-2.875-24.784,5.54-26.053-15.555,0,0,3.855-.858,5.071,1.261,2.134,3.722,4.046,7.443,10.061,7.4,3.114-.022,7.1-.167,8.009,1.364Z" transform="translate(-11.333 -8.313)" fill="#fff"/>
        <path id="Path_572" data-name="Path 572" d="M131.345,118.719c4.43,2.4,8.24,3.462,12.21,2.808,5.173-.851,18.961-11.934,22.3-16.455,1.307-1.771-3.825-7.227-5.717-6.183-4.519,2.493-16.435,11.176-21.134,12.1a47.519,47.519,0,0,1-5.8-1.221c-.465-.261-7.479,5.9-1.853,8.955" transform="translate(-20.459 -15.642)" fill="#ffc2b0"/>
        <path id="Path_573" data-name="Path 573" d="M174.921,97.861l-2.079,3.85a4.247,4.247,0,0,1-5.738,1.715l-.8-.433a4.247,4.247,0,0,1-1.715-5.739l2.079-3.85A4.248,4.248,0,0,1,172.4,91.69l.8.433a4.247,4.247,0,0,1,1.715,5.739" transform="translate(-25.989 -14.443)" fill="#ffc2b0"/>
        <path id="Path_574" data-name="Path 574" d="M100.485,94.761,122.4,117.788c7.351,5.385,19.858-10.561,14.158-15.495L114.535,79.242c-3.658-3.14-8.6-3.123-11.431.038-2.95,3.295-6.028,11.727-2.619,15.481" transform="translate(-15.679 -12.18)" fill="#ffc248"/>
        <path id="Path_575" data-name="Path 575" d="M125.517,114.36c4.5-1.473,9.075-3.4,11.191-10.694" transform="translate(-19.881 -16.42)" fill="#ffc248"/>
        <g id="Group_549" data-name="Group 549" transform="translate(169.052 99.398)" opacity="0.39" style="mix-blend-mode: multiply;isolation: isolate">
          <g id="Group_548" data-name="Group 548">
            <g id="Group_547" data-name="Group 547" clip-path="url(#clip-path-21)">
              <path id="Path_576" data-name="Path 576" d="M269.941,134.193l-27.869-16.02a.513.513,0,0,0-.514,0L203.434,140.28a.56.56,0,0,0-.077.061l-2.232,1.294a.515.515,0,0,0,0,.891L229,158.546a.515.515,0,0,0,.514,0l38.123-22.107a.5.5,0,0,0,.077-.06l2.232-1.294a.515.515,0,0,0,0-.891" transform="translate(-200.868 -118.105)" fill="#a7bcf5"/>
            </g>
          </g>
        </g>
        <path id="Path_577" data-name="Path 577" d="M265.674,133.857l-.045-.026.045-.026a.515.515,0,0,0,0-.891L237.8,116.893a.514.514,0,0,0-.515,0L199.166,139a.506.506,0,0,0-.242.33h-.014v.118l0,1.114v.008a.715.715,0,0,0,.258.615l27.869,16.241a.516.516,0,0,0,.515,0l38.122-22.677a.515.515,0,0,0,0-.891" transform="translate(-31.505 -18.504)" fill="#448bd4"/>
        <path id="Path_578" data-name="Path 578" d="M227.925,158.983l-26.3-14.6-.016-8.52,26.434,15.431Z" transform="translate(-31.933 -21.52)" fill="#fff"/>
        <line id="Line_1" data-name="Line 1" x2="25.996" y2="14.797" transform="translate(169.793 119.809)" fill="none" stroke="#baced8" stroke-width="0.328"/>
        <line id="Line_2" data-name="Line 2" x2="26.387" y2="14.756" transform="translate(169.789 117.323)" fill="none" stroke="#baced8" stroke-width="0.328"/>
        <line id="Line_3" data-name="Line 3" x2="25.996" y2="14.797" transform="translate(169.797 121.466)" fill="none" stroke="#baced8" stroke-width="0.328"/>
        <path id="Path_579" data-name="Path 579" d="M232.857,157.674c15.428-8.544,32.262-18.336,38.434-21.782l0-8.295-38.446,21.7Z" transform="translate(-36.88 -20.21)" fill="#448bd4"/>
        <path id="Path_580" data-name="Path 580" d="M265.658,125.076l-27.869-16.02a.514.514,0,0,0-.515,0L199.608,130.9v-.232l-.715,0,0,.856h.011a.507.507,0,0,0,.247.53l27.869,16.02a.513.513,0,0,0,.514,0l38.123-22.106a.515.515,0,0,0,0-.891" transform="translate(-31.503 -17.263)" fill="#448bd4"/>
        <path id="Path_581" data-name="Path 581" d="M227.02,146.953l-27.868-16.02a.514.514,0,0,1,0-.891l38.122-22.107a.516.516,0,0,1,.515,0l27.868,16.021a.515.515,0,0,1,0,.891l-38.123,22.106a.515.515,0,0,1-.514,0" transform="translate(-31.503 -17.085)" fill="#70b8ff"/>
        <path id="Path_582" data-name="Path 582" d="M247.119,129.809l-11.65-6.7c-.507-.291-.444-.8.14-1.141l5.359-3.107a2.2,2.2,0,0,1,1.976-.085l11.65,6.7c.507.292.444.8-.14,1.141l-5.359,3.107a2.2,2.2,0,0,1-1.976.086" transform="translate(-37.242 -18.782)" fill="#fff"/>
        <path id="Path_583" data-name="Path 583" d="M251.569,126.243l-9.37-5.409c-.272-.157-.237-.433.077-.614a1.183,1.183,0,0,1,1.063-.044l9.369,5.409c.272.157.237.433-.077.614a1.186,1.186,0,0,1-1.063.044" transform="translate(-38.333 -19.018)" fill="#f1a32f"/>
        <path id="Path_584" data-name="Path 584" d="M248.4,128.353l-9.369-5.409c-.272-.157-.237-.433.077-.614a1.185,1.185,0,0,1,1.064-.044l9.369,5.409c.272.157.237.433-.077.614a1.188,1.188,0,0,1-1.064.044" transform="translate(-37.832 -19.352)" fill="#f1a32f"/>
        <path id="Path_585" data-name="Path 585" d="M198.909,126.3l38.4-22.578-.013-7.538-38.407,21.6Z" transform="translate(-31.503 -15.234)" fill="#ce3a77"/>
        <path id="Path_586" data-name="Path 586" d="M227.039,144.529,199.17,128.288a.878.878,0,0,1,0-1.241l38.123-22.106a.516.516,0,0,1,.515,0l27.868,16.02a.515.515,0,0,1,0,.891l-38.122,22.677a.516.516,0,0,1-.515,0" transform="translate(-31.506 -16.611)" fill="#dd4078"/>
        <rect id="Rectangle_316" data-name="Rectangle 316" width="0.714" height="0.856" transform="translate(167.404 109.824) rotate(-0.136)" fill="#dd4078"/>
        <rect id="Rectangle_317" data-name="Rectangle 317" width="1.142" height="0.999" transform="translate(233.323 103.849) rotate(-0.127)" fill="#dd4078"/>
        <path id="Path_587" data-name="Path 587" d="M227.037,142.838l-27.868-16.02a.514.514,0,0,1,0-.891l38.122-22.107a.516.516,0,0,1,.515,0l27.868,16.02a.515.515,0,0,1,0,.892l-38.123,22.106a.515.515,0,0,1-.514,0" transform="translate(-31.506 -16.433)" fill="#ce3a77"/>
        <path id="Path_588" data-name="Path 588" d="M227.925,145.91l-26.3-14.6-.016-8.52,26.434,15.431Z" transform="translate(-31.933 -19.449)" fill="#fff"/>
        <line id="Line_4" data-name="Line 4" x2="25.996" y2="14.797" transform="translate(169.793 108.806)" fill="none" stroke="#baced8" stroke-width="0.328"/>
        <line id="Line_5" data-name="Line 5" x2="26.387" y2="14.756" transform="translate(169.789 106.32)" fill="none" stroke="#baced8" stroke-width="0.328"/>
        <line id="Line_6" data-name="Line 6" x2="25.996" y2="14.797" transform="translate(169.797 110.464)" fill="none" stroke="#baced8" stroke-width="0.328"/>
        <path id="Path_589" data-name="Path 589" d="M204.05,131.011s-3.409,2.658-3.611,5.351l2.454,1.308s2.024-4.51,3.457-5.349Z" transform="translate(-31.748 -20.751)" fill="#4974e3"/>
        <path id="Path_590" data-name="Path 590" d="M232.857,144.773l36.635-21.618-.014-7.539L232.841,136.4Z" transform="translate(-36.88 -18.312)" fill="#e1eaf4"/>
        <path id="Path_591" data-name="Path 591" d="M227.022,135l-27.868-16.02a.514.514,0,0,1,0-.891l38.122-22.107a.516.516,0,0,1,.515,0L265.657,112a.515.515,0,0,1,0,.892L227.537,135a.516.516,0,0,1-.515,0" transform="translate(-31.503 -15.192)" fill="#dd4078"/>
        <rect id="Rectangle_318" data-name="Rectangle 318" width="0.714" height="0.856" transform="translate(167.39 102.403) rotate(-0.136)" fill="#dd4078"/>
        <rect id="Rectangle_319" data-name="Rectangle 319" width="1.142" height="0.999" transform="translate(233.309 96.286) rotate(-0.127)" fill="#dd4078"/>
        <path id="Path_592" data-name="Path 592" d="M227.02,133.88l-27.868-16.02a.514.514,0,0,1,0-.891l38.122-22.107a.516.516,0,0,1,.515,0l27.868,16.021a.515.515,0,0,1,0,.891l-38.123,22.106a.515.515,0,0,1-.514,0" transform="translate(-31.503 -15.014)" fill="#ff5c8e"/>
        <line id="Line_7" data-name="Line 7" x1="35.947" y2="20.64" transform="translate(196.175 100.437)" fill="none" stroke="#baced8" stroke-width="0.328"/>
        <line id="Line_8" data-name="Line 8" x1="35.947" y2="20.64" transform="translate(196.179 102.194)" fill="none" stroke="#baced8" stroke-width="0.328"/>
        <line id="Line_9" data-name="Line 9" x1="35.947" y2="20.64" transform="translate(196.182 103.952)" fill="none" stroke="#baced8" stroke-width="0.328"/>
        <path id="Path_593" data-name="Path 593" d="M247.119,116.736l-11.65-6.7c-.507-.291-.444-.8.14-1.141l5.359-3.107a2.2,2.2,0,0,1,1.976-.085l11.65,6.7c.507.292.444.8-.14,1.141L249.1,116.65a2.2,2.2,0,0,1-1.976.086" transform="translate(-37.242 -16.712)" fill="#fff"/>
        <path id="Path_594" data-name="Path 594" d="M268.886,121.175l3.838,2.372-23.977,9.16Z" transform="translate(-39.399 -19.193)" fill="#f1a32f"/>
        <path id="Path_595" data-name="Path 595" d="M251.569,113.17l-9.37-5.409c-.272-.157-.237-.433.077-.614a1.186,1.186,0,0,1,1.063-.044l9.369,5.409c.272.157.237.433-.077.614a1.186,1.186,0,0,1-1.063.044" transform="translate(-38.333 -16.947)" fill="#f1a32f"/>
        <path id="Path_596" data-name="Path 596" d="M248.4,115.28l-9.369-5.409c-.272-.157-.237-.433.077-.614a1.188,1.188,0,0,1,1.064-.044l9.369,5.409c.272.157.237.433-.077.614a1.188,1.188,0,0,1-1.064.044" transform="translate(-37.832 -17.282)" fill="#f1a32f"/>
        <path id="Path_597" data-name="Path 597" d="M94.375,58.022l-1.3-5.54s5.772,2.573,7.936,2.034c0,0-6.356,1.874-6.635,3.506" transform="translate(-14.742 -8.313)" fill="#f09a82"/>
        <path id="Path_598" data-name="Path 598" d="M64.55,11.209l-.315,16.478-1.711.029.162-15.173Z" transform="translate(-9.903 -1.775)" fill="#ffc248"/>
        <path id="Path_599" data-name="Path 599" d="M104.785,11.995l-.428,11.324c-.066,2.744-4.677,9.021-16.447,9.038-10.51.015-16.087-6.932-16.019-9.677L72.319,9.9Z" transform="translate(-11.387 -1.569)" fill="#3b2ad1"/>
        <path id="Path_600" data-name="Path 600" d="M76.35,8.113l-4.062,2.1-.252,10.355L88.06,28.97a3.992,3.992,0,0,0,3.675-.006l12.742-6.735.258-10.6L98.88,8.557Z" transform="translate(-11.41 -1.285)" fill="#1f309c"/>
        <path id="Path_601" data-name="Path 601" d="M60.108,32.123a2.727,2.727,0,1,0,2.673-2.917,2.8,2.8,0,0,0-2.673,2.917" transform="translate(-9.52 -4.626)" fill="#ffc248"/>
        <path id="Path_602" data-name="Path 602" d="M110.488,11.318,87.441.433A4.742,4.742,0,0,0,83.506.422l-20.8,9.659a1.318,1.318,0,0,0-.01,2.492L87.142,24.094a2.149,2.149,0,0,0,1.8,0L110.5,13.8a1.316,1.316,0,0,0-.008-2.483" transform="translate(-9.791 0)" fill="#4f6ee8"/>
        <path id="Path_603" data-name="Path 603" d="M85.75,25.68,62.067,14.274l.015.747a1.535,1.535,0,0,0,.952,1.317L86.448,27.4A4.472,4.472,0,0,0,90.2,27.39l20.116-9.574a1.505,1.505,0,0,0,.907-1.166l.063-1.288L90.365,25.61a5.353,5.353,0,0,1-4.615.07" transform="translate(-9.831 -2.261)" fill="#3b2ad1"/>
      </g>
    </g>
  </g>
</svg>
