<svg xmlns="http://www.w3.org/2000/svg" width="40" height="40" viewBox="0 0 40 40">
  <g id="tiktok" transform="translate(-1387 -2655)">
    <rect id="Rectangle_2581" data-name="Rectangle 2581" width="40" height="40" rx="5" transform="translate(1387 2655)" fill="#fff"/>
    <path id="Icon_simple-tiktok" data-name="Icon simple-tiktok" d="M16.823.026C18.553,0,20.269.013,21.985,0a7.931,7.931,0,0,0,2.31,5.373,9.425,9.425,0,0,0,5.6,2.306v5.193a14.415,14.415,0,0,1-5.544-1.25,16.414,16.414,0,0,1-2.138-1.2c-.013,3.762.013,7.525-.026,11.274A9.689,9.689,0,0,1,20.4,26.775a9.9,9.9,0,0,1-7.8,4.136,9.809,9.809,0,0,1-5.385-1.327A9.7,9.7,0,0,1,2.4,22.227c-.026-.644-.04-1.288-.013-1.92a9.6,9.6,0,0,1,3.406-6.391A9.994,9.994,0,0,1,13.906,11.7c.026,1.907-.053,3.814-.053,5.721a4.717,4.717,0,0,0-3.986.477,4.492,4.492,0,0,0-1.8,2.255,5,5,0,0,0-.185,2.074,4.54,4.54,0,0,0,8.276,1.624,2.932,2.932,0,0,0,.541-1.366c.132-2.306.079-4.6.092-6.906.013-5.193-.013-10.372.026-15.552Z" transform="translate(1390.63 2660)" fill="#0d1d29"/>
  </g>
</svg>
