<svg xmlns="http://www.w3.org/2000/svg" xmlns:xlink="http://www.w3.org/1999/xlink" width="107" height="121" viewBox="0 0 107 121">
  <defs>
    <clipPath id="clip-path">
      <rect id="Rectangle_2576" data-name="Rectangle 2576" width="46.667" height="73.731" fill="none"/>
    </clipPath>
  </defs>
  <g id="up_icn" transform="translate(30 23.295)">
    <rect id="Rectangle_2577" data-name="Rectangle 2577" width="107" height="121" transform="translate(-30 -23.295)" fill="none"/>
    <g id="Group_5981" data-name="Group 5981" transform="translate(0 0.705)" clip-path="url(#clip-path)">
      <path id="Path_5223" data-name="Path 5223" d="M12.387,44.652c-.012-6.17-.045-12.341-.013-18.511,0-.91-.24-1.118-1.124-1.1-2.869.061-5.74.007-8.61.031A2.308,2.308,0,0,1,.167,23.746a2.338,2.338,0,0,1,.8-2.691Q11.242,11.012,21.493.943C22.762-.3,23.9-.322,25.142.924c2.45,2.463,5.011,4.81,7.39,7.349,1.807,1.929,3.824,3.659,5.725,5.5,2.467,2.391,4.9,4.818,7.374,7.2a2.4,2.4,0,0,1,.865,2.774c-.456,1.127-1.462,1.336-2.583,1.325-2.87-.028-5.741.02-8.61-.029-.788-.013-1.018.165-1.013.99.031,5.2,0,10.4-.014,15.6H30.041q-.018-8.925-.035-17.85c0-2.28.738-3.029,3-3.032,1.992,0,3.983,0,6.188,0-.356-.381-.555-.613-.773-.826-4.785-4.694-9.585-9.374-14.344-14.095-.608-.6-.915-.565-1.5.013-4.763,4.717-9.561,9.4-14.346,14.093-.214.21-.41.439-.758.814,2.248,0,4.278-.016,6.308,0,1.741.018,2.86.908,2.863,2.383.014,7.169-.012,14.338-.023,21.507H12.387" transform="translate(0 0)" fill="#00d6d8"/>
      <path id="Path_5224" data-name="Path 5224" d="M57.389,196.34h4.234c.012,1.289.067,2.579.02,3.866-.025.7.183.9.888.892q5.8-.049,11.608,0c.717.007.891-.209.882-.9-.03-2.291.008-4.584.021-6.876h4.236c.011,3.262.046,6.525.023,9.787a2.062,2.062,0,0,1-2.3,2.265q-8.66.028-17.32,0a2.109,2.109,0,0,1-2.319-2.264c-.031-2.258.011-4.516.023-6.775" transform="translate(-45.001 -151.688)" fill="#00bde1"/>
      <path id="Path_5225" data-name="Path 5225" d="M68.051,295.619c-2.8,0-5.594.008-8.39,0-1.636-.006-2.565-.771-2.582-2.093-.019-1.37.944-2.208,2.6-2.208q8.444,0,16.888.025c1.592.005,2.5.728,2.585,1.989a2.122,2.122,0,0,1-2.385,2.282c-2.9.023-5.809.007-8.713.008" transform="translate(-44.784 -228.571)" fill="#00bde1"/>
      <path id="Path_5226" data-name="Path 5226" d="M68.013,326.619c-2.8,0-5.593.008-8.389,0-1.61-.006-2.543-.807-2.535-2.136s.958-2.167,2.529-2.168q8.5,0,16.993.027a2.318,2.318,0,0,1,2.335,1.213,2.008,2.008,0,0,1-.221,2.221,2.421,2.421,0,0,1-2.108.841c-2.868-.007-5.736,0-8.6,0Z" transform="translate(-44.793 -252.89)" fill="#00bde1"/>
      <path id="Path_5227" data-name="Path 5227" d="M68.1,264.614c-2.867,0-5.735.014-8.6-.006-1.514-.011-2.423-.85-2.415-2.151a2.158,2.158,0,0,1,2.434-2.143c3.4-.016,6.81,0,10.215,0,2.33,0,4.659-.014,6.989.013a2.155,2.155,0,0,1,2.409,1.939c.115,1.405-.817,2.33-2.427,2.341-2.867.019-5.734.005-8.6.005" transform="translate(-44.79 -204.24)" fill="#00bde1"/>
    </g>
  </g>
</svg>
