<svg xmlns="http://www.w3.org/2000/svg" width="39" height="31.125" viewBox="0 0 39 31.125">
  <g id="Group_7380" data-name="Group 7380" transform="translate(-660.999 -4335.001)">
    <path id="Path_5593" data-name="Path 5593" d="M35.9,12.873c1.756-.131,3.47.978,3.025,2.894q-1.56,6.778-3.174,13.544a2.237,2.237,0,0,1-2.324,1.807q-15.537.012-31.066,0c-1.828.1-2.4-1.676-2.358-3.219Q0,15.289,0,2.689A2.357,2.357,0,0,1,2.652.01c2.995,0,5.991.02,8.985-.011a2.452,2.452,0,0,1,2.529,1.662C14.8,3.184,15.5,4.675,16.106,6.206a1.275,1.275,0,0,0,1.371.914c5.152-.02,10.3-.012,15.456-.011C36.557,6.823,35.866,10.378,35.9,12.873ZM17.9,29.589h15.08c1.053,0,1.171-.085,1.4-1.077q1.478-6.292,2.946-12.585c.283-1.219.078-1.478-1.147-1.478H6.021c-1.066,0-1.17.078-1.406,1.08q-1.473,6.288-2.94,12.582c-.282,1.208-.069,1.478,1.147,1.478Q10.358,29.592,17.9,29.589ZM1.523,21.427l.137.023c.486-2.064.964-4.131,1.456-6.193C3.561,13.4,4.19,12.92,6.093,12.92c9.188.015,18.379-.03,27.57.012,1.249.085.522-1.513.713-2.263,0-2.035,0-2.035-2-2.035-4.9,0-9.8-.037-14.7.021a2.846,2.846,0,0,1-3.069-2.049c-.51-1.371-1.18-2.693-1.711-4.064A1.381,1.381,0,0,0,11.38,1.516c-2.562.053-5.127.029-7.691.017-2.209-.011-2.166-.12-2.166,2.154C1.537,9.6,1.523,15.513,1.523,21.427Z" transform="translate(660.999 4335.002)" fill="#037ae0"/>
    <path id="Path_5594" data-name="Path 5594" d="M143.535,157.155H138.81c-.816,0-1.042-.229-1.051-1.039.22-1.1-.707-3.9.987-3.868h9.6a.865.865,0,0,1,.982.982C149.507,158.778,149.354,156.793,143.535,157.155Zm-4.225-1.584h8.432v-1.734H139.31Z" transform="translate(544.249 4205.922)" fill="#2680eb"/>
  </g>
</svg>
