<svg id="Group_1067" data-name="Group 1067" xmlns="http://www.w3.org/2000/svg" xmlns:xlink="http://www.w3.org/1999/xlink" width="39" height="40.3" viewBox="0 0 39 40.3">
  <defs>
    <clipPath id="clip-path">
      <rect id="Rectangle_616" data-name="Rectangle 616" width="39" height="40.3" fill="#fff"/>
    </clipPath>
  </defs>
  <path id="Path_1125" data-name="Path 1125" d="M1.742,2.809H37.258V38.782H1.742ZM0,40.3H39V1.291H0Z" fill="#fff"/>
  <g id="Group_1066" data-name="Group 1066">
    <g id="Group_1065" data-name="Group 1065" clip-path="url(#clip-path)">
      <path id="Path_1126" data-name="Path 1126" d="M3.354,3.782a.376.376,0,0,1-.338.4.376.376,0,0,1-.338-.4V.542a.376.376,0,0,1,.338-.4.376.376,0,0,1,.338.4Z" transform="translate(0.803 0.041)" fill="#fff"/>
      <path id="Path_1127" data-name="Path 1127" d="M3.064,4.406a.559.559,0,0,1-.545-.582V.582a.546.546,0,1,1,1.089,0V3.823a.559.559,0,0,1-.545.582m0-4.049c-.047,0-.131.086-.131.226V3.823c0,.139.084.226.131.226s.131-.087.131-.226V.582c0-.14-.084-.226-.131-.226" transform="translate(0.756)" fill="#fff"/>
      <path id="Path_1128" data-name="Path 1128" d="M5.766,3.782a.375.375,0,0,1-.337.4.375.375,0,0,1-.338-.4V.542a.375.375,0,0,1,.338-.4.375.375,0,0,1,.337.4Z" transform="translate(1.527 0.041)" fill="#fff"/>
      <path id="Path_1129" data-name="Path 1129" d="M5.476,4.406a.559.559,0,0,1-.545-.582V.582a.545.545,0,1,1,1.088,0V3.823a.558.558,0,0,1-.543.582m0-4.049c-.047,0-.131.086-.131.226V3.823c0,.139.084.226.131.226s.131-.087.131-.226V.582c0-.14-.086-.226-.131-.226" transform="translate(1.479)" fill="#fff"/>
      <path id="Path_1130" data-name="Path 1130" d="M8.179,3.782a.343.343,0,1,1-.676,0V.542a.343.343,0,1,1,.676,0Z" transform="translate(2.251 0.041)" fill="#fff"/>
      <path id="Path_1131" data-name="Path 1131" d="M7.889,4.406a.559.559,0,0,1-.545-.582V.582a.546.546,0,1,1,1.089,0V3.823a.559.559,0,0,1-.545.582m0-4.049c-.047,0-.131.086-.131.226V3.823c0,.139.085.226.131.226s.131-.091.131-.226V.582c0-.14-.085-.226-.131-.226" transform="translate(2.203)" fill="#fff"/>
      <path id="Path_1132" data-name="Path 1132" d="M10.591,3.782a.343.343,0,1,1-.676,0V.542a.343.343,0,1,1,.676,0Z" transform="translate(2.974 0.041)" fill="#fff"/>
      <path id="Path_1133" data-name="Path 1133" d="M10.3,4.406a.559.559,0,0,1-.545-.582V.582a.545.545,0,1,1,1.088,0V3.823a.558.558,0,0,1-.543.582m0-4.049c-.047,0-.133.086-.133.226V3.823c0,.139.086.226.133.226s.131-.087.131-.226V.582c0-.14-.086-.226-.131-.226" transform="translate(2.927)" fill="#fff"/>
      <path id="Path_1134" data-name="Path 1134" d="M13,3.782a.343.343,0,1,1-.675,0V.542a.343.343,0,1,1,.675,0Z" transform="translate(3.698 0.041)" fill="#fff"/>
      <path id="Path_1135" data-name="Path 1135" d="M12.712,4.406a.558.558,0,0,1-.543-.582V.582a.545.545,0,1,1,1.088,0V3.823a.559.559,0,0,1-.545.582m0-4.049c-.047,0-.131.086-.131.226V3.823c0,.139.084.226.131.226s.131-.091.131-.226V.582c0-.14-.084-.226-.131-.226" transform="translate(3.651)" fill="#fff"/>
      <path id="Path_1136" data-name="Path 1136" d="M15.416,3.782a.343.343,0,1,1-.676,0V.542a.343.343,0,1,1,.676,0Z" transform="translate(4.422 0.041)" fill="#fff"/>
      <path id="Path_1137" data-name="Path 1137" d="M15.126,4.406a.559.559,0,0,1-.545-.582V.582a.546.546,0,1,1,1.089,0V3.823a.559.559,0,0,1-.545.582m0-4.049c-.047,0-.131.086-.131.226V3.823c0,.139.084.226.131.226s.131-.087.131-.226V.582c0-.14-.085-.226-.131-.226" transform="translate(4.374)" fill="#fff"/>
      <path id="Path_1138" data-name="Path 1138" d="M17.828,3.782a.343.343,0,1,1-.675,0V.542a.343.343,0,1,1,.675,0Z" transform="translate(5.146 0.041)" fill="#fff"/>
      <path id="Path_1139" data-name="Path 1139" d="M17.539,4.406a.559.559,0,0,1-.545-.582V.582a.545.545,0,1,1,1.088,0V3.823a.558.558,0,0,1-.543.582m0-4.049c-.047,0-.131.086-.131.226V3.823c0,.139.084.226.131.226s.131-.087.131-.226V.582c0-.14-.086-.226-.131-.226" transform="translate(5.098)" fill="#fff"/>
      <path id="Path_1140" data-name="Path 1140" d="M20.241,3.782a.343.343,0,1,1-.676,0V.542a.343.343,0,1,1,.676,0Z" transform="translate(5.87 0.041)" fill="#fff"/>
      <path id="Path_1141" data-name="Path 1141" d="M19.95,4.406a.558.558,0,0,1-.543-.582V.582a.545.545,0,1,1,1.088,0V3.823a.559.559,0,0,1-.545.582m0-4.049c-.047,0-.131.086-.131.226V3.823c0,.139.084.226.131.226s.131-.087.131-.226V.582c0-.14-.084-.226-.131-.226" transform="translate(5.822)" fill="#fff"/>
      <path id="Path_1142" data-name="Path 1142" d="M22.654,3.782a.343.343,0,1,1-.676,0V.542a.343.343,0,1,1,.676,0Z" transform="translate(6.593 0.041)" fill="#fff"/>
      <path id="Path_1143" data-name="Path 1143" d="M22.363,4.406a.559.559,0,0,1-.545-.582V.582a.546.546,0,1,1,1.089,0V3.823a.559.559,0,0,1-.545.582m0-4.049c-.047,0-.131.086-.131.226V3.823c0,.139.085.226.131.226s.131-.087.131-.226V.582c0-.14-.084-.226-.131-.226" transform="translate(6.545)" fill="#fff"/>
      <path id="Path_1144" data-name="Path 1144" d="M25.066,3.782a.343.343,0,1,1-.676,0V.542a.343.343,0,1,1,.676,0Z" transform="translate(7.317 0.041)" fill="#fff"/>
      <path id="Path_1145" data-name="Path 1145" d="M24.776,4.406a.559.559,0,0,1-.545-.582V.582a.546.546,0,1,1,1.089,0V3.823a.559.559,0,0,1-.545.582m0-4.049c-.047,0-.131.086-.131.226V3.823c0,.139.085.226.131.226s.131-.087.131-.226V.582c0-.14-.084-.226-.131-.226" transform="translate(7.269)" fill="#fff"/>
      <path id="Path_1146" data-name="Path 1146" d="M27.478,3.782a.343.343,0,1,1-.676,0V.542a.343.343,0,1,1,.676,0Z" transform="translate(8.041 0.041)" fill="#fff"/>
      <path id="Path_1147" data-name="Path 1147" d="M27.189,4.406a.559.559,0,0,1-.545-.582V.582a.545.545,0,1,1,1.088,0V3.823a.558.558,0,0,1-.543.582m0-4.049c-.052,0-.131.091-.131.226V3.823c0,.135.079.226.131.226s.13-.087.13-.226V.582c0-.14-.084-.226-.13-.226" transform="translate(7.993)" fill="#fff"/>
      <rect id="Rectangle_611" data-name="Rectangle 611" width="23.187" height="0.902" transform="translate(4.658 9.589)" fill="#fff"/>
      <rect id="Rectangle_612" data-name="Rectangle 612" width="23.187" height="0.902" transform="translate(4.658 15.128)" fill="#fff"/>
      <rect id="Rectangle_613" data-name="Rectangle 613" width="23.187" height="0.902" transform="translate(4.658 20.666)" fill="#fff"/>
      <rect id="Rectangle_614" data-name="Rectangle 614" width="23.187" height="0.902" transform="translate(4.658 26.205)" fill="#fff"/>
      <rect id="Rectangle_615" data-name="Rectangle 615" width="23.187" height="0.902" transform="translate(4.658 31.743)" fill="#fff"/>
      <path id="Path_1148" data-name="Path 1148" d="M28.175,6.06A19.058,19.058,0,0,0,26.91,7.521a17.8,17.8,0,0,0-1.087,1.548c-.023.039-.055.094-.091.164a.525.525,0,0,1-.482.317.555.555,0,0,1-.218-.036.423.423,0,0,1-.16-.127.945.945,0,0,1-.112-.2,3.568,3.568,0,0,1-.122-.369.366.366,0,0,1-.01-.038,1.783,1.783,0,0,1-.081-.339.318.318,0,0,1,.173-.255.61.61,0,0,1,.343-.116.124.124,0,0,1,.088.03.434.434,0,0,1,.078.131c.018.04.039.1.065.165.06.157.109.235.149.235a2.224,2.224,0,0,0,.411-.536c.23-.341.428-.625.593-.857.23-.324.407-.559.528-.7A2.205,2.205,0,0,1,27.3,6.2a.979.979,0,0,1,.329-.155,2.6,2.6,0,0,1,.508-.075Z" transform="translate(7.364 1.792)" fill="#fff"/>
      <path id="Path_1149" data-name="Path 1149" d="M25.27,9.644a.625.625,0,0,1-.257-.045.5.5,0,0,1-.191-.151.949.949,0,0,1-.123-.221,3.881,3.881,0,0,1-.125-.378l-.012-.039a1.52,1.52,0,0,1-.082-.355.39.39,0,0,1,.207-.315.714.714,0,0,1,.4-.131.22.22,0,0,1,.151.053.461.461,0,0,1,.1.156c.018.042.04.1.066.17a1.07,1.07,0,0,0,.068.149c.047-.055.143-.181.335-.465.226-.335.425-.625.593-.859.231-.324.41-.563.532-.707a2.386,2.386,0,0,1,.339-.341A1.058,1.058,0,0,1,27.623,6a2.722,2.722,0,0,1,.529-.079l.065,0,.077.179-.031.034A18.989,18.989,0,0,0,27,7.581,18.127,18.127,0,0,0,25.92,9.123c-.023.038-.052.091-.088.159a.61.61,0,0,1-.562.363m-.187-1.486a.53.53,0,0,0-.29.1c-.094.064-.139.127-.139.2a1.614,1.614,0,0,0,.078.321l.009.033c.048.165.088.287.121.368a.875.875,0,0,0,.1.187.339.339,0,0,0,.125.1.465.465,0,0,0,.181.029.441.441,0,0,0,.4-.274c.038-.07.069-.127.094-.166A17.956,17.956,0,0,1,26.858,7.5c.382-.489.8-.967,1.23-1.424a2.153,2.153,0,0,0-.41.066.857.857,0,0,0-.3.139,2.049,2.049,0,0,0-.315.316c-.118.142-.3.376-.524.7-.166.233-.365.52-.591.855-.385.572-.425.572-.486.572-.091,0-.152-.074-.231-.286-.026-.069-.047-.123-.064-.162a.363.363,0,0,0-.06-.105.033.033,0,0,0-.026-.008" transform="translate(7.344 1.774)" fill="#fff"/>
      <path id="Path_1150" data-name="Path 1150" d="M28.175,10.185a19.31,19.31,0,0,0-1.265,1.461,17.8,17.8,0,0,0-1.087,1.548c-.023.039-.055.094-.091.164a.525.525,0,0,1-.482.317.555.555,0,0,1-.218-.036.423.423,0,0,1-.16-.127.915.915,0,0,1-.112-.2,3.568,3.568,0,0,1-.122-.369c0-.01-.007-.022-.01-.036a1.787,1.787,0,0,1-.081-.341.32.32,0,0,1,.173-.255.62.62,0,0,1,.343-.116.13.13,0,0,1,.088.03.453.453,0,0,1,.078.131c.018.04.039.1.065.166.06.156.109.234.149.234a2.224,2.224,0,0,0,.411-.536q.345-.509.593-.857c.23-.324.407-.558.528-.7a2.161,2.161,0,0,1,.326-.329.954.954,0,0,1,.329-.153,2.493,2.493,0,0,1,.508-.077Z" transform="translate(7.364 3.03)" fill="#fff"/>
      <path id="Path_1151" data-name="Path 1151" d="M25.27,13.77a.656.656,0,0,1-.257-.046.5.5,0,0,1-.191-.151.953.953,0,0,1-.123-.222,3.948,3.948,0,0,1-.125-.377l-.012-.039a1.535,1.535,0,0,1-.082-.355.39.39,0,0,1,.207-.315.714.714,0,0,1,.4-.131.224.224,0,0,1,.152.053.469.469,0,0,1,.1.156c.018.042.04.1.066.169a.971.971,0,0,0,.068.151c.047-.055.143-.181.335-.465.23-.341.426-.628.593-.859.23-.324.41-.562.532-.707a2.257,2.257,0,0,1,.339-.341,1.083,1.083,0,0,1,.359-.169,2.723,2.723,0,0,1,.529-.079l.065,0,.077.179-.031.032c-.446.467-.87.956-1.261,1.456a17.722,17.722,0,0,0-1.082,1.542c-.023.038-.052.091-.088.159a.612.612,0,0,1-.562.363m-.187-1.486a.53.53,0,0,0-.29.1c-.094.064-.139.127-.139.2a1.614,1.614,0,0,0,.078.321l.009.032a3.466,3.466,0,0,0,.121.368.875.875,0,0,0,.1.187.339.339,0,0,0,.125.1.47.47,0,0,0,.181.029.441.441,0,0,0,.4-.274q.057-.107.094-.168a18.225,18.225,0,0,1,1.091-1.555c.382-.489.8-.967,1.23-1.424a2.153,2.153,0,0,0-.41.066.88.88,0,0,0-.3.138,2.192,2.192,0,0,0-.315.317c-.12.143-.3.377-.524.7-.165.23-.363.516-.591.855-.385.572-.425.572-.486.572-.091,0-.152-.074-.231-.286-.026-.069-.048-.123-.065-.164a.316.316,0,0,0-.058-.1.037.037,0,0,0-.026-.008" transform="translate(7.344 3.012)" fill="#fff"/>
      <path id="Path_1152" data-name="Path 1152" d="M28.175,18.437A19.309,19.309,0,0,0,26.91,19.9a17.8,17.8,0,0,0-1.087,1.548c-.023.039-.055.094-.091.164a.525.525,0,0,1-.482.317.555.555,0,0,1-.218-.036.423.423,0,0,1-.16-.127.945.945,0,0,1-.112-.2,3.569,3.569,0,0,1-.122-.369.366.366,0,0,1-.01-.038,1.761,1.761,0,0,1-.081-.339.318.318,0,0,1,.173-.255.61.61,0,0,1,.343-.116.13.13,0,0,1,.088.03.434.434,0,0,1,.078.131c.018.04.039.1.065.166.06.156.109.234.149.234a2.224,2.224,0,0,0,.411-.536q.345-.509.593-.857c.23-.324.407-.559.528-.7a2.223,2.223,0,0,1,.326-.329.979.979,0,0,1,.329-.155,2.6,2.6,0,0,1,.508-.075Z" transform="translate(7.364 5.505)" fill="#fff"/>
      <path id="Path_1153" data-name="Path 1153" d="M25.27,22.02a.653.653,0,0,1-.257-.044.5.5,0,0,1-.191-.151A.933.933,0,0,1,24.7,21.6a3.833,3.833,0,0,1-.125-.377l-.012-.04a1.533,1.533,0,0,1-.082-.354.39.39,0,0,1,.207-.315.711.711,0,0,1,.4-.131.224.224,0,0,1,.152.053.469.469,0,0,1,.1.156c.018.042.04.1.066.169a1.036,1.036,0,0,0,.068.151c.047-.055.143-.181.335-.465.23-.341.426-.627.593-.859.231-.325.41-.563.532-.707a2.32,2.32,0,0,1,.339-.341,1.058,1.058,0,0,1,.359-.169,2.723,2.723,0,0,1,.529-.079l.065,0,.077.179-.031.032c-.446.467-.87.956-1.261,1.456A17.723,17.723,0,0,0,25.92,21.5c-.023.038-.052.091-.088.159a.609.609,0,0,1-.562.361m-.187-1.485a.527.527,0,0,0-.29.1c-.094.064-.139.127-.139.2a1.638,1.638,0,0,0,.078.321l.009.033c.048.165.088.287.121.368a.908.908,0,0,0,.1.187.345.345,0,0,0,.126.1.458.458,0,0,0,.179.029.441.441,0,0,0,.4-.274q.057-.107.094-.168a18.226,18.226,0,0,1,1.091-1.555c.382-.489.8-.967,1.23-1.424a2.153,2.153,0,0,0-.41.066.88.88,0,0,0-.3.138,2.127,2.127,0,0,0-.315.317c-.118.142-.3.376-.524.7-.165.23-.363.516-.591.855-.385.572-.425.572-.486.572-.091,0-.152-.074-.231-.286-.026-.069-.048-.124-.065-.164a.316.316,0,0,0-.058-.1.037.037,0,0,0-.026-.008" transform="translate(7.344 5.487)" fill="#fff"/>
      <path id="Path_1154" data-name="Path 1154" d="M28.175,22.562a19.059,19.059,0,0,0-1.265,1.461,17.8,17.8,0,0,0-1.087,1.548c-.023.039-.055.094-.091.164a.525.525,0,0,1-.482.317.555.555,0,0,1-.218-.036.423.423,0,0,1-.16-.127.945.945,0,0,1-.112-.2,3.569,3.569,0,0,1-.122-.369c0-.01-.007-.022-.01-.036a1.81,1.81,0,0,1-.081-.341.318.318,0,0,1,.173-.255.61.61,0,0,1,.343-.116.13.13,0,0,1,.088.03.434.434,0,0,1,.078.131c.018.04.039.1.065.166.06.156.109.234.149.234a2.224,2.224,0,0,0,.411-.536q.345-.509.593-.857c.23-.324.407-.559.528-.7a2.205,2.205,0,0,1,.326-.328.979.979,0,0,1,.329-.155,2.6,2.6,0,0,1,.508-.075Z" transform="translate(7.364 6.743)" fill="#fff"/>
      <path id="Path_1155" data-name="Path 1155" d="M25.27,26.146a.705.705,0,0,1-.257-.043.538.538,0,0,1-.191-.152.933.933,0,0,1-.123-.222,3.833,3.833,0,0,1-.125-.377l-.012-.042a1.5,1.5,0,0,1-.082-.352.392.392,0,0,1,.207-.316.719.719,0,0,1,.4-.13.224.224,0,0,1,.152.053.474.474,0,0,1,.1.155c.018.042.04.1.066.17a1.036,1.036,0,0,0,.068.151c.047-.056.143-.181.335-.467.23-.339.426-.625.593-.858.231-.325.41-.563.532-.707a2.476,2.476,0,0,1,.339-.342,1.057,1.057,0,0,1,.359-.168,2.815,2.815,0,0,1,.529-.081l.065,0,.077.179-.031.032A19.259,19.259,0,0,0,27,24.084a17.923,17.923,0,0,0-1.082,1.542c-.023.038-.052.091-.088.159a.609.609,0,0,1-.562.361m-.187-1.486a.519.519,0,0,0-.29.1c-.094.064-.139.127-.139.2a1.637,1.637,0,0,0,.078.321l.009.031c.048.166.088.289.121.368a.875.875,0,0,0,.1.187.324.324,0,0,0,.126.1.486.486,0,0,0,.179.027.439.439,0,0,0,.4-.274c.038-.07.069-.126.094-.166A18.225,18.225,0,0,1,26.858,24c.382-.489.8-.967,1.23-1.425a2.251,2.251,0,0,0-.41.068.857.857,0,0,0-.3.139,2.049,2.049,0,0,0-.315.316c-.118.142-.3.376-.524.7-.165.23-.363.516-.591.855-.385.572-.425.572-.486.572-.091,0-.152-.075-.231-.286-.026-.069-.048-.124-.065-.164a.361.361,0,0,0-.058-.105.045.045,0,0,0-.026-.008" transform="translate(7.344 6.725)" fill="#fff"/>
      <path id="Path_1156" data-name="Path 1156" d="M28.175,14.311a19.309,19.309,0,0,0-1.265,1.461,17.8,17.8,0,0,0-1.087,1.548c-.023.039-.055.094-.091.164a.525.525,0,0,1-.482.317.555.555,0,0,1-.218-.036.423.423,0,0,1-.16-.127.945.945,0,0,1-.112-.2,3.569,3.569,0,0,1-.122-.369c0-.01-.007-.022-.01-.036a1.806,1.806,0,0,1-.081-.339.32.32,0,0,1,.173-.256.62.62,0,0,1,.343-.116.13.13,0,0,1,.088.03.434.434,0,0,1,.078.131c.018.04.039.1.065.166.06.156.109.234.149.234a2.224,2.224,0,0,0,.411-.536q.345-.509.593-.857c.23-.324.407-.558.528-.7a2.161,2.161,0,0,1,.326-.329.979.979,0,0,1,.329-.155,2.6,2.6,0,0,1,.508-.075Z" transform="translate(7.364 4.267)" fill="#fff"/>
      <path id="Path_1157" data-name="Path 1157" d="M25.27,17.9a.656.656,0,0,1-.257-.046.5.5,0,0,1-.191-.151.969.969,0,0,1-.123-.221c-.035-.086-.075-.209-.125-.378l-.012-.039a1.52,1.52,0,0,1-.082-.355.39.39,0,0,1,.207-.315.714.714,0,0,1,.4-.131.224.224,0,0,1,.152.053.469.469,0,0,1,.1.156c.018.042.04.1.066.17a1.071,1.071,0,0,0,.068.149c.047-.055.143-.181.335-.465.23-.341.426-.627.593-.859.23-.324.41-.562.532-.707a2.257,2.257,0,0,1,.339-.341,1.083,1.083,0,0,1,.359-.169,2.723,2.723,0,0,1,.529-.079l.065,0,.077.179-.031.032c-.446.467-.87.955-1.261,1.456a17.923,17.923,0,0,0-1.082,1.542c-.023.038-.052.091-.088.159a.612.612,0,0,1-.562.363m-.187-1.486a.53.53,0,0,0-.29.1c-.094.064-.139.127-.139.2a1.614,1.614,0,0,0,.078.321l.009.033a3.466,3.466,0,0,0,.121.368.875.875,0,0,0,.1.187.339.339,0,0,0,.125.1.47.47,0,0,0,.181.029.441.441,0,0,0,.4-.274q.057-.107.094-.168a18.226,18.226,0,0,1,1.091-1.555c.382-.487.8-.967,1.23-1.424a2.153,2.153,0,0,0-.41.066.857.857,0,0,0-.3.139,2.109,2.109,0,0,0-.315.316c-.12.143-.3.377-.524.7-.165.23-.363.516-.591.855-.385.572-.425.572-.486.572-.091,0-.152-.074-.231-.286-.026-.069-.048-.124-.065-.164a.316.316,0,0,0-.058-.1.037.037,0,0,0-.026-.008" transform="translate(7.344 4.249)" fill="#fff"/>
    </g>
  </g>
</svg>
