<svg id="account_icn" xmlns="http://www.w3.org/2000/svg" width="36.281" height="33" viewBox="0 0 36.281 33">
  <path id="account_icn-2" data-name="account_icn" d="M27.962,33a.772.772,0,0,1-.756-.787V29.954a1.52,1.52,0,1,0-3.036,0v2.259a.772.772,0,0,1-.757.787H12.831a.772.772,0,0,1-.757-.787V29.954a1.52,1.52,0,1,0-3.036,0v2.259A.772.772,0,0,1,8.282,33H.757A.772.772,0,0,1,0,32.213V.787A.772.772,0,0,1,.757,0H35.524a.772.772,0,0,1,.757.787V32.213a.772.772,0,0,1-.757.787Zm.757-3.046v1.472h6.049V1.574H1.513V31.426H7.525V29.954a3.1,3.1,0,0,1,3.031-3.164,3.1,3.1,0,0,1,3.031,3.164v1.472h9.069V29.954a3.034,3.034,0,1,1,6.062,0ZM5.82,21.9a1.263,1.263,0,0,1-1.233-1.289V18.842a1.3,1.3,0,0,1,.786-1.2c3.211-1.289,4.065-1.908,4.288-2.123v-.169a5.368,5.368,0,0,1-.918-1.777,1.985,1.985,0,0,1-.307-2.347V9.883a3.324,3.324,0,0,1,3.627-3.534,3.291,3.291,0,0,1,3.627,3.534v1.339a1.99,1.99,0,0,1-.309,2.349,5.412,5.412,0,0,1-.917,1.775v.2c.161.139.957.756,4.285,2.093a1.3,1.3,0,0,1,.788,1.2v1.765A1.262,1.262,0,0,1,18.308,21.9ZM9.95,9.883v1.581a.811.811,0,0,1-.17.5.367.367,0,0,0-.077.277.362.362,0,0,0,.138.24.789.789,0,0,1,.293.431,3.715,3.715,0,0,0,.826,1.586.8.8,0,0,1,.216.55v.706a.812.812,0,0,1-.035.233c-.174.583-.71,1.3-5.04,3.051v1.289H18.028V19.035c-4.328-1.752-4.864-2.467-5.04-3.049a.826.826,0,0,1-.034-.235v-.706a.8.8,0,0,1,.215-.55,3.706,3.706,0,0,0,.825-1.586.784.784,0,0,1,.295-.431.353.353,0,0,0,.137-.239.366.366,0,0,0-.078-.279.809.809,0,0,1-.168-.5V9.883c0-1.337-.672-1.96-2.114-1.96C10.661,7.923,9.95,8.583,9.95,9.883ZM21.957,17.24a.787.787,0,0,1,0-1.574h9.02a.787.787,0,0,1,0,1.574Zm0-4.721a.787.787,0,0,1,0-1.573h9.02a.787.787,0,0,1,0,1.573Z" fill="#fff"/>
</svg>
